<svg version="1.1" x="0" y="0" width="100%" height="100%" viewBox="0 0 25497.6 38092.8" xmlns="http://www.w3.org/2000/svg">
  <path d="M 18071.6 18906.8 Q 18071.6 18612.8 18538.4 18956 Q 18784.4 19128.8 18821.6 19128.8 Q 18857.6 19128.8 19460 19410.8 Q 20062.4 19694 20357.6 19767.2 Q 20922.8 19914.8 21216.8 20283.2 Q 21291.2 20406.8 21167.6 20480 Q 20922.8 20676.8 20996 20836.4 Q 21070.4 20996 21364.4 20996 Q 21488 20996 21488 21131.6 Q 21488 21266 21635.6 21364.4 Q 21758 21462.8 21966.8 21942.8 Q 22175.6 22421.6 22175.6 22716.8 Q 22175.6 22766 22224.8 22839.2 Q 22250 22864.4 22175.6 22913.6 Q 22126.4 22937.6 22028 22961.6 Q 21782 23060 21720.8 22974.8 Q 21659.6 22888.4 21242 22888.4 Q 19644.8 22888.4 19227.2 23036 Q 19128.8 23060 18845.6 23097.2 Q 18563.6 23134.4 18416 23171.6 Q 18268.4 23207.6 17739.2 23355.2 Q 17211.2 23502.8 17063.6 23514.8 Q 16916 23528 16252.4 23723.6 Q 14852 24117.2 14336 24239.6 Q 13550 24412.4 13254.8 24436.4 Q 12984.8 24461.6 12984.8 24473.6 Q 12984.8 24485.6 12849.2 24522.8 Q 12713.6 24560 12197.6 24670.4 Q 11681.6 24780.8 11448.8 24804.8 Q 11214.8 24830 10797.2 24903.2 Q 10379.6 24977.6 9998 24830 Q 9617.6 24682.4 9334.4 24522.8 Q 9052.4 24363.2 8794.4 24276.8 Q 8536.4 24190.4 8536.4 24129.2 Q 8536.4 24068 7983.2 23760.8 Q 7430 23453.6 7282.4 23306 Q 7134.8 23158.4 6902 22998.8 Q 6668 22839.2 6668 22766 Q 6668 22691.6 6545.6 22593.2 Q 6471.2 22520 6471.2 22508 Q 6471.2 22494.8 6545.6 22494.8 Q 6693.2 22494.8 6569.6 22372.4 Q 6545.6 22347.2 6520.4 22323.2 Q 6348.8 22126.4 6520.4 22102.4 Q 6668 22077.2 7160 22028 Q 7872.8 21978.8 8044.4 21978.8 Q 8290.4 22004 9052.4 21807.2 Q 10059.2 21561.2 10748 21561.2 Q 10944.8 21561.2 10944.8 21512 Q 10944.8 21413.6 11079.2 21401.6 Q 11214.8 21389.6 11313.2 21438.8 Q 11559.2 21610.4 11632.4 21438.8 Q 11657.6 21413.6 11632.4 21364.4 Q 11608.4 21340.4 11644.4 21303.2 Q 11681.6 21266 11780 21242 Q 11976.8 21192.8 12136.4 21131.6 Q 12296 21070.4 12394.4 21143.6 Q 12492.8 21192.8 12554 21192.8 Q 12615.2 21192.8 12615.2 21131.6 Q 12615.2 21070.4 12591.2 20996 Q 12566 20972 12542 20946.8 Q 12615.2 20996 12750.8 20922.8 Q 12886.4 20848.4 12984.8 20972 Q 13254.8 21192.8 13254.8 20996 Q 13254.8 20897.6 13353.2 20897.6 Q 13451.6 20897.6 13487.6 20799.2 Q 13524.8 20700.8 13648.4 20787.2 Q 13770.8 20873.6 13942.4 20787.2 Q 14115.2 20700.8 14692.4 20590.4 Q 15269.6 20480 15344 20406.8 Q 15417.2 20332.4 15466.4 20381.6 Q 15515.6 20430.8 16203.2 20246 Q 16892 20062.4 17150 20013.2 Q 17408 19964 17530.4 19914.8 Q 17654 19865.6 17924 19865.6 Q 18194 19865.6 18305.6 19792.4 Q 18416 19718 18219.2 19558.4 Q 18022.4 19398.8 18022.4 19337.6 Q 18022.4 19275.2 18219.2 19324.4 L 18416 19349.6 L 18243.2 19178 Q 18071.6 19005.2 18071.6 18906.8  Z M 15318.8 12516.8 Q 15442.4 12370.4 15515.6 12370.4 Q 15588.8 12370.4 15736.4 12516.8 Q 15884 12689.6 16167.2 12788 Q 16449.2 12886.4 16584.8 13008.8 Q 16720.4 13131.2 16941.2 13131.2 Q 17384 13131.2 17530.4 13426.4 Q 17604.8 13500.8 17715.2 13500.8 Q 17825.6 13500.8 17739.2 13562 Q 17654 13623.2 17703.2 13672.4 Q 17850.8 13745.6 17654 13991.6 Q 17530.4 14115.2 17555.6 14213.6 Q 17579.6 14312 17739.2 14336 Q 17900 14360 17985.2 14434.4 Q 18071.6 14507.6 18022.4 14619.2 Q 17973.2 14729.6 18132.8 15011.6 Q 18292.4 15294.8 18416 15294.8 Q 18514.4 15294.8 18587.6 15466.4 Q 18660.8 15638 18563.6 15712.4 Q 18465.2 15785.6 18317.6 15785.6 Q 18170 15785.6 18120.8 15860 Q 18071.6 15933.2 17900 15933.2 Q 17727.2 15933.2 17494.4 16068.8 Q 17260.4 16203.2 17100.8 16203.2 Q 16941.2 16203.2 16707.2 16376 Q 16474.4 16547.6 16314.8 16547.6 Q 16155.2 16547.6 15933.2 16707.2 Q 15712.4 16866.8 15564.8 16866.8 Q 15417.2 16866.8 15208.4 16965.2 Q 14999.6 17063.6 14877.2 17063.6 Q 14753.6 17063.6 14606 17112.8 Q 14066 17408 13672.4 17457.2 Q 13426.4 17481.2 13058 17579.6 Q 12788 17628.8 12664.4 17604.8 Q 12542 17579.6 12124.4 17384 Q 11092.4 16866.8 10944.8 16622 Q 10870.4 16474.4 10600.4 16252.4 Q 10305.2 16056.8 9986 15749.6 Q 9666.8 15442.4 9666.8 15393.2 Q 9666.8 15344 9543.2 15072.8 Q 9322.4 14631.2 9887.6 14631.2 Q 10551.2 14655.2 10797.2 14483.6 Q 10870.4 14409.2 10980.8 14446.4 Q 11092.4 14483.6 11276 14422.4 Q 11460.8 14360 11583.2 14213.6 Q 11657.6 14115.2 11988.8 14016.8 Q 12321.2 13918.4 12591.2 13893.2 Q 12713.6 13893.2 12738.8 13844 Q 12762.8 13794.8 12910.4 13745.6 Q 13008.8 13745.6 13316 13611.2 Q 13623.2 13475.6 13672.4 13426.4 Q 13721.6 13353.2 13906.4 13292 Q 14090 13229.6 14139.2 13254.8 Q 14213.6 13278.8 14667.2 12996.8 Q 15122 12713.6 15318.8 12516.8  Z " fill-rule="nonzero" style="fill:#690707;;fill-opacity:1;"/>
</svg>