<svg version="1.1" x="0" y="0" width="100%" height="100%" viewBox="0 0 670003.2 446873.6" xmlns="http://www.w3.org/2000/svg">
  <path d="M 106507.8 36233 Q 106983.6 34150.4 110181.6 36069.2 Q 111780.6 37192.4 113691.6 37824.2 Q 114331.2 37988 113855.4 38307.8 Q 112256.4 38627.6 113855.4 39423.2 Q 114175.2 39423.2 114331.2 39423.2 Q 115454.4 39743 116094 40382.6 Q 116733.6 41022.2 118566.6 42301.4 Q 120407.4 43580.6 122404.2 45413.6 Q 124401 47254.4 123917.4 48050 Q 122802 50124.8 123917.4 51404 Q 124401 51723.8 123277.8 52847 Q 121203 54758 121203 61785.8 L 121203 64188.2 L 122958 64508 Q 124876.8 64983.8 124876.8 65623.4 Q 124876.8 66263 125274.6 66263 Q 125672.4 66263 125672.4 67144.4 Q 125672.4 68018 126475.8 68337.8 Q 127271.4 68657.6 127669.2 69773 Q 128074.8 70896.2 128714.4 70896.2 Q 129346.2 70896.2 129346.2 71294 Q 129346.2 71691.8 130305.6 71691.8 Q 130945.2 71691.8 131109 71933.6 Q 131265 72175.4 131109 72331.4 Q 130625.4 72815 131187 73454.6 Q 131748.6 74086.4 131506.8 74570 Q 131265 75045.8 132146.4 75607.4 Q 133020 76169 132864 77284.4 Q 132708 77924 132146.4 78165.8 Q 131584.8 78399.8 129190.2 78563.6 Q 127591.2 78563.6 126631.8 79359.2 Q 125672.4 80162.6 125438.4 80162.6 Q 125196.6 80162.6 124237.2 80880.2 Q 123277.8 81597.8 123277.8 81122 Q 123277.8 79998.8 122318.4 81122 Q 121998.6 81278 121678.8 81597.8 Q 121039.2 82713.2 120727.2 89429 Q 120563.4 94857.8 121039.2 95497.4 Q 121522.8 96137 124720.8 95177.6 Q 126631.8 94538 127115.4 94779.8 Q 127591.2 95013.8 127833 94460 Q 128074.8 93898.4 128948.4 93898.4 Q 129829.8 93898.4 131748.6 93017 Q 133659.6 92143.4 134299.2 92143.4 Q 134938.8 92143.4 135258.6 91823.6 Q 135422.4 91340 137255.4 91901.6 Q 139096.2 92463.2 139494 92939 Q 139891.8 93422.6 141171 93422.6 Q 142450.2 93422.6 143487.6 94296.2 Q 144525 95177.6 145406.4 95895.2 Q 146280 96612.8 148518.6 98773.4 Q 150757.2 100926.2 151950.6 101409.8 Q 153151.8 101885.6 153073.8 103320.8 Q 152988 104763.8 153713.4 105317.6 Q 154431 105879.2 154111.2 106994.6 Q 153791.4 107954 153229.8 108117.8 Q 152676 108273.8 150437.4 108273.8 L 147403.2 108117.8 Q 148198.8 107954 147559.2 107478.2 Q 146919.6 106994.6 146280 107798 Q 145960.2 108273.8 142848 108835.4 Q 139735.8 109397 139096.2 109077.2 Q 138776.4 108913.4 138776.4 109397 Q 138776.4 109397 138612.6 109475 Q 138456.6 109553 138136.8 109553 Q 137817 109553 137497.2 109475 Q 137177.4 109397 136381.8 109233.2 L 136062 109233.2 Q 137177.4 109872.8 135102.6 110512.4 Q 134938.8 110512.4 134619 110668.4 Q 132708 110988.2 132544.2 110590.4 Q 132388.2 110192.6 131982.6 110590.4 Q 131584.8 110988.2 130711.2 111308 Q 129829.8 111627.8 130149.6 110988.2 Q 130305.6 110512.4 129666 109872.8 Q 129026.4 109233.2 128550.6 109553 Q 128074.8 109872.8 128550.6 110754.2 Q 129026.4 111627.8 128394.6 111627.8 Q 127755 111627.8 126631.8 111947.6 L 125516.4 112111.4 L 126631.8 111308 Q 127911 110192.6 126951.6 109872.8 Q 126631.8 109709 125992.2 110348.6 Q 125352.6 110832.2 125196.6 110192.6 Q 125032.8 109553 124401 109950.8 Q 123761.4 110348.6 124315.2 110910.2 Q 124876.8 111471.8 124081.2 111947.6 Q 123121.8 112907 122482.2 112111.4 Q 121998.6 111947.6 122318.4 111627.8 Q 122482.2 111308 121998.6 111308 Q 121842.6 111308 121678.8 111308 Q 121203 111471.8 120961.2 112509.2 Q 120727.2 113546.6 120563.4 118335.8 Q 120243.6 125371.4 120087.6 126167 Q 119923.8 126962.6 120883.2 127446.2 Q 121842.6 127922 125516.4 128241.8 Q 129666 128881.4 132864 129677 Q 143565.6 131915.6 152512.2 135433.4 Q 155070.6 136392.8 159859.8 139824.8 Q 164656.8 143256.8 164656.8 144060.2 Q 164656.8 146291 166731.6 147734 Q 167691 148373.6 167371.2 149013.2 Q 167051.4 149645 168244.8 150448.4 Q 169446 151244 169602 153638.6 Q 169765.8 156041 168806.4 156680.6 Q 168010.8 157156.4 168166.8 157476.2 L 165608.4 157000.4 Q 164337 156360.8 164017.2 156197 Q 163533.6 155721.2 162894 155721.2 Q 162254.4 155721.2 160819.2 155081.6 Q 159384 154442 156186 153240.8 Q 152988 152047.4 149875.8 150690.2 Q 146763.6 149333 146443.8 149333 Q 146124 149333 143885.4 148287.8 Q 141646.8 147250.4 141249 147172.4 Q 140851.2 147094.4 140375.4 146930.6 Q 138456.6 145815.2 133823.4 144855.8 Q 132544.2 144536 125914.2 142781 Q 119284.2 141026 119128.2 141026 Q 118808.4 141026 118644.6 158427.8 Q 118324.8 171524 117607.2 172405.4 Q 116889.6 173286.8 116889.6 174246.2 Q 116889.6 175197.8 116413.8 175197.8 Q 115930.2 175197.8 115930.2 177600.2 Q 115930.2 179511.2 115532.4 179994.8 Q 115134.6 180470.6 114011.4 179511.2 Q 113052 179035.4 112896 179113.4 Q 112740 179191.4 112740 180314.6 Q 112740 181593.8 112014.6 183426.8 Q 111297 185267.6 110899.2 184308.2 Q 110501.4 183348.8 110181.6 183348.8 Q 109698 183348.8 108902.4 182389.4 Q 108106.8 181430 108106.8 180790.4 Q 108106.8 180470.6 106429.8 178957.4 Q 104752.8 177436.4 104752.8 176960.6 Q 104752.8 176477 103231.8 174566 Q 101710.8 172647.2 101710.8 171843.8 Q 101710.8 171048.2 100993.2 170806.4 Q 100275.6 170572.4 100275.6 169769 Q 100275.6 168973.4 99636 167210.6 Q 98676.6 165299.6 97319.4 159465.2 Q 95962.2 153638.6 96126 152359.4 L 96282 150916.4 L 98356.8 152679.2 Q 100439.4 154434.2 101391 156353 Q 102350.4 158271.8 103153.8 159067.4 Q 103473.6 159223.4 103707.6 158825.6 Q 103949.4 158435.6 104113.2 156672.8 Q 104269.2 154917.8 104347.2 152203.4 Q 104433 149489 104589 144372.2 L 104908.8 137508.2 L 102350.4 139263.2 Q 99955.8 141182 99316.2 141977.6 Q 96765.6 144052.4 95322.6 144536 Q 93887.4 144855.8 93887.4 145651.4 Q 93887.4 146454.8 89730 148685.6 Q 86859.6 150128.6 86298 150924.2 Q 85736.4 151719.8 85096.8 151719.8 Q 84465 151719.8 83583.6 152523.2 Q 82702.2 153318.8 80869.2 154122.2 Q 79028.4 154917.8 75838.2 156750.8 Q 72640.2 158591.6 70401.6 158591.6 L 68170.8 158747.6 L 68007 157000.4 Q 67211.4 151407.8 68646.6 150924.2 Q 69762 150284.6 69606 149333 Q 69606 148693.4 68966.4 148849.4 Q 68170.8 149333 68170.8 148693.4 Q 68170.8 147734 69122.4 146852.6 Q 70081.8 145971.2 70245.6 145971.2 Q 71041.2 146291 72640.2 145019.6 Q 77749.2 141026 78232.8 141026 Q 78552.6 141026 80151.6 139107.2 Q 83825.4 135433.4 87975 133038.8 Q 88934.4 132399.2 88778.4 131517.8 Q 88614.6 130636.4 90213.6 130160.6 Q 91329 129677 95806.2 125207.6 Q 100275.6 120738.2 100275.6 120098.6 Q 100275.6 119459 98520.6 120418.4 Q 96601.8 121689.8 96601.8 120894.2 Q 96601.8 120574.4 97561.2 120098.6 Q 98520.6 119615 97959 119537 Q 97397.4 119459 96126 120738.2 Q 95322.6 121689.8 93489.6 122735 Q 91648.8 123772.4 91009.2 123772.4 Q 90689.4 123608.6 90049.8 123928.4 Q 86056.2 125371.4 85260.6 124887.8 Q 84940.8 124568 84621 125207.6 Q 83825.4 126486.8 77109.6 124248.2 Q 72804 122813 72164.4 122813 Q 70245.6 122813 65932.2 118819.4 Q 64333.2 117220.4 65128.8 117220.4 Q 65932.2 117220.4 65932.2 117142.4 Q 65932.2 117064.4 65128.8 116580.8 Q 64013.4 115785.2 64013.4 115465.4 Q 64013.4 115145.6 66330 114264.2 Q 68646.6 113390.6 70081.8 113226.8 Q 71361 113070.8 73997.4 112345.4 Q 76633.8 111627.8 77273.4 111308 Q 77749.2 110832.2 79270.2 110512.4 Q 80791.2 110192.6 80791.2 109794.8 Q 80791.2 109397 81586.8 109397 Q 82382.4 109397 82866 108913.4 Q 83341.8 108437.6 84465 108273.8 Q 87179.4 107798 88294.8 106674.8 Q 88934.4 106035.2 89496 106355 Q 90049.8 106674.8 91009.2 105801.2 Q 91968.6 104919.8 93723.6 104444 Q 100759.2 102361.4 102194.4 101721.8 Q 103629.6 101090 105384.6 100770.2 Q 107147.4 100450.4 107147.4 99888.8 Q 107147.4 99327.2 107623.2 95817.2 Q 107943 89585 106344 89741 Q 106024.2 89904.8 105868.2 90060.8 Q 104589 91020.2 101476.8 91503.8 Q 98356.8 91979.6 97561.2 91184 Q 97241.4 90864.2 92452.2 88469.6 Q 88458.6 86231 87655.2 85669.4 Q 86859.6 85115.6 86376 83836.4 Q 86220 82393.4 85736.4 82393.4 Q 85260.6 82393.4 85260.6 81441.8 Q 85260.6 80482.4 84621 80482.4 Q 83981.4 80482.4 83981.4 79679 Q 83981.4 78243.8 87335.4 77604.2 Q 90689.4 77128.4 95486.4 74889.8 Q 102834 71216 103949.4 71052.2 Q 106507.8 70412.6 108582.6 68657.6 Q 110017.8 67542.2 109058.4 56840.6 Q 108582.6 52043.6 108184.8 45335.6 Q 107787 38627.6 106905.6 38066 Q 106024.2 37512.2 106507.8 36233  Z M 142286.4 105559.4 Q 141966.6 105239.6 141568.8 105239.6 Q 141171 105239.6 140929.2 105559.4 Q 140695.2 105879.2 140851.2 106191.2 Q 141171 106511 141412.8 106355 Q 141646.8 106191.2 141966.6 106035.2 Q 142286.4 105879.2 142286.4 105559.4  Z M 140531.4 108913.4 Q 141007.2 108913.4 141568.8 108273.8 Q 142130.4 107634.2 141093 107634.2 Q 140055.6 107634.2 140055.6 108273.8 Q 140055.6 108913.4 140531.4 108913.4  Z M 133503.6 108593.6 Q 133659.6 108273.8 133503.6 108110 Q 133339.8 107954 132864 107954 Q 131265 107954 131265 109069.4 Q 131265 109233.2 131826.6 109311.2 Q 132388.2 109389.2 132942 109147.4 Q 133503.6 108913.4 133503.6 108593.6  Z M 134463 108671.6 Q 134938.8 108273.8 134938.8 108110 Q 134938.8 107954 134463 107954 Q 133979.4 107954 133979.4 108507.8 Q 133979.4 109069.4 134463 108671.6  Z M 298292 31280 Q 298611.8 30000.8 299095.4 29922.8 Q 299571.2 29837 301170.2 30796.4 Q 302769.2 31599.8 303564.8 31599.8 Q 303884.6 31599.8 305639.6 32559.2 Q 307402.4 33510.8 307878.2 33994.4 Q 308034.2 34150.4 310116.8 35749.4 Q 314266.4 38307.8 313626.8 43736.6 Q 313307 46614.8 313626.8 49805 L 313790.6 53322.8 L 315865.4 53962.4 Q 317784.2 54438.2 319937 54680 Q 322097.6 54921.8 323376.8 55959.2 Q 324648.2 56996.6 324812 56840.6 L 325287.8 57316.4 Q 325287.8 57956 325927.4 58673.6 Q 326567 59391.2 326886.8 59235.2 Q 327206.6 59071.4 328166 59633 Q 329125.4 60194.6 328641.8 60748.4 Q 328166 61310 329203.4 62191.4 Q 330240.8 63065 330404.6 64344.2 Q 330724.4 66738.8 334554.2 67862 Q 337908.2 68977.4 335357.6 69453.2 Q 334234.4 69617 333438.8 69936.8 Q 332635.4 70256.6 333360.8 69773 Q 334078.4 69297.2 333672.8 69297.2 Q 333275 69297.2 331917.8 70334.6 Q 330560.6 71372 329203.4 71372 Q 327846.2 71372 327846.2 71613.8 Q 327846.2 71855.6 326325.2 72495.2 Q 324812 73134.8 324812 73446.8 Q 324812 73766.6 327846.2 75685.4 Q 330880.4 77604.2 331917.8 79125.2 Q 332955.2 80638.4 334952 82237.4 Q 336948.8 83836.4 336948.8 85271.6 Q 336948.8 86706.8 336551 87190.4 Q 336153.2 87666.2 335989.4 88789.4 Q 335833.4 89904.8 334234.4 90786.2 Q 332635.4 91659.8 332401.4 92057.6 Q 332159.6 92463.2 331676 92463.2 Q 331200.2 92463.2 329765 94054.4 Q 328322 95653.4 327924.2 95653.4 Q 327526.4 95653.4 325287.8 97408.4 Q 323057 99327.2 324008.6 99491 Q 324492.2 99491 327370.4 98851.4 Q 330240.8 98211.8 336948.8 96932.6 Q 343976.6 95653.4 348609.8 96293 Q 349733 96456.8 350848.4 97408.4 Q 351963.8 98367.8 352127.6 99327.2 Q 352603.4 101246 355005.8 101246 Q 356121.2 101246 356121.2 101885.6 Q 356121.2 102525.2 357556.4 103320.8 Q 358999.4 103960.4 359475.2 104997.8 Q 359951 106035.2 358999.4 106674.8 Q 357556.4 107634.2 358999.4 108593.6 Q 359631.2 109077.2 358196 109077.2 Q 357080.6 109233.2 354522.2 109233.2 Q 345895.4 109389.2 341262.2 110028.8 Q 338711.6 110668.4 334078.4 110988.2 Q 324492.2 111947.6 318260 114342.2 Q 316980.8 114662 316980.8 116424.8 Q 316980.8 118179.8 316341.2 118655.6 Q 315701.6 119139.2 315545.6 124092.2 Q 315225.8 128241.8 315623.6 128803.4 Q 316021.4 129357.2 319539.2 129677 Q 327682.4 130636.4 329281.4 131595.8 Q 331200.2 132719 334874 133038.8 Q 336153.2 133194.8 337112.6 134232.2 Q 338072 135269.6 339031.4 135191.6 Q 339983 135113.6 341823.8 135831.2 Q 343656.8 136548.8 344140.4 136548.8 Q 346215.2 136548.8 352603.4 139505 Q 358999.4 142461.2 360910.4 144216.2 Q 363468.8 146610.8 366986.6 150604.4 Q 370496.6 154598 370496.6 154917.8 Q 370496.6 155401.4 371378 156594.8 Q 372251.6 157796 372657.2 159473 Q 373055 161150 372415.4 161469.8 Q 371300 162429.2 363944.6 159395 Q 362033.6 158435.6 361394 158435.6 Q 360754.4 158435.6 360754.4 157796 Q 360754.4 157312.4 359631.2 156914.6 Q 358515.8 156516.8 358359.8 157156.4 Q 357876.2 157632.2 357634.4 156836.6 Q 357400.4 156041 356760.8 156041 Q 356121.2 156041 353882.6 154917.8 Q 351644 153802.4 351332 153958.4 Q 351012.2 154122.2 350848.4 153482.6 Q 350528.6 153162.8 349093.4 152687 Q 347650.4 152203.4 346535 152203.4 Q 346059.2 152203.4 345419.6 151563.8 Q 344780 150924.2 344382.2 151166 Q 343976.6 151407.8 343976.6 150846.2 Q 343976.6 150284.6 343500.8 150690.2 Q 343025 151088 341262.2 150284.6 Q 339507.2 149489 334398.2 148131.8 Q 329281.4 146774.6 326730.8 146135 Q 322893.2 145019.6 316824.8 143896.4 Q 316824.8 143896.4 316746.8 144614 Q 316661 145331.6 316583 147172.4 Q 316505 149013.2 316505 151961.6 Q 316505 154917.8 316505 158911.4 Q 316505 175525.4 315225.8 179519 Q 314750 180798.2 314586.2 183036.8 Q 313790.6 189425 313151 190220.6 Q 312987.2 190384.4 310756.4 188067.8 Q 308517.8 185751.2 308034.2 185673.2 Q 307558.4 185587.4 305959.4 183114.8 Q 304360.4 180642.2 303806.6 180478.4 Q 303245 180322.4 303245 179441 Q 303245 178559.6 302285.6 177444.2 Q 300530.6 175689.2 297652.4 169379 Q 294782 163068.8 294782 161150 Q 294782 159714.8 296373.2 160830.2 Q 297012.8 161306 297496.4 162265.4 Q 299571.2 166259 300686.6 166259 Q 301326.2 166259 301326.2 164020.4 Q 301326.2 161789.6 301887.8 161228 Q 302449.4 160666.4 302285.6 150846.2 Q 302129.6 141018.2 301965.8 140542.4 Q 300850.4 138943.4 293822.6 147250.4 Q 291740 149808.8 290468.6 151166 Q 289189.4 152523.2 289189.4 152679.2 Q 289189.4 153162.8 285913.4 156431 Q 282637.4 159707 280242.8 161945.6 Q 278807.6 163224.8 275609.6 165783.2 Q 272411.6 168333.8 270336.8 170088.8 Q 268262 171851.6 267622.4 171851.6 Q 266982.8 171851.6 264346.4 173926.4 Q 261710 176001.2 261312.2 176001.2 Q 260914.4 176001.2 260672.6 173450.6 Q 260430.8 170892.2 260033 170650.4 Q 259635.2 170408.6 260274.8 168575.6 Q 260914.4 166734.8 260594.6 166095.2 Q 260430.8 165783.2 261234.2 162905 Q 262029.8 160026.8 262349.6 159387.2 Q 262989.2 158747.6 263387 158825.6 Q 263784.8 158911.4 263784.8 160026.8 Q 263784.8 161150 264268.4 161150 Q 264424.4 161150 269861 155799.2 Q 275289.8 150448.4 277528.4 148053.8 Q 278807.6 146454.8 282637.4 141423.8 Q 286475 136392.8 285835.4 135987.2 Q 285195.8 135589.4 285991.4 135589.4 Q 286794.8 135589.4 286794.8 135113.6 Q 286794.8 134949.8 285437.6 134715.8 Q 284072.6 134474 282801.2 134793.8 Q 282317.6 134793.8 282317.6 134474 Q 282317.6 134154.2 284072.6 133436.6 Q 285835.4 132719 287434.4 132399.2 Q 289829 131759.6 291264.2 129677 Q 292699.4 127602.2 294220.4 125925.2 Q 295733.6 124248.2 296615 122329.4 Q 297496.4 120418.4 297972.2 120098.6 Q 298455.8 119778.8 298455.8 119295.2 Q 298455.8 118975.4 297332.6 118975.4 Q 296217.2 118975.4 294298.4 119537 Q 292379.6 120098.6 290468.6 120738.2 Q 285835.4 122649.2 278004.2 125207.6 Q 270180.8 127766 269221.4 127766 Q 267622.4 127766 265469.6 126884.6 Q 263309 126003.2 263472.8 125527.4 Q 263784.8 125363.6 263309 124965.8 Q 262833.2 124568 262107.8 124326.2 Q 261390.2 124092.2 260992.4 123686.6 Q 260594.6 123288.8 260594.6 123132.8 Q 260914.4 122649.2 260111 122009.6 Q 259315.4 121689.8 258753.8 120496.4 Q 258200 119295.2 258200 118335.8 Q 258200 118016 259635.2 118179.8 Q 261554 118499.6 265469.6 117462.2 Q 269377.4 116424.8 283596.8 111152 Q 287910.2 109709 288152 109233.2 Q 288386 108757.4 286553 107314.4 Q 284712.2 105879.2 284876 105395.6 Q 285195.8 104600 282481.4 102361.4 Q 281202.2 101402 281124.2 98211.8 Q 281038.4 95013.8 279759.2 91340 Q 278487.8 87666.2 278721.8 87510.2 Q 278963.6 87346.4 281678 87986 Q 285032 88945.4 288627.8 91901.6 Q 292223.6 94857.8 293183 97252.4 Q 293339 98211.8 298775.6 94054.4 Q 302449.4 91340 302527.4 91503.8 Q 302605.4 91659.8 301326.2 93578.6 Q 299415.2 95973.2 299415.2 96293 Q 299415.2 97408.4 302129.6 95177.6 L 303720.8 93898.4 L 303720.8 88305.8 Q 303720.8 82557.2 303642.8 81917.6 Q 303564.8 81278 301965.8 81278 Q 300530.6 81278 297098.6 80162.6 Q 293658.8 79039.4 291264.2 77924 Q 289025.6 76644.8 288308 76644.8 Q 287590.4 76644.8 285835.4 74889.8 Q 283596.8 72495.2 280718.6 70576.4 Q 278807.6 69141.2 282801.2 68018 Q 283752.8 67862 284876 67698.2 Q 288549.8 66902.6 294462.2 64188.2 Q 301170.2 60834.2 302285.6 60108.8 Q 303408.8 59391.2 303408.8 57792.2 Q 303408.8 54758 301965.8 46770.8 L 300530.6 38463.8 Q 299727.2 34470.2 298931.6 33596.6 Q 298136 32715.2 298292 31280  Z M 320974.4 74562.2 Q 320334.8 74406.2 319859 74406.2 Q 319383.2 74406.2 318743.6 75201.8 Q 318104 76005.2 318260 76325 Q 318260 76481 317862.2 76878.8 Q 317464.4 77284.4 316824.8 77604.2 Q 315701.6 78236 315467.6 78719.6 Q 315225.8 79195.4 315225.8 80958.2 Q 315225.8 83508.8 314984 85669.4 Q 314750 87822.2 314906 87822.2 Q 315389.6 87822.2 317300.6 84866 Q 319219.4 81917.6 320334.8 79835 Q 322573.4 75201.8 320974.4 74562.2  Z M 301809.8 101246 Q 303720.8 99483.2 303564.8 99007.4 Q 303408.8 98687.6 302605.4 99327.2 Q 301809.8 99966.8 300850.4 100926.2 Q 299891 101885.6 299727.2 102361.4 Q 299415.2 103320.8 299891 103001 Q 300210.8 102681.2 301809.8 101246  Z M 303720.8 104280.2 Q 303884.6 103157 303564.8 103001 Q 303089 102681.2 301965.8 103960.4 Q 300686.6 105715.4 301170.2 105879.2 Q 301326.2 105879.2 302285.6 105715.4 Q 303564.8 105395.6 303720.8 104280.2  Z M 520589.8 105559.4 Q 523148.2 104600 525706.6 106191.2 L 531611.2 109389.2 Q 535285 111464 536408.2 112345.4 Q 537523.6 113226.8 539442.4 115777.4 Q 543116.2 120574.4 540401.8 122485.4 Q 539278.6 123125 539044.6 124646 Q 538802.8 126159.2 538319.2 126720.8 Q 537843.4 127282.4 538085.2 128795.6 Q 538319.2 130316.6 538319.2 131112.2 Q 538319.2 131915.6 538085.2 133514.6 Q 537843.4 135105.8 537687.4 135105.8 Q 537203.8 135105.8 536166.4 134552 Q 535129 133990.4 535129 133834.4 Q 535129 133514.6 533374 132391.4 Q 531611.2 131276 529778.2 129918.8 Q 527937.4 128561.6 526978 127922 Q 525542.8 127282.4 522984.4 117540.2 Q 522032.8 114022.4 520753.6 111308 Q 518351.2 106511 520589.8 105559.4  Z M 524903.2 47566.4 Q 526182.4 46451 529856.2 47886.2 Q 531455.2 48362 532094.8 48362 Q 533374 48362 534489.4 49805 Q 535604.8 51240.2 535924.6 52995.2 Q 536564.2 55553.6 537047.8 56754.8 Q 537523.6 57948.2 537047.8 61622 Q 536884 66419 536244.4 68330 Q 535604.8 70248.8 531611.2 80474.6 Q 531135.4 80950.4 531931 80950.4 Q 532890.4 80794.4 535604.8 79991 Q 538483 78875.6 541915 78314 Q 545354.8 77760.2 545830.6 76956.8 L 546470.2 75841.4 Q 546626.2 75677.6 549746.2 76722.8 Q 552858.4 77760.2 555253 78875.6 Q 558607 80630.6 560369.8 82229.6 Q 567717.4 88461.8 567397.6 89257.4 Q 566914 90060.8 566438.2 96449 Q 566274.4 98048 566040.4 98445.8 Q 565798.6 98843.6 565798.6 101004.2 Q 565798.6 103157 565237 103476.8 Q 564683.2 103796.6 565159 104272.4 Q 566118.4 105395.6 565003 115293.8 L 564519.4 119287.4 Q 564199.6 121689.8 563801.8 121689.8 Q 563404 121689.8 563645.8 122727.2 Q 563879.8 123764.6 563404 124084.4 Q 562764.4 124560.2 561968.8 131588 Q 561485.2 135261.8 561009.4 135823.4 Q 560525.8 136385 560845.6 138303.8 Q 561165.4 140214.8 560603.8 143654.6 Q 560050 147086.6 559886.2 147882.2 Q 558926.8 154278.2 557975.2 156033.2 Q 557335.6 157312.4 557335.6 158349.8 Q 557335.6 159387.2 556696 159387.2 Q 556056.4 159387.2 555338.8 160986.2 Q 554613.4 162585.2 552936.4 164184.2 Q 551259.4 165783.2 550463.8 167218.4 Q 549824.2 168973.4 547749.4 171375.8 L 546470.2 172811 L 544231.6 168653.6 Q 541837 164340.2 541361.2 164340.2 Q 540401.8 164340.2 538802.8 158911.4 Q 538163.2 156836.6 537203.8 154434.2 Q 535285 149489 535604.8 147570.2 Q 536244.4 145651.4 538319.2 147250.4 Q 539442.4 148209.8 540721.6 148209.8 Q 542000.8 148209.8 542312.8 147250.4 Q 542632.6 146291 543272.2 146049.2 Q 543911.8 145815.2 543592 145409.6 Q 543272.2 145011.8 544075.6 144450.2 Q 544871.2 143896.4 544871.2 141899.6 Q 544871.2 139902.8 545113 139661 Q 545354.8 139419.2 545354.8 136548.8 Q 545191 131595.8 547585.6 110824.4 Q 548069.2 106674.8 548147.2 103882.4 Q 548225.2 101082.2 548623 99803 Q 549028.6 98523.8 547585.6 97252.4 Q 546626.2 96129.2 546228.4 94935.8 Q 545830.6 93734.6 545674.6 90380.6 Q 545674.6 89421.2 540238 91020.2 Q 539278.6 91496 537687.4 91815.8 Q 527461.6 94850 524747.2 97088.6 L 523624 98204 L 521869 97252.4 Q 519950.2 96129.2 518671 96051.2 Q 517399.6 95973.2 516596.2 95169.8 Q 515800.6 94374.2 515480.8 94616 Q 515161 94850 512524.6 93492.8 Q 509888.2 92135.6 509732.2 92135.6 Q 508928.8 92135.6 508289.2 96768.8 Q 507010 104116.4 507173.8 119771 Q 507173.8 122969 506534.2 131112.2 Q 505894.6 139263.2 505894.6 141821.6 Q 506214.4 146766.8 504779.2 150284.6 Q 504139.6 151883.6 503975.8 157952 Q 503975.8 159543.2 503819.8 159629 Q 503656 159707 503180.2 159067.4 Q 502064.8 158271.8 500465.8 157148.6 Q 498703 156189.2 496074.4 153474.8 Q 493438 150760.4 493438 149964.8 Q 493438 149325.2 492876.4 148763.6 Q 492314.8 148202 492314.8 146610.8 Q 492314.8 145011.8 491917 144770 Q 491519.2 144528.2 487361.8 145885.4 Q 483212.2 147242.6 479538.4 148287.8 Q 475864.6 149325.2 475622.8 149801 Q 475381 150284.6 475061.2 152999 Q 474741.4 155393.6 474421.6 155393.6 Q 474421.6 155549.6 473945.8 154754 Q 472986.4 153638.6 472588.6 153638.6 Q 472190.8 153638.6 467713.6 149481.2 Q 464203.6 145971.2 463486 144692 Q 462760.6 143412.8 462440.8 139575.2 Q 462440.8 137344.4 462760.6 135503.6 Q 463080.4 133670.6 463322.2 130550.6 Q 463564 127438.4 464203.6 126159.2 Q 464999.2 123764.6 464281.6 107072.6 Q 463564 90380.6 462440.8 89577.2 Q 461965 89101.4 462128.8 88539.8 Q 462284.8 87978.2 461567.2 87658.4 Q 460849.6 87338.6 461169.4 86387 Q 461325.4 85747.4 463002.4 85341.8 Q 464679.4 84944 465958.6 85583.6 Q 467393.8 86067.2 467877.4 85505.6 Q 468353.2 84944 467877.4 83508.8 Q 467393.8 82229.6 467557.6 81753.8 Q 467713.6 81270.2 468673 80154.8 Q 470116 78719.6 470116 78158 Q 470116 77596.4 470747.8 77596.4 Q 471387.4 77440.4 474507.4 73766.6 Q 477619.6 70092.8 479538.4 66738.8 Q 481137.4 64336.4 482572.6 61863.8 Q 484007.8 59383.4 484725.4 57792.2 Q 485450.8 56193.2 485131 56029.4 Q 484811.2 55709.6 483851.8 55233.8 Q 483048.4 54758 483134.2 54594.2 Q 483212.2 54438.2 484007.8 54758 Q 484967.2 54914 484967.2 54438.2 Q 484967.2 54118.4 483212.2 53315 Q 481613.2 52519.4 482096.8 51879.8 Q 482572.6 51560 483368.2 51879.8 Q 486402.4 53159 487681.6 52035.8 Q 488165.2 51560 489280.6 52597.4 Q 490396 53634.8 491839 53954.6 Q 493913.8 54274.4 495193 55233.8 Q 496472.2 56193.2 499186.6 58907.6 Q 502376.8 62261.6 502618.6 63782.6 Q 502860.4 65295.8 500465.8 68330 Q 498703 71052.2 497111.8 73602.8 L 494709.4 77440.4 L 493757.8 79039.4 L 495029.2 79671.2 Q 496308.4 80474.6 499022.8 80950.4 Q 501745 81434 503336.2 82073.6 Q 504779.2 82713.2 506214.4 83906.6 Q 507649.6 85107.8 507649.6 85747.4 Q 507649.6 86387 508055.2 86621 Q 508453 86862.8 509092.6 86543 Q 509732.2 86223.2 510527.8 85747.4 Q 511963 84468.2 511963 83984.6 Q 511963 83508.8 513242.2 82073.6 Q 515161 79991 518437 73127 Q 521713 66255.2 522344.8 62581.4 Q 522344.8 62105.6 523468 58751.6 Q 525542.8 52995.2 524263.6 49485.2 Q 523787.8 48681.8 524903.2 47566.4  Z M 492634.6 92299.4 Q 492314.8 91659.8 491675.2 91737.8 Q 491035.6 91815.8 488960.8 92939 Q 486246.4 94210.4 482892.4 95169.8 Q 479538.4 96129.2 479054.8 95653.4 Q 478415.2 95333.6 478415.2 95411.6 Q 478415.2 95489.6 478181.2 103320.8 Q 477939.4 111144.2 478415.2 111144.2 Q 478898.8 111144.2 483688 108991.4 Q 488485 106830.8 490715.8 106355 L 492954.4 105715.4 L 492954.4 99483.2 Q 492798.4 93258.8 492634.6 92299.4  Z M 492798.4 121533.8 Q 492798.4 120090.8 492798.4 118733.6 Q 492798.4 117376.4 492712.6 116580.8 Q 492634.6 115777.4 492478.6 115777.4 Q 492158.8 115777.4 488165.2 117860 Q 482572.6 120894.2 479054.8 120410.6 Q 478898.8 120410.6 478579 124724 Q 478259.2 129037.4 478181.2 132789.2 Q 478103.2 136548.8 478259.2 137508.2 Q 478415.2 137664.2 480412 136704.8 Q 482408.8 135745.4 482892.4 134949.8 Q 483851.8 133834.4 484405.6 134310.2 Q 484967.2 134786 486722.2 134310.2 Q 488485 133834.4 490396 133834.4 L 492314.8 133834.4 L 492478.6 130792.4 Q 492634.6 127602.2 492798.4 121533.8  Z M 250085.2 373592.2 L 250405 374068 Q 250724.8 374231.8 250880.8 374387.8 Q 251684.2 375503.2 251520.4 375823 Q 251200.6 376626.4 250724.8 375667 Q 250405 375347.2 250405 374871.4 Q 250405 374231.8 250085.2 373592.2  Z M 233307.4 290764 Q 232667.8 289562.8 233549.2 288767.2 Q 234430.6 287963.8 239063.8 288127.6 Q 243697 288283.6 246645.4 289726.6 Q 249601.6 291161.8 249601.6 291879.4 Q 249601.6 292597 251044.6 293236.6 Q 252004 293556.4 253361.2 295397.2 Q 254718.4 297230.2 254874.4 298509.4 Q 255038.2 299468.8 255514 300428.2 Q 255997.6 301387.6 255677.8 301707.4 Q 255358 302027.2 255997.6 302503 Q 256629.4 302986.6 256629.4 303618.4 Q 256629.4 304258 257674.6 306418.6 Q 258712 308571.4 258470.2 309055 Q 258228.4 309530.8 258548.2 310334.2 Q 259507.6 312089.2 258868 313688.2 Q 258548.2 314327.8 258306.4 314327.8 Q 258072.4 314327.8 257113 313368.4 Q 255358 311925.4 251684.2 310092.4 Q 248010.4 308251.6 246013.6 305459.2 Q 244016.8 302666.8 243533.2 301863.4 Q 242417.8 299624.8 239063.8 296036.8 Q 235709.8 292441 234586.6 292121.2 Q 233947 291957.4 233307.4 290764  Z M 206155.6 256818.4 Q 208386.4 255695.2 209665.6 256974.4 Q 210469 257933.8 212380 258893.2 Q 213979 259376.8 215897.8 261287.8 Q 217816.6 263206.6 219095.8 264961.6 Q 220367.2 266724.4 219735.4 266880.4 Q 219251.8 267044.2 219571.6 267520 Q 219891.4 267839.8 220609 269119 Q 221326.6 270398.2 221326.6 270718 Q 221326.6 270874 220687 270874 Q 219735.4 270874 219010 273752.2 Q 218292.4 276622.6 218292.4 279976.6 Q 218456.2 284290 218854 285413.2 Q 219251.8 286528.6 219571.6 289328.8 Q 219891.4 292121.2 220367.2 293954.2 Q 220850.8 295795 221006.8 296590.6 L 221810.2 301223.8 Q 222605.8 305061.4 222925.6 307931.8 Q 223245.4 310810 223729 310810 Q 224204.8 310810 225725.8 309850.6 Q 227239 308891.2 227239 308657.2 Q 227239 308415.4 228440.2 307775.8 Q 229633.6 307136.2 230195.2 307136.2 Q 230756.8 307136.2 231630.4 308017.6 Q 232511.8 308891.2 233151.4 308891.2 Q 233947 308891.2 236427.4 310334.2 Q 238900 311769.4 240335.2 313204.6 Q 242417.8 314967.4 242737.6 314967.4 Q 243057.4 314967.4 242495.8 315599.2 Q 241934.2 316238.8 242737.6 317042.2 Q 244016.8 318321.4 242737.6 318321.4 Q 242254 318321.4 241934.2 319436.8 Q 241614.4 320552.2 240655 321035.8 Q 240179.2 321511.6 240655 321511.6 Q 241294.6 321355.6 243533.2 320716 Q 244172.8 320552.2 244172.8 320716 Q 244172.8 320872 242893.6 321831.4 Q 241458.4 323110.6 239063.8 324545.8 Q 236825.2 325825 233471.2 328141.6 Q 230117.2 330458.2 229797.4 330856 Q 229477.6 331261.6 230671 335013.4 Q 231872.2 338765.2 232270 338765.2 Q 232667.8 338765.2 233229.4 338203.6 Q 233791 337649.8 234508.6 338289.4 Q 235226.2 338929 236107.6 337727.8 Q 236981.2 336526.6 238424.2 332852.8 Q 239859.4 329179 241294.6 328063.6 L 242573.8 327104.2 L 244812.4 328383.4 Q 247207 329662.6 248010.4 330138.4 Q 248806 330302.2 250007.2 332057.2 Q 251200.6 333812.2 251840.2 335567.2 Q 252479.8 337330 252238 340520.2 Q 252004 343718.2 249687.4 348031.6 Q 247370.8 352345 244812.4 356338.6 Q 242254 360332.2 242254 360893.8 Q 242254 361447.6 243611.2 363764.2 Q 244968.4 366080.8 245054.2 366564.4 Q 245132.2 367040.2 246809.2 368717.2 Q 248486.2 370394.2 247690.6 370558 Q 245927.8 371197.6 251684.2 378701.2 Q 254554.6 382219 258868 387008.2 L 260303.2 388927 L 262066 387647.8 Q 265420 385409.2 269569.6 375667 Q 270529 373592.2 270926.8 372632.8 Q 271332.4 371673.4 271730.2 370877.8 Q 272128 370074.4 272284 370238.2 Q 272447.8 370394.2 272923.6 370394.2 Q 273563.2 370877.8 273563.2 371673.4 Q 273563.2 372469 274202.8 373592.2 Q 274522.6 374387.8 274600.6 378779.2 Q 274686.4 383178.4 274366.6 384769.6 Q 274202.8 385729 272767.6 389886.4 Q 271332.4 394036 271012.6 396438.4 L 269733.4 401703.4 Q 269413.6 404261.8 269733.4 404261.8 Q 270529 404105.8 270529 405221.2 Q 270529 405860.8 270287.2 406102.6 Q 270053.2 406336.6 269733.4 406336.6 Q 269413.6 406336.6 268774 406102.6 Q 268134.4 405860.8 267019 405221.2 Q 264780.4 403942 263743 404105.8 Q 262705.6 404261.8 261824.2 404020 Q 260942.8 403786 258712 403380.4 Q 256473.4 402982.6 256473.4 402584.8 Q 256473.4 402187 253915 399870.4 Q 251364.4 397553.8 251520.4 397070.2 Q 251684.2 395635 249921.4 394036 Q 248642.2 392756.8 245054.2 388365.4 Q 241458.4 383974 239859.4 382297 Q 238260.4 380620 236029.6 376142.8 L 233627.2 371993.2 L 230756.8 374871.4 L 225803.8 380620 Q 223409.2 383178.4 222527.8 383178.4 Q 221646.4 383178.4 221810.2 382694.8 Q 222130 381735.4 221810.2 380378.2 Q 221490.4 379021 220609 378061.6 Q 219735.4 377102.2 219415.6 377422 Q 219095.8 377266 218932 376782.4 Q 218932 375823 218456.2 375823 Q 217972.6 375823 217574.8 374707.6 Q 217177 373592.2 217894.6 373030.6 Q 218612.2 372469 217652.8 372235 Q 216693.4 371993.2 216693.4 371509.6 Q 216693.4 371033.8 215975.8 371033.8 Q 215258.2 371033.8 215422 369037 Q 215578 367040.2 215897.8 366642.4 Q 216217.6 366244.6 216857.2 364801.6 Q 218932 360652 220687 359848.6 Q 221490.4 359692.6 222925.6 357532 Q 224360.8 355379.2 224680.6 354100 Q 225000.4 353304.4 223885 349630.6 Q 222769.6 345956.8 221966.2 344677.6 Q 221326.6 343554.4 220367.2 340200.4 Q 219415.6 336846.4 219173.8 336846.4 Q 218932 336846.4 213979 339248.8 L 209829.4 341159.8 Q 210788.8 340364.2 213503.2 339085 Q 214618.6 338609.2 215336.2 338047.6 Q 216061.6 337486 215897.8 337330 Q 215741.8 336846.4 216537.4 336690.4 Q 216693.4 336690.4 216857.2 336846.4 Q 216537.4 337330 216935.2 337330 Q 217333 337330 218292.4 336690.4 Q 219251.8 336206.8 218612.2 335255.2 Q 218292.4 334615.6 217816.6 334771.6 Q 217333 334935.4 215422 336050.8 Q 209829.4 338929 208386.4 339802.6 Q 206951.2 340684 206795.2 341643.4 Q 206631.4 342602.8 206951.2 342758.8 Q 207115 342922.6 207434.8 342439 Q 207910.6 341799.4 208386.4 341799.4 Q 208870 341799.4 207590.8 342922.6 L 206311.6 344038 L 206311.6 351541.6 Q 206795.2 361291.6 207271 361291.6 Q 208074.4 361291.6 208230.4 361767.4 Q 208386.4 362251 207590.8 362407 Q 207115 362726.8 207910.6 363366.4 Q 209345.8 364325.8 207115 366400.6 L 205672 367999.6 L 205672 379340.8 Q 205672 390845.8 205274.2 391485.4 Q 204876.4 392125 204712.6 393240.4 Q 204712.6 393716.2 204478.6 394441.6 Q 204236.8 395159.2 203917 395876.8 Q 203597.2 396594.4 203277.4 397156 Q 202957.6 397709.8 202637.8 398115.4 Q 202318 398513.2 202318 398193.4 Q 201998.2 398029.6 201678.4 398349.4 Q 201358.6 398669.2 201038.8 399386.8 Q 200719 400112.2 200243.2 401383.6 Q 199767.4 403466.2 198964 404901.4 L 198168.4 406180.6 L 197209 404261.8 Q 196405.6 402506.8 193777 399948.4 Q 191140.6 397390 191140.6 396516.4 Q 191140.6 395635 190415.2 395635 Q 189697.6 395635 189939.4 394995.4 Q 190181.2 394355.8 189377.8 393560.2 Q 188582.2 392756.8 187466.8 390206.2 Q 186343.6 387647.8 186023.8 387172 Q 185867.8 387008.2 184027 388763.2 Q 182194 390526 180119.2 392920.6 Q 178036.6 395315.2 177397 396594.4 Q 177241 396914.2 175720 396196.6 Q 174206.8 395479 173247.4 394519.6 Q 171648.4 393076.6 170852.8 393396.4 Q 170369.2 393880 168934 393560.2 Q 167498.8 393240.4 167498.8 392920.6 Q 167498.8 392444.8 166859.2 392756.8 Q 166695.4 392125 166539.4 391805.2 Q 166539.4 390682 165899.8 389964.4 Q 165260.2 389246.8 164456.8 389246.8 Q 162865.6 389246.8 163505.2 386688.4 Q 163825 385573 165096.4 385573 Q 167179 385573 175486 377422 Q 181070.8 371993.2 186827.2 367516 L 192731.8 363210.4 L 192895.6 358257.4 Q 193371.4 353304.4 193137.4 353062.6 Q 192895.6 352820.8 192256 353304.4 Q 185228.2 358577.2 180431.2 360652 Q 178996 361291.6 178996 362009.2 Q 178996 362726.8 178200.4 362485 Q 177397 362251 176281.6 362009.2 Q 175166.2 361767.4 173325.4 360168.4 Q 171492.4 358577.2 170213.2 358577.2 Q 168934 358577.2 168450.4 357454 Q 167974.6 356338.6 166773.4 356338.6 Q 165580 356338.6 165338.2 355777 Q 165096.4 355223.2 164222.8 355535.2 Q 163341.4 355855 163099.6 355223.2 Q 162865.6 354583.6 162062.2 354583.6 Q 159511.6 354583.6 158552.2 351705.4 Q 158232.4 350106.4 158786.2 349708.6 Q 159347.8 349310.8 158388.4 348507.4 Q 156953.2 346752.4 159347.8 346752.4 Q 159831.4 346752.4 160463.2 347072.2 Q 162226 347236 166055.8 345317.2 Q 169893.4 343398.4 170533 343398.4 Q 171172.6 343398.4 171648.4 342439 Q 172132 341479.6 173247.4 341479.6 Q 174362.8 341479.6 174362.8 340762 Q 174362.8 340044.4 174924.4 340044.4 Q 175486 340044.4 177880.6 337649.8 Q 179799.4 335567.2 182350 334054 Q 184908.4 332533 185548 332852.8 Q 186187.6 333172.6 187225 331979.2 Q 188262.4 330778 189221.8 330536.2 Q 190181.2 330302.2 191936.2 329342.8 Q 193215.4 328383.4 193371.4 327424 Q 193535.2 326464.6 192731.8 322790.8 Q 192100 319436.8 189541.6 316878.4 Q 187622.8 314803.6 187147 314561.8 Q 186663.4 314327.8 185548 314803.6 Q 184112.8 315443.2 184112.8 316082.8 Q 184112.8 316722.4 183309.4 316964.2 Q 182513.8 317198.2 181874.2 316878.4 Q 181390.6 316722.4 180673 314881.6 Q 179955.4 313048.6 179955.4 312167.2 Q 179955.4 311293.6 178278.4 309694.6 Q 176601.4 308095.6 176999.2 308095.6 Q 177397 308095.6 176437.6 307136.2 Q 175642 306340.6 175961.8 305061.4 Q 176281.6 303782.2 177241 303462.4 Q 178036.6 302986.6 177397 302183.2 Q 176281.6 301067.8 178036.6 298993 Q 178996 298353.4 178996 297791.8 Q 178996 297230.2 179799.4 297550 Q 180119.2 297394 180119.2 297394 Q 180119.2 297230.2 180275.2 297074.2 Q 180431.2 296910.4 181070.8 296910.4 Q 183473.2 296910.4 183949 296270.8 Q 184268.8 295951 188824 291723.4 Q 193371.4 287488 193371.4 287012.2 Q 193371.4 286528.6 194572.6 285015.4 Q 195773.8 283494.4 195773.8 282854.8 Q 195773.8 282379 196811.2 282293.2 Q 197848.6 282215.2 199042 282457 Q 200243.2 282698.8 200563 283174.6 Q 200882.8 283970.2 201358.6 283970.2 Q 201998.2 283970.2 203761 285647.2 Q 205516 287332 205516 287885.8 Q 205516 288447.4 207271 290046.4 Q 208550.2 291325.6 208870 291723.4 Q 209189.8 292121.2 208550.2 292597 Q 207434.8 294040 208386.4 294515.8 Q 208550.2 294515.8 208870 294274 Q 209189.8 294040 209189.8 294118 Q 209189.8 294196 208870 294515.8 Q 208550.2 294999.4 209189.8 295951 Q 209509.6 296590.6 209345.8 296754.4 Q 209189.8 296910.4 208074.4 296910.4 Q 207115 296910.4 206709.4 297074.2 Q 206311.6 297230.2 206631.4 297550 Q 206795.2 298353.4 206155.6 298353.4 Q 205516 298353.4 205516 298907.2 Q 205516 299468.8 203839 300506.2 Q 202162 301543.6 202162 301941.4 Q 202162 302347 200719 304024 Q 199283.8 305701 198644.2 305701 Q 196569.4 306020.8 196889.2 306980.2 Q 196889.2 307931.8 195851.8 307697.8 Q 194814.4 307456 194814.4 308173.6 Q 194814.4 308891.2 194330.8 308657.2 Q 193855 308415.4 193855 308977 Q 193855 309530.8 193371.4 309211 Q 192895.6 308891.2 192100 310014.4 Q 190501 311769.4 193215.4 312409 Q 195134.2 313204.6 200087.2 317362 Q 201358.6 318641.2 202240 318961 Q 203121.4 319280.8 203597.2 320552.2 Q 204392.8 322634.8 205672 321035.8 Q 206311.6 320232.4 207590.8 319834.6 Q 208870 319436.8 209907.4 318321.4 Q 210944.8 317198.2 211748.2 317198.2 Q 212543.8 317198.2 213425.2 316558.6 Q 214298.8 315919 214298.8 315443.2 Q 214298.8 314803.6 213339.4 311051.8 Q 212380 307300 211186.6 299227 Q 209985.4 291161.8 208550.2 283018.6 Q 206311.6 271669.6 205196.2 260492.2 Q 205032.4 258253.6 205118.2 257777.8 Q 205196.2 257294.2 206155.6 256818.4  Z M 237940.6 322790.8 Q 239219.8 321675.4 237620.8 322315 Q 236981.2 322634.8 236029.6 323274.4 Q 235070.2 323906.2 234508.6 324226 Q 233947 324545.8 233947 324709.6 Q 234266.8 325185.4 235787.8 324389.8 Q 237301 323586.4 237940.6 322790.8  Z M 230273.2 328063.6 Q 230912.8 327268 230912.8 326948.2 Q 230756.8 326464.6 229477.6 327580 Q 228354.4 328383.4 228760 328781.2 Q 229157.8 329179 230273.2 328063.6  Z M 191694.4 381977.2 Q 192100 381735.4 192100 381095.8 Q 192100 380456.2 191616.4 380456.2 Q 191140.6 380456.2 189221.8 382772.8 Q 187303 385089.4 187466.8 385573 Q 187622.8 386048.8 188262.4 385331.2 Q 188902 384613.6 189861.4 385089.4 Q 190181.2 385089.4 190501 384769.6 Q 190820.8 384449.8 190976.8 383810.2 Q 191296.6 382211.2 191694.4 381977.2  Z M 397144.2 309374.8 Q 397783.8 308891.2 399538.8 309694.6 Q 400974 310170.4 401457.6 310334.2 Q 406246.8 311769.4 408961.2 314008 Q 409764.6 314803.6 410404.2 316082.8 Q 411036 317362 410802 317681.8 Q 410560.2 318001.6 411199.8 320396.2 Q 411839.4 322790.8 411441.6 326464.6 Q 411036 330138.4 410724 332618.8 Q 410404.2 335091.4 410084.4 337969.6 Q 409764.6 340840 409125 345793 Q 406886.4 367999.6 403368.6 372313 Q 402097.2 373592.2 402097.2 374387.8 Q 402097.2 375191.2 401613.6 373912 Q 401293.8 372952.6 400334.4 372071.2 Q 399375 371197.6 399219 371197.6 Q 398743.2 371197.6 396504.6 368475.4 Q 394266 365761 393946.2 364801.6 Q 393150.6 363046.6 392347.2 362087.2 Q 391707.6 361447.6 391387.8 360332.2 Q 391068 359216.8 391707.6 358733.2 Q 392027.4 358257.4 392433 356736.4 Q 392830.8 355223.2 393704.4 351705.4 Q 394585.8 348187.6 394905.6 346112.8 Q 395225.4 344038 395943 339482.8 Q 396660.6 334935.4 396902.4 331097.8 Q 397144.2 327268 397300.2 326784.4 Q 397783.8 325988.8 397698 319678.6 Q 397620 313368.4 397300.2 311769.4 Q 396980.4 310014.4 397144.2 309374.8  Z M 476212.8 299149 Q 476532.6 298189.6 476852.4 298509.4 Q 477172.2 298829.2 476532.6 299312.8 Q 476212.8 299624.8 476134.8 299624.8 Q 476056.8 299624.8 476212.8 299149  Z M 401613.6 289562.8 Q 401777.4 288923.2 402175.2 288767.2 Q 402573 288603.4 403852.2 288923.2 Q 407362.2 289406.8 414873.6 292597 L 416628.6 293236.6 L 418391.4 291801.4 Q 419826.6 290366.2 420466.2 290202.4 Q 421105.8 290202.4 421183.8 290280.4 Q 421261.8 290366.2 420708 291559.6 Q 420146.4 292760.8 420786 294274 Q 421425.6 295795 421901.4 296114.8 Q 422385 296434.6 421425.6 298033.6 Q 420466.2 299624.8 421261.8 300748 L 422385 302666.8 Q 422704.8 303306.4 421901.4 304343.8 Q 421105.8 305381.2 421105.8 307300 Q 421261.8 308735.2 421105.8 308813.2 Q 420942 308891.2 420302.4 308571.4 Q 419662.8 307775.8 419265 307214.2 Q 418867.2 306660.4 417751.8 306660.4 Q 416628.6 306660.4 415435.2 305779 Q 414234 304897.6 413438.4 304897.6 Q 412635 304897.6 410240.4 302666.8 Q 407845.8 300428.2 406090.8 298033.6 Q 404647.8 296270.8 403852.2 295319.2 Q 402736.8 294196 402011.4 292441 Q 401293.8 290686 401613.6 289562.8  Z M 447142.2 279344.8 Q 449380.8 279344.8 449934.6 278385.4 Q 450496.2 277426 451775.4 277426 Q 453054.6 277426 453850.2 278385.4 Q 454653.6 279344.8 456486.6 279259 Q 458327.4 279181 459045 279898.6 Q 459762.6 280616.2 461439.6 281177.8 Q 463116.6 281739.4 466228.8 283736.2 Q 469348.8 285733 470464.2 287012.2 Q 471579.6 288283.6 472383 291403.6 Q 473178.6 294515.8 472858.8 296590.6 Q 472702.8 298353.4 471579.6 299468.8 Q 469029 302503 466470.6 310170.4 Q 464551.8 316238.8 463834.2 326542.6 Q 463116.6 336846.4 463912.2 344833.6 Q 465675 362726.8 464076 378381.4 Q 463756.2 381259.6 463272.6 382297 Q 462796.8 383334.4 460238.4 386368.6 Q 460082.4 386852.2 459762.6 386048.8 Q 459442.8 385089.4 458959.2 386048.8 Q 458803.2 386532.4 458803.2 387172 Q 458803.2 388287.4 457687.8 389886.4 Q 456564.6 391477.6 456244.8 392437 Q 455925 393396.4 455605.2 393396.4 Q 455129.4 393396.4 454170 392600.8 Q 453210.6 391797.4 453210.6 391165.6 Q 453210.6 390206.2 452571 389886.4 Q 451931.4 389566.6 450254.4 386048.8 Q 448577.4 382538.8 446182.8 379660.6 Q 439630.8 371197.6 439794.6 369115 Q 439794.6 368155.6 439474.8 366400.6 Q 439311 365285.2 439396.8 365043.4 Q 439474.8 364801.6 439950.6 364965.4 Q 440754 364965.4 441229.8 365605 Q 443624.4 368475.4 445863 368639.2 Q 447298.2 368795.2 448741.2 369434.8 L 450340.2 370238.2 L 450496.2 367360 Q 450816 364325.8 450496.2 359528.8 Q 449536.8 346916.2 449380.8 314327.8 Q 449380.8 292760.8 448741.2 292760.8 Q 448101.6 292760.8 444427.8 294196 Q 437080.2 296910.4 429732.6 294040 Q 427813.8 293236.6 426378.6 292760.8 Q 424935.6 292277.2 423742.2 291161.8 Q 422541 290046.4 422541 289243 Q 422541 288603.4 421901.4 288603.4 Q 421261.8 288603.4 421183.8 287246.2 Q 421105.8 285889 421745.4 285413.2 Q 422385 284929.6 425255.4 284929.6 Q 429888.6 284929.6 440114.4 281739.4 Q 443304.6 280780 444108 280780 Q 444903.6 280780 444903.6 280062.4 Q 444903.6 279344.8 447142.2 279344.8  Z M 379890.6 270718 Q 381006 270234.4 380366.4 269914.6 Q 379726.8 269594.8 380210.4 269594.8 Q 380686.2 269594.8 382449 270718 Q 385319.4 272309.2 385319.4 271357.6 Q 384679.8 270718 386598.6 271833.4 Q 386918.4 272153.2 387714 272629 Q 389157 273752.2 389476.8 273752.2 Q 389796.6 273752.2 392113.2 275827 Q 394429.8 277901.8 394749.6 277901.8 Q 395061.6 277901.8 396021 279742.6 Q 396980.4 281575.6 396980.4 284212 Q 396980.4 286848.4 397144.2 287012.2 Q 397783.8 287644 395061.6 293158.6 Q 392347.2 298673.2 389632.8 302347 Q 388353.6 304102 386442.6 307534 Q 384523.8 310973.8 384040.2 311129.8 Q 382924.8 311769.4 386122.8 313524.4 Q 387394.2 314164 387799.8 314725.6 Q 388197.6 315287.2 388673.4 317042.2 Q 389157 318641.2 389235 328859.2 Q 389313 339085 388673.4 340840 Q 387394.2 345793 388673.4 346112.8 Q 389476.8 346432.6 388673.4 348991 Q 387877.8 351541.6 387074.4 357773.8 Q 386278.8 364006 385639.2 366720.4 Q 384999.6 369434.8 384765.6 372632.8 Q 384523.8 375823 383400.6 377741.8 L 382285.2 379980.4 L 381645.6 378701.2 Q 380686.2 377422 380046.6 377024.2 Q 379407 376626.4 379407 376142.8 Q 379407 375027.4 375257.4 371033.8 Q 373822.2 369434.8 374142 368319.4 Q 374461.8 367204 373580.4 366244.6 Q 372699 365285.2 372699 364162 Q 373018.8 362890.6 373978.2 359528.8 Q 375093.6 356814.4 376053 346752.4 L 376692.6 338445.4 Q 377971.8 323586.4 376856.4 321995.2 Q 376372.8 321355.6 376692.6 320396.2 L 376372.8 320232.4 Q 376053 321035.8 375733.2 320872 L 375257.4 321511.6 Q 375093.6 322471 375093.6 323750.2 Q 375093.6 324070 373900.2 326222.8 Q 372699 328383.4 371583.6 329662.6 Q 371263.8 330138.4 370944 330941.8 Q 370304.4 332377 366630.6 337166.2 Q 362956.8 341963.2 361038 344038 Q 358003.8 346596.4 357684 345956.8 Q 357684 345956.8 357528 345637 Q 357208.2 344513.8 356888.4 343398.4 Q 356568.6 340044.4 355445.4 340044.4 Q 354969.6 340044.4 354493.8 337969.6 Q 354010.2 335887 353534.4 335887 Q 353050.8 335887 352894.8 334771.6 Q 352731 333656.2 353050.8 333172.6 Q 353690.4 332533 353214.6 332213.2 Q 352731 331893.4 352816.8 330700 Q 352894.8 329498.8 353534.4 328703.2 Q 354010.2 328063.6 353768.4 327665.8 Q 353534.4 327268 354330 326464.6 Q 355609.2 325185.4 359119.2 321035.8 Q 359922.6 320396.2 363198.6 315287.2 Q 366474.6 310170.4 367192.2 309296.8 Q 367909.8 308415.4 368705.4 306660.4 Q 369508.8 304897.6 369828.6 304897.6 Q 370148.4 304897.6 370148.4 304258 Q 370148.4 303618.4 371022 302503 Q 371903.4 301387.6 373978.2 297550 L 378291.6 289406.8 Q 380530.2 285569.2 380530.2 284929.6 Q 380530.2 284290 382043.4 280702 Q 383564.4 277106.2 383564.4 276146.8 Q 383564.4 274228 380046.6 271833.4 L 378775.2 271037.8 L 379890.6 270718 Z M 373502.4 325029.4 Q 373502.4 323586.4 372699 324865.6 Q 372543 325185.4 373018.8 325505.2 Q 373502.4 325825 373502.4 325029.4  Z M 371583.6 327580 Q 372059.4 327580 372059.4 327182.2 Q 372059.4 326784.4 371583.6 326784.4 Q 371100 326784.4 371100 327182.2 Q 371100 327580 371583.6 327580  Z M 370304.4 329342.8 Q 370148.4 330138.4 370702.2 329498.8 Q 371263.8 328859.2 370944 328703.2 Q 370944 328539.4 370788 328703.2 Q 370624.2 328859.2 370304.4 329342.8  Z " fill-rule="nonzero" style="fill:#ffda6d;;fill-opacity:1;"/>
</svg>