<svg version="1.1" x="0" y="0" width="100%" height="100%" viewBox="0 0 242636.8 53708.8" xmlns="http://www.w3.org/2000/svg">
  <path d="M 17638.75 9708.85 Q 17745.5 9241.6 18463 9672.1 Q 18821.75 9924.1 19250.5 10065.85 Q 19394 10102.6 19287.25 10174.35 Q 18928.5 10246.1 19287.25 10424.6 Q 19359 10424.6 19394 10424.6 Q 19646 10496.35 19789.5 10639.85 Q 19933 10783.35 20344.25 11070.35 Q 20757.25 11357.35 21205.25 11768.6 Q 21653.25 12181.6 21544.75 12360.1 Q 21294.5 12825.6 21544.75 13112.6 Q 21653.25 13184.35 21401.25 13436.35 Q 20935.75 13865.1 20935.75 15441.85 L 20935.75 15980.85 L 21329.5 16052.6 Q 21760 16159.35 21760 16302.85 Q 21760 16446.35 21849.25 16446.35 Q 21938.5 16446.35 21938.5 16644.1 Q 21938.5 16840.1 22118.75 16911.85 Q 22297.25 16983.6 22386.5 17233.85 Q 22477.5 17485.85 22621 17485.85 Q 22762.75 17485.85 22762.75 17575.1 Q 22762.75 17664.35 22978 17664.35 Q 23121.5 17664.35 23158.25 17718.6 Q 23193.25 17772.85 23158.25 17807.85 Q 23049.75 17916.35 23175.75 18059.85 Q 23301.75 18201.6 23247.5 18310.1 Q 23193.25 18416.85 23391 18542.85 Q 23587 18668.85 23552 18919.1 Q 23517 19062.6 23391 19116.85 Q 23265 19169.35 22727.75 19206.1 Q 22369 19206.1 22153.75 19384.6 Q 21938.5 19564.85 21886 19564.85 Q 21831.75 19564.85 21616.5 19725.85 Q 21401.25 19886.85 21401.25 19780.1 Q 21401.25 19528.1 21186 19780.1 Q 21114.25 19815.1 21042.5 19886.85 Q 20899 20137.1 20829 21643.85 Q 20792.25 22861.85 20899 23005.35 Q 21007.5 23148.85 21725 22933.6 Q 22153.75 22790.1 22262.25 22844.35 Q 22369 22896.85 22423.25 22772.6 Q 22477.5 22646.6 22673.5 22646.6 Q 22871.25 22646.6 23301.75 22448.85 Q 23730.5 22252.85 23874 22252.85 Q 24017.5 22252.85 24089.25 22181.1 Q 24126 22072.6 24537.25 22198.6 Q 24950.25 22324.6 25039.5 22431.35 Q 25128.75 22539.85 25415.75 22539.85 Q 25702.75 22539.85 25935.5 22735.85 Q 26168.25 22933.6 26366 23094.6 Q 26562 23255.6 27064.25 23740.35 Q 27566.5 24223.35 27834.25 24331.85 Q 28103.75 24438.6 28086.25 24760.6 Q 28067 25084.35 28229.75 25208.6 Q 28390.75 25334.6 28319 25584.85 Q 28247.25 25800.1 28121.25 25836.85 Q 27997 25871.85 27494.75 25871.85 L 26814 25836.85 Q 26992.5 25800.1 26849 25693.35 Q 26705.5 25584.85 26562 25765.1 Q 26490.25 25871.85 25792 25997.85 Q 25093.75 26123.85 24950.25 26052.1 Q 24878.5 26015.35 24878.5 26123.85 Q 24878.5 26123.85 24841.75 26141.35 Q 24806.75 26158.85 24735 26158.85 Q 24663.25 26158.85 24591.5 26141.35 Q 24519.75 26123.85 24341.25 26087.1 L 24269.5 26087.1 Q 24519.75 26230.6 24054.25 26374.1 Q 24017.5 26374.1 23945.75 26409.1 Q 23517 26480.85 23480.25 26391.6 Q 23445.25 26302.35 23354.25 26391.6 Q 23265 26480.85 23069 26552.6 Q 22871.25 26624.35 22943 26480.85 Q 22978 26374.1 22834.5 26230.6 Q 22691 26087.1 22584.25 26158.85 Q 22477.5 26230.6 22584.25 26428.35 Q 22691 26624.35 22549.25 26624.35 Q 22405.75 26624.35 22153.75 26696.1 L 21903.5 26732.85 L 22153.75 26552.6 Q 22440.75 26302.35 22225.5 26230.6 Q 22153.75 26193.85 22010.25 26337.35 Q 21866.75 26445.85 21831.75 26302.35 Q 21795 26158.85 21653.25 26248.1 Q 21509.75 26337.35 21634 26463.35 Q 21760 26589.35 21581.5 26696.1 Q 21366.25 26911.35 21222.75 26732.85 Q 21114.25 26696.1 21186 26624.35 Q 21222.75 26552.6 21114.25 26552.6 Q 21079.25 26552.6 21042.5 26552.6 Q 20935.75 26589.35 20881.5 26822.1 Q 20829 27054.85 20792.25 28129.35 Q 20720.5 29707.85 20685.5 29886.35 Q 20648.75 30064.85 20864 30173.35 Q 21079.25 30280.1 21903.5 30351.85 Q 22834.5 30495.35 23552 30673.85 Q 25953 31176.1 27960.25 31965.35 Q 28534.25 32180.6 29608.75 32950.6 Q 30685 33720.6 30685 33900.85 Q 30685 34401.35 31150.5 34725.1 Q 31365.75 34868.6 31294 35012.1 Q 31222.25 35153.85 31490 35334.1 Q 31759.5 35512.6 31794.5 36049.85 Q 31831.25 36588.85 31616 36732.35 Q 31437.5 36839.1 31472.5 36910.85 L 30898.5 36804.1 Q 30613.25 36660.6 30541.5 36623.85 Q 30433 36517.1 30289.5 36517.1 Q 30146 36517.1 29824 36373.6 Q 29502 36230.1 28784.5 35960.6 Q 28067 35692.85 27368.75 35388.35 Q 26670.5 35083.85 26598.75 35083.85 Q 26527 35083.85 26024.75 34849.35 Q 25522.5 34616.6 25433.25 34599.1 Q 25344 34581.6 25237.25 34544.85 Q 24806.75 34294.6 23767.25 34079.35 Q 23480.25 34007.6 21992.75 33613.85 Q 20505.25 33220.1 20470.25 33220.1 Q 20398.5 33220.1 20361.75 37124.35 Q 20290 40062.6 20129 40260.35 Q 19968 40458.1 19968 40673.35 Q 19968 40886.85 19861.25 40886.85 Q 19752.75 40886.85 19752.75 41425.85 Q 19752.75 41854.6 19663.5 41963.1 Q 19574.25 42069.85 19322.25 41854.6 Q 19107 41747.85 19072 41765.35 Q 19037 41782.85 19037 42034.85 Q 19037 42321.85 18874.25 42733.1 Q 18713.25 43146.1 18624 42930.85 Q 18534.75 42715.6 18463 42715.6 Q 18354.5 42715.6 18176 42500.35 Q 17997.5 42285.1 17997.5 42141.6 Q 17997.5 42069.85 17621.25 41730.35 Q 17245 41389.1 17245 41282.35 Q 17245 41173.85 16903.75 40745.1 Q 16562.5 40314.6 16562.5 40134.35 Q 16562.5 39955.85 16401.5 39901.6 Q 16240.5 39849.1 16240.5 39668.85 Q 16240.5 39490.35 16097 39094.85 Q 15881.75 38666.1 15577.25 37357.1 Q 15272.75 36049.85 15309.5 35762.85 L 15344.5 35439.1 L 15810 35834.6 Q 16277.25 36228.35 16490.75 36658.85 Q 16706 37089.35 16886.25 37267.85 Q 16958 37302.85 17010.5 37213.6 Q 17064.75 37126.1 17101.5 36730.6 Q 17136.5 36336.85 17154 35727.85 Q 17173.25 35118.85 17208.25 33970.85 L 17280 32430.85 L 16706 32824.6 Q 16168.75 33255.1 16025.25 33433.6 Q 15453 33899.1 15129.25 34007.6 Q 14807.25 34079.35 14807.25 34257.85 Q 14807.25 34438.1 13874.5 34938.6 Q 13230.5 35262.35 13104.5 35440.85 Q 12978.5 35619.35 12835 35619.35 Q 12693.25 35619.35 12495.5 35799.6 Q 12297.75 35978.1 11886.5 36158.35 Q 11473.5 36336.85 10757.75 36748.1 Q 10040.25 37161.1 9538 37161.1 L 9037.5 37196.1 L 9000.75 36804.1 Q 8822.25 35549.35 9144.25 35440.85 Q 9394.5 35297.35 9359.5 35083.85 Q 9359.5 34940.35 9216 34975.35 Q 9037.5 35083.85 9037.5 34940.35 Q 9037.5 34725.1 9251 34527.35 Q 9466.25 34329.6 9503 34329.6 Q 9681.5 34401.35 10040.25 34116.1 Q 11186.5 33220.1 11295 33220.1 Q 11366.75 33220.1 11725.5 32789.6 Q 12549.75 31965.35 13480.75 31428.1 Q 13696 31284.6 13661 31086.85 Q 13624.25 30889.1 13983 30782.35 Q 14233.25 30673.85 15237.75 29671.1 Q 16240.5 28668.35 16240.5 28524.85 Q 16240.5 28381.35 15846.75 28596.6 Q 15416.25 28881.85 15416.25 28703.35 Q 15416.25 28631.6 15631.5 28524.85 Q 15846.75 28416.35 15720.75 28398.85 Q 15594.75 28381.35 15309.5 28668.35 Q 15129.25 28881.85 14718 29116.35 Q 14305 29349.1 14161.5 29349.1 Q 14089.75 29312.35 13946.25 29384.1 Q 13050.25 29707.85 12871.75 29599.35 Q 12800 29527.6 12728.25 29671.1 Q 12549.75 29958.1 11043 29455.85 Q 10077 29133.85 9933.5 29133.85 Q 9503 29133.85 8535.25 28237.85 Q 8176.5 27879.1 8355 27879.1 Q 8535.25 27879.1 8535.25 27861.6 Q 8535.25 27844.1 8355 27735.6 Q 8104.75 27557.1 8104.75 27485.35 Q 8104.75 27413.6 8624.5 27215.85 Q 9144.25 27019.85 9466.25 26983.1 Q 9753.25 26948.1 10344.75 26785.35 Q 10936.25 26624.35 11079.75 26552.6 Q 11186.5 26445.85 11527.75 26374.1 Q 11869 26302.35 11869 26213.1 Q 11869 26123.85 12047.5 26123.85 Q 12226 26123.85 12334.5 26015.35 Q 12441.25 25908.6 12693.25 25871.85 Q 13302.25 25765.1 13552.5 25513.1 Q 13696 25369.6 13822 25441.35 Q 13946.25 25513.1 14161.5 25317.1 Q 14376.75 25119.35 14770.5 25012.6 Q 16349 24545.35 16671 24401.85 Q 16993 24260.1 17386.75 24188.35 Q 17782.25 24116.6 17782.25 23990.6 Q 17782.25 23864.6 17889 23077.1 Q 17960.75 21678.85 17602 21713.85 Q 17530.25 21750.6 17495.25 21785.6 Q 17208.25 22000.85 16510 22109.35 Q 15810 22216.1 15631.5 22037.6 Q 15559.75 21965.85 14485.25 21428.6 Q 13589.25 20926.35 13409 20800.35 Q 13230.5 20676.1 13122 20389.1 Q 13087 20065.35 12978.5 20065.35 Q 12871.75 20065.35 12871.75 19851.85 Q 12871.75 19636.6 12728.25 19636.6 Q 12584.75 19636.6 12584.75 19456.35 Q 12584.75 19134.35 13337.25 18990.85 Q 14089.75 18884.1 15166 18381.85 Q 16814.5 17557.6 17064.75 17520.85 Q 17638.75 17377.35 18104.25 16983.6 Q 18426.25 16733.35 18211 14332.35 Q 18104.25 13256.1 18015 11751.1 Q 17925.75 10246.1 17728 10120.1 Q 17530.25 9995.85 17638.75 9708.85  Z M 25666 25262.85 Q 25594.25 25191.1 25505 25191.1 Q 25415.75 25191.1 25361.5 25262.85 Q 25309 25334.6 25344 25404.6 Q 25415.75 25476.35 25470 25441.35 Q 25522.5 25404.6 25594.25 25369.6 Q 25666 25334.6 25666 25262.85  Z M 25272.25 26015.35 Q 25379 26015.35 25505 25871.85 Q 25631 25728.35 25398.25 25728.35 Q 25165.5 25728.35 25165.5 25871.85 Q 25165.5 26015.35 25272.25 26015.35  Z M 23695.5 25943.6 Q 23730.5 25871.85 23695.5 25835.1 Q 23658.75 25800.1 23552 25800.1 Q 23193.25 25800.1 23193.25 26050.35 Q 23193.25 26087.1 23319.25 26104.6 Q 23445.25 26122.1 23569.5 26067.85 Q 23695.5 26015.35 23695.5 25943.6  Z M 23910.75 25961.1 Q 24017.5 25871.85 24017.5 25835.1 Q 24017.5 25800.1 23910.75 25800.1 Q 23802.25 25800.1 23802.25 25924.35 Q 23802.25 26050.35 23910.75 25961.1  Z M 51937 8597.6 Q 52008.75 8310.6 52117.25 8293.1 Q 52224 8273.85 52582.75 8489.1 Q 52941.5 8669.35 53120 8669.35 Q 53191.75 8669.35 53585.5 8884.6 Q 53981 9098.1 54087.75 9206.6 Q 54122.75 9241.6 54590 9600.35 Q 55521 10174.35 55377.5 11392.35 Q 55305.75 12038.1 55377.5 12753.85 L 55414.25 13543.1 L 55879.75 13686.6 Q 56310.25 13793.35 56793.25 13847.6 Q 57278 13901.85 57565 14134.6 Q 57850.25 14367.35 57887 14332.35 L 57993.75 14439.1 Q 57993.75 14582.6 58137.25 14743.6 Q 58280.75 14904.6 58352.5 14869.6 Q 58424.25 14832.85 58639.5 14958.85 Q 58854.75 15084.85 58746.25 15209.1 Q 58639.5 15335.1 58872.25 15532.85 Q 59105 15728.85 59141.75 16015.85 Q 59213.5 16553.1 60072.75 16805.1 Q 60825.25 17055.35 60253 17162.1 Q 60001 17198.85 59822.5 17270.6 Q 59642.25 17342.35 59805 17233.85 Q 59966 17127.1 59875 17127.1 Q 59785.75 17127.1 59481.25 17359.85 Q 59176.75 17592.6 58872.25 17592.6 Q 58567.75 17592.6 58567.75 17646.85 Q 58567.75 17701.1 58226.5 17844.6 Q 57887 17988.1 57887 18058.1 Q 57887 18129.85 58567.75 18560.35 Q 59248.5 18990.85 59481.25 19332.1 Q 59714 19671.6 60162 20030.35 Q 60610 20389.1 60610 20711.1 Q 60610 21033.1 60520.75 21141.6 Q 60431.5 21248.35 60394.75 21500.35 Q 60359.75 21750.6 60001 21948.35 Q 59642.25 22144.35 59589.75 22233.6 Q 59535.5 22324.6 59427 22324.6 Q 59320.25 22324.6 58998.25 22681.6 Q 58674.5 23040.35 58585.25 23040.35 Q 58496 23040.35 57993.75 23434.1 Q 57493.25 23864.6 57706.75 23901.35 Q 57815.25 23901.35 58461 23757.85 Q 59105 23614.35 60610 23327.35 Q 62186.75 23040.35 63226.25 23183.85 Q 63478.25 23220.6 63728.5 23434.1 Q 63978.75 23649.35 64015.5 23864.6 Q 64122.25 24295.1 64661.25 24295.1 Q 64911.5 24295.1 64911.5 24438.6 Q 64911.5 24582.1 65233.5 24760.6 Q 65557.25 24904.1 65664 25136.85 Q 65770.75 25369.6 65557.25 25513.1 Q 65233.5 25728.35 65557.25 25943.6 Q 65699 26052.1 65377 26052.1 Q 65126.75 26087.1 64552.75 26087.1 Q 62617.25 26122.1 61577.75 26265.6 Q 61005.5 26409.1 59966 26480.85 Q 57815.25 26696.1 56417 27233.35 Q 56130 27305.1 56130 27700.6 Q 56130 28094.35 55986.5 28201.1 Q 55843 28309.6 55808 29420.85 Q 55736.25 30351.85 55825.5 30477.85 Q 55914.75 30602.1 56704 30673.85 Q 58531 30889.1 58889.75 31104.35 Q 59320.25 31356.35 60144.5 31428.1 Q 60431.5 31463.1 60646.75 31695.85 Q 60862 31928.6 61077.25 31911.1 Q 61290.75 31893.6 61703.75 32054.6 Q 62115 32215.6 62223.5 32215.6 Q 62689 32215.6 64122.25 32878.85 Q 65557.25 33542.1 65986 33935.85 Q 66560 34473.1 67349.25 35369.1 Q 68136.75 36265.1 68136.75 36336.85 Q 68136.75 36445.35 68334.5 36713.1 Q 68530.5 36982.6 68621.5 37358.85 Q 68710.75 37735.1 68567.25 37806.85 Q 68317 38022.1 66666.75 37341.35 Q 66238 37126.1 66094.5 37126.1 Q 65951 37126.1 65951 36982.6 Q 65951 36874.1 65699 36784.85 Q 65448.75 36695.6 65413.75 36839.1 Q 65305.25 36945.85 65251 36767.35 Q 65198.5 36588.85 65055 36588.85 Q 64911.5 36588.85 64409.25 36336.85 Q 63907 36086.6 63837 36121.6 Q 63765.25 36158.35 63728.5 36014.85 Q 63656.75 35943.1 63334.75 35836.35 Q 63011 35727.85 62760.75 35727.85 Q 62654 35727.85 62510.5 35584.35 Q 62367 35440.85 62277.75 35495.1 Q 62186.75 35549.35 62186.75 35423.35 Q 62186.75 35297.35 62080 35388.35 Q 61973.25 35477.6 61577.75 35297.35 Q 61184 35118.85 60037.75 34814.35 Q 58889.75 34509.85 58317.5 34366.35 Q 57456.5 34116.1 56095 33864.1 Q 56095 33864.1 56077.5 34025.1 Q 56058.25 34186.1 56040.75 34599.1 Q 56023.25 35012.1 56023.25 35673.6 Q 56023.25 36336.85 56023.25 37232.85 Q 56023.25 40960.35 55736.25 41856.35 Q 55629.5 42143.35 55592.75 42645.6 Q 55414.25 44078.85 55270.75 44257.35 Q 55234 44294.1 54733.5 43774.35 Q 54231.25 43254.6 54122.75 43237.1 Q 54016 43217.85 53657.25 42663.1 Q 53298.5 42108.35 53174.25 42071.6 Q 53048.25 42036.6 53048.25 41838.85 Q 53048.25 41641.1 52833 41390.85 Q 52439.25 40997.1 51793.5 39581.35 Q 51149.5 38165.6 51149.5 37735.1 Q 51149.5 37413.1 51506.5 37663.35 Q 51650 37770.1 51758.5 37985.35 Q 52224 38881.35 52474.25 38881.35 Q 52617.75 38881.35 52617.75 38379.1 Q 52617.75 37878.6 52743.75 37752.6 Q 52869.75 37626.6 52833 35423.35 Q 52798 33218.35 52761.25 33111.6 Q 52511 32752.85 50934.25 34616.6 Q 50467 35190.6 50181.75 35495.1 Q 49894.75 35799.6 49894.75 35834.6 Q 49894.75 35943.1 49159.75 36676.35 Q 48424.75 37411.35 47887.5 37913.6 Q 47565.5 38200.6 46848 38774.6 Q 46130.5 39346.85 45665 39740.6 Q 45199.5 40136.1 45056 40136.1 Q 44912.5 40136.1 44321 40601.6 Q 43729.5 41067.1 43640.25 41067.1 Q 43551 41067.1 43496.75 40494.85 Q 43442.5 39920.85 43353.25 39866.6 Q 43264 39812.35 43407.5 39401.1 Q 43551 38988.1 43479.25 38844.6 Q 43442.5 38774.6 43622.75 38128.85 Q 43801.25 37483.1 43873 37339.6 Q 44016.5 37196.1 44105.75 37213.6 Q 44195 37232.85 44195 37483.1 Q 44195 37735.1 44303.5 37735.1 Q 44338.5 37735.1 45558.25 36534.6 Q 46776.25 35334.1 47278.5 34796.85 Q 47565.5 34438.1 48424.75 33309.35 Q 49285.75 32180.6 49142.25 32089.6 Q 48998.75 32000.35 49177.25 32000.35 Q 49357.5 32000.35 49357.5 31893.6 Q 49357.5 31856.85 49053 31804.35 Q 48746.75 31750.1 48461.5 31821.85 Q 48353 31821.85 48353 31750.1 Q 48353 31678.35 48746.75 31517.35 Q 49142.25 31356.35 49501 31284.6 Q 50038.25 31141.1 50360.25 30673.85 Q 50682.25 30208.35 51023.5 29832.1 Q 51363 29455.85 51560.75 29025.35 Q 51758.5 28596.6 51865.25 28524.85 Q 51973.75 28453.1 51973.75 28344.6 Q 51973.75 28272.85 51721.75 28272.85 Q 51471.5 28272.85 51041 28398.85 Q 50610.5 28524.85 50181.75 28668.35 Q 49142.25 29097.1 47385.25 29671.1 Q 45630 30245.1 45414.75 30245.1 Q 45056 30245.1 44573 30047.35 Q 44088.25 29849.6 44125 29742.85 Q 44195 29706.1 44088.25 29616.85 Q 43981.5 29527.6 43818.75 29473.35 Q 43657.75 29420.85 43568.5 29329.85 Q 43479.25 29240.6 43479.25 29205.6 Q 43551 29097.1 43370.75 28953.6 Q 43192.25 28881.85 43066.25 28614.1 Q 42942 28344.6 42942 28129.35 Q 42942 28057.6 43264 28094.35 Q 43694.5 28166.1 44573 27933.35 Q 45449.75 27700.6 48640 26517.6 Q 49607.75 26193.85 49662 26087.1 Q 49714.5 25980.35 49303.25 25656.6 Q 48890.25 25334.6 48927 25226.1 Q 48998.75 25047.6 48389.75 24545.35 Q 48102.75 24330.1 48085.25 23614.35 Q 48066 22896.85 47779 22072.6 Q 47493.75 21248.35 47546.25 21213.35 Q 47600.5 21176.6 48209.5 21320.1 Q 48962 21535.35 49768.75 22198.6 Q 50575.5 22861.85 50790.75 23399.1 Q 50825.75 23614.35 52045.5 22681.6 Q 52869.75 22072.6 52887.25 22109.35 Q 52904.75 22144.35 52617.75 22574.85 Q 52189 23112.1 52189 23183.85 Q 52189 23434.1 52798 22933.6 L 53155 22646.6 L 53155 21391.85 Q 53155 20102.1 53137.5 19958.6 Q 53120 19815.1 52761.25 19815.1 Q 52439.25 19815.1 51669.25 19564.85 Q 50897.5 19312.85 50360.25 19062.6 Q 49858 18775.6 49697 18775.6 Q 49536 18775.6 49142.25 18381.85 Q 48640 17844.6 47994.25 17414.1 Q 47565.5 17092.1 48461.5 16840.1 Q 48675 16805.1 48927 16768.35 Q 49751.25 16589.85 51077.75 15980.85 Q 52582.75 15228.35 52833 15065.6 Q 53085 14904.6 53085 14545.85 Q 53085 13865.1 52761.25 12073.1 L 52439.25 10209.35 Q 52259 9313.35 52080.5 9117.35 Q 51902 8919.6 51937 8597.6  Z M 57026 18308.35 Q 56882.5 18273.35 56775.75 18273.35 Q 56669 18273.35 56525.5 18451.85 Q 56382 18632.1 56417 18703.85 Q 56417 18738.85 56327.75 18828.1 Q 56238.5 18919.1 56095 18990.85 Q 55843 19132.6 55790.5 19241.1 Q 55736.25 19347.85 55736.25 19743.35 Q 55736.25 20315.6 55682 20800.35 Q 55629.5 21283.35 55664.5 21283.35 Q 55773 21283.35 56201.75 20620.1 Q 56632.25 19958.6 56882.5 19491.35 Q 57384.75 18451.85 57026 18308.35  Z M 52726.25 24295.1 Q 53155 23899.6 53120 23792.85 Q 53085 23721.1 52904.75 23864.6 Q 52726.25 24008.1 52511 24223.35 Q 52295.75 24438.6 52259 24545.35 Q 52189 24760.6 52295.75 24688.85 Q 52367.5 24617.1 52726.25 24295.1  Z M 53155 24975.85 Q 53191.75 24723.85 53120 24688.85 Q 53013.25 24617.1 52761.25 24904.1 Q 52474.25 25297.85 52582.75 25334.6 Q 52617.75 25334.6 52833 25297.85 Q 53120 25226.1 53155 24975.85  Z M 93081.25 25262.85 Q 93655.25 25047.6 94229.25 25404.6 L 95554 26122.1 Q 96378.25 26587.6 96630.25 26785.35 Q 96880.5 26983.1 97311 27555.35 Q 98135.25 28631.6 97526.25 29060.35 Q 97274.25 29203.85 97221.75 29545.1 Q 97167.5 29884.6 97059 30010.6 Q 96952.25 30136.6 97006.5 30476.1 Q 97059 30817.35 97059 30995.85 Q 97059 31176.1 97006.5 31534.85 Q 96952.25 31891.85 96917.25 31891.85 Q 96808.75 31891.85 96576 31767.6 Q 96343.25 31641.6 96343.25 31606.6 Q 96343.25 31534.85 95949.5 31282.85 Q 95554 31032.6 95142.75 30728.1 Q 94729.75 30423.6 94514.5 30280.1 Q 94192.5 30136.6 93618.5 27950.85 Q 93405 27161.6 93118 26552.6 Q 92579 25476.35 93081.25 25262.85  Z M 94049 12251.6 Q 94336 12001.35 95160.25 12323.35 Q 95519 12430.1 95662.5 12430.1 Q 95949.5 12430.1 96199.75 12753.85 Q 96450 13075.85 96521.75 13469.6 Q 96665.25 14043.6 96773.75 14313.1 Q 96880.5 14580.85 96773.75 15405.1 Q 96737 16481.35 96593.5 16910.1 Q 96450 17340.6 95554 19634.85 Q 95447.25 19741.6 95625.75 19741.6 Q 95841 19706.6 96450 19526.35 Q 97095.75 19276.1 97865.75 19150.1 Q 98637.5 19025.85 98744.25 18845.6 L 98887.75 18595.35 Q 98922.75 18558.6 99622.75 18793.1 Q 100321 19025.85 100858.25 19276.1 Q 101610.75 19669.85 102006.25 20028.6 Q 103654.75 21426.85 103583 21605.35 Q 103474.5 21785.6 103367.75 23218.85 Q 103331 23577.6 103278.5 23666.85 Q 103224.25 23756.1 103224.25 24240.85 Q 103224.25 24723.85 103098.25 24795.6 Q 102974 24867.35 103080.75 24974.1 Q 103296 25226.1 103045.75 27446.85 L 102937.25 28342.85 Q 102865.5 28881.85 102776.25 28881.85 Q 102687 28881.85 102741.25 29114.6 Q 102793.75 29347.35 102687 29419.1 Q 102543.5 29525.85 102365 31102.6 Q 102256.5 31926.85 102149.75 32052.85 Q 102041.25 32178.85 102113 32609.35 Q 102184.75 33038.1 102058.75 33809.85 Q 101934.5 34579.85 101897.75 34758.35 Q 101682.5 36193.35 101469 36587.1 Q 101325.5 36874.1 101325.5 37106.85 Q 101325.5 37339.6 101182 37339.6 Q 101038.5 37339.6 100877.5 37698.35 Q 100714.75 38057.1 100338.5 38415.85 Q 99962.25 38774.6 99783.75 39096.6 Q 99640.25 39490.35 99174.75 40029.35 L 98887.75 40351.35 L 98385.5 39418.6 Q 97848.25 38450.85 97741.5 38450.85 Q 97526.25 38450.85 97167.5 37232.85 Q 97024 36767.35 96808.75 36228.35 Q 96378.25 35118.85 96450 34688.35 Q 96593.5 34257.85 97059 34616.6 Q 97311 34831.85 97598 34831.85 Q 97885 34831.85 97955 34616.6 Q 98026.75 34401.35 98170.25 34347.1 Q 98313.75 34294.6 98242 34203.6 Q 98170.25 34114.35 98350.5 33988.35 Q 98529 33864.1 98529 33416.1 Q 98529 32968.1 98583.25 32913.85 Q 98637.5 32859.6 98637.5 32215.6 Q 98600.75 31104.35 99138 26444.1 Q 99246.5 25513.1 99264 24886.6 Q 99281.5 24258.35 99370.75 23971.35 Q 99461.75 23684.35 99138 23399.1 Q 98922.75 23147.1 98833.5 22879.35 Q 98744.25 22609.85 98709.25 21857.35 Q 98709.25 21642.1 97489.5 22000.85 Q 97274.25 22107.6 96917.25 22179.35 Q 94623 22860.1 94014 23362.35 L 93762 23612.6 L 93368.25 23399.1 Q 92937.75 23147.1 92650.75 23129.6 Q 92365.5 23112.1 92185.25 22931.85 Q 92006.75 22753.35 91935 22807.6 Q 91863.25 22860.1 91271.75 22555.6 Q 90680.25 22251.1 90645.25 22251.1 Q 90465 22251.1 90321.5 23290.6 Q 90034.5 24939.1 90071.25 28451.35 Q 90071.25 29168.85 89927.75 30995.85 Q 89784.25 32824.6 89784.25 33398.6 Q 89856 34508.1 89534 35297.35 Q 89390.5 35656.1 89353.75 37017.6 Q 89353.75 37374.6 89318.75 37393.85 Q 89282 37411.35 89175.25 37267.85 Q 88925 37089.35 88566.25 36837.35 Q 88170.75 36622.1 87581 36013.1 Q 86989.5 35404.1 86989.5 35225.6 Q 86989.5 35082.1 86863.5 34956.1 Q 86737.5 34830.1 86737.5 34473.1 Q 86737.5 34114.35 86648.25 34060.1 Q 86559 34005.85 85626.25 34310.35 Q 84695.25 34614.85 83871 34849.35 Q 83046.75 35082.1 82992.5 35188.85 Q 82938.25 35297.35 82866.5 35906.35 Q 82794.75 36443.6 82723 36443.6 Q 82723 36478.6 82616.25 36300.1 Q 82401 36049.85 82311.75 36049.85 Q 82222.5 36049.85 81218 35117.1 Q 80430.5 34329.6 80269.5 34042.6 Q 80106.75 33755.6 80035 32894.6 Q 80035 32394.1 80106.75 31981.1 Q 80178.5 31569.85 80232.75 30869.85 Q 80287 30171.6 80430.5 29884.6 Q 80609 29347.35 80448 25602.35 Q 80287 21857.35 80035 21677.1 Q 79928.25 21570.35 79965 21444.35 Q 80000 21318.35 79839 21246.6 Q 79678 21174.85 79749.75 20961.35 Q 79784.75 20817.85 80161 20726.85 Q 80537.25 20637.6 80824.25 20781.1 Q 81146.25 20889.6 81254.75 20763.6 Q 81361.5 20637.6 81254.75 20315.6 Q 81146.25 20028.6 81183 19921.85 Q 81218 19813.35 81433.25 19563.1 Q 81757 19241.1 81757 19115.1 Q 81757 18989.1 81898.75 18989.1 Q 82042.25 18954.1 82742.25 18129.85 Q 83440.5 17305.6 83871 16553.1 Q 84229.75 16014.1 84551.75 15459.35 Q 84873.75 14902.85 85034.75 14545.85 Q 85197.5 14187.1 85125.75 14150.35 Q 85054 14078.6 84838.75 13971.85 Q 84658.5 13865.1 84677.75 13828.35 Q 84695.25 13793.35 84873.75 13865.1 Q 85089 13900.1 85089 13793.35 Q 85089 13721.6 84695.25 13541.35 Q 84336.5 13362.85 84445 13219.35 Q 84551.75 13147.6 84730.25 13219.35 Q 85411 13506.35 85698 13254.35 Q 85806.5 13147.6 86056.75 13380.35 Q 86307 13613.1 86630.75 13684.85 Q 87096.25 13756.6 87383.25 13971.85 Q 87670.25 14187.1 88279.25 14796.1 Q 88995 15548.6 89049.25 15889.85 Q 89103.5 16229.35 88566.25 16910.1 Q 88170.75 17520.85 87813.75 18093.1 L 87274.75 18954.1 L 87061.25 19312.85 L 87346.5 19454.6 Q 87633.5 19634.85 88242.5 19741.6 Q 88853.25 19850.1 89210.25 19993.6 Q 89534 20137.1 89856 20404.85 Q 90178 20674.35 90178 20817.85 Q 90178 20961.35 90269 21013.85 Q 90358.25 21068.1 90501.75 20996.35 Q 90645.25 20924.6 90823.75 20817.85 Q 91145.75 20530.85 91145.75 20422.35 Q 91145.75 20315.6 91432.75 19993.6 Q 91863.25 19526.35 92598.25 17986.35 Q 93333.25 16444.6 93475 15620.35 Q 93475 15513.6 93727 14761.1 Q 94192.5 13469.6 93905.5 12682.1 Q 93798.75 12501.85 94049 12251.6  Z M 86809.25 22287.85 Q 86737.5 22144.35 86594 22161.85 Q 86450.5 22179.35 85985 22431.35 Q 85376 22716.6 84623.5 22931.85 Q 83871 23147.1 83762.5 23040.35 Q 83619 22968.6 83619 22986.1 Q 83619 23003.6 83566.5 24760.6 Q 83512.25 26515.85 83619 26515.85 Q 83727.5 26515.85 84802 26032.85 Q 85878.25 25548.1 86378.75 25441.35 L 86881 25297.85 L 86881 23899.6 Q 86846 22503.1 86809.25 22287.85  Z M 86846 28846.85 Q 86846 28523.1 86846 28218.6 Q 86846 27914.1 86826.75 27735.6 Q 86809.25 27555.35 86774.25 27555.35 Q 86702.5 27555.35 85806.5 28022.6 Q 84551.75 28703.35 83762.5 28594.85 Q 83727.5 28594.85 83655.75 29562.6 Q 83584 30530.35 83566.5 31372.1 Q 83549 32215.6 83584 32430.85 Q 83619 32465.85 84067 32250.6 Q 84515 32035.35 84623.5 31856.85 Q 84838.75 31606.6 84963 31713.35 Q 85089 31820.1 85482.75 31713.35 Q 85878.25 31606.6 86307 31606.6 L 86737.5 31606.6 L 86774.25 30924.1 Q 86809.25 30208.35 86846 28846.85  Z M 135086.5 35727.85 L 135158.25 35834.6 Q 135230 35871.35 135265 35906.35 Q 135445.25 36156.6 135408.5 36228.35 Q 135336.75 36408.6 135230 36193.35 Q 135158.25 36121.6 135158.25 36014.85 Q 135158.25 35871.35 135086.5 35727.85  Z M 131322.25 17144.6 Q 131178.75 16875.1 131376.5 16696.6 Q 131574.25 16516.35 132613.75 16553.1 Q 133653.25 16588.1 134314.75 16911.85 Q 134978 17233.85 134978 17394.85 Q 134978 17555.85 135301.75 17699.35 Q 135517 17771.1 135821.5 18184.1 Q 136126 18595.35 136161 18882.35 Q 136197.75 19097.6 136304.5 19312.85 Q 136413 19528.1 136341.25 19599.85 Q 136269.5 19671.6 136413 19778.35 Q 136554.75 19886.85 136554.75 20028.6 Q 136554.75 20172.1 136789.25 20656.85 Q 137022 21139.85 136967.75 21248.35 Q 136913.5 21355.1 136985.25 21535.35 Q 137200.5 21929.1 137057 22287.85 Q 136985.25 22431.35 136931 22431.35 Q 136878.5 22431.35 136663.25 22216.1 Q 136269.5 21892.35 135445.25 21481.1 Q 134621 21068.1 134173 20441.6 Q 133725 19815.1 133616.5 19634.85 Q 133366.25 19132.6 132613.75 18327.6 Q 131861.25 17520.85 131609.25 17449.1 Q 131465.75 17412.35 131322.25 17144.6  Z M 125230.5 9528.6 Q 125731 9276.6 126018 9563.6 Q 126198.25 9778.85 126627 9994.1 Q 126985.75 10102.6 127416.25 10531.35 Q 127846.75 10961.85 128133.75 11355.6 Q 128419 11751.1 128277.25 11786.1 Q 128168.75 11822.85 128240.5 11929.6 Q 128312.25 12001.35 128473.25 12288.35 Q 128634.25 12575.35 128634.25 12647.1 Q 128634.25 12682.1 128490.75 12682.1 Q 128277.25 12682.1 128114.5 13327.85 Q 127953.5 13971.85 127953.5 14724.35 Q 127990.25 15692.1 128079.5 15944.1 Q 128168.75 16194.35 128240.5 16822.6 Q 128312.25 17449.1 128419 17860.35 Q 128527.5 18273.35 128562.5 18451.85 L 128742.75 19491.35 Q 128921.25 20352.35 128993 20996.35 Q 129064.75 21642.1 129173.25 21642.1 Q 129280 21642.1 129621.25 21426.85 Q 129960.75 21211.6 129960.75 21159.1 Q 129960.75 21104.85 130230.25 20961.35 Q 130498 20817.85 130624 20817.85 Q 130750 20817.85 130946 21015.6 Q 131143.75 21211.6 131287.25 21211.6 Q 131465.75 21211.6 132022.25 21535.35 Q 132577 21857.35 132899 22179.35 Q 133366.25 22574.85 133438 22574.85 Q 133509.75 22574.85 133383.75 22716.6 Q 133257.75 22860.1 133438 23040.35 Q 133725 23327.35 133438 23327.35 Q 133329.5 23327.35 133257.75 23577.6 Q 133186 23827.85 132970.75 23936.35 Q 132864 24043.1 132970.75 24043.1 Q 133114.25 24008.1 133616.5 23864.6 Q 133760 23827.85 133760 23864.6 Q 133760 23899.6 133473 24114.85 Q 133151 24401.85 132613.75 24723.85 Q 132111.5 25010.85 131359 25530.6 Q 130606.5 26050.35 130534.75 26139.6 Q 130463 26230.6 130730.75 27072.35 Q 131000.25 27914.1 131089.5 27914.1 Q 131178.75 27914.1 131304.75 27788.1 Q 131430.75 27663.85 131591.75 27807.35 Q 131752.75 27950.85 131950.5 27681.35 Q 132146.5 27411.85 132470.25 26587.6 Q 132792.25 25763.35 133114.25 25513.1 L 133401.25 25297.85 L 133903.5 25584.85 Q 134440.75 25871.85 134621 25978.6 Q 134799.5 26015.35 135069 26409.1 Q 135336.75 26802.85 135480.25 27196.6 Q 135623.75 27592.1 135569.5 28307.85 Q 135517 29025.35 134997.25 29993.1 Q 134477.5 30960.85 133903.5 31856.85 Q 133329.5 32752.85 133329.5 32878.85 Q 133329.5 33003.1 133634 33522.85 Q 133938.5 34042.6 133957.75 34151.1 Q 133975.25 34257.85 134351.5 34634.1 Q 134727.75 35010.35 134549.25 35047.1 Q 134153.75 35190.6 135445.25 36874.1 Q 136089.25 37663.35 137057 38737.85 L 137379 39168.35 L 137774.5 38881.35 Q 138527 38379.1 139458 36193.35 Q 139673.25 35727.85 139762.5 35512.6 Q 139853.5 35297.35 139942.75 35118.85 Q 140032 34938.6 140067 34975.35 Q 140103.75 35010.35 140210.5 35010.35 Q 140354 35118.85 140354 35297.35 Q 140354 35475.85 140497.5 35727.85 Q 140569.25 35906.35 140586.75 36891.6 Q 140606 37878.6 140534.25 38235.6 Q 140497.5 38450.85 140175.5 39383.6 Q 139853.5 40314.6 139781.75 40853.6 L 139494.75 42034.85 Q 139423 42608.85 139494.75 42608.85 Q 139673.25 42573.85 139673.25 42824.1 Q 139673.25 42967.6 139619 43021.85 Q 139566.5 43074.35 139494.75 43074.35 Q 139423 43074.35 139279.5 43021.85 Q 139136 42967.6 138885.75 42824.1 Q 138383.5 42537.1 138150.75 42573.85 Q 137918 42608.85 137720.25 42554.6 Q 137522.5 42502.1 137022 42411.1 Q 136519.75 42321.85 136519.75 42232.6 Q 136519.75 42143.35 135945.75 41623.6 Q 135373.5 41103.85 135408.5 40995.35 Q 135445.25 40673.35 135049.75 40314.6 Q 134762.75 40027.6 133957.75 39042.35 Q 133151 38057.1 132792.25 37680.85 Q 132433.5 37304.6 131933 36300.1 L 131394 35369.1 L 130750 36014.85 L 129638.75 37304.6 Q 129101.5 37878.6 128903.75 37878.6 Q 128706 37878.6 128742.75 37770.1 Q 128814.5 37554.85 128742.75 37250.35 Q 128671 36945.85 128473.25 36730.6 Q 128277.25 36515.35 128205.5 36587.1 Q 128133.75 36552.1 128097 36443.6 Q 128097 36228.35 127990.25 36228.35 Q 127881.75 36228.35 127792.5 35978.1 Q 127703.25 35727.85 127864.25 35601.85 Q 128025.25 35475.85 127810 35423.35 Q 127594.75 35369.1 127594.75 35260.6 Q 127594.75 35153.85 127433.75 35153.85 Q 127272.75 35153.85 127309.5 34705.85 Q 127344.5 34257.85 127416.25 34168.6 Q 127488 34079.35 127631.5 33755.6 Q 128097 32824.6 128490.75 32644.35 Q 128671 32609.35 128993 32124.6 Q 129315 31641.6 129386.75 31354.6 Q 129458.5 31176.1 129208.25 30351.85 Q 128958 29527.6 128777.75 29240.6 Q 128634.25 28988.6 128419 28236.1 Q 128205.5 27483.6 128151.25 27483.6 Q 128097 27483.6 126985.75 28022.6 L 126054.75 28451.35 Q 126270 28272.85 126879 27985.85 Q 127129.25 27879.1 127290.25 27753.1 Q 127453 27627.1 127416.25 27592.1 Q 127381.25 27483.6 127559.75 27448.6 Q 127594.75 27448.6 127631.5 27483.6 Q 127559.75 27592.1 127649 27592.1 Q 127738.25 27592.1 127953.5 27448.6 Q 128168.75 27340.1 128025.25 27126.6 Q 127953.5 26983.1 127846.75 27018.1 Q 127738.25 27054.85 127309.5 27305.1 Q 126054.75 27950.85 125731 28146.85 Q 125409 28344.6 125374 28559.85 Q 125337.25 28775.1 125409 28810.1 Q 125445.75 28846.85 125517.5 28738.35 Q 125624.25 28594.85 125731 28594.85 Q 125839.5 28594.85 125552.5 28846.85 L 125265.5 29097.1 L 125265.5 30780.6 Q 125374 32968.1 125480.75 32968.1 Q 125661 32968.1 125696 33074.85 Q 125731 33183.35 125552.5 33218.35 Q 125445.75 33290.1 125624.25 33433.6 Q 125946.25 33648.85 125445.75 34114.35 L 125122 34473.1 L 125122 37017.6 Q 125122 39598.85 125032.75 39742.35 Q 124943.5 39885.85 124906.75 40136.1 Q 124906.75 40242.85 124854.25 40405.6 Q 124800 40566.6 124728.25 40727.6 Q 124656.5 40888.6 124584.75 41014.6 Q 124513 41138.85 124441.25 41229.85 Q 124369.5 41319.1 124369.5 41247.35 Q 124297.75 41210.6 124226 41282.35 Q 124154.25 41354.1 124082.5 41515.1 Q 124010.75 41677.85 123904 41963.1 Q 123797.25 42430.35 123617 42752.35 L 123438.5 43039.35 L 123223.25 42608.85 Q 123043 42215.1 122453.25 41641.1 Q 121861.75 41067.1 121861.75 40871.1 Q 121861.75 40673.35 121699 40673.35 Q 121538 40673.35 121592.25 40529.85 Q 121646.5 40386.35 121466.25 40207.85 Q 121287.75 40027.6 121037.5 39455.35 Q 120785.5 38881.35 120713.75 38774.6 Q 120678.75 38737.85 120265.75 39131.6 Q 119854.5 39527.1 119389 40064.35 Q 118921.75 40601.6 118778.25 40888.6 Q 118743.25 40960.35 118402 40799.35 Q 118062.5 40638.35 117847.25 40423.1 Q 117488.5 40099.35 117310 40171.1 Q 117201.5 40279.6 116879.5 40207.85 Q 116557.5 40136.1 116557.5 40064.35 Q 116557.5 39957.6 116414 40027.6 Q 116377.25 39885.85 116342.25 39814.1 Q 116342.25 39562.1 116198.75 39401.1 Q 116055.25 39240.1 115875 39240.1 Q 115518 39240.1 115661.5 38666.1 Q 115733.25 38415.85 116018.5 38415.85 Q 116485.75 38415.85 118349.5 36587.1 Q 119602.5 35369.1 120894 34364.6 L 122218.75 33398.6 L 122255.5 32287.35 Q 122362.25 31176.1 122309.75 31121.85 Q 122255.5 31067.6 122112 31176.1 Q 120535.25 32359.1 119459 32824.6 Q 119137 32968.1 119137 33129.1 Q 119137 33290.1 118958.5 33235.85 Q 118778.25 33183.35 118528 33129.1 Q 118277.75 33074.85 117864.75 32716.1 Q 117453.5 32359.1 117166.5 32359.1 Q 116879.5 32359.1 116771 32107.1 Q 116664.25 31856.85 116394.75 31856.85 Q 116127 31856.85 116072.75 31730.85 Q 116018.5 31606.6 115822.5 31676.6 Q 115624.75 31748.35 115570.5 31606.6 Q 115518 31463.1 115337.75 31463.1 Q 114765.5 31463.1 114550.25 30817.35 Q 114478.5 30458.6 114602.75 30369.35 Q 114728.75 30280.1 114513.5 30099.85 Q 114191.5 29706.1 114728.75 29706.1 Q 114837.25 29706.1 114979 29777.85 Q 115374.5 29814.6 116233.75 29384.1 Q 117094.75 28953.6 117238.25 28953.6 Q 117381.75 28953.6 117488.5 28738.35 Q 117597 28523.1 117847.25 28523.1 Q 118097.5 28523.1 118097.5 28362.1 Q 118097.5 28201.1 118223.5 28201.1 Q 118349.5 28201.1 118886.75 27663.85 Q 119317.25 27196.6 119889.5 26857.1 Q 120463.5 26515.85 120607 26587.6 Q 120750.5 26659.35 120983.25 26391.6 Q 121216 26122.1 121431.25 26067.85 Q 121646.5 26015.35 122040.25 25800.1 Q 122327.25 25584.85 122362.25 25369.6 Q 122399 25154.35 122218.75 24330.1 Q 122077 23577.6 121503 23003.6 Q 121072.5 22538.1 120965.75 22483.85 Q 120857.25 22431.35 120607 22538.1 Q 120285 22681.6 120285 22825.1 Q 120285 22968.6 120104.75 23022.85 Q 119926.25 23075.35 119782.75 23003.6 Q 119674.25 22968.6 119513.25 22555.6 Q 119352.25 22144.35 119352.25 21946.6 Q 119352.25 21750.6 118976 21391.85 Q 118599.75 21033.1 118689 21033.1 Q 118778.25 21033.1 118563 20817.85 Q 118384.5 20639.35 118456.25 20352.35 Q 118528 20065.35 118743.25 19993.6 Q 118921.75 19886.85 118778.25 19706.6 Q 118528 19456.35 118921.75 18990.85 Q 119137 18847.35 119137 18721.35 Q 119137 18595.35 119317.25 18667.1 Q 119389 18632.1 119389 18632.1 Q 119389 18595.35 119424 18560.35 Q 119459 18523.6 119602.5 18523.6 Q 120141.5 18523.6 120248.25 18380.1 Q 120320 18308.35 121342 17359.85 Q 122362.25 16409.6 122362.25 16302.85 Q 122362.25 16194.35 122631.75 15854.85 Q 122901.25 15513.6 122901.25 15370.1 Q 122901.25 15263.35 123134 15244.1 Q 123366.75 15226.6 123634.5 15280.85 Q 123904 15335.1 123975.75 15441.85 Q 124047.5 15620.35 124154.25 15620.35 Q 124297.75 15620.35 124693.25 15996.6 Q 125087 16374.6 125087 16498.85 Q 125087 16624.85 125480.75 16983.6 Q 125767.75 17270.6 125839.5 17359.85 Q 125911.25 17449.1 125767.75 17555.85 Q 125517.5 17879.6 125731 17986.35 Q 125767.75 17986.35 125839.5 17932.1 Q 125911.25 17879.6 125911.25 17897.1 Q 125911.25 17914.6 125839.5 17986.35 Q 125767.75 18094.85 125911.25 18308.35 Q 125983 18451.85 125946.25 18488.6 Q 125911.25 18523.6 125661 18523.6 Q 125445.75 18523.6 125354.75 18560.35 Q 125265.5 18595.35 125337.25 18667.1 Q 125374 18847.35 125230.5 18847.35 Q 125087 18847.35 125087 18971.6 Q 125087 19097.6 124710.75 19330.35 Q 124334.5 19563.1 124334.5 19652.35 Q 124334.5 19743.35 124010.75 20119.6 Q 123688.75 20495.85 123545.25 20495.85 Q 123079.75 20567.6 123151.5 20782.85 Q 123151.5 20996.35 122918.75 20943.85 Q 122686 20889.6 122686 21050.6 Q 122686 21211.6 122577.5 21159.1 Q 122470.75 21104.85 122470.75 21230.85 Q 122470.75 21355.1 122362.25 21283.35 Q 122255.5 21211.6 122077 21463.6 Q 121718.25 21857.35 122327.25 22000.85 Q 122757.75 22179.35 123869 23112.1 Q 124154.25 23399.1 124352 23470.85 Q 124549.75 23542.6 124656.5 23827.85 Q 124835 24295.1 125122 23936.35 Q 125265.5 23756.1 125552.5 23666.85 Q 125839.5 23577.6 126072.25 23327.35 Q 126305 23075.35 126485.25 23075.35 Q 126663.75 23075.35 126861.5 22931.85 Q 127057.5 22788.35 127057.5 22681.6 Q 127057.5 22538.1 126842.25 21696.35 Q 126627 20854.6 126359.25 19043.35 Q 126089.75 17233.85 125767.75 15406.85 Q 125265.5 12860.6 125015.25 10352.85 Q 124978.5 9850.6 124997.75 9743.85 Q 125015.25 9635.35 125230.5 9528.6  Z M 132361.75 24330.1 Q 132648.75 24079.85 132290 24223.35 Q 132146.5 24295.1 131933 24438.6 Q 131717.75 24580.35 131591.75 24652.1 Q 131465.75 24723.85 131465.75 24760.6 Q 131537.5 24867.35 131878.75 24688.85 Q 132218.25 24508.6 132361.75 24330.1  Z M 130641.5 25513.1 Q 130785 25334.6 130785 25262.85 Q 130750 25154.35 130463 25404.6 Q 130211 25584.85 130302 25674.1 Q 130391.25 25763.35 130641.5 25513.1  Z M 121986 37609.1 Q 122077 37554.85 122077 37411.35 Q 122077 37267.85 121968.5 37267.85 Q 121861.75 37267.85 121431.25 37787.6 Q 121000.75 38307.35 121037.5 38415.85 Q 121072.5 38522.6 121216 38361.6 Q 121359.5 38200.6 121574.75 38307.35 Q 121646.5 38307.35 121718.25 38235.6 Q 121790 38163.85 121825 38020.35 Q 121896.75 37661.6 121986 37609.1  Z M 159350.25 21320.1 Q 159493.75 21211.6 159887.5 21391.85 Q 160209.5 21498.6 160318 21535.35 Q 161392.5 21857.35 162001.5 22359.6 Q 162181.75 22538.1 162325.25 22825.1 Q 162467 23112.1 162414.5 23183.85 Q 162360.25 23255.6 162503.75 23792.85 Q 162647.25 24330.1 162558 25154.35 Q 162467 25978.6 162397 26535.1 Q 162325.25 27089.85 162253.5 27735.6 Q 162181.75 28379.6 162038.25 29490.85 Q 161536 34473.1 160746.75 35440.85 Q 160461.5 35727.85 160461.5 35906.35 Q 160461.5 36086.6 160353 35799.6 Q 160281.25 35584.35 160066 35386.6 Q 159850.75 35190.6 159815.75 35190.6 Q 159709 35190.6 159206.75 34579.85 Q 158704.5 33970.85 158632.75 33755.6 Q 158454.25 33361.85 158274 33146.6 Q 158130.5 33003.1 158058.75 32752.85 Q 157987 32502.6 158130.5 32394.1 Q 158202.25 32287.35 158293.25 31946.1 Q 158382.5 31606.6 158578.5 30817.35 Q 158776.25 30028.1 158848 29562.6 Q 158919.75 29097.1 159080.75 28075.1 Q 159241.75 27054.85 159296 26193.85 Q 159350.25 25334.6 159385.25 25226.1 Q 159493.75 25047.6 159474.5 23631.85 Q 159457 22216.1 159385.25 21857.35 Q 159313.5 21463.6 159350.25 21320.1  Z M 177090 19025.85 Q 177161.75 18810.6 177233.5 18882.35 Q 177305.25 18954.1 177161.75 19062.6 Q 177090 19132.6 177072.5 19132.6 Q 177055 19132.6 177090 19025.85  Z M 160353 16875.1 Q 160389.75 16731.6 160479 16696.6 Q 160568.25 16659.85 160855.25 16731.6 Q 161642.75 16840.1 163328 17555.85 L 163721.75 17699.35 L 164117.25 17377.35 Q 164439.25 17055.35 164582.75 17018.6 Q 164726.25 17018.6 164743.75 17036.1 Q 164761.25 17055.35 164637 17323.1 Q 164511 17592.6 164654.5 17932.1 Q 164798 18273.35 164904.75 18345.1 Q 165013.25 18416.85 164798 18775.6 Q 164582.75 19132.6 164761.25 19384.6 L 165013.25 19815.1 Q 165085 19958.6 164904.75 20191.35 Q 164726.25 20424.1 164726.25 20854.6 Q 164761.25 21176.6 164726.25 21194.1 Q 164689.5 21211.6 164546 21139.85 Q 164402.5 20961.35 164313.25 20835.35 Q 164224 20711.1 163973.75 20711.1 Q 163721.75 20711.1 163454 20513.35 Q 163184.5 20315.6 163006 20315.6 Q 162825.75 20315.6 162288.5 19815.1 Q 161751.25 19312.85 161357.5 18775.6 Q 161033.75 18380.1 160855.25 18166.6 Q 160605 17914.6 160442.25 17520.85 Q 160281.25 17127.1 160353 16875.1  Z M 170567.75 14582.6 Q 171070 14582.6 171194.25 14367.35 Q 171320.25 14152.1 171607.25 14152.1 Q 171894.25 14152.1 172072.75 14367.35 Q 172253 14582.6 172664.25 14563.35 Q 173077.25 14545.85 173238.25 14706.85 Q 173399.25 14867.85 173775.5 14993.85 Q 174151.75 15119.85 174850 15567.85 Q 175550 16015.85 175800.25 16302.85 Q 176050.5 16588.1 176230.75 17288.1 Q 176409.25 17986.35 176337.5 18451.85 Q 176302.5 18847.35 176050.5 19097.6 Q 175478.25 19778.35 174904.25 21498.6 Q 174473.75 22860.1 174312.75 25171.85 Q 174151.75 27483.6 174330.25 29275.6 Q 174725.75 33290.1 174367 36802.35 Q 174295.25 37448.1 174186.75 37680.85 Q 174080 37913.6 173506 38594.35 Q 173471 38702.85 173399.25 38522.6 Q 173327.5 38307.35 173219 38522.6 Q 173184 38631.1 173184 38774.6 Q 173184 39024.85 172933.75 39383.6 Q 172681.75 39740.6 172610 39955.85 Q 172538.25 40171.1 172466.5 40171.1 Q 172359.75 40171.1 172144.5 39992.6 Q 171929.25 39812.35 171929.25 39670.6 Q 171929.25 39455.35 171785.75 39383.6 Q 171642.25 39311.85 171266 38522.6 Q 170889.75 37735.1 170352.5 37089.35 Q 168882.5 35190.6 168919.25 34723.35 Q 168919.25 34508.1 168847.5 34114.35 Q 168810.75 33864.1 168830 33809.85 Q 168847.5 33755.6 168954.25 33792.35 Q 169134.5 33792.35 169241.25 33935.85 Q 169778.5 34579.85 170280.75 34616.6 Q 170602.75 34651.6 170926.5 34795.1 L 171285.25 34975.35 L 171320.25 34329.6 Q 171392 33648.85 171320.25 32572.6 Q 171105 29742.85 171070 22431.35 Q 171070 17592.6 170926.5 17592.6 Q 170783 17592.6 169958.75 17914.6 Q 168310.25 18523.6 166661.75 17879.6 Q 166231.25 17699.35 165909.25 17592.6 Q 165585.5 17484.1 165317.75 17233.85 Q 165048.25 16983.6 165048.25 16803.35 Q 165048.25 16659.85 164904.75 16659.85 Q 164761.25 16659.85 164743.75 16355.35 Q 164726.25 16050.85 164869.75 15944.1 Q 165013.25 15835.6 165657.25 15835.6 Q 166696.75 15835.6 168991 15119.85 Q 169706.75 14904.6 169887 14904.6 Q 170065.5 14904.6 170065.5 14743.6 Q 170065.5 14582.6 170567.75 14582.6  Z M 155479.25 12647.1 Q 155729.5 12538.6 155586 12466.85 Q 155442.5 12395.1 155551 12395.1 Q 155657.75 12395.1 156053.25 12647.1 Q 156697.25 13004.1 156697.25 12790.6 Q 156553.75 12647.1 156984.25 12897.35 Q 157056 12969.1 157234.5 13075.85 Q 157558.25 13327.85 157630 13327.85 Q 157701.75 13327.85 158221.5 13793.35 Q 158741.25 14258.85 158813 14258.85 Q 158883 14258.85 159098.25 14671.85 Q 159313.5 15083.1 159313.5 15674.6 Q 159313.5 16266.1 159350.25 16302.85 Q 159493.75 16444.6 158883 17681.85 Q 158274 18919.1 157665 19743.35 Q 157378 20137.1 156949.25 20907.1 Q 156518.75 21678.85 156410.25 21713.85 Q 156160 21857.35 156877.5 22251.1 Q 157162.75 22394.6 157253.75 22520.6 Q 157343 22646.6 157449.75 23040.35 Q 157558.25 23399.1 157575.75 25691.6 Q 157593.25 27985.85 157449.75 28379.6 Q 157162.75 29490.85 157449.75 29562.6 Q 157630 29634.35 157449.75 30208.35 Q 157271.25 30780.6 157091 32178.85 Q 156912.5 33577.1 156769 34186.1 Q 156625.5 34795.1 156573 35512.6 Q 156518.75 36228.35 156266.75 36658.85 L 156016.5 37161.1 L 155873 36874.1 Q 155657.75 36587.1 155514.25 36497.85 Q 155370.75 36408.6 155370.75 36300.1 Q 155370.75 36049.85 154439.75 35153.85 Q 154117.75 34795.1 154189.5 34544.85 Q 154261.25 34294.6 154063.5 34079.35 Q 153865.75 33864.1 153865.75 33612.1 Q 153937.5 33326.85 154152.75 32572.6 Q 154403 31963.6 154618.25 29706.1 L 154761.75 27842.35 Q 155048.75 24508.6 154798.5 24151.6 Q 154690 24008.1 154761.75 23792.85 L 154690 23756.1 Q 154618.25 23936.35 154546.5 23899.6 L 154439.75 24043.1 Q 154403 24258.35 154403 24545.35 Q 154403 24617.1 154135.25 25100.1 Q 153865.75 25584.85 153615.5 25871.85 Q 153543.75 25978.6 153472 26158.85 Q 153328.5 26480.85 152504.25 27555.35 Q 151680 28631.6 151249.5 29097.1 Q 150568.75 29671.1 150497 29527.6 Q 150497 29527.6 150462 29455.85 Q 150390.25 29203.85 150318.5 28953.6 Q 150246.75 28201.1 149994.75 28201.1 Q 149888 28201.1 149781.25 27735.6 Q 149672.75 27268.35 149566 27268.35 Q 149457.5 27268.35 149422.5 27018.1 Q 149385.75 26767.85 149457.5 26659.35 Q 149601 26515.85 149494.25 26444.1 Q 149385.75 26372.35 149405 26104.6 Q 149422.5 25835.1 149566 25656.6 Q 149672.75 25513.1 149618.5 25423.85 Q 149566 25334.6 149744.5 25154.35 Q 150031.5 24867.35 150819 23936.35 Q 150999.25 23792.85 151734.25 22646.6 Q 152469.25 21498.6 152630.25 21302.6 Q 152791.25 21104.85 152969.75 20711.1 Q 153150 20315.6 153221.75 20315.6 Q 153293.5 20315.6 153293.5 20172.1 Q 153293.5 20028.6 153489.5 19778.35 Q 153687.25 19528.1 154152.75 18667.1 L 155120.5 16840.1 Q 155622.75 15979.1 155622.75 15835.6 Q 155622.75 15692.1 155962.25 14887.1 Q 156303.5 14080.35 156303.5 13865.1 Q 156303.5 13434.6 155514.25 12897.35 L 155229 12718.85 L 155479.25 12647.1 Z M 154046 24832.35 Q 154046 24508.6 153865.75 24795.6 Q 153830.75 24867.35 153937.5 24939.1 Q 154046 25010.85 154046 24832.35  Z M 153615.5 25404.6 Q 153722.25 25404.6 153722.25 25315.35 Q 153722.25 25226.1 153615.5 25226.1 Q 153507 25226.1 153507 25315.35 Q 153507 25404.6 153615.5 25404.6  Z M 153328.5 25800.1 Q 153293.5 25978.6 153417.75 25835.1 Q 153543.75 25691.6 153472 25656.6 Q 153472 25619.85 153437 25656.6 Q 153400.25 25691.6 153328.5 25800.1  Z " fill-rule="nonzero" style="fill:#f8eb9b;;fill-opacity:1;"/>
</svg>