<svg version="1.1" x="0" y="0" width="100%" height="100%" viewBox="0 0 25548.8 38092.8" xmlns="http://www.w3.org/2000/svg">
  <path d="M 18956 16031.6 Q 18956 15884 19152.8 15982.4 Q 19275.2 16031.6 19570.4 16179.2 Q 20111.6 16425.2 20210 16425.2 Q 20308.4 16425.2 20357.6 16498.4 Q 20406.8 16572.8 20553.2 16572.8 Q 20676.8 16572.8 20824.4 16683.2 Q 20972 16793.6 20972 16916 Q 20972 16990.4 21045.2 16990.4 Q 21118.4 16990.4 21033.2 17088.8 Q 20946.8 17187.2 21143.6 17248.4 Q 21340.4 17309.6 21242 17408 Q 21143.6 17506.4 21230 17592.8 Q 21315.2 17678 21315.2 17788.4 Q 21315.2 17900 21610.4 18071.6 Q 21954.8 18219.2 21978.8 18353.6 Q 22004 18489.2 21758 18784.4 Q 21684.8 18857.6 21708.8 18981.2 Q 21782 19349.6 21770 19410.8 Q 21758 19472 21512 19521.2 Q 21216.8 19570.4 19755.2 19779.2 Q 18292.4 19988 17260.4 20135.6 Q 16228.4 20283.2 15356 20468 Q 14483.6 20651.6 12996.8 20897.6 Q 11510 21143.6 10994 21242 Q 9936.8 21462.8 9396.8 21216.8 Q 9003.2 21021.2 8806.4 20934.8 Q 8609.6 20848.4 8609.6 20750 Q 8609.6 20651.6 8363.6 20504 Q 8118.8 20357.6 8118.8 20246 Q 8118.8 20135.6 6840.8 18906.8 Q 6693.2 18808.4 6693.2 18784.4 Q 6693.2 18759.2 6815.6 18686 Q 6914 18636.8 7258.4 18674 Q 7601.6 18710 8142.8 18599.6 Q 8684 18489.2 8794.4 18575.6 Q 8904.8 18660.8 8966 18563.6 Q 9027.2 18465.2 9236 18440 Q 9444.8 18416 9494 18341.6 Q 9592.4 18292.4 9740 18268.4 Q 9887.6 18243.2 9936.8 18292.4 Q 9962 18341.6 10096.4 18231.2 Q 10232 18120.8 10342.4 18182 Q 10452.8 18243.2 10588.4 18158 Q 10722.8 18071.6 10772 18158 Q 10821.2 18243.2 10895.6 18132.8 Q 10968.8 18022.4 11165.6 18034.4 Q 11362.4 18046.4 11632.4 17949.2 Q 11902.4 17850.8 11964.8 17886.8 Q 12026 17924 12124.4 17874.8 Q 12222.8 17825.6 12689.6 17752.4 Q 12861.2 17727.2 13266.8 17592.8 Q 13672.4 17457.2 13881.2 17481.2 Q 14090 17506.4 14090 17432 Q 14090 17285.6 14901.2 17285.6 Q 15122 17285.6 15330.8 17174 Q 15540.8 17063.6 15712.4 17088.8 Q 15884 17112.8 15921.2 17051.6 Q 15958.4 16990.4 16031.6 17039.6 Q 16106 17088.8 16425.2 16990.4 Q 16842.8 16892 17260.4 16817.6 Q 17628.8 16793.6 17727.2 16707.2 Q 17825.6 16622 17924 16671.2 Q 18022.4 16720.4 18071.6 16646 Q 18120.8 16572.8 18219.2 16596.8 Q 18416 16646 18636.8 16425.2 Q 18735.2 16350.8 18686 16326.8 Q 18587.6 16301.6 18587.6 16228.4 Q 18587.6 16155.2 18660.8 16191.2 Q 18735.2 16228.4 18735.2 16142 Q 18735.2 16056.8 18845.6 16106 Q 18956 16155.2 18956 16031.6  Z " fill-rule="nonzero" style="fill:#690707;;fill-opacity:1;"/>
</svg>