<svg version="1.1" x="0" y="0" width="100%" height="100%" viewBox="0 0 1181696 180019.2" xmlns="http://www.w3.org/2000/svg">
  <path d="M 110355.8 139536.2 Q 112643.6 139282 112959.8 139220 Q 113276 139158 112835.8 139604.4 Q 112389.4 140044.6 109853.6 140174.8 Q 107689.8 140298.8 107820 140112.8 Q 107944 139920.6 110355.8 139536.2  Z M 124070.2 128748.2 L 124200.4 128494 Q 124578.6 129256.6 123884.2 131036 Q 123183.6 132809.2 121658.4 134334.4 Q 120771.8 135351.2 121026 135797.6 Q 121280.2 136237.8 120517.6 136430 Q 119755 136622.2 119755 137000.4 Q 119755 137130.6 119693 137192.6 Q 119624.8 137254.6 119500.8 137254.6 Q 118360 137130.6 118360 137763 Q 118360 138271.4 117089 138903.8 Q 115818 139542.4 114801.2 139542.4 Q 113028 139542.4 114547 138649.6 Q 114801.2 138525.6 115563.8 138271.4 Q 117213 137639 118738.2 136368 Q 120133.2 135475.2 121404.2 133702 Q 122675.2 131922.6 122675.2 131414.2 Q 122675.2 130905.8 123437.8 130205.2 Q 124200.4 129510.8 124070.2 128748.2  Z M 38745.8 54844.2 Q 39000 53957.6 39254.2 53827.4 Q 39508.4 53703.4 40395 53827.4 Q 41790 53957.6 42044.2 54466 Q 42552.6 54590 43631.4 54590 Q 44710.2 54590 45218.6 54081.6 Q 45603 53827.4 46365.6 54335.8 Q 47122 54844.2 49285.8 56877.8 Q 53470.8 61069 51697.6 62588 Q 51189.2 63226.6 51189.2 63735 Q 51189.2 64243.4 50550.6 64621.6 Q 50172.4 64751.8 50110.4 65130 Q 50042.2 65514.4 50550.6 66655.2 Q 51189.2 68304.4 50680.8 68304.4 Q 50172.4 68304.4 48901.4 69829.6 Q 47630.4 71354.8 46743.8 73004 Q 44201.8 77827.6 43569.4 80239.4 Q 43439.2 81256.2 42682.8 82018.8 Q 40773.2 83798.2 40773.2 85955.8 Q 40773.2 87350.8 41349.8 88491.6 Q 41920.2 89638.6 42682.8 90016.8 Q 43315.2 90401.2 45919.2 92620.8 Q 48523.2 94840.4 49540 95857.2 Q 50426.6 96619.8 50172.4 96874 L 50426.6 97128.2 Q 50804.8 97128.2 51375.2 97828.8 Q 51951.8 98523.2 51951.8 99285.8 Q 51951.8 100178.6 52522.2 101189.2 Q 53092.6 102206 52714.4 102336.2 Q 52460.2 102460.2 51251.2 104239.6 Q 50042.2 106019 50042.2 106273.2 Q 50042.2 106397.2 50804.8 107414 Q 51443.4 108300.6 51313.2 108300.6 Q 51313.2 108430.8 50804.8 108300.6 Q 50296.4 108046.4 49285.8 107414 Q 45472.8 104872 44710.2 104872 Q 43947.6 104872 43631.4 104047.4 Q 43315.2 103222.8 42428.6 103284.8 Q 41535.8 103353 41535.8 102590.4 L 41411.8 102082 Q 41027.4 102206 40903.4 107283.8 Q 40773.2 112367.8 40202.8 115157.8 Q 39632.4 117954 39632.4 122145.2 Q 39378.2 134074 38491.6 136231.6 Q 38361.4 136740 38107.2 137756.8 Q 37853 138773.6 37090.4 138519.4 Q 36712.2 138395.4 36396 139220 Q 36079.8 140044.6 35187 144105.6 Q 34808.8 146009 34808.8 146009 Q 34808.8 146139.2 34492.6 145754.8 Q 34170.2 145376.6 33668 144806.2 Q 33159.6 144235.8 32775.2 143473.2 Q 30741.6 140677 30363.4 140422.8 Q 29092.4 139027.8 28906.4 138581.4 Q 28714.2 138141.2 28968.4 137248.4 Q 29346.6 136107.6 29346.6 135791.4 Q 29346.6 135475.2 28838.2 135475.2 L 28584 135221 Q 28968.4 134712.6 29731 131662.2 Q 29855 130645.4 29092.4 129380.6 Q 28584 128487.8 28584 127539.2 Q 28584 126584.4 29092.4 126584.4 Q 29346.6 126584.4 29346.6 126076 Q 29346.6 125567.6 28968.4 125567.6 Q 28838.2 125443.6 28838.2 124935.2 Q 28838.2 124426.8 29092.4 123664.2 Q 29346.6 122901.6 29731 122647.4 Q 30109.2 122139 30171.2 116298.6 Q 30239.4 110458.2 29731 110204 Q 29222.6 109949.8 29985.2 104872 Q 30109.2 103731.2 29985.2 103731.2 Q 29985.2 103731.2 29731 104109.4 Q 29092.4 104487.6 29092.4 104996 Q 29092.4 105504.4 28075.6 107029.6 Q 27065 108554.8 25285.6 112175.6 Q 23506.2 115790.2 22873.8 116683 Q 16903.2 123918.4 16903.2 124172.6 Q 16903.2 124550.8 15762.4 125759.8 Q 14621.6 126968.8 14113.2 126522.4 Q 13604.8 126076 12588 127601.2 L 11447.2 128872.2 L 9922 125952 Q 8520.8 123155.8 7764.4 122777.6 Q 7001.8 122399.4 6933.6 122207.2 Q 6871.6 122015 7634.2 121252.4 Q 8272.8 120620 8334.8 120365.8 Q 8396.8 120111.6 7888.4 119479.2 Q 7380 118586.4 7380 118394.2 Q 7380 118208.2 8142.6 117954 Q 8775 117823.8 8713 116807 Q 8651 115796.4 7764.4 115033.8 Q 6871.6 114141 6871.6 113378.4 Q 7001.8 112746 9159.4 109571.6 Q 9791.8 108300.6 11887.4 104810 Q 13983 101319.4 14237.2 101319.4 Q 16394.8 101065.2 21857 91287.8 Q 24144.8 86842.4 26302.4 83035.6 Q 28075.6 80115.4 27889.6 79861.2 Q 27697.4 79607 24777.2 81510.4 Q 22365.4 82905.4 21410.6 83221.6 Q 20462 83544 18428.4 83035.6 Q 16270.8 82651.2 14869.6 82589.2 Q 13474.6 82527.2 12650 81764.6 Q 11825.4 81002 10430.4 80115.4 Q 9413.6 79352.8 9413.6 79098.6 Q 9922 78968.4 9791.8 78460 Q 9667.8 77957.8 9159.4 77957.8 Q 8396.8 77957.8 8396.8 77573.4 Q 8396.8 77195.2 9413.6 77195.2 Q 10176.2 77195.2 10176.2 77065 Q 10176.2 76941 9667.8 76432.6 Q 9159.4 75794 7764.4 75670 Q 7001.8 75285.6 6809.6 75099.6 Q 6617.4 74907.4 6617.4 74275 Q 6617.4 73382.2 6933.6 73258.2 Q 7256 73128 8775 73128 Q 12457.8 72873.8 16525 69829.6 Q 18682.6 68180.4 19953.6 67287.6 Q 29731 60560.6 31634.4 58657.2 Q 32651.2 57764.4 34808.8 57132 Q 36966.4 56493.4 37412.8 56115.2 Q 37853 55737 38107.2 55861 Q 38361.4 55991.2 38491.6 55861 Q 38615.6 55737 38677.6 55482.8 Q 38745.8 55228.6 38745.8 54844.2  Z M 80645.4 41136 Q 83441.6 40243.2 86361.8 40243.2 Q 88519.4 40243.2 89536.2 40565.6 Q 90553 40881.8 93851.4 42276.8 Q 100454.4 45197 100454.4 46722.2 Q 100454.4 47230.6 100900.8 47484.8 Q 101341 47739 101086.8 48749.6 Q 100832.6 49766.4 100708.6 53071 Q 100708.6 55606.8 99946 59035.4 Q 99183.4 62464 98675 63102.6 Q 98296.8 63480.8 98551 63865.2 Q 98805.2 64243.4 98166.6 65384.2 Q 97534.2 66531.2 97788.4 66847.4 Q 98042.6 67163.6 97218 67864.2 Q 96393.4 68558.6 96579.4 69451.4 Q 96771.6 70338 96071 71547 Q 95376.6 72749.8 95376.6 73388.4 Q 95376.6 74020.8 94421.8 74907.4 Q 93473.2 75800.2 93150.8 77319.2 Q 92834.6 78844.4 92518.4 79228.8 Q 92202.2 79607 91948 80747.8 Q 91693.8 81894.8 91055.2 82149 Q 90298.8 82273 90106.6 82149 Q 89914.4 82018.8 89220 80816 Q 88519.4 79607 87632.8 79352.8 Q 86994.2 79352.8 86678 79669 Q 86361.8 79991.4 86485.8 80561.8 Q 86616 81132.2 87378.6 82018.8 Q 88519.4 83544 88773.6 84815 Q 89151.8 86210 89151.8 89892.8 Q 89151.8 93575.6 88773.6 95355 Q 88389.2 97258.4 88203.2 99986.4 Q 88011 102714.4 87310.4 104431.8 Q 86616 106143 86231.6 109894 Q 85853.4 113638.8 86616 116813.2 Q 87248.4 119733.4 88203.2 121128.4 Q 89151.8 122523.4 91309.4 123540.2 Q 93343 124557 97788.4 124687.2 Q 102233.8 124811.2 104261.2 124178.8 Q 105786.4 123924.6 106040.6 123670.4 Q 106294.8 123416.2 106549 122399.4 Q 106803.2 120874.2 106927.2 112876.2 Q 107181.4 103731.2 107820 103607.2 Q 107944 103607.2 108074.2 104115.6 Q 108706.6 105640.8 108706.6 108306.8 Q 108706.6 109063.2 109091 108685 Q 109469.2 108306.8 109977.6 101703.8 L 110486 96117.6 Q 110610 97128.2 111186.6 98337.2 Q 111757 99540 112011.2 103098.8 Q 112773.8 111989.6 113914.6 114401.4 Q 114931.4 116559 114931.4 116937.2 Q 114931.4 117321.6 115439.8 117699.8 Q 115948.2 118084.2 116264.4 119163 Q 116580.6 120241.8 117405.2 120874.2 Q 118229.8 121512.8 117913.6 122591.6 Q 117597.4 123670.4 118360 124302.8 Q 119122.6 124935.2 119376.8 124811.2 L 119879 125828 Q 120263.4 127099 120771.8 127477.2 Q 121150 127731.4 121212 129126.4 Q 121280.2 130527.6 120895.8 130651.6 Q 120641.6 130781.8 120009.2 132176.8 Q 119376.8 133571.8 118868.4 133571.8 Q 118360 133571.8 118360 134464.6 Q 118360 135097 117151 136175.8 Q 115948.2 137254.6 115309.6 137254.6 Q 114931.4 137254.6 114361 137825 Q 113784.4 138395.4 112835.8 138209.4 Q 111881 138017.2 110486 138395.4 Q 109091 138779.8 108452.4 138525.6 Q 107820 138271.4 103374.6 138333.4 Q 98929.2 138395.4 98613 138779.8 Q 98296.8 139158 97658.2 138779.8 Q 97025.8 138395.4 94483.8 138017.2 Q 90168.6 137384.8 87694.8 135921.6 Q 85214.8 134464.6 82803 131284 Q 76330.2 122523.4 76330.2 121004.4 Q 76330.2 120496 75375.4 119603.2 Q 74426.8 118716.6 74488.8 117761.8 Q 74550.8 116813.2 74234.6 116366.8 Q 73918.4 115920.4 74234.6 111667.2 Q 74550.8 107414 74104.4 107414 Q 73664.2 107414 71760.8 111227 Q 69851.2 115033.8 69535 115095.8 Q 69218.8 115157.8 69218.8 115796.4 Q 69218.8 116304.8 67755.6 119032.8 Q 66298.6 121760.8 65790.2 122523.4 Q 64903.6 123416.2 64903.6 123924.6 Q 64903.6 124426.8 63502.4 127223 Q 62107.4 130019.2 61661 130651.6 Q 61220.8 131284 60073.8 134210.4 Q 58424.6 137763 58170.4 137130.6 Q 58170.4 136237.8 57153.6 134272.4 Q 56136.8 132300.8 55126.2 131414.2 Q 54109.4 130273.4 54487.6 129889 Q 54872 129510.8 54301.6 127793.4 Q 53725 126082.2 54109.4 125257.6 Q 54487.6 124433 53979.2 123924.6 Q 52584.2 122653.6 53346.8 119479.2 Q 53601 118084.2 54803.8 116428.8 Q 56012.8 114779.6 56012.8 114079 Q 56012.8 113384.6 56521.2 112938.2 Q 57029.6 112491.8 57029.6 111351 Q 57029.6 110210.2 57600 109255.4 Q 58170.4 108306.8 58300.6 107798.4 Q 59441.4 105002.2 61220.8 102968.6 Q 62237.6 101573.6 62237.6 101003.2 Q 62237.6 100432.8 64649.4 96117.6 Q 67061.2 91796.2 67061.2 91287.8 Q 67061.2 90779.4 64010.8 92434.8 Q 60458.2 94338.2 59441.4 94530.4 Q 58424.6 94716.4 56521.2 94208 Q 52460.2 92943.2 51059 92304.6 Q 50426.6 91926.4 49918.2 91926.4 Q 49409.8 91926.4 49093.6 91418 Q 48777.4 90909.6 47630.4 90401.2 Q 45348.8 89384.4 47376.2 88752 L 48393 88497.8 L 47376.2 87989.4 Q 45857.2 87350.8 46489.6 86842.4 Q 46613.6 86718.4 46867.8 86718.4 Q 48138.8 86718.4 46867.8 84939 Q 46613.6 84430.6 46235.4 84052.4 Q 45472.8 83544 45919.2 83035.6 Q 46365.6 82527.2 46235.4 82149 L 46743.8 81894.8 Q 51951.8 81764.6 54996 80623.8 Q 57916.2 79352.8 58424.6 79352.8 Q 58933 79352.8 59503.4 78782.4 Q 60073.8 78212 59633.6 77641.6 Q 59187.2 77071.2 59125.2 76054.4 Q 59063.2 75037.6 58616.8 74529.2 Q 58170.4 74020.8 58424.6 72117.4 Q 59063.2 69067 57792.2 63480.8 Q 57283.8 61577.4 57345.8 60182.4 Q 57407.8 58781.2 57029.6 58781.2 Q 56645.2 58781.2 56267 55737 Q 55380.4 48749.6 54487.6 48117.2 Q 54109.4 47739 54233.4 46592 Q 54872 44564.6 56521.2 45073 Q 57538 45575.2 58232.4 45327.2 Q 58933 45073 60142 45575.2 Q 61344.8 46083.6 65281.8 45451.2 Q 69218.8 44818.8 73534 43293.6 L 80645.4 41136 Z M 87440.6 51229.6 Q 87632.8 49766.4 87440.6 49258 Q 87248.4 48749.6 86616 48749.6 Q 85345 48879.8 79882.8 51161.4 Q 74681 53573.2 69727.2 54081.6 L 67693.6 54466 L 67947.8 55861 Q 68078 57510.2 68586.4 58403 Q 68964.6 59667.8 69851.2 68180.4 Q 69981.4 70338 70105.4 71100.6 Q 70235.6 71863.2 70235.6 72365.4 Q 70235.6 72749.8 70998.2 72749.8 Q 71760.8 72749.8 72455.2 72495.6 Q 73155.8 72241.4 73410 71987.2 Q 73664.2 71478.8 73850.2 71733 Q 74042.4 71987.2 75691.6 70778.2 Q 77347 69575.4 77347 69191 Q 77347 68936.8 77471 68812.8 Q 77601.2 68688.8 77725.2 68688.8 Q 78487.8 68688.8 79120.2 68434.6 Q 79758.8 68180.4 79628.6 67672 Q 79504.6 67163.6 80013 67417.8 Q 80391.2 67541.8 80899.6 67926.2 Q 81786.2 68434.6 83441.6 68750.8 Q 85090.8 69067 85345 68688.8 Q 85469 68304.4 84960.6 67479.8 Q 84458.4 66655.2 84898.6 64559.6 Q 85345 62464 85723.2 61955.6 Q 86107.6 61447.2 86231.6 58843.2 Q 86361.8 56239.2 86740 55923 Q 87124.4 55606.8 87186.4 54149.8 Q 87248.4 52686.6 87440.6 51229.6  Z M 90230.6 79731 Q 90553 79731 90553 79352.8 Q 90553 78968.4 90230.6 78968.4 Q 89914.4 78968.4 89914.4 79352.8 Q 89914.4 79731 90230.6 79731  Z M 28584 30087.6 Q 37853 29325 38491.6 29957.4 Q 38745.8 30341.8 40140.8 30720 Q 41535.8 31098.2 41728 31798.8 Q 41920.2 32499.4 42806.8 33386 Q 43439.2 34018.4 44015.8 35605.6 Q 44586.2 37192.8 44586.2 38209.6 Q 44586.2 38718 45665 39356.6 Q 46743.8 39989 47506.4 39989 Q 47760.6 39989 47760.6 40621.4 Q 47760.6 41005.8 47698.6 41005.8 Q 47630.4 41005.8 47252.2 40621.4 Q 46867.8 40243.2 46365.6 40119.2 Q 45857.2 39989 45603 39989 Q 45348.8 39989 45348.8 40119.2 Q 45348.8 40243.2 46365.6 42276.8 Q 48393 46213.8 46613.6 46083.6 Q 45727 46083.6 45603 45829.4 Q 45348.8 45321 40264.8 44942.8 Q 37853 44812.6 37853 43293.6 Q 37853 42909.2 37344.6 42655 Q 36842.4 42400.8 36011.6 41198 Q 35187 39989 34492.6 39989 Q 33792 39989 32713.2 39034.2 Q 31634.4 38085.6 30617.6 37955.4 Q 27189 37192.8 26048.2 36182.2 Q 25285.6 35419.6 24715.2 35419.6 Q 24144.8 35419.6 24392.8 35165.4 Q 24777.2 34781 23890.6 34086.6 Q 22997.8 33386 21602.8 33007.8 Q 17157.4 31352.4 24144.8 30341.8 Q 25918 30211.6 28584 30087.6  Z M 180955.2 42400.8 Q 182988.8 41260 186541.4 42400.8 Q 190732.6 43795.8 193144.4 46592 Q 194545.6 48495.4 195624.4 50845.2 Q 196703.2 53195 196318.8 53573.2 Q 196064.6 54081.6 196064.6 55482.8 Q 196064.6 59413.6 194161.2 64497.6 Q 193398.6 66525 193144.4 67926.2 Q 192766.2 69067 192828.2 69259.2 Q 192890.2 69445.2 193652.8 69321.2 Q 194669.6 68936.8 195432.2 68812.8 Q 196194.8 68688.8 196449 67541.8 Q 196573 66655.2 196827.2 66525 Q 197081.4 66401 197974.2 66525 Q 199115 66779.2 199369.2 67225.6 Q 199623.4 67672 200001.6 67287.6 Q 200386 66909.4 202159.2 67225.6 Q 203938.6 67541.8 206858.8 67541.8 Q 210795.8 67672 213337.8 69067 Q 214608.8 69699.4 215241.2 69699.4 Q 215873.6 69699.4 215687.6 70654.2 Q 215495.4 71609 216196 71609 Q 216890.4 71609 216766.4 73258.2 Q 216636.2 74907.4 217529 75732 Q 218415.6 76556.6 218539.6 78081.8 Q 218669.8 78844.4 218415.6 79160.6 Q 218161.4 79476.8 217144.6 79861.2 Q 215749.6 80493.6 214856.8 80623.8 Q 213970.2 80747.8 213970.2 81132.2 Q 213970.2 81510.4 213021.6 81510.4 Q 212066.8 81510.4 211112 82018.8 Q 210163.4 82527.2 208005.8 82781.4 Q 206096.2 83035.6 204831.4 83475.8 Q 203560.4 83922.2 198352.4 86334 Q 193783 88491.6 193783 89130.2 L 197081.4 91542 Q 202289.4 95348.8 207243.2 101443.4 Q 210033.2 104872 210349.4 105126.2 Q 210671.8 105380.4 212066.8 107414 Q 215495.4 111859.4 216766.4 113130.4 Q 218031.2 114395.2 219432.4 114395.2 Q 220449.2 114395.2 221397.8 115095.8 Q 222352.6 115796.4 223369.4 116050.6 Q 224380 116304.8 225142.6 117383.6 Q 225905.2 118462.4 228193 119603.2 Q 230096.4 120489.8 230728.8 121190.4 Q 231367.4 121891 231113.2 122523.4 Q 230859 123410 234033.4 125952 L 234665.8 126584.4 Q 234287.6 126330.2 233655.2 126906.8 Q 233016.6 127477.2 233270.8 127985.6 Q 233525 128494 233401 128748.2 Q 233270.8 129002.4 234157.4 129889 Q 235050.2 130775.6 234920 131029.8 Q 234796 131284 233779.2 131284 Q 232254 131284 231813.8 131600.2 Q 231367.4 131922.6 231621.6 132933.2 Q 231745.6 133571.8 231683.6 133764 Q 231621.6 133950 231113.2 133826 Q 230480.8 133695.8 227492.4 133001.4 Q 224510.2 132300.8 220257 130837.6 Q 216003.8 129380.6 215179.2 129380.6 Q 214354.6 129380.6 213716 128363.8 Q 213083.6 127347 209655 123540.2 Q 204323 117823.8 203306.2 115542.2 Q 202921.8 114395.2 202667.6 114395.2 Q 202413.4 114395.2 201911.2 113378.4 Q 201402.8 112367.8 199493.2 110080 Q 197589.8 107792.2 196064.6 105634.6 Q 192133.8 100811 187812.4 95987.4 Q 185909 94084 185909 95348.8 Q 185909 95987.4 183367 101319.4 Q 180831.2 106651.4 180577 106651.4 Q 180068.6 106651.4 178165.2 109956 Q 176261.8 113254.4 176007.6 113254.4 Q 175753.4 113254.4 175753.4 113508.6 Q 175753.4 114525.4 171816.4 119349 L 167625.2 124426.8 Q 164959.2 127985.6 164643 127731.4 Q 164320.6 127477.2 163750.2 128680 Q 163179.8 129889 162101 130589.6 Q 161022.2 131284 160259.6 131029.8 Q 159497 130905.8 159497 131284 Q 159497 132300.8 158610.4 131414.2 Q 158226 131029.8 158226 130651.6 Q 157847.8 129380.6 157469.6 129380.6 Q 156707 129380.6 156452.8 128301.8 Q 156198.6 127223 156452.8 126460.4 Q 156831 125573.8 156638.8 125443.6 Q 156452.8 125319.6 155560 125952 L 154543.2 126584.4 L 154797.4 124935.2 Q 155181.8 123155.8 154673.4 122207.2 Q 154165 121252.4 154797.4 120173.6 Q 155436 119094.8 155305.8 117823.8 Q 154927.6 115796.4 157469.6 114525.4 Q 158610.4 113886.8 159304.8 112684 Q 160005.4 111475 162293.2 107792.2 Q 163434 105888.8 165653.6 101889.8 Q 167879.4 97890.8 169528.6 94524.2 Q 171177.8 91157.6 170923.6 91157.6 Q 170799.6 91157.6 169020.2 92050.4 Q 166484.4 93321.4 165907.8 93575.6 Q 165337.4 93829.8 164450.8 93321.4 Q 163310 92937 162163 92875 Q 161022.2 92813 160067.4 91920.2 Q 159118.8 91033.6 159118.8 91225.8 Q 159118.8 91411.8 157909.8 90717.4 Q 156707 90016.8 155944.4 90016.8 Q 155181.8 90016.8 152832 87983.2 Q 150482.2 85955.8 150104 85193.2 Q 149719.6 83544 150544.2 83035.6 Q 151368.8 82527.2 155181.8 82018.8 Q 157339.4 81510.4 157785.8 80940 Q 158226 80369.6 160644 80115.4 Q 165591.6 79476.8 174860.6 75924.2 L 177911 74783.4 L 178797.6 71733 Q 179690.4 68812.8 179938.4 66655.2 Q 180446.8 61831.6 182226.2 53573.2 Q 183367 49512.2 183497.2 47100.4 Q 183497.2 46592 181593.8 45451.2 Q 179938.4 44434.4 179876.4 43795.8 Q 179814.4 43163.4 180955.2 42400.8  Z M 301074 33001.6 Q 301328.2 32877.6 301712.6 32747.4 Q 302090.8 32623.4 302283 32623.4 Q 302475.2 32623.4 302475.2 33001.6 Q 302475.2 33255.8 303870.2 33640.2 Q 304887 34018.4 304887 33894.4 Q 304887 33640.2 304756.8 33386 Q 303994.2 32623.4 306027.8 33386 Q 308061.4 34272.6 312885 36560.4 Q 317838.8 39096.2 318787.4 39989 Q 319742.2 40875.6 319364 42146.6 Q 318979.6 42779 318979.6 44050 Q 318855.6 45190.8 319295.8 45190.8 Q 319742.2 45190.8 322916.6 44682.4 Q 331168.8 42909.2 333710.8 44174 Q 334727.6 44812.6 335167.8 44366.2 Q 335614.2 43926 336246.6 44620.4 Q 336885.2 45321 339805.4 47224.4 Q 348690 52940.8 349074.4 53697.2 Q 348690 53951.4 348566 53951.4 Q 347549.2 53951.4 347171 54714 Q 346786.6 55476.6 345707.8 56623.6 Q 344629 57764.4 343742.4 57380 Q 342979.8 56871.6 340692 57194 Q 338410.4 57510.2 337517.6 58142.6 Q 335360 59543.8 334089 59543.8 Q 333456.6 59543.8 331485 61000.8 Q 329519.6 62464 329327.4 62464 Q 329135.2 62464 327231.8 63728.8 Q 325328.4 65130 325328.4 64621.6 Q 325328.4 64491.4 325836.8 63983 L 325582.6 63728.8 Q 323549 64491.4 323549 63604.8 Q 323549 62842.2 323294.8 62842.2 Q 322662.4 62842.2 322346.2 63542.8 Q 322030 64237.2 322284.2 65130 Q 322786.4 67541.8 316567.8 74014.6 Q 310727.4 79855 309332.4 79855 Q 308824 79855 308631.8 80431.6 Q 308439.6 81002 309264.2 81380.2 Q 310088.8 81764.6 312885 82142.8 Q 315805.2 82775.2 317584.6 83730 Q 319364 84684.8 319742.2 84684.8 Q 320120.4 84684.8 320566.8 85193.2 Q 321013.2 85695.4 322538.4 86079.8 Q 325582.6 86966.4 326723.4 89632.4 Q 327231.8 90903.4 327548 90903.4 Q 327870.4 90903.4 329457.6 88807.8 Q 331044.8 86712.2 333072.2 84176.4 Q 335360 81510.4 337325.4 76872.8 Q 339297 72241.4 338912.6 70586 Q 338788.6 69953.6 339551.2 69321.2 Q 340183.6 68936.8 340568 68998.8 Q 340946.2 69067 342087 69953.6 Q 343742.4 70970.4 345645.8 72997.8 Q 346916.8 74399 347233 75031.4 Q 347549.2 75670 347549.2 76810.8 Q 347549.2 79346.6 346024 83792 Q 345391.6 85949.6 343296 89446.4 Q 341200.4 92937 339929.4 94332 L 337263.4 96743.8 Q 336376.8 97506.4 335992.4 97506.4 Q 335236 97506.4 336885.2 98393 Q 342087 101313.2 346278.2 102206 Q 347679.4 102460.2 348181.6 102714.4 Q 350977.8 104239.6 351740.4 104239.6 Q 352118.6 104239.6 354028.2 105634.6 Q 355931.6 107029.6 357642.8 108046.4 Q 359360.2 109063.2 359546.2 110650.4 Q 359738.4 112237.6 360246.8 112677.8 Q 360755.2 113124.2 361263.6 114010.8 Q 361772 115666.2 364183.8 117947.8 L 365709 119857.4 L 364438 120111.6 Q 363167 120489.8 362788.8 119981.4 Q 362280.4 119473 361896 119727.2 Q 361517.8 119981.4 361641.8 120868 L 361772 121884.8 L 359868.6 120613.8 Q 351610.2 114649.4 349837 113762.8 Q 348690 113124.2 343420 111090.6 Q 338156.2 109063.2 335167.8 107662 Q 332185.6 106267 330790.6 105888.8 L 329389.4 105380.4 L 329389.4 106521.2 Q 329135.2 110966.6 329519.6 112870 Q 330152 114773.4 329773.8 118332.2 Q 329773.8 118710.4 329773.8 120936.2 Q 329773.8 123155.8 329389.4 125059.2 Q 329135.2 126838.6 328124.6 129002.4 Q 327107.8 131160 326599.4 131414.2 Q 326215 131538.2 326215 132176.8 Q 326215 132555 322978.6 135791.4 Q 319742.2 139034 317076.2 141191.6 Q 315042.6 143095 314156 142648.6 Q 313263.2 142208.4 312122.4 142462.6 Q 309964.8 143219 309648.6 142716.8 Q 309332.4 142208.4 309332.4 138271.4 Q 309332.4 133441.6 309840.8 132685.2 Q 310088.8 132300.8 310157 131854.4 Q 310219 131414.2 310219 131098 Q 310219 130775.6 309964.8 130775.6 Q 309586.6 130775.6 308824 129318.6 Q 308061.4 127855.4 307931.2 126584.4 Q 307807.2 124805 307168.6 124042.4 Q 306158 122647.4 306914.4 122777.6 Q 307931.2 122777.6 310088.8 124681 Q 313015.2 126968.8 314156 125821.8 Q 314664.4 125443.6 314664.4 124681 Q 314664.4 123918.4 315935.4 121252.4 Q 316822 119473 317014.2 118332.2 Q 317200.2 117185.2 317454.4 113000.2 Q 317708.6 108933 317646.6 108046.4 Q 317584.6 107159.8 316946 107029.6 Q 316437.6 106651.4 315805.2 106397.2 Q 314156 105634.6 311744.2 110334.2 Q 309840.8 113762.8 309518.4 113762.8 Q 309202.2 113762.8 306344 117631.6 Q 303492 121506.6 302345 122331.2 Q 301204.2 123155.8 300317.6 124172.6 Q 298029.8 126968.8 297267.2 126968.8 Q 297013 126968.8 294601.2 128872.2 Q 294092.8 129380.6 293460.4 129820.8 Q 292821.8 130267.2 292505.6 130397.4 Q 292189.4 130521.4 292189.4 130397.4 Q 292059.2 130013 290217.8 130397.4 Q 288376.4 130775.6 288190.4 130397.4 Q 287998.2 130013 287489.8 130013 Q 286981.4 130013 286919.4 129188.4 Q 286857.4 128363.8 286789.2 127979.4 Q 286727.2 127601.2 286665.2 127347 Q 286603.2 127092.8 284947.8 127601.2 L 283428.8 127979.4 L 284061.2 126968.8 L 285332.2 125443.6 Q 285710.4 124935.2 284693.6 122839.6 Q 283683 120744 283807 119981.4 L 284445.6 117693.6 Q 284693.6 116298.6 287489.8 111599 Q 290286 106905.6 291681 105126.2 Q 292567.6 103985.4 294471 100234.4 Q 296380.6 96489.6 297713.6 93129.2 Q 299046.6 89762.6 298662.2 89762.6 Q 298153.8 89762.6 297775.6 90140.8 Q 297391.2 90525.2 297391.2 90779.4 L 297143.2 91287.8 Q 297013 90903.4 296380.6 91411.8 Q 294216.8 93569.4 293584.4 93569.4 Q 293206.2 93569.4 293584.4 93823.6 Q 294092.8 94208 293900.6 94586.2 Q 293714.6 94964.4 293206.2 94964.4 Q 292697.8 94964.4 291681 96235.4 Q 290664.2 97506.4 290410 97382.4 Q 290155.8 97252.2 289777.6 97760.6 Q 289647.4 98269 288314.4 98839.4 Q 286981.4 99409.8 286603.2 99285.8 Q 286349 99031.6 285710.4 99285.8 Q 283044.4 100680.8 282790.2 100426.6 Q 282666.2 100302.6 282982.4 98715.4 Q 283298.6 97128.2 282982.4 96235.4 Q 282666.2 95348.8 282666.2 94462.2 Q 282666.2 93569.4 283044.4 93569.4 Q 283428.8 93569.4 283428.8 92682.8 Q 283428.8 91287.8 288760.8 85949.6 Q 291426.8 83283.6 294663.2 79793 Q 297899.6 76302.4 298029.8 75794 Q 298153.8 75670 298029.8 75539.8 Q 297899.6 75415.8 297583.4 75415.8 Q 297267.2 75415.8 297013 75415.8 Q 293714.6 75415.8 290918.4 73506.2 Q 290155.8 72873.8 289709.4 72873.8 Q 289269.2 72873.8 289455.2 72495.6 Q 289647.4 72111.2 289269.2 71602.8 Q 287868 70970.4 290540.2 69953.6 Q 290918.4 69823.4 291550.8 69569.2 Q 296250.4 68682.6 304124.4 64745.6 Q 309078.2 62333.8 309078.2 61193 Q 309078.2 60684.6 309518.4 60622.6 Q 309964.8 60554.4 310535.2 60808.6 Q 311105.6 61062.8 311614 61447.2 Q 312122.4 62079.6 313393.4 62333.8 Q 314664.4 62588 316251.6 63288.6 Q 317838.8 63983 319295.8 63797 Q 320759 63604.8 321267.4 64113.2 Q 321645.6 64491.4 321645.6 64237.2 Q 321645.6 64113.2 321645.6 63728.8 Q 321391.4 62842.2 324503.8 59729.8 Q 327616.2 56623.6 327231.8 56623.6 Q 326853.6 56623.6 325774.8 57572.2 Q 324696 58527 323803.2 58527 Q 323425 58527 322470.2 59221.4 Q 321521.6 59922 321267.4 60554.4 Q 321013.2 60808.6 320504.8 61255 Q 319996.4 61701.4 319550 62079.6 Q 319109.8 62464 319109.8 62333.8 Q 319109.8 62079.6 324696 56555.4 Q 330282.2 51031.2 330152 50907.2 Q 329773.8 50653 318471.2 53827.4 Q 307931.2 56747.6 300565.6 59667.8 Q 294601.2 62079.6 293076 62588 Q 291550.8 63096.4 290540.2 63728.8 Q 289777.6 64367.4 289523.4 64367.4 Q 289269.2 64367.4 288444.6 63859 Q 287620 63350.6 287489.8 63350.6 Q 287365.8 63350.6 287235.6 63983 L 285710.4 67665.8 Q 284569.6 70840.2 284315.4 71602.8 Q 283937.2 72495.6 283044.4 74144.8 Q 282157.8 75794 281649.4 76172.2 Q 281017 76680.6 280632.6 76172.2 Q 279746 75415.8 277712.4 77951.6 Q 276695.6 78968.4 276001.2 79030.4 Q 275300.6 79092.4 275046.4 78205.8 Q 274922.4 77319.2 275300.6 77003 Q 275678.8 76680.6 275300.6 76172.2 Q 274922.4 75670 273905.6 73128 Q 273012.8 70840.2 273335.2 68620.6 Q 273651.4 66394.8 275300.6 62209.8 Q 278220.8 55861 276187.2 51924 Q 275170.4 50020.6 274668.2 49766.4 Q 274159.8 49512.2 273905.6 48495.4 Q 273651.4 47100.4 275046.4 47478.6 Q 276063.2 47602.6 277966.6 48495.4 Q 280762.8 49890.4 281457.2 49698.2 Q 282157.8 49512.2 283044.4 50907.2 Q 284445.6 52432.4 284445.6 51924 Q 284445.6 51669.8 283937.2 51031.2 L 283807 50398.8 Q 283807 50398.8 284061.2 50653 Q 284693.6 51031.2 285710.4 53257 Q 286727.2 55476.6 287235.6 55476.6 Q 287489.8 55476.6 294154.8 53257 Q 300819.8 51031.2 301074 50907.2 Q 301074 50777 300565.6 50020.6 Q 299933.2 48495.4 299933.2 40243.2 L 299933.2 37192.8 L 298662.2 36176 Q 297391.2 35289.4 295872.2 34905 Q 294347 34526.8 293838.6 34148.6 L 293838.6 33894.4 Q 294216.8 33894.4 296188.4 33448 Q 298153.8 33001.6 299362.8 33131.8 Q 300565.6 33255.8 301074 33001.6  Z M 307422.8 88491.6 Q 307044.6 88113.4 306598.2 87983.2 Q 306158 87859.2 305773.6 87921.2 Q 305395.4 87983.2 305395.4 88367.6 Q 305395.4 88621.8 305903.8 89254.2 Q 306412.2 89892.8 307298.8 89508.4 Q 307931.2 89000 307999.4 88938 Q 308061.4 88876 307422.8 88491.6  Z M 308185.4 92682.8 Q 308439.6 91796.2 308315.6 91542 Q 308185.4 91287.8 307807.2 91287.8 Q 306282 91287.8 305141.2 95733.2 Q 303994.2 99285.8 301204.2 105510.6 Q 298408 111729.2 296634.8 114271.2 L 295233.6 116683 Q 295363.8 116683 295618 116304.8 Q 296380.6 115796.4 298978.4 111605.2 Q 301582.4 107414 303492 103985.4 Q 307807.2 95733.2 308185.4 92682.8  Z M 438720.2 86334 Q 438974.4 85955.8 438974.4 86079.8 Q 439098.4 86210 438974.4 86718.4 Q 438720.2 87226.8 438528 87034.6 Q 438335.8 86842.4 438720.2 86334  Z M 447604.8 27799.8 Q 448751.8 27043.4 449638.4 28184.2 Q 450401 28816.6 451225.6 28816.6 Q 452050.2 28816.6 452496.6 29579.2 Q 452936.8 30341.8 453699.4 30341.8 Q 454592.2 30341.8 456619.6 32059.2 Q 458653.2 33770.4 458783.4 34533 Q 458783.4 35041.4 459477.8 35419.6 Q 460178.4 35804 460748.8 35804 Q 461319.2 35804 461511.4 36436.4 Q 461703.6 37075 461319.2 37323 Q 461065 37577.2 460370.6 42152.8 Q 459670 46722.2 460048.2 47230.6 Q 460178.4 47739 459794 48625.6 Q 459415.8 49134 459285.6 51800 Q 459161.6 54466 459415.8 55613 Q 459539.8 56623.6 460810.8 57200.2 Q 462081.8 57770.6 462274 58279 Q 462460 58787.4 463098.6 58787.4 Q 463731 58787.4 464177.4 59674 Q 464623.8 60560.6 465064 60560.6 Q 465510.4 60560.6 466527.2 61007 Q 467544 61453.4 467475.8 62216 Q 467413.8 62972.4 468306.6 63226.6 Q 469193.2 63480.8 469317.2 64689.8 Q 469447.4 65892.6 469825.6 66401 Q 470079.8 66655.2 469063 67163.6 Q 468430.6 67417.8 466018.8 68310.6 Q 463985.2 69197.2 462460 70083.8 Q 461319.2 70592.2 461065 71038.6 Q 460810.8 71485 460810.8 72749.8 Q 460810.8 75037.6 460178.4 78212 Q 459539.8 81008.2 460432.6 81008.2 Q 460556.6 81132.2 461065 80878 Q 461703.6 80369.6 462212 80623.8 Q 462714.2 80878 463799.2 80499.8 Q 464878 80115.4 465888.6 79991.4 Q 466905.4 79861.2 467413.8 79421 Q 467922.2 78974.6 468306.6 79098.6 Q 468560.8 79228.8 468684.8 79036.6 Q 468808.8 78844.4 468808.8 78466.2 Q 468808.8 78088 469447.4 78019.8 Q 470079.8 77957.8 470334 78342.2 Q 470464.2 78590.2 473322.4 78528.2 Q 476174.4 78466.2 476620.8 79166.8 Q 477067.2 79861.2 477829.8 79991.4 Q 479733.2 80245.6 482399.2 82273 Q 484178.6 83922.2 484556.8 83922.2 Q 484935 83922.2 485319.4 84939 Q 485697.6 85955.8 486652.4 86402.2 Q 487607.2 86842.4 487353 87859.2 Q 487098.8 88876 487731.2 89508.4 Q 488363.6 90016.8 487353 90016.8 Q 486714.4 90016.8 484432.8 89892.8 Q 478208 89514.6 477575.6 90016.8 Q 477067.2 90147 475920.2 90339.2 Q 474779.4 90525.2 473824.6 90847.6 Q 472876 91163.8 472491.6 91101.8 Q 472113.4 91033.6 471158.6 91480 Q 470210 91926.4 468684.8 92180.6 Q 467159.6 92434.8 466335 92943.2 Q 465510.4 93445.4 463160.6 94084 Q 460810.8 94716.4 460810.8 95162.8 Q 460810.8 95609.2 460494.6 95609.2 Q 460178.4 95609.2 460302.4 96365.6 Q 460432.6 97128.2 460178.4 100687 Q 459539.8 107798.4 459415.8 116559 Q 459415.8 121258.6 459037.6 121698.8 Q 458653.2 122145.2 459037.6 122145.2 Q 459161.6 122145.2 459223.6 123670.4 Q 459285.6 125189.4 459223.6 127793.4 Q 459161.6 130397.4 459037.6 133447.8 Q 458783.4 136746.2 458715.2 139474.2 Q 458653.2 142208.4 458399 141824 L 457766.6 143095 Q 457512.4 144620.2 457636.4 145506.8 Q 457636.4 146269.4 456942 146399.6 Q 456241.4 146523.6 456241.4 147410.2 Q 456241.4 148172.8 455863.2 148241 Q 455478.8 148303 453191 148048.8 Q 452558.6 148048.8 452304.4 146715.8 Q 452050.2 145382.8 451479.8 145382.8 Q 450909.4 145382.8 450593.2 144490 Q 450270.8 143603.4 449954.6 143479.4 Q 449638.4 143349.2 448621.6 141824 Q 447604.8 140305 447226.6 140305 Q 446842.2 140305 447096.4 139034 Q 447350.6 137763 446085.8 136746.2 Q 444430.4 135351.2 445447.2 134588.6 Q 445831.6 134334.4 445639.4 133571.8 Q 445447.2 132809.2 445701.4 132369 Q 445955.6 131922.6 446017.6 129510.8 Q 446085.8 127099 446464 123986.6 Q 446842.2 120874.2 447096.4 109571.6 L 447350.6 98275.2 L 445193 99037.8 L 441001.8 100811 Q 438974.4 101703.8 434144.6 104115.6 Q 427163.4 107668.2 423734.8 108306.8 Q 421577.2 108815.2 420690.6 108306.8 Q 419797.8 107798.4 418849.2 107730.2 Q 417894.4 107668.2 417069.8 107159.8 Q 416245.2 106651.4 414465.8 106651.4 Q 412686.4 106651.4 410528.8 105764.8 Q 406846 104369.8 406591.8 103353 Q 407230.4 103353 406722 102590.4 Q 406467.8 102336.2 405959.4 102336.2 Q 405072.8 102336.2 404942.6 101319.4 Q 404942.6 100941.2 405196.8 100811 Q 405705.2 100687 405451 100370.8 Q 405196.8 100048.4 405829.2 99670.2 Q 406467.8 99037.8 410975.2 97512.6 Q 415482.6 95987.4 416369.2 95987.4 Q 417007.8 95987.4 418086.6 95355 Q 419165.4 94716.4 421006.8 94208 Q 422848.2 93699.6 422848.2 93445.4 Q 422848.2 92689 425638.2 92558.8 Q 427293.6 92434.8 429128.8 91604 Q 430970.2 90779.4 431670.8 90655.4 Q 432371.4 90525.2 433766.4 89768.8 Q 435161.4 89006.2 436878.8 88621.8 Q 438590 88243.6 440239.2 87481 Q 441894.6 86718.4 442210.8 86780.4 Q 442527 86848.6 445447.2 85831.8 L 448367.4 84939 L 448367.4 81510.4 Q 448367.4 78212 447927.2 78088 Q 447480.8 77957.8 443289.6 79861.2 L 436816.8 82911.6 Q 434144.6 84176.4 433958.6 84753 Q 433766.4 85323.4 432241.2 84306.6 Q 428434.4 81894.8 426400.8 79607 Q 424751.6 77957.8 423480.6 77579.6 Q 422209.6 77195.2 422209.6 76116.4 Q 422209.6 75037.6 421893.4 75037.6 Q 421577.2 75037.6 421192.8 74151 Q 420436.4 72371.6 422718 71354.8 Q 423734.8 70846.4 423542.6 70338 Q 423356.6 69829.6 424243.2 69067 Q 425129.8 68310.6 425576.2 66401 Q 426022.6 64497.6 427926 59674 Q 429575.2 55228.6 429829.4 53195 Q 430083.6 51167.6 429066.8 48879.8 Q 428304.2 46846.2 428180.2 46275.8 Q 428050 45705.4 428434.4 44564.6 Q 428688.6 43926 429066.8 43926 Q 429451.2 43926 431354.6 44942.8 Q 432495.4 45451.2 433134 45451.2 Q 434398.8 45451.2 440747.6 51800 Q 442781.2 53833.6 443227.6 54534.2 Q 443667.8 55228.6 443922 57132 Q 444430.4 59674 444560.6 60374.6 Q 444684.6 61069 446209.8 61069 Q 447604.8 61069 448175.2 60690.8 Q 448751.8 60306.4 448621.6 59419.8 Q 448497.6 58657.2 448243.4 46213.8 Q 447989.2 33770.4 447480.8 31736.8 Q 446588 28438.4 447604.8 27799.8  Z M 566458.8 64373.6 Q 566458.8 63989.2 566967.2 63927.2 Q 567469.4 63865.2 568046 63989.2 Q 568616.4 64119.4 568870.6 64373.6 Q 569503 64875.8 570898 65322.2 Q 572299.2 65768.6 572739.4 66277 Q 573185.8 66785.4 573632.2 66785.4 Q 574072.4 66785.4 574965.2 67548 Q 575851.8 68304.4 575281.4 68626.8 Q 574711 68943 575913.8 70214 Q 577122.8 71478.8 577122.8 72055.4 Q 577122.8 72625.8 577377 72749.8 Q 577631.2 72880 578009.4 73642.6 Q 578139.6 74275 578009.4 74399 Q 577885.4 74529.2 577122.8 74529.2 Q 575851.8 74529.2 572423.2 76178.4 Q 571536.6 76562.8 569633.2 78336 Q 564803.4 83035.6 563792.8 83035.6 Q 563408.4 83035.6 563408.4 83420 Q 563408.4 84176.4 565696.2 82911.6 Q 567215.2 81894.8 567469.4 81894.8 Q 567723.6 81894.8 570203.6 80747.8 Q 572677.4 79607 573440 79607 Q 574202.6 79607 574456.8 78720.4 Q 574711 78081.8 575789.8 77895.8 Q 576868.6 77703.6 577377 78336 Q 578009.4 78974.6 579472.6 79160.6 Q 580929.6 79352.8 581438 79991.4 Q 581946.4 80623.8 583217.4 81002 Q 584234.2 81132.2 584426.4 81386.4 Q 584612.4 81640.6 583980 82403.2 Q 582963.2 83798.2 584104 83798.2 Q 584866.6 83798.2 584866.6 84498.8 Q 584866.6 85193.2 585437 85509.4 Q 586013.6 85831.8 586075.6 87350.8 Q 586137.6 88876 586391.8 89130.2 Q 586646 89384.4 586391.8 89638.6 Q 586137.6 89892.8 585691.2 90016.8 Q 585251 90147 584742.6 90147 Q 583980 90147 583341.4 91796.2 Q 583087.2 92813 582901.2 93005.2 Q 582709 93191.2 582200.6 93191.2 Q 581438 92943.2 581438 93575.6 Q 581438 94208 581183.8 94716.4 Q 580805.6 95100.8 579850.8 97890.8 Q 578902.2 100687 578517.8 102082 Q 578263.6 104239.6 578009.4 108306.8 Q 577631.2 114401.4 580043 118084.2 Q 581692.2 120750.2 584996.8 123286 Q 588295.2 125828 591469.6 126844.8 Q 592864.6 127223 595598.8 127285 Q 598326.8 127353.2 599721.8 126968.8 Q 600868.8 126714.6 602834.2 125511.8 Q 604805.8 124302.8 605438.2 123670.4 Q 607341.6 121128.4 609375.2 113000.2 Q 610137.8 109825.8 611024.4 107922.4 Q 611408.8 107414 611408.8 106397.2 Q 611408.8 105640.8 611470.8 105640.8 Q 611532.8 105640.8 611656.8 106143 Q 612165.2 106781.6 612165.2 108306.8 Q 612165.2 109825.8 612419.4 109825.8 Q 612673.6 109825.8 612927.8 108747 Q 613182 107668.2 612927.8 107159.8 Q 612673.6 106651.4 613182 106651.4 Q 613436.2 106651.4 613628.4 107922.4 Q 613820.6 109193.4 613566.4 110080 Q 613566.4 110210.2 613690.4 110210.2 Q 613820.6 110210.2 613944.6 110210.2 Q 614329 109825.8 614329 108306.8 Q 614329 106781.6 614961.4 105640.8 L 615339.6 104624 L 615215.6 105888.8 Q 615085.4 107668.2 615023.4 108623 Q 614961.4 109571.6 614899.4 110148.2 Q 614831.2 110718.6 614899.4 110904.6 Q 614961.4 111096.8 615085.4 111096.8 Q 615469.8 111096.8 615215.6 113000.2 Q 615215.6 114525.4 615469.8 114655.6 Q 615978.2 114401.4 615916.2 114017 Q 615848 113638.8 616170.4 113638.8 Q 616486.6 113638.8 616740.8 111735.4 Q 617119 110334.2 617373.2 110464.4 Q 617503.4 110842.6 617819.6 114841.6 Q 618135.8 118840.6 618005.6 121128.4 Q 618005.6 122523.4 618390 122969.8 Q 618768.2 123416.2 619344.8 126144.2 Q 619915.2 128872.2 619661 129126.4 Q 619661 129256.6 619785 129448.8 Q 619915.2 129634.8 620169.4 129765 Q 621056 130019.2 620801.8 130527.6 Q 620677.8 131036 620485.6 131922.6 Q 620293.4 132809.2 620293.4 133379.6 Q 620293.4 133956.2 620423.6 133956.2 Q 620932 133956.2 620863.8 134904.8 Q 620801.8 135859.6 621688.4 136368 Q 622072.8 136622.2 622134.8 136808.2 Q 622196.8 137000.4 621818.6 137763 Q 621180 138903.8 620293.4 139796.6 Q 619406.8 140813.4 617689.4 141762 Q 615978.2 142716.8 615085.4 142716.8 Q 614329 142716.8 612803.8 143603.4 Q 611278.6 144490 606709.2 144366 Q 598326.8 144366 596293.2 142462.6 Q 595660.8 141824 593373 140559.2 Q 583471.6 135475.2 577501 127099 Q 575982 124941.4 575219.4 124178.8 Q 573948.4 123031.8 572615.4 120241.8 Q 571282.4 117445.6 571028.2 115542.2 Q 570774 114147.2 570389.6 113000.2 Q 570141.6 111481.2 570203.6 107035.8 Q 570265.6 102590.4 570519.8 99670.2 Q 571152.2 96241.6 570774 95863.4 Q 570389.6 95479 570389.6 95795.2 Q 570389.6 96117.6 569633.2 95987.4 Q 568870.6 95863.4 568870.6 96619.8 Q 568870.6 98021 567853.8 96874 Q 567599.6 96750 567537.6 96750 Q 567469.4 96750 567599.6 97128.2 Q 567723.6 97890.8 567283.4 97890.8 Q 566837 97890.8 564679.4 99354 Q 562521.8 100811 561629 100811 Q 560996.6 100811 560866.4 100941.2 Q 560742.4 101065.2 560804.4 101511.6 Q 560866.4 101958 560804.4 102020 Q 560742.4 102082 560364.2 102082 Q 559601.6 101958 558839 102714.4 Q 557946.2 103607.2 556297 104748 Q 554647.8 105888.8 554139.4 105888.8 Q 553631 105888.8 553376.8 106527.4 Q 553122.6 107159.8 552930.4 106905.6 Q 552744.4 106651.4 551981.8 107228 Q 551219.2 107798.4 551219.2 107606.2 Q 551219.2 107414 550202.4 108430.8 Q 549315.8 109317.4 546079.4 111351 Q 542836.8 113384.6 541572 114017 Q 540046.8 114525.4 537188.6 114271.2 Q 534330.4 114017 532805.2 112746 Q 531794.6 112237.6 531218 112237.6 Q 530647.6 112237.6 530207.4 111413 Q 529761 110588.4 529376.6 110588.4 Q 528744.2 110588.4 527219 109063.2 Q 525700 107544.2 525061.4 106273.2 Q 524683.2 105256.4 524683.2 104940.2 Q 524683.2 104624 525061.4 104493.8 Q 525824 103985.4 527473.2 103985.4 Q 529885 103985.4 534969 100941.2 L 538267.4 98783.6 Q 539916.6 97766.8 540046.8 97766.8 Q 540170.8 97766.8 542328.4 96303.6 Q 544492.2 94846.6 544870.4 94846.6 Q 545248.6 94846.6 546581.6 93829.8 Q 547920.8 92813 550710.8 91287.8 Q 553122.6 90147 553885.2 89446.4 Q 554647.8 88752 554139.4 87859.2 Q 553631 86718.4 552614.2 87859.2 Q 551343.2 89130.2 550965 88243.6 Q 550965 88113.4 550965 87859.2 Q 551095.2 87226.8 550332.6 87096.6 Q 549694 87096.6 548168.8 87735.2 Q 546904 88367.6 546904 87989.4 Q 546904 86718.4 545378.8 88243.6 L 544492.2 89130.2 L 544870.4 87735.2 Q 544994.4 86340.2 545757 85069.2 Q 547028 82911.6 545378.8 82273 Q 544492.2 82018.8 543345.2 81002 Q 542204.4 79991.4 541950.2 79352.8 Q 541820 78720.4 542458.6 78336 Q 543091 77957.8 544492.2 77641.6 Q 545887.2 77319.2 546265.4 77071.2 Q 547282.2 76178.4 553507 72055.4 Q 559725.6 67926.2 560866.4 67293.8 Q 566458.8 64621.6 566458.8 64373.6  Z M 552806.4 32815.6 Q 551981.8 32245.2 552236 31736.8 Q 552490.2 31228.4 553885.2 31228.4 Q 555026 31228.4 555788.6 31736.8 Q 556551.2 32245.2 558963 34657 Q 561629 37323 562205.6 38215.8 Q 562776 39102.4 563662.6 41514.2 Q 564679.4 45066.8 564995.6 45066.8 Q 565311.8 45066.8 567407.4 44180.2 Q 569503 43293.6 572045 43671.8 Q 576490.4 44434.4 576992.6 47230.6 Q 577122.8 48749.6 577823.4 48879.8 Q 578517.8 49003.8 578772 49828.4 Q 579026.2 50659.2 579280.4 50659.2 Q 579534.6 50659.2 579788.8 51483.8 Q 580043 52308.4 580929.6 52686.6 Q 581692.2 53071 581059.8 53579.4 Q 580805.6 53703.4 580167 53957.6 Q 578772 54844.2 575727.8 56431.4 Q 572677.4 58018.6 572231 58527 Q 571790.8 59035.4 571406.4 59035.4 Q 571028.2 59035.4 570519.8 59605.8 Q 570011.4 60182.4 569310.8 60182.4 Q 568616.4 60182.4 568424.2 60690.8 Q 568232 61193 567723.6 61193 Q 567215.2 61193 565820.2 62085.8 Q 564425.2 62972.4 562391.6 64113.2 L 556805.4 67287.6 Q 551095.2 70462 549185.6 70462 Q 548423 70462 546079.4 68242.4 Q 543729.6 66022.8 543091 64751.8 Q 542458.6 63480.8 541820 63356.8 Q 540809.4 62972.4 540933.4 61831.6 Q 540933.4 61577.4 540301 60690.8 Q 539538.4 59674 539092 58272.8 Q 538645.6 56877.8 538899.8 56499.6 Q 539154 56115.2 539662.4 56115.2 Q 540170.8 56115.2 540170.8 55098.4 Q 540170.8 54211.8 541063.6 53257 Q 541950.2 52308.4 543159.2 51800 Q 544362 51291.6 546203.4 49326.2 Q 548044.8 47354.6 549315.8 44942.8 Q 550965 42400.8 550965 42214.8 Q 550965 42022.6 551597.4 41136 Q 552614.2 39610.8 553252.8 34657 Q 553631 33386 552806.4 32815.6  Z M 725811.2 75794 L 725935.2 75539.8 L 726443.6 75794 Q 726319.6 75924.2 725811.2 75794  Z M 679081.8 88113.4 Q 681493.6 85447.4 681493.6 85447.4 Q 681623.8 85447.4 681307.6 86017.8 Q 680991.4 86588.2 680607 87288.8 Q 680228.8 87983.2 680098.6 88113.4 Q 679844.4 88237.4 679720.4 89000 Q 679336 89508.4 679720.4 89508.4 Q 680228.8 89508.4 681878 87983.2 L 683149 86972.6 Q 683149 87096.6 682764.6 87605 Q 681878 88876 681623.8 89000 Q 680991.4 89384.4 681245.6 89762.6 Q 681493.6 89892.8 681747.8 89892.8 Q 682132.2 89762.6 682132.2 89892.8 Q 682132.2 90147 681878 90525.2 Q 681623.8 91411.8 681747.8 91858.2 Q 681878 92304.6 680799.2 93953.8 Q 679720.4 95603 679906.4 95857.2 Q 680098.6 96111.4 679720.4 97004.2 L 679590.2 97636.6 Q 679590.2 97636.6 680098.6 97128.2 Q 680861.2 96365.6 680861.2 97004.2 Q 680861.2 97636.6 680414.8 98591.4 Q 679974.6 99540 679658.4 99540 Q 679336 99540 679336 100240.6 Q 679336 100935 679019.8 101189.2 Q 678703.6 101443.4 678703.6 102020 Q 678703.6 102590.4 676800.2 105380.4 Q 674766.6 108685 675275 108554.8 Q 675399 108554.8 675653.2 108685 Q 675653.2 108809 675653.2 109317.4 Q 675399 110204 674896.8 111351 Q 674388.4 112491.8 674004 112491.8 Q 673749.8 112491.8 673309.6 113508.6 Q 672863.2 114525.4 672100.6 115412 Q 671338 116304.8 669304.4 118394.2 Q 667277 120489.8 667146.8 120489.8 Q 666892.6 120489.8 664356.8 118078 Q 661814.8 115666.2 661114.2 115474 Q 660419.8 115288 658770.6 114079 Q 657115.2 112876.2 656482.8 112684 Q 655850.4 112491.8 655596.2 111220.8 Q 655342 109956 654325.2 108939.2 Q 652676 107414 653686.6 106527.4 Q 654325.2 106019 654325.2 105380.4 Q 654325.2 104872 654579.4 104748 Q 654833.6 104617.8 655720.2 104748 Q 658262.2 105126.2 659527 102968.6 Q 660165.6 102082 664611 98014.8 Q 666384.2 96365.6 666322.2 96241.6 Q 666260.2 96111.4 666576.4 95733.2 Q 666892.6 95348.8 667277 95032.6 Q 667655.2 94716.4 668039.6 94586.2 Q 668796 94332 669050.2 93637.6 Q 669304.4 92937 669558.6 92813 Q 670067 92813 670637.4 92366.6 Q 671214 91920.2 671214 91666 Q 671214 91287.8 672162.6 90209 Q 673117.4 89130.2 673117.4 89638.6 Q 673117.4 90147 674512.4 88745.8 Q 675907.4 87350.8 676161.6 87605 Q 676415.8 87859.2 676415.8 87481 Q 676415.8 87096.6 677054.4 87096.6 Q 677562.8 87096.6 677562.8 87158.6 Q 677562.8 87226.8 677308.6 87797.2 Q 677054.4 88367.6 676670 88367.6 Q 676037.6 88367.6 675653.2 89192.2 Q 675275 90016.8 675783.4 90271 Q 676291.8 90779.4 676732 90463.2 Q 677178.4 90147 679081.8 88113.4  Z M 683911.6 86079.8 Q 683781.4 85955.8 684289.8 85317.2 Q 684798.2 84684.8 685114.4 84684.8 Q 685430.6 84684.8 684736.2 85447.4 Q 684035.6 86210 683911.6 86079.8  Z M 704861.4 28562.4 Q 705878.2 27421.6 708290 29194.8 Q 710193.4 30465.8 712096.8 31098.2 Q 714000.2 31991 716350 33832.4 Q 718699.8 35673.8 719462.4 36944.8 Q 719840.6 37831.4 719840.6 38786.2 Q 719840.6 39734.8 719462.4 43671.8 Q 718830 49134 718699.8 57386.2 L 718445.6 65768.6 L 719208.2 65514.4 Q 720094.8 65130 721936.2 64875.8 Q 723777.6 64621.6 725935.2 63859 Q 728731.4 63096.4 729940.4 63096.4 Q 731143.2 63096.4 733555 63604.8 Q 736729.4 64113.2 737808.2 64113.2 Q 738887 64113.2 739017.2 64751.8 Q 739395.4 65768.6 744479.4 70338 Q 746506.8 71987.2 747145.4 73952.6 Q 747777.8 75924.2 747015.2 77195.2 Q 746506.8 78081.8 745490 79036.6 Q 744479.4 79985.2 744095 79985.2 Q 743332.4 79985.2 741745.2 81510.4 Q 740158 83035.6 739141.2 84560.8 Q 737622.2 87096.6 737113.8 87226.8 Q 736475.2 87350.8 736413.2 88175.4 Q 736351.2 89000 736729.4 89130.2 Q 737237.8 89130.2 737622.2 89638.6 Q 738000.4 90147 738062.4 90587.2 Q 738130.6 91033.6 737746.2 91163.8 Q 737237.8 91411.8 737684.2 92242.6 Q 738130.6 93067.2 738632.8 93575.6 Q 739141.2 94084 738763 94462.2 Q 738384.8 94840.4 738384.8 95733.2 Q 738384.8 96241.6 737492 96557.8 Q 736605.4 96874 731273.4 97760.6 Q 726697.8 98523.2 722760.8 99670.2 L 719970.8 100432.8 L 719586.4 103477 Q 719208.2 105380.4 719338.4 116875.2 Q 719462.4 128363.8 719716.6 130905.8 Q 719840.6 131792.4 719338.4 132933.2 Q 718830 134080.2 718830 135921.6 Q 718830 137763 718067.4 139158 Q 717304.8 140553 717304.8 141123.4 Q 717304.8 141700 716796.4 142648.6 Q 716288 143603.4 715779.6 145630.8 L 715271.2 147540.4 L 714130.4 145252.6 Q 712989.6 142710.6 712227 142270.4 Q 711464.4 141824 711464.4 142078.2 Q 711464.4 142332.4 710193.4 141061.4 Q 708922.4 139790.4 708922.4 138457.4 Q 708922.4 137124.4 708544.2 137124.4 Q 708159.8 137124.4 708159.8 135853.4 Q 708159.8 132176.8 707781.6 131792.4 Q 707527.4 131668.4 707719.6 130967.8 Q 707905.6 130267.2 708159.8 130143.2 Q 708544.2 129758.8 709430.8 109193.4 L 709815.2 103861.4 L 708159.8 104109.4 Q 706510.6 104493.8 703466.4 104493.8 L 700540 104363.6 L 700161.8 105634.6 Q 699653.4 106905.6 699907.6 107283.8 Q 700161.8 107668.2 699715.4 107668.2 Q 699275.2 107668.2 699021 106905.6 Q 698636.6 106019 696733.2 104431.8 Q 694829.8 102844.6 694321.4 102968.6 Q 693689 103353 692225.8 101697.6 Q 690768.8 100048.4 691016.8 99285.8 Q 691271 98523.2 690638.6 98014.8 Q 689497.8 97004.2 688989.4 92174.4 Q 688605 88745.8 687464.2 83730 Q 686323.4 78714.2 685430.6 76686.8 Q 684165.8 74529.2 681493.6 72495.6 Q 680483 71733 680861.2 71224.6 Q 681245.6 70716.2 680669 70716.2 Q 680098.6 70716.2 679906.4 71100.6 Q 679720.4 71478.8 679336 71224.6 Q 678957.8 70970.4 678071.2 72241.4 Q 674896.8 75924.2 674258.2 75924.2 Q 674004 75924.2 673557.6 76686.8 Q 673117.4 77449.4 673241.4 77765.6 Q 673371.6 78081.8 672292.8 79222.6 Q 671214 80369.6 671214 80747.8 Q 671214 81132.2 670959.8 81002 Q 670829.6 80747.8 670575.4 81002 Q 670321.2 81256.2 670135.2 81764.6 Q 669943 82273 669750.8 82589.2 Q 669558.6 82905.4 669434.6 82651.2 Q 669180.4 82527.2 668610 83289.8 Q 668039.6 84052.4 667401 85193.2 Q 667022.8 86464.2 666960.8 85701.6 Q 666892.6 84939 667277 84492.6 Q 667655.2 84052.4 667277 84052.4 Q 666892.6 84052.4 666384.2 84939 Q 666130 85571.4 665305.4 86464.2 Q 664480.8 87350.8 664226.6 87350.8 Q 663972.4 87350.8 664480.8 86017.8 Q 664989.2 84684.8 664989.2 84176.4 Q 664989.2 83159.6 663718.2 85317.2 Q 663340 86210 662577.4 87605 Q 661182.4 90779.4 660798 90779.4 Q 660674 90779.4 660928.2 89762.6 Q 661182.4 88745.8 661752.8 87158.6 Q 662323.2 85571.4 663085.8 84430.6 Q 665243.4 80115.4 667785.4 73128 Q 670321.2 66146.8 670829.6 63480.8 Q 670959.8 61955.6 669943 60176.2 Q 667146.8 55737 668039.6 54720.2 Q 669180.4 53195 673117.4 55352.6 Q 675399 56747.6 676415.8 56747.6 Q 677817 56747.6 681623.8 58403 Q 682894.8 59165.6 684165.8 60560.6 Q 685176.4 61577.4 685368.6 62085.8 Q 685560.8 62594.2 685430.6 63989.2 Q 685176.4 66146.8 685052.4 66909.4 Q 685052.4 67672 684482 68304.4 Q 683911.6 68943 683211 68943 Q 682510.4 68943 682256.2 69067 Q 682132.2 69575.4 684165.8 69953.6 Q 690006.2 71224.6 690514.6 70846.4 Q 690768.8 70716.2 691847.6 71162.6 Q 692926.4 71609 692926.4 71863.2 Q 692926.4 73258.2 698382.4 71354.8 Q 702319.4 69953.6 702827.8 70145.8 Q 703336.2 70338 703336.2 70021.8 Q 703336.2 69699.4 704923.4 69259.2 Q 706510.6 68812.8 708035.8 68434.6 L 709430.8 67796 L 709306.8 62972.4 Q 708922.4 38594 706386.6 34024.6 Q 705624 32877.6 704985.4 30974.2 Q 704353 29070.8 704861.4 28562.4  Z M 730256.6 74653.2 Q 730510.8 74399 729239.8 74529.2 Q 727714.6 74653.2 724924.6 75161.6 Q 719716.6 76302.4 719716.6 77065 Q 719586.4 77573.4 719208.2 79545 Q 718830 81510.4 718954 83413.8 L 718954 85317.2 L 721874.2 85193.2 Q 724670.4 85193.2 725557 84430.6 Q 726443.6 83668 727460.4 81132.2 Q 728353.2 78590.2 729109.6 77065 Q 729872.2 75539.8 729872.2 75415.8 Q 729872.2 75285.6 728353.2 75415.8 L 726697.8 75539.8 L 728477.2 75161.6 Q 730126.4 74783.4 730256.6 74653.2  Z M 709176.6 80115.4 Q 709052.6 79222.6 708414 79607 Q 708035.8 79985.2 708159.8 80369.6 Q 708159.8 80623.8 706064.2 81194.2 Q 703968.6 81764.6 701432.8 82905.4 L 699021 83922.2 L 699145 85193.2 Q 699399.2 86334 699715.4 88305.6 Q 700037.8 90271 700161.8 90525.2 Q 700416 90779.4 708414 88367.6 Q 709176.6 88237.4 709306.8 87735.2 Q 709430.8 87226.8 709306.8 84306.6 Q 709306.8 80493.6 709176.6 80115.4  Z M 827199.8 38271.6 Q 828278.6 38463.8 828470.8 38085.6 Q 828663 37701.2 829295.4 38209.6 Q 829934 38718 831583.2 39102.4 Q 832854.2 39226.4 833864.8 39858.8 Q 834881.6 40497.4 834757.6 41129.8 Q 834627.4 41514.2 835452 42208.6 Q 836282.8 42909.2 837039.2 42909.2 Q 837547.6 42909.2 837615.8 43101.4 Q 837677.8 43287.4 837423.6 44050 Q 837039.2 45066.8 837739.8 46275.8 Q 838440.4 47478.6 838124.2 47987 Q 837801.8 48495.4 838186.2 49003.8 Q 838310.2 49382 837361.6 49828.4 Q 836406.8 50274.8 832215.6 51669.8 Q 827770.2 52940.8 826183 54397.8 Q 824595.8 55861 823963.4 55730.8 Q 823585.2 55476.6 823585.2 55730.8 Q 823455 56239.2 825104.2 58148.8 Q 829803.8 63604.8 827516 73004 Q 827013.8 74653.2 827268 74907.4 Q 827516 75161.6 828725 74715.2 Q 829934 74268.8 832091.6 73890.6 Q 834249.2 73512.4 834249.2 72811.8 Q 834249.2 72111.2 833616.8 71602.8 Q 833108.4 71224.6 832916.2 70462 Q 832724 69699.4 833232.4 69575.4 Q 833740.8 69445.2 836214.6 70269.8 Q 838694.6 71094.4 840598 71094.4 Q 843642.2 71348.6 847008.8 73004 Q 850375.4 74653.2 851770.4 76686.8 Q 852278.8 77573.4 852340.8 79284.6 Q 852409 81002 851900.6 81256.2 Q 851262 81510.4 851262 82273 Q 851262 83159.6 847070.8 83544 Q 845421.6 83792 840790.2 84939 Q 836152.6 86079.8 835774.4 86017.8 Q 835390 85955.8 834373.2 86396 Q 833362.6 86842.4 833232.4 86842.4 Q 831837.4 86464.2 831961.4 87220.6 Q 831961.4 88113.4 833740.8 90649.2 Q 835520.2 93191.2 838948.8 99161.8 Q 842377.4 105126.2 845297.6 109063.2 Q 847833.4 112361.6 848912.2 113192.4 Q 849991 114017 854690.6 116174.6 Q 859898.6 118462.4 862434.4 119857.4 Q 864468 121128.4 864976.4 121128.4 Q 865484.8 121128.4 865484.8 121444.6 Q 865484.8 121760.8 867388.2 122901.6 Q 869291.6 124048.6 869614 125127.4 Q 869930.2 126206.2 870692.8 127601.2 Q 872087.8 130013 870816.8 130013 Q 870692.8 130013 870438.6 130013 Q 869676 129889 869614 130267.2 Q 869545.8 130645.4 870308.4 131284 Q 871071 131916.4 871071 132232.6 Q 871071 132555 871579.4 133057.2 Q 872850.4 134582.4 871201.2 134966.8 Q 870308.4 135090.8 869291.6 134966.8 Q 867642.4 134712.6 867642.4 135345 Q 867642.4 135475.2 867958.6 135791.4 Q 868281 136107.6 868281 136361.8 L 867518.4 136107.6 Q 866501.6 135853.4 864976.4 135475.2 Q 863451.2 135090.8 861547.8 134582.4 Q 856085.6 133063.4 853673.8 132679 Q 852787.2 132424.8 852154.8 132170.6 Q 851770.4 132046.6 851516.2 132232.6 Q 851262 132424.8 851392.2 132679 Q 851646.4 133441.6 847963.6 131538.2 Q 845930 130645.4 844913.2 128996.2 Q 839457.2 121506.6 838440.4 120489.8 Q 836152.6 118078 833232.4 111983.4 Q 832215.6 109447.6 831775.4 109063.2 Q 831329 108685 829295.4 104872 Q 823709.2 94208 823076.8 93699.6 L 822438.2 94716.4 Q 822184 95094.6 822060 95733.2 Q 820789 99285.8 816982.2 108685 Q 813169.2 118078 812915 118462.4 Q 812406.6 118970.8 812406.6 119349 Q 812406.6 120235.6 809486.4 123794.4 Q 806566.2 127347 805933.8 127347 Q 805425.4 127347 805295.2 128109.6 Q 805171.2 128872.2 804600.8 128872.2 Q 804030.4 128872.2 803013.6 129758.8 Q 801996.8 130645.4 801804.6 130459.4 Q 801618.6 130267.2 799839.2 131978.4 Q 798059.8 133695.8 797613.4 133695.8 Q 797173.2 133695.8 796026.2 134774.6 Q 794885.4 135853.4 794315 135853.4 Q 793744.6 135853.4 793360.2 136231.6 Q 792982 136616 791587 136994.2 L 789931.6 137632.8 L 789045 134966.8 Q 788028.2 132424.8 788028.2 131984.6 Q 788028.2 131538.2 787395.8 130651.6 Q 786124.8 129126.4 786887.4 128239.8 Q 787011.4 128115.8 787395.8 128239.8 Q 787519.8 128494 787650 128301.8 Q 787774 128115.8 787774 127861.6 Q 787774 127099 788282.4 126460.4 Q 788790.8 125828 788666.8 125573.8 Q 788536.6 125319.6 788728.8 125127.4 Q 788921 124935.2 789423.2 124811.2 Q 790824.4 124048.6 789677.4 123410 Q 789045 123286 789745.6 122393.2 Q 790440 121506.6 791010.4 121698.8 Q 791587 121884.8 792665.8 120489.8 Q 793744.6 119094.8 795902.2 115536 Q 801488.4 106521.2 807074.6 99540 Q 810249 95603 810125 95410.8 Q 809994.8 95224.8 806566.2 96619.8 Q 801364.4 98653.4 798568.2 97890.8 Q 797173.2 97636.6 795077.6 97190.2 Q 792982 96743.8 791773 95795.2 Q 790570.2 94840.4 789553.4 94840.4 Q 788536.6 94840.4 788028.2 94400.2 Q 787519.8 93953.8 785870.6 92999 Q 784221.4 92050.4 783967.2 90971.6 Q 783713 89892.8 783074.4 89384.4 Q 781933.6 88367.6 784599.6 87859.2 Q 784729.8 87859.2 784984 87859.2 Q 790948.4 86966.4 794885.4 85701.6 Q 798190 84684.8 798822.4 84684.8 Q 799454.8 84684.8 800471.6 84046.2 Q 801488.4 83413.8 802058.8 83413.8 Q 802629.2 83413.8 802951.6 83221.6 Q 803267.8 83035.6 803708 82967.4 Q 804154.4 82905.4 808723.8 81002 Q 813299.4 79098.6 814948.6 78844.4 Q 816089.4 78336 816405.6 77765.6 Q 816728 77195.2 817360.4 73382.2 Q 818885.6 64367.4 816982.2 62333.8 Q 816728 61825.4 816281.6 61955.6 Q 815835.2 62079.6 815773.2 62017.6 Q 815711.2 61955.6 815965.4 61571.2 Q 816597.8 60938.8 815835.2 60176.2 L 814948.6 59543.8 L 812791 61701.4 Q 810757.4 63735 810379.2 63350.6 Q 810379.2 63350.6 810379.2 62972.4 Q 810125 62079.6 809994.8 62079.6 Q 809870.8 62079.6 808978 62718.2 Q 807967.4 63350.6 807967.4 63989.2 Q 807967.4 64621.6 807583 64813.8 Q 807204.8 64999.8 807328.8 64621.6 Q 807459 63350.6 809486.4 60430.4 Q 811265.8 57764.4 811265.8 57510.2 Q 811265.8 57132 809300.4 56177.2 Q 807328.8 55222.4 806188 54844.2 Q 805425.4 54720.2 805425.4 54397.8 Q 805425.4 54081.6 803267.8 53064.8 Q 801742.6 52302.2 801364.4 51862 Q 800980 51415.6 800725.8 50653 Q 800347.6 49003.8 801172.2 48371.4 Q 801996.8 47732.8 805295.2 46846.2 Q 808599.8 45953.4 810249 45197 Q 811898.2 44434.4 814440.2 43417.6 Q 816982.2 42400.8 818061 41954.4 Q 819139.8 41514.2 821297.4 40937.6 Q 823455 40367.2 823901.4 39796.8 Q 824341.6 39226.4 824850 39226.4 Q 825358.4 39226.4 825742.8 38656 Q 826121 38085.6 827199.8 38271.6  Z M 788412.6 127477.2 Q 788790.8 127223 788790.8 127099 Q 788790.8 126968.8 788412.6 126968.8 Q 788028.2 126968.8 788028.2 127347 Q 788028.2 127731.4 788412.6 127477.2  Z M 897352.8 115157.8 L 897483 111983.4 L 899770.8 113378.4 Q 903199.4 115542.2 906628 118586.4 L 909672.2 121252.4 Q 911705.8 123031.8 910180.6 124426.8 L 909039.8 125952 Q 908277.2 126584.4 907892.8 127731.4 Q 907768.8 128363.8 907322.4 128618 Q 906876 128872.2 905102.8 129126.4 Q 902436.8 129504.6 901289.8 128872.2 Q 900149 128239.8 899956.8 127223 Q 899770.8 126206.2 899008.2 124811.2 Q 897228.8 121382.6 897352.8 115157.8  Z M 908277.2 105764.8 Q 907892.8 105764.8 907892.8 105380.4 Q 907892.8 105002.2 908277.2 105002.2 Q 908655.4 105002.2 908655.4 105380.4 Q 908655.4 105764.8 908277.2 105764.8  Z M 900087 53889.4 Q 900149 48873.6 900341.2 47794.8 Q 900527.2 46716 900911.6 46716 Q 901928.4 46716 906814 50845.2 Q 911705.8 54968.2 911960 56115.2 Q 912214.2 57125.8 912146 61379 Q 912084 65638.4 911829.8 68558.6 Q 911575.6 71987.2 911575.6 73636.4 Q 911575.6 75409.6 911135.4 78398 Q 910689 81380.2 910434.8 81634.4 Q 909926.4 82142.8 910180.6 82775.2 Q 910434.8 83283.6 910434.8 84808.8 Q 910434.8 86334 910180.6 87474.8 Q 910180.6 87859.2 910050.4 88045.2 Q 909926.4 88237.4 909672.2 88107.2 Q 909294 88107.2 909294 88491.6 Q 909163.8 88869.8 908909.6 88237.4 Q 908909.6 88107.2 908785.6 87859.2 L 908277.2 86842.4 L 908147 88361.4 Q 908531.4 89762.6 908785.6 89762.6 Q 909163.8 89508.4 909294 90016.8 Q 909672.2 90395 909225.8 90841.4 Q 908785.6 91281.6 908277.2 91281.6 Q 907514.6 91281.6 907892.8 92044.2 Q 908023 92174.4 908277.2 92298.4 Q 908909.6 92428.6 908847.6 93445.4 Q 908785.6 94456 908277.2 94964.4 Q 907892.8 95603 907892.8 96365.6 Q 907892.8 97252.2 908023 97128.2 Q 908023 97128.2 908147 96874 Q 908655.4 96111.4 908401.2 95857.2 Q 908147 95603 908909.6 95156.6 Q 909672.2 94710.2 909672.2 95410.8 Q 909672.2 96111.4 909294 96111.4 Q 908909.6 96111.4 908909.6 97128.2 Q 908909.6 97884.6 908785.6 98461.2 Q 908655.4 99031.6 908401.2 99347.8 Q 908147 99664 908023 99540 Q 907768.8 99285.8 907638.6 99794.2 Q 907514.6 100048.4 907638.6 100110.4 Q 907768.8 100172.4 908023 100172.4 Q 909039.8 100048.4 909294 100364.6 Q 909548.2 100680.8 909548.2 101951.8 Q 909294 104872 909163.8 104872 Q 909039.8 104872 908785.6 104741.8 Q 908147 104109.4 907452.6 104996 Q 906752 105888.8 906752 106905.6 L 906752 108300.6 L 904848.6 108046.4 Q 902945.2 108046.4 902436.8 107345.8 Q 901928.4 106651.4 901674.2 107153.6 Q 901420 107662 901165.8 107600 Q 900911.6 107538 900911.6 107091.6 Q 900911.6 106651.4 900025 106143 Q 898499.8 105504.4 897991.4 101381.4 Q 897483 97252.2 898245.6 91281.6 Q 898499.8 87474.8 898754 81826.6 Q 899008.2 76172.2 899132.2 74268.8 Q 899262.4 72365.4 899578.6 66649 Q 899894.8 60938.8 899956.8 59922 Q 900025 58905.2 900087 53889.4  Z M 909926.4 84430.6 Q 910050.4 84052.4 909926.4 83668 L 909672.2 84176.4 L 909926.4 84430.6 Z " fill-rule="nonzero" style="fill:#ffda6d;;fill-opacity:1;"/>
</svg>