<svg version="1.1" x="0" y="0" width="100%" height="100%" viewBox="0 0 220057.6 53708.8" xmlns="http://www.w3.org/2000/svg">
  <path d="M 26705.5 22466.35 Q 26705.5 22251.1 26992.5 22394.6 Q 27171 22466.35 27601.5 22681.6 Q 28390.75 23040.35 28534.25 23040.35 Q 28677.75 23040.35 28749.5 23147.1 Q 28821.25 23255.6 29034.75 23255.6 Q 29215 23255.6 29430.25 23416.6 Q 29645.5 23577.6 29645.5 23756.1 Q 29645.5 23864.6 29752.25 23864.6 Q 29859 23864.6 29734.75 24008.1 Q 29608.75 24151.6 29895.75 24240.85 Q 30182.75 24330.1 30039.25 24473.6 Q 29895.75 24617.1 30021.75 24743.1 Q 30146 24867.35 30146 25028.35 Q 30146 25191.1 30576.5 25441.35 Q 31078.75 25656.6 31113.75 25852.6 Q 31150.5 26050.35 30791.75 26480.85 Q 30685 26587.6 30720 26767.85 Q 30826.75 27305.1 30809.25 27394.35 Q 30791.75 27483.6 30433 27555.35 Q 30002.5 27627.1 27871 27931.6 Q 25737.75 28236.1 24232.75 28451.35 Q 22727.75 28666.6 21455.5 28936.1 Q 20183.25 29203.85 18015 29562.6 Q 15846.75 29921.35 15094.25 30064.85 Q 13552.5 30386.85 12765 30028.1 Q 12191 29742.85 11904 29616.85 Q 11617 29490.85 11617 29347.35 Q 11617 29203.85 11258.25 28988.6 Q 10901.25 28775.1 10901.25 28612.35 Q 10901.25 28451.35 9037.5 26659.35 Q 8822.25 26515.85 8822.25 26480.85 Q 8822.25 26444.1 9000.75 26337.35 Q 9144.25 26265.6 9646.5 26319.85 Q 10147 26372.35 10936.25 26211.35 Q 11725.5 26050.35 11886.5 26176.35 Q 12047.5 26300.6 12136.75 26158.85 Q 12226 26015.35 12530.5 25978.6 Q 12835 25943.6 12906.75 25835.1 Q 13050.25 25763.35 13265.5 25728.35 Q 13480.75 25691.6 13552.5 25763.35 Q 13589.25 25835.1 13785.25 25674.1 Q 13983 25513.1 14144 25602.35 Q 14305 25691.6 14502.75 25567.35 Q 14698.75 25441.35 14770.5 25567.35 Q 14842.25 25691.6 14950.75 25530.6 Q 15057.5 25369.6 15344.5 25387.1 Q 15631.5 25404.6 16025.25 25262.85 Q 16419 25119.35 16510 25171.85 Q 16599.25 25226.1 16742.75 25154.35 Q 16886.25 25082.6 17567 24975.85 Q 17817.25 24939.1 18408.75 24743.1 Q 19000.25 24545.35 19304.75 24580.35 Q 19609.25 24617.1 19609.25 24508.6 Q 19609.25 24295.1 20792.25 24295.1 Q 21114.25 24295.1 21418.75 24132.35 Q 21725 23971.35 21975.25 24008.1 Q 22225.5 24043.1 22279.75 23953.85 Q 22334 23864.6 22440.75 23936.35 Q 22549.25 24008.1 23014.75 23864.6 Q 23623.75 23721.1 24232.75 23612.6 Q 24770 23577.6 24913.5 23451.6 Q 25057 23327.35 25200.5 23399.1 Q 25344 23470.85 25415.75 23362.35 Q 25487.5 23255.6 25631 23290.6 Q 25918 23362.35 26240 23040.35 Q 26383.5 22931.85 26311.75 22896.85 Q 26168.25 22860.1 26168.25 22753.35 Q 26168.25 22646.6 26275 22699.1 Q 26383.5 22753.35 26383.5 22627.35 Q 26383.5 22503.1 26544.5 22574.85 Q 26705.5 22646.6 26705.5 22466.35  Z M 49249 10961.85 L 49249 10603.1 L 50110 10638.1 Q 51006 10674.85 51130.25 10800.85 Q 51256.25 10925.1 51471.5 10925.1 Q 51686.75 10925.1 51847.75 11086.1 Q 52008.75 11248.85 52456.75 11660.1 Q 52904.75 12073.1 53191.75 12664.6 Q 53478.75 13256.1 53370.25 13578.1 Q 53226.75 13865.1 53085 14741.85 Q 52941.5 15620.35 52904.75 16283.6 Q 52869.75 16946.85 52941.5 17090.35 Q 53085 17090.35 53085 17197.1 Q 52976.5 17699.35 53226.75 17699.35 Q 53370.25 17699.35 53496.25 17842.85 Q 53622.25 17986.35 53765.75 17914.6 Q 53909.25 17842.85 54194.5 18184.1 Q 54481.5 18523.6 54625 18523.6 Q 54768.5 18523.6 54625 18684.6 Q 54481.5 18845.6 54642.5 18954.1 Q 54805.25 19060.85 54983.75 19060.85 Q 55055.5 19060.85 55090.5 19080.1 Q 55127.25 19097.6 55090.5 19132.6 Q 55055.5 19204.35 55377.5 19545.6 Q 55701.25 19885.1 55808 19778.35 Q 55914.75 19741.6 55808 19850.1 Q 55701.25 19956.85 54303 20602.6 Q 52904.75 21248.35 52778.75 21372.6 Q 52654.5 21498.6 52582.75 22144.35 Q 52546 22753.35 52617.75 22753.35 Q 52654.5 22753.35 52689.5 22716.6 Q 53550.5 22394.6 54481.5 22357.85 Q 54625 22357.85 54679.25 22394.6 Q 54733.5 22429.6 54696.75 22501.35 Q 54625 22644.85 54947 22968.6 Q 55270.75 23290.6 55449.25 23290.6 Q 55592.75 23290.6 55592.75 23505.85 Q 55592.75 23721.1 55843 23773.6 Q 56095 23827.85 56095 23988.85 Q 56095 24149.85 56417 24473.6 Q 56739 24795.6 57097.75 24723.85 Q 57456.5 24652.1 57456.5 24545.35 Q 57456.5 24436.85 57743.5 24436.85 Q 57922 24436.85 58979 24097.35 Q 60037.75 23756.1 60394.75 23540.85 Q 60681.75 23434.1 61040.5 23434.1 Q 61362.5 23434.1 61488.5 23218.85 Q 61614.5 23003.6 61597 22448.85 Q 61577.75 21892.35 61649.5 21355.1 Q 61721.25 20852.85 61649.5 20817.85 Q 61614.5 20817.85 61471 20852.85 Q 61112.25 20996.35 60431.5 20924.6 Q 59750.75 20852.85 59213.5 20674.35 Q 58496 20387.35 58441.75 20387.35 Q 58389.25 20387.35 57869.5 20172.1 Q 57349.75 19956.85 57169.5 19528.1 Q 56991 19097.6 56847.5 18917.35 Q 56704 18738.85 56758.25 18560.35 Q 56810.75 18380.1 56649.75 18380.1 Q 56488.75 18380.1 56525.5 18254.1 Q 56560.5 18129.85 57743.5 18129.85 Q 58567.75 18129.85 58889.75 18075.6 Q 59213.5 18021.35 60216.25 17664.35 Q 61577.75 17162.1 61614.5 17053.6 Q 61649.5 16946.85 61829.75 16946.85 Q 62008.25 16946.85 62115 16785.85 Q 62223.5 16624.85 62886.75 16749.1 Q 63550 16875.1 63656.75 16946.85 Q 63765.25 17018.6 64141.5 17144.6 Q 64517.75 17268.85 64785.5 17520.85 Q 65055 17771.1 65251 17771.1 Q 65448.75 17771.1 65448.75 17932.1 Q 65448.75 18093.1 65807.5 18345.1 Q 66453.25 18773.85 66273 19598.1 Q 65699 21713.85 65413.75 22357.85 Q 65270.25 22716.6 64874.75 23701.85 Q 64481 24688.85 64409.25 24939.1 Q 64265.75 25154.35 64337.5 25530.6 Q 64409.25 25906.85 64589.5 25941.85 Q 64733 26013.6 64409.25 26228.85 Q 64230.75 26300.6 64122.25 26300.6 Q 63943.75 26300.6 63693.5 26461.6 Q 63441.5 26624.35 63263 26570.1 Q 63082.75 26515.85 62241 26785.35 Q 61399.25 27053.1 60933.75 27124.85 Q 60288 27305.1 60323 27483.6 Q 60359.75 27592.1 60253 27662.1 Q 60072.75 27805.6 59679 29921.35 Q 59570.5 30280.1 59714 30421.85 Q 59929.25 30637.1 61077.25 30745.6 Q 62223.5 30852.35 63119.5 30673.85 Q 63226.25 30673.85 64069.75 30834.85 Q 64911.5 30995.85 65090 31067.6 Q 65270.25 31139.35 65359.5 31317.85 Q 65448.75 31498.1 65735.75 31569.85 Q 66022.75 31676.6 66434 31946.1 Q 66847 32213.85 66882 32322.35 Q 66918.75 32537.6 67062.25 32859.6 Q 67205.75 33181.6 67205.75 33396.85 Q 67205.75 33612.1 67438.5 34077.6 Q 67671.25 34544.85 67778 34579.85 Q 68065 34688.35 64337.5 34688.35 Q 62295.25 34688.35 61614.5 34579.85 Q 60610 34508.1 60466.5 34508.1 Q 60323 34508.1 60055.25 34257.85 Q 59785.75 34005.85 59176.75 33505.35 Q 57456.5 32213.85 57456.5 31389.6 Q 57456.5 31176.1 57223.75 31032.6 Q 56991 30889.1 57062.75 30458.6 L 57206.25 29384.1 Q 57278 28773.35 57223.75 28307.85 Q 57169.5 27842.35 57241.25 27305.1 Q 57313 26659.35 57258.75 26444.1 Q 57206.25 26228.85 56919.25 26157.1 Q 56632.25 26013.6 56632.25 25763.35 Q 56632.25 25513.1 56739 25441.35 Q 57026 25369.6 56632.25 25261.1 Q 56453.75 25261.1 56273.5 25261.1 Q 55843 25261.1 54481.5 25728.35 L 53120 26193.85 L 53085 26624.35 Q 53048.25 27555.35 53048.25 28092.6 Q 53085 28416.35 53120 28451.35 Q 53155 28488.1 53407 28451.35 Q 53729 28379.6 54231.25 28201.1 Q 55055.5 27842.35 55055.5 28129.35 Q 55055.5 28272.85 55325 28540.6 Q 55592.75 28810.1 55736.25 28810.1 Q 55879.75 28810.1 55879.75 28971.1 Q 55879.75 29132.1 56023.25 29132.1 Q 56382 29132.1 55951.5 29454.1 Q 55701.25 29634.35 55843 29812.85 Q 55879.75 29849.6 55986.5 29795.35 Q 56095 29741.1 56345.25 29812.85 Q 56632.25 29884.6 56578 30117.35 Q 56525.5 30350.1 56166.75 30493.6 Q 55162.25 30995.85 53550.5 31176.1 L 52976.5 31211.1 L 52904.75 32322.35 Q 52869.75 33433.6 52798 34005.85 L 52726.25 34579.85 L 54087.75 35045.35 Q 55305.75 35404.1 58226.5 36193.35 Q 61149 36980.85 61649.5 37089.35 Q 61973.25 37161.1 63907 37376.35 Q 68854.25 38057.1 69104.5 38272.35 Q 69213 38307.35 69141.25 38505.1 Q 69069.5 38701.1 69302.25 38772.85 Q 69535 38844.6 69535 38988.1 Q 69535 39131.6 69965.5 39185.85 Q 70394.25 39240.1 70448.5 39401.1 Q 70502.75 39562.1 70646.25 39740.6 Q 70789.75 39920.85 70431 39992.6 Q 70250.75 40027.6 70000.5 40099.35 Q 69570 40206.1 70109 40314.6 Q 70861.5 40458.1 70861.5 40636.6 Q 70861.5 40780.1 71057.5 40780.1 Q 71255.25 40780.1 71255.25 40960.35 Q 71255.25 41138.85 70054.75 41264.85 Q 68854.25 41389.1 68782.5 41515.1 Q 68710.75 41641.1 68513 41569.35 Q 68317 41497.6 68208.5 41641.1 Q 67993.25 41819.6 66309.75 41873.85 Q 64624.5 41928.1 63369.75 41819.6 Q 62295.25 41712.85 61560.25 41460.85 Q 60825.25 41210.6 60342.25 41102.1 Q 59857.5 40995.35 58567.75 40421.35 Q 57278 39849.1 57026 39794.85 Q 56775.75 39740.6 56201.75 39490.35 L 53944.25 38557.6 Q 52295.75 37841.85 51328 37304.6 L 49249 36121.6 Q 48031 35440.85 47959.25 35404.1 Q 47922.5 35369.1 47850.75 35458.35 Q 47779 35547.6 47744 35656.1 Q 47278.5 37017.6 46506.75 38361.6 Q 45736.75 39705.6 45199.5 40206.1 Q 44088.25 41173.85 43801.25 41336.6 Q 43514.25 41497.6 43335.75 41317.35 Q 43229 41102.1 43192.25 41138.85 L 43013.75 40386.35 Q 43013.75 39920.85 43013.75 39453.6 Q 43048.75 38737.85 43174.75 37985.35 Q 43299 37232.85 43766.25 36658.85 Q 44338.5 35906.35 45199.5 34292.85 Q 45486.5 33792.35 45449.75 33577.1 Q 45306.25 33181.6 45665 33074.85 Q 45808.5 33038.1 46130.5 32072.1 Q 47170 29384.1 46883 28738.35 Q 46848 28629.85 46741.25 28666.6 Q 46561 28738.35 45486.5 29149.6 Q 44410.25 29562.6 44231.75 29688.6 Q 44053.25 29812.85 43533.5 29669.35 Q 43013.75 29525.85 42672.5 29490.85 Q 42333 29454.1 42207 29293.1 Q 42081 29132.1 41902.5 29132.1 Q 41722.25 29132.1 41669.75 29042.85 Q 41615.5 28953.6 41256.75 28953.6 Q 40898 28953.6 40754.5 28792.6 Q 40611 28629.85 40754.5 28416.35 Q 40898 28201.1 40880.5 28146.85 Q 40863 28092.6 40682.75 28092.6 Q 40254 28092.6 40432.5 27555.35 Q 40469.25 27376.85 40593.5 27322.6 Q 40719.5 27268.35 41150 27268.35 Q 41794 27196.6 42798.5 26837.85 Q 43801.25 26480.85 46813 25154.35 Q 48568.25 24365.1 49053 24132.35 Q 49536 23899.6 49536 23756.1 Q 49536 23505.85 49429.25 23434.1 Q 49320.75 23362.35 49320.75 23182.1 Q 49320.75 22538.1 48246.25 22394.6 Q 46813 22144.35 46561 21785.6 Q 46454.25 21605.35 45934.5 21481.1 Q 45414.75 21355.1 45306.25 21050.6 Q 45199.5 20746.1 45073.5 20620.1 Q 44949.25 20494.1 44949.25 20459.1 Q 44949.25 20315.6 45217 20137.1 Q 45486.5 19956.85 45630 19956.85 Q 45917 19956.85 46937.25 19580.6 Q 47959.25 19204.35 48605 18845.6 L 49429.25 18416.85 L 49501 15048.1 Q 49501 11714.35 49375 11516.6 Q 49249 11320.6 49249 10961.85  Z M 50110 30602.1 Q 50110 29742.85 50127.5 28988.6 Q 50145 28236.1 50145 27807.35 Q 50145 27376.85 50145 27376.85 Q 49966.5 27376.85 48496.5 27985.85 Q 48031 28201.1 48783.5 28488.1 Q 49285.75 28703.35 48998.75 29275.6 Q 48855.25 29490.85 49053 29616.85 Q 49249 29742.85 49016.25 30190.85 Q 48783.5 30638.85 48746.75 30995.85 L 48711.75 31391.35 L 48855.25 31032.6 Q 49070.5 30602.1 48962 31282.85 Q 48927 31534.85 48818.5 31856.85 Q 48605 32752.85 48533.25 33111.6 L 48496.5 33468.6 L 49249 33683.85 Q 49966.5 33935.85 50038.25 33864.1 Q 50110 33792.35 50110 30602.1  Z M 90214.75 9511.1 Q 90430 9563.6 90645.25 9420.1 Q 90858.75 9276.6 90949.75 9276.6 Q 91039 9276.6 91217.5 9491.85 Q 91469.5 9707.1 91613 9707.1 Q 92150.25 9707.1 92472.25 10459.6 Q 92722.5 11033.6 92920.25 11212.1 Q 93118 11392.35 93118 11535.85 Q 93118 11679.35 93224.75 11679.35 Q 93296.5 11679.35 93314 11786.1 Q 93333.25 11894.6 93296.5 12055.6 Q 93261.5 12216.6 93153 12323.35 Q 93009.5 12575.35 92831 12575.35 Q 92328.75 12575.35 89138.5 15298.35 Q 85806.5 18094.85 85197.5 18380.1 Q 84838.75 18560.35 84497.5 18828.1 Q 84158 19097.6 84158 19204.35 Q 84158 19276.1 84480 19276.1 Q 84802 19276.1 85215 19491.35 Q 85626.25 19706.6 85734.75 19958.6 Q 85913.25 20243.85 86111 20406.6 Q 86307 20567.6 86398 20889.6 Q 86487.25 21211.6 86737.5 21607.1 Q 86989.5 22000.85 86952.75 22144.35 Q 86917.75 22287.85 86989.5 22359.6 Q 87061.25 22431.35 87096.25 23147.1 Q 87133 23864.6 87203 24132.35 Q 87274.75 24401.85 87274.75 24508.6 Q 87274.75 24545.35 87544.25 24456.1 Q 87813.75 24366.85 88118.25 24223.35 Q 88422.75 24079.85 88494.5 24043.1 Q 88638 23936.35 88529.5 23738.6 Q 88422.75 23542.6 88422.75 23218.85 Q 88422.75 22931.85 88261.75 22609.85 Q 88099 22287.85 87885.5 22179.35 Q 87670.25 22072.6 87813.75 21857.35 Q 87957.25 21642.1 88601.25 21713.85 Q 89247 21785.6 89247 21678.85 Q 89247 21570.35 88925 21265.85 Q 88601.25 20961.35 88405.25 20889.6 Q 88207.5 20817.85 88190 20530.85 Q 88170.75 20243.85 88135.75 20028.6 Q 88099 19921.85 88099 18434.35 Q 88099 16946.85 88099 16553.1 Q 88099 16444.6 88494.5 16374.6 Q 88888.25 16302.85 89282 16553.1 Q 89605.75 16696.6 89945.25 17055.35 Q 90286.5 17412.35 90286.5 17520.85 Q 90286.5 17664.35 90554.25 17951.35 Q 90823.75 18236.6 90787 18290.85 Q 90752 18345.1 90858.75 19062.6 L 90967.25 19706.6 L 91361 19097.6 Q 92041.75 17986.35 92579 16750.85 Q 93118 15513.6 93009.5 15263.35 Q 92902.75 15011.35 93009.5 14832.85 Q 93118 14652.6 93333.25 14724.35 Q 93546.75 14761.1 93546.75 14652.6 Q 93546.75 14367.35 94514.5 14939.6 Q 94945 15191.6 95232 15763.85 Q 95519 16337.85 95625.75 16392.1 Q 95734.25 16444.6 95662.5 16983.6 Q 95590.75 17520.85 95447.25 17951.35 Q 94910 19312.85 94514.5 19634.85 Q 94407.75 19706.6 94120.75 20208.85 Q 93833.75 20711.1 93690.25 20639.35 Q 93546.75 20567.6 93546.75 20691.85 Q 93546.75 20817.85 93385.75 20817.85 Q 93224.75 20817.85 93224.75 20907.1 Q 93224.75 20996.35 92902.75 21337.6 Q 92579 21678.85 92579 21768.1 Q 92579 21857.35 92437.25 21803.1 Q 92293.75 21750.6 92400.5 21391.85 Q 92509 20961.35 92418 20907.1 Q 92328.75 20854.6 92041.75 21320.1 Q 91791.5 21678.85 91719.75 21535.35 Q 91576.25 21068.1 91110.75 21678.85 Q 90823.75 22035.85 90823.75 22340.35 Q 90823.75 22646.6 91074 22753.35 Q 91254.25 22860.1 92257 22807.6 Q 93261.5 22753.35 93583.5 22931.85 Q 93905.5 23112.1 94066.5 23112.1 Q 94229.25 23112.1 94229.25 23273.1 Q 94229.25 23434.1 94658 23684.35 Q 95088.5 23936.35 95088.5 24097.35 Q 95088.5 24258.35 95338.75 24384.35 Q 95590.75 24508.6 95590.75 24652.1 Q 95590.75 24795.6 95751.75 24849.85 Q 95912.75 24904.1 95858.5 25065.1 Q 95806 25226.1 95912.75 25297.85 Q 96163 25441.35 95841 25584.85 Q 95734.25 25619.85 95590.75 25619.85 Q 95303.75 25619.85 94264.25 25978.6 L 92328.75 26696.1 Q 91397.75 26983.1 91271.75 27072.35 Q 91145.75 27161.6 91145.75 28057.6 L 91145.75 28918.6 L 91504.5 28988.6 Q 93583.5 29347.35 95303.75 29921.35 Q 98278.75 30924.1 99318.25 32000.35 L 99962.25 32609.35 Q 100214.25 32859.6 100573 33344.35 Q 100930 33827.35 100930 33935.85 Q 100930 34114.35 101091 34257.85 Q 101253.75 34401.35 101217 34508.1 Q 101110.25 34688.35 101575.75 35584.35 Q 101682.5 35871.35 101773.5 36265.1 Q 101862.75 36658.85 101917 36802.35 Q 101969.5 36945.85 101862.75 36945.85 Q 101754.25 36945.85 101145.25 36695.6 Q 100536.25 36408.6 100501.25 36408.6 Q 100464.5 36408.6 100177.5 36228.35 Q 99962.25 36086.6 98242 35243.1 Q 96521.75 34401.35 95573.25 33988.35 Q 94623 33577.1 92866 32968.1 Q 91110.75 32359.1 91039 32465.85 Q 90930.5 32537.6 90878 35708.6 Q 90823.75 38881.35 90717 39670.6 Q 90608.5 40458.1 90573.5 41354.1 Q 90536.75 42250.1 90249.75 42715.6 Q 89712.5 43539.85 89247 43111.1 Q 89031.75 42967.6 89031.75 42824.1 Q 89031.75 42680.6 88942.5 42680.6 Q 88853.25 42680.6 88853.25 42572.1 Q 88853.25 42465.35 88477 42143.35 Q 88099 41819.6 88099 41695.35 Q 88099 41569.35 87848.75 41319.1 Q 87598.5 41067.1 87598.5 40780.1 Q 87598.5 40494.85 87239.75 40136.1 Q 86450.5 39311.85 86450.5 38631.1 Q 86450.5 38415.85 86737.5 38487.6 Q 87024.5 38559.35 87239.75 38666.1 Q 87455 38809.6 87633.5 38755.35 Q 87813.75 38702.85 87813.75 38559.35 Q 87813.75 36658.85 87920.5 36443.6 Q 88029 36371.85 88081.5 34831.85 Q 88135.75 33290.1 88170.75 32896.35 Q 88207.5 32250.6 88029 32107.1 Q 87885.5 32178.85 87257.25 33039.85 Q 86630.75 33899.1 86165.25 34401.35 L 84982.25 35762.85 Q 83225.25 37735.1 82581.25 38128.85 Q 82366 38272.35 82222.5 38254.85 Q 82079 38235.6 82079 38057.1 Q 82079 37948.6 81702.75 37196.1 Q 81326.5 36443.6 81344 35780.35 Q 81361.5 35118.85 81433.25 34903.6 Q 81505 34688.35 82992.5 33129.1 Q 84480 31569.85 84910.5 31067.6 Q 86952.75 28666.6 86846 28594.85 Q 86774.25 28488.1 85985 28738.35 Q 85376 28918.6 85197.5 28918.6 Q 85017.25 28918.6 84623.5 28775.1 Q 84086.25 28631.6 83906 28631.6 Q 83727.5 28631.6 83118.5 28307.85 Q 82509.5 27985.85 82294.25 27842.35 Q 82079 27663.85 82079 27537.85 Q 82079 27411.85 81809.5 27268.35 Q 81541.75 27126.6 81541.75 27054.85 Q 81541.75 26802.85 81433.25 26696.1 Q 81254.75 26444.1 81757 26300.6 Q 82007.25 26230.6 82437.75 26193.85 Q 83368.75 26015.35 85106.5 25441.35 Q 86846 24867.35 86846 24688.85 Q 86846 24652.1 86165.25 24330.1 Q 84336.5 23434.1 83906 21535.35 Q 83834.25 21283.35 83368.75 20620.1 Q 82903.25 19958.6 82885.75 19580.6 Q 82866.5 19204.35 82581.25 18793.1 Q 82294.25 18380.1 82294.25 18201.6 Q 82294.25 18023.1 82079 17681.85 Q 81863.75 17340.6 81970.5 16659.85 Q 82007.25 16266.1 82061.5 16087.6 Q 82114 15907.35 82401 15620.35 Q 83081.75 15011.35 83906 14652.6 Q 84229.75 14474.1 84373.25 14313.1 Q 84515 14152.1 84982.25 13900.1 Q 85447.75 13649.85 85985 13112.6 Q 86522.25 12575.35 86702.5 12575.35 Q 86774.25 12575.35 86809.25 12556.1 Q 86846 12538.6 86809.25 12503.6 Q 86774.25 12431.85 87633.5 11679.35 L 89247 10209.35 Q 89999.5 9456.85 90214.75 9511.1  Z M 119817.75 18919.1 Q 120033 18882.35 120713.75 19043.35 Q 121394.5 19204.35 121681.5 19419.6 Q 122005.25 19634.85 122344.75 19993.6 Q 122686 20352.35 122686 20495.85 Q 122686 20639.35 122901.25 21033.1 Q 123151.5 21463.6 123169 22035.85 Q 123186.5 22609.85 123008 22914.35 Q 122829.5 23218.85 122595 24240.85 Q 122362.25 25262.85 122255.5 25728.35 Q 122147 26193.85 122147 26748.6 Q 122147 27305.1 121896.75 29060.35 L 121538 31606.6 Q 121466.25 32394.1 121359.5 32896.35 L 121287.75 33398.6 L 121718.25 32968.1 Q 122147 32502.6 122864.5 31534.85 Q 123438.5 30745.6 123562.75 30745.6 Q 123688.75 30745.6 123223.25 31463.1 Q 122721 32287.35 122901.25 32287.35 Q 122936.25 32287.35 123043 32287.35 Q 123258.25 32178.85 123814.75 31498.1 Q 124369.5 30817.35 124406.25 30817.35 Q 124406.25 30817.35 124334.5 31050.1 Q 124262.75 31282.85 124136.75 31552.35 Q 124010.75 31820.1 123869 32000.35 Q 123510.25 32537.6 123688.75 33290.1 Q 123725.5 33398.6 123832.25 33398.6 Q 124010.75 33326.85 123975.75 33451.1 Q 123939 33577.1 123725.5 33864.1 Q 123510.25 34151.1 123510.25 34312.1 Q 123510.25 34473.1 123366.75 34866.85 Q 123223.25 35260.6 123151.5 35314.85 Q 123079.75 35369.1 122792.75 35960.6 Q 122505.75 36552.1 122327.25 36676.35 Q 122147 36802.35 122147 36928.35 Q 122147 37052.6 121718.25 37411.35 Q 120176.5 38809.6 119817.75 39311.85 L 119674.25 39598.85 L 119208.75 39168.35 Q 118778.25 38809.6 118186.75 38218.1 Q 117597 37626.6 117112.25 37537.35 Q 116629.25 37448.1 116557.5 37106.85 Q 116485.75 36767.35 116592.5 36623.85 Q 116914.5 36371.85 116485.75 35762.85 Q 116270.5 35440.85 116323 35153.85 Q 116377.25 34866.85 116664.25 34866.85 Q 116914.5 34866.85 117255.75 34418.85 Q 117597 33970.85 117632 33970.85 Q 117847.25 33970.85 118134.25 32322.35 L 118493 30423.6 Q 118743.25 29132.1 119011 26911.35 Q 119280.5 24688.85 119208.75 24366.85 Q 119208.75 24151.6 119137 24151.6 Q 119030.25 24186.6 117238.25 25262.85 Q 116233.75 25871.85 115911.75 26032.85 Q 115589.75 26193.85 115194.25 26193.85 Q 114585.25 26122.1 114335 26015.35 Q 114083 25906.85 113743.5 25906.85 Q 113402.25 25906.85 113330.5 25800.1 Q 113258.75 25691.6 113080.25 25691.6 Q 112901.75 25691.6 112614.75 25458.85 Q 112327.75 25226.1 112077.5 25226.1 Q 111825.5 25226.1 111647 24904.1 Q 111288.25 24401.85 111647 24401.85 Q 112077.5 24401.85 111538.5 24079.85 Q 111466.75 24043.1 111395 24043.1 Q 111001.25 23827.85 111001.25 23684.35 Q 111001.25 23542.6 111270.75 23451.6 Q 111538.5 23362.35 111718.75 23470.85 Q 111897.25 23505.85 112471.25 23327.35 Q 112901.75 23183.85 114226.5 22466.35 Q 115553 21750.6 115875 21463.6 Q 116090.25 21248.35 116862 20691.85 Q 117632 20137.1 117632 20047.85 Q 117632 19958.6 117954 19886.85 Q 118277.75 19815.1 118545.5 19617.35 Q 118815 19419.6 118815 19276.1 Q 118815 19132.6 119011 19025.85 Q 119208.75 18919.1 119369.75 18990.85 Q 119530.75 19062.6 119817.75 18919.1  Z M 117094.75 10855.1 Q 117667 10746.6 118743.25 10907.6 Q 119817.75 11068.6 119998 11320.6 Q 120033 11427.35 120678.75 11751.1 Q 121646.5 12251.6 121986 12627.85 Q 122327.25 13004.1 122183.75 13506.35 Q 122147 13793.35 122077 15244.1 Q 122005.25 16696.6 122005.25 17520.85 Q 122040.25 18236.6 121968.5 18236.6 Q 121861.75 18236.6 121342 17914.6 Q 120822.25 17592.6 120535.25 17412.35 Q 120176.5 17127.1 120015.5 17107.85 Q 119854.5 17090.35 119441.5 16768.35 Q 119030.25 16444.6 118921.75 16553.1 Q 118815 16588.1 118815 16444.6 L 118815 16374.6 Q 118850 16087.6 118545.5 15746.35 Q 118241 15406.85 118241 15315.85 Q 118241 15226.6 118045 15048.1 Q 117847.25 14867.85 117847.25 14295.6 Q 117810.5 11570.85 116951.25 11068.6 Q 116771 10961.85 117094.75 10855.1  Z M 130821.75 10065.85 Q 130893.5 9922.35 131968 10102.6 Q 133042.5 10281.1 133581.5 10603.1 Q 134118.75 10818.35 134101.25 11087.85 Q 134082 11355.6 134584.25 11607.6 Q 134906.25 11751.1 134997.25 11875.35 Q 135086.5 12001.35 135121.5 12288.35 Q 135301.75 13112.6 135373.5 15513.6 Q 135373.5 15907.35 135408.5 16050.85 Q 135445.25 16194.35 135552 16194.35 Q 136089.25 16159.35 137541.75 15835.6 Q 138992.5 15513.6 139101 15406.85 Q 139279.5 15263.35 139906 15263.35 Q 140534.25 15263.35 141071.5 15226.6 Q 141717.25 15191.6 142450.5 15639.6 Q 143185.5 16087.6 143365.75 16731.6 Q 143509.25 17127.1 143616 17270.6 Q 143722.75 17412.35 143759.5 17753.6 Q 143794.5 18094.85 143903 18451.85 L 143938 18775.6 L 143257.25 18775.6 Q 142576.5 18775.6 142504.75 18882.35 Q 142433 18990.85 141591.25 19062.6 Q 140749.5 19132.6 140534.25 19204.35 Q 140319 19276.1 139673.25 19384.6 Q 139136 19456.35 137165.5 19939.35 Q 135193.25 20424.1 135086.5 20459.1 Q 135086.5 20495.85 135230 20728.6 Q 135373.5 20961.35 135193.25 20961.35 Q 134871.25 20961.35 135121.5 21320.1 Q 135301.75 21498.6 135480.25 22107.6 Q 135658.75 22716.6 135658.75 23112.1 L 135658.75 23505.85 L 136161 23399.1 Q 136735 23362.35 137522.5 23542.6 Q 138133.25 23721.1 138383.5 23882.1 Q 138633.75 24043.1 139314.5 24760.6 Q 140138.75 25584.85 140515 26248.1 Q 140893 26911.35 140677.75 27089.85 Q 140534.25 27233.35 140390.75 27914.1 Q 139853.5 30423.6 139566.5 30960.85 Q 139351.25 31426.35 139351.25 31552.35 Q 139351.25 31676.6 138885.75 32609.35 Q 137846.25 34760.1 137846.25 35082.1 Q 137846.25 35369.1 136089.25 38235.6 Q 135408.5 39346.85 134334 40619.1 Q 133257.75 41891.35 132864 42143.35 Q 131896.25 42680.6 131896.25 42465.35 Q 131896.25 42321.85 131681 41819.6 Q 130965.25 40242.85 130965.25 39955.85 Q 130965.25 39812.35 130641.5 39311.85 Q 130104.25 38450.85 129997.5 37376.35 Q 129960.75 36623.85 129889 36408.6 Q 129854 36086.6 130104.25 36193.35 Q 130282.75 36228.35 130589 36569.6 Q 130893.5 36910.85 131037 36963.35 Q 131178.75 37017.6 131574.25 37017.6 Q 132146.5 36910.85 132505.25 36552.1 Q 133329.5 35727.85 134190.5 33970.85 Q 134549.25 33218.35 134710.25 33146.6 Q 134871.25 33074.85 134871.25 32770.35 Q 134871.25 32465.85 134943 32394.1 Q 135049.75 32322.35 135517 31158.6 Q 135982.5 29993.1 136089.25 29634.35 Q 136126 29275.6 136341.25 28631.6 Q 136591.5 28129.35 136806.75 27126.6 Q 137022 26122.1 137022 25835.1 Q 137022 25584.85 136913.5 25513.1 Q 136806.75 25441.35 136304.5 25404.6 Q 135945.75 25334.6 135945.75 25191.1 L 135945.75 25154.35 Q 135874 25191.1 135265 24904.1 L 134691 24652.1 L 134369 24975.85 Q 134047 25262.85 133544.75 26337.35 Q 132648.75 28092.6 132326.75 28092.6 Q 132183.25 28092.6 131322.25 29384.1 Q 130463 30673.85 130050 31139.35 Q 129638.75 31606.6 129208.25 32250.6 Q 128777.75 32896.35 128545 32968.1 Q 128312.25 33039.85 128042.75 33451.1 Q 127775 33864.1 127255.25 34383.85 Q 126735.5 34903.6 126735.5 35010.35 Q 126735.5 35153.85 126557 35279.85 Q 126376.75 35404.1 126161.5 35404.1 Q 125946.25 35404.1 125785.25 34938.6 Q 125624.25 34473.1 125624.25 34329.6 Q 125589.25 33970.85 125193.75 33218.35 Q 124943.5 32859.6 125087 32752.85 Q 125230.5 32644.35 125230.5 32287.35 Q 125230.5 31928.6 125517.5 31695.85 Q 125802.75 31463.1 125857 31032.6 Q 125911.25 30602.1 126270 30262.6 Q 126627 29921.35 126735.5 29921.35 Q 126770.5 29921.35 127559.75 28899.35 Q 128349 27879.1 128599.25 27448.6 Q 128814.5 27089.85 129262.5 26570.1 Q 129710.5 26050.35 129710.5 26015.35 Q 129710.5 25871.85 130176 25119.35 Q 130641.5 24366.85 130856.75 24079.85 Q 131178.75 23721.1 131178.75 23560.1 Q 131178.75 23399.1 131359 23290.6 Q 131502.5 23147.1 131933 22305.35 Q 132361.75 21463.6 132361.75 21320.1 Q 132361.75 21176.6 132218.25 21176.6 Q 131861.25 21176.6 129997.5 21820.6 Q 129173.25 22107.6 128527.5 22287.85 Q 128025.25 22431.35 127881.75 22431.35 Q 127738.25 22431.35 127309.5 22179.35 Q 126735.5 21857.35 126627 21857.35 Q 126448.5 21857.35 125839.5 21552.85 Q 125230.5 21248.35 125122 21104.85 Q 125015.25 20854.6 124710.75 20800.35 Q 124406.25 20746.1 124334.5 20424.1 Q 124262.75 20100.35 124136.75 19689.1 Q 124010.75 19276.1 124101.75 19204.35 Q 124191 19132.6 125122 19097.6 Q 126485.25 18990.85 129817.25 17879.6 Q 130463 17699.35 131698.5 17305.6 Q 132935.75 16911.85 133007.5 16875.1 Q 133079.25 16840.1 132720.5 16444.6 Q 132146.5 15763.85 132146.5 15263.35 Q 132146.5 15011.35 131896.25 14652.6 Q 131646 14295.6 131646 14043.6 Q 131646 13721.6 131269.75 12575.35 Q 130893.5 11427.35 130713.25 11177.1 Q 130498 10855.1 130498 10746.6 Q 130498 10639.85 130319.5 10550.6 Q 130141 10459.6 130211 10316.1 Q 130282.75 10172.6 130498 10172.6 Q 130713.25 10172.6 130821.75 10065.85  Z " fill-rule="nonzero" style="fill:#ffd96d;;fill-opacity:1;"/>
</svg>