<svg version="1.1" x="0" y="0" width="100%" height="100%" viewBox="0 0 798208 446873.6" xmlns="http://www.w3.org/2000/svg">
  <path d="M 189938.6 120254.6 Q 190734.2 120254.6 191295.8 119615 Q 191857.4 118975.4 193128.8 119295.2 Q 199361 120254.6 201599.6 121533.8 L 203674.4 123125 L 205749.2 124404.2 Q 207831.8 125683.4 207668 129996.8 Q 207668 132071.6 208307.6 141657.8 Q 208947.2 151244 208471.4 151805.6 Q 207987.8 152359.4 208471.4 152437.4 Q 208947.2 152523.2 209103.2 166578.8 Q 209267 176640.8 209189 178637.6 Q 209103.2 180634.4 208627.4 180798.2 Q 207668 181118 207668 184230.2 Q 207668 187342.4 206474.6 188379.8 Q 205273.4 189425 205273.4 190376.6 Q 205273.4 191336 204633.8 192459.2 Q 204314 193254.8 203838.2 193013 Q 203354.6 192779 201435.8 190696.4 Q 198721.4 187982 198003.8 187982 Q 197286.2 187982 197286.2 186866.6 Q 197286.2 185751.2 196810.4 185111.6 Q 196007 184472 196007 183029 Q 196007 182389.4 195765.2 182233.4 Q 195531.2 182069.6 194493.8 182069.6 Q 193448.6 182069.6 191857.4 182389.4 Q 190258.4 182709.2 187060.4 183512.6 Q 173644.4 186866.6 171405.8 188301.8 Q 170290.4 189261.2 168215.6 189261.2 Q 166133 189261.2 165977 190220.6 Q 165813.2 191180 165579.2 191180 Q 165337.4 191180 163660.4 189425 Q 161983.4 187662.2 160064.6 186383 Q 155431.4 182553.2 155595.2 181913.6 Q 155915 181274 154955.6 179675 Q 153676.4 177124.4 153832.4 172811 Q 153832.4 171368 154955.6 160026.8 Q 155431.4 153318.8 155431.4 152281.4 Q 155431.4 151244 155673.2 149808.8 Q 155915 148365.8 155751.2 142859 Q 155595.2 137344.4 154713.8 136463 Q 153832.4 135589.4 153512.6 134466.2 Q 153192.8 133514.6 153754.4 133272.8 Q 154316 133031 156710.6 132555.2 Q 158629.4 132235.4 161421.8 130956.2 Q 164222 129677 167412.2 128397.8 Q 186740.6 121533.8 188183.6 120730.4 Q 189135.2 120254.6 189938.6 120254.6  Z M 193612.4 137344.4 Q 193292.6 133670.6 192731 132789.2 Q 192177.2 131915.6 191615.6 131915.6 Q 191054 131915.6 185461.4 134310.2 Q 176039 137984 170766.2 137984 Q 168691.4 137984 168215.6 138062 Q 167732 138140 167732 138623.6 L 168371.6 140542.4 Q 168535.4 141501.8 168933.2 145893.2 Q 169331 150284.6 169409 150362.6 Q 169487 150440.6 174284 148685.6 Q 184829.6 144216.2 189299 143576.6 Q 191857.4 143256.8 192894.8 142937 Q 193932.2 142617.2 193932.2 141821.6 Q 193932.2 141018.2 193612.4 137344.4  Z M 194252 156353 Q 194252 154278.2 186584.6 157476.2 Q 175079.6 161945.6 172209.2 162421.4 L 169331 162741.2 L 168691.4 168973.4 Q 168215.6 175205.6 168535.4 175603.4 Q 168855.2 176001.2 179073.2 173364.8 Q 189299 170728.4 191373.8 170408.6 Q 193612.4 170252.6 194088.2 168973.4 Q 194571.8 167694.2 194408 162741.2 Q 194252 157312.4 194252 156353  Z M 185305.4 34306.4 Q 185781.2 33830.6 187060.4 34782.2 Q 188183.6 35421.8 189455 35585.6 Q 190734.2 36061.4 191451.8 36545 Q 192177.2 37020.8 194252 39259.4 Q 197122.4 42769.4 197606 44454.2 Q 198081.8 46131.2 198081.8 52519.4 Q 198081.8 60186.8 197762 61466 Q 197606 62261.6 197762 62503.4 Q 197925.8 62737.4 199041.2 63377 Q 200640.2 63860.6 200640.2 64336.4 Q 200640.2 65139.8 201599.6 66497 Q 202559 67854.2 203034.8 68010.2 Q 203994.2 68330 203674.4 68813.6 Q 203354.6 69289.4 204555.8 69687.2 Q 205749.2 70092.8 205749.2 70646.6 Q 205749.2 71208.2 206388.8 72409.4 Q 207028.4 73602.8 207348.2 75521.6 Q 207512 76956.8 206630.6 77518.4 Q 205749.2 78080 201279.8 79031.6 Q 196326.8 79835 196007 80310.8 Q 195367.4 80950.4 194408 86543 Q 194252 87822.2 193768.4 88695.8 Q 193292.6 89577.2 193370.6 90856.4 Q 193448.6 92135.6 192972.8 94374.2 L 192653 96605 L 194571.8 96449 Q 207512 94850 216294.8 94530.2 Q 223962.2 94210.4 226442.6 94054.4 Q 228915.2 93890.6 229235 94374.2 Q 229554.8 94850 231387.8 94850 Q 233228.6 94850 233470.4 95489.6 Q 233704.4 96129.2 234585.8 96129.2 Q 235467.2 96129.2 235467.2 96527 Q 235467.2 96924.8 236824.4 97408.4 Q 238181.6 97884.2 238501.4 98843.6 Q 238657.4 99319.4 240498.2 101955.8 Q 242331.2 104592.2 243134.6 105231.8 Q 244569.8 106511 244413.8 109701.2 Q 244250 111939.8 243930.2 112181.6 Q 243610.4 112415.6 242011.4 112259.6 Q 234344 111144.2 222768.8 110988.2 Q 211185.8 110824.4 205273.4 111464 Q 200640.2 112103.6 190578.2 113858.6 Q 187700 114178.4 186740.6 115137.8 Q 185781.2 116097.2 185305.4 116097.2 Q 184829.6 116097.2 184985.6 117212.6 Q 184985.6 117376.4 184985.6 117376.4 L 184665.8 116573 Q 184026.2 115137.8 183628.4 115137.8 Q 183230.6 115137.8 178113.8 116253.2 Q 173004.8 117376.4 170610.2 117696.2 Q 163418.6 118491.8 156874.4 121370 Q 154635.8 122485.4 152241.2 123288.8 L 146968.4 125043.8 L 139137.2 128234 Q 134184.2 129996.8 133630.4 130636.4 Q 133068.8 131276 132593 131276 Q 131953.4 131276 129956.6 130316.6 Q 127959.8 129357.2 127078.4 128475.8 Q 126197 127594.4 125721.2 127594.4 Q 125237.6 127594.4 123240.8 126642.8 Q 121244 125683.4 120768.2 125043.8 Q 119972.6 124240.4 119808.8 123125 Q 119652.8 122009.6 117812 120972.2 Q 115979 119927 115979 118335.8 Q 115979 116573 117016.4 115933.4 Q 118053.8 115301.6 120612.2 115613.6 Q 124605.8 115777.4 137062.4 111144.2 Q 149043.2 106674.8 156071 104912 Q 161499.8 103632.8 161499.8 103157 Q 162139.4 101877.8 161180 101877.8 Q 160384.4 101877.8 160384.4 97728.2 Q 160384.4 93095 159986.6 91737.8 Q 159588.8 90380.6 157826 89577.2 Q 155915 88781.6 153114.8 86145.2 Q 150322.4 83508.8 149519 83345 Q 148723.4 83189 148403.6 82307.6 Q 148083.8 81434 146890.4 79913 Q 145689.2 78399.8 146165 78080 Q 147764 76637 151118 76637 Q 152561 76637 156234.8 75123.8 Q 159908.6 73602.8 159908.6 73127 Q 159908.6 71684 158707.4 68571.8 Q 157506.2 65459.6 156312.8 64102.4 Q 155111.6 62737.4 155033.6 62425.4 Q 154955.6 62105.6 155431.4 61785.8 Q 157506.2 60982.4 161499.8 62261.6 Q 164222 63221 167412.2 66419 L 170610.2 69773 L 173160.8 68813.6 Q 180032.6 66255.2 182107.4 65779.4 L 183386.6 65615.6 L 183550.4 59703.2 Q 184026.2 53634.8 184424 52277.6 Q 184829.6 50920.4 184665.8 45008 Q 184665.8 40694.6 184509.8 39735.2 Q 184346 38775.8 183386.6 37824.2 Q 182107.4 36545 182193.2 35663.6 Q 182271.2 34782.2 183550.4 34782.2 Q 184829.6 34470.2 185305.4 34306.4  Z M 179556.8 92455.4 Q 179393 91979.6 179876.6 88859.6 Q 180352.4 85747.4 179954.6 85505.6 Q 179556.8 85271.6 177716 85911.2 Q 175883 86543 175321.4 87104.6 Q 174759.8 87666.2 174440 94054.4 L 173964.2 100606.4 L 176039 100286.6 Q 178113.8 99966.8 178433.6 99966.8 Q 178753.4 99966.8 179237 96449 Q 179712.8 92939 179556.8 92455.4  Z M 245685.2 26802.8 L 246005 26802.8 Q 246168.8 27442.4 245685.2 28238 L 245365.4 28238 Q 245685.2 27442.4 245685.2 26802.8  Z M 371582.8 87346.4 Q 370865.2 87346.4 370545.4 86862.8 Q 370225.6 86387 371021.2 86387 Q 371816.8 86387 372058.6 86862.8 Q 372300.4 87346.4 371582.8 87346.4  Z M 391628.8 58112 Q 391309 56832.8 391870.6 56676.8 Q 392424.4 56513 393227.8 57472.4 Q 395146.6 59867 396418 58587.8 Q 397057.6 58112 397057.6 59071.4 Q 397057.6 59547.2 397861 59789 Q 398656.6 60030.8 401690.8 60030.8 Q 406168 60186.8 406324 60670.4 Q 406487.8 61146.2 406963.6 61146.2 Q 407603.2 61146.2 410879.2 62823.2 Q 414155.2 64500.2 414155.2 64820 Q 414155.2 65459.6 414794.8 65623.4 Q 415434.4 65779.4 415434.4 71052.2 Q 415434.4 72331.4 415434.4 73290.8 Q 415434.4 74242.4 415512.4 74804 Q 415590.4 75365.6 415668.4 75685.4 Q 415746.4 76005.2 415910.2 75841.4 Q 416549.8 75841.4 416549.8 76325 Q 416549.8 76800.8 416230 76800.8 Q 414794.8 76800.8 415114.6 91979.6 Q 415434.4 96449 415270.6 98204 Q 415114.6 99966.8 415348.6 103960.4 Q 415590.4 107954 415114.6 108593.6 Q 414631 109233.2 415434.4 109872.8 Q 416230 110504.6 415910.2 110988.2 Q 415590.4 111464 415114.6 110824.4 Q 414631 110184.8 414950.8 111464 Q 415434.4 113226.8 415434.4 115941.2 Q 415434.4 118655.6 414950.8 119615 Q 414475 120574.4 415114.6 121050.2 Q 415746.4 121533.8 415348.6 123444.8 Q 414950.8 125363.6 415590.4 125363.6 Q 415746.4 125363.6 415832.2 126642.8 Q 415910.2 127922 415668.4 128397.8 Q 415434.4 128881.4 415512.4 130152.8 Q 415590.4 131432 415746.4 131432 Q 416230 131432 416230 132469.4 Q 416230 133514.6 415832.2 133912.4 Q 415434.4 134310.2 415270.6 140776.4 Q 415114.6 147250.4 414631 147406.4 Q 414155.2 147570.2 414155.2 148685.6 Q 414155.2 151080.2 412712.2 152203.4 Q 412236.4 152523.2 412072.6 155073.8 Q 411752.8 158108 410801.2 158427.8 Q 410481.4 158591.6 410317.6 157796 Q 409997.8 156197 409038.4 157796 Q 408882.4 157952 408882.4 158427.8 Q 408242.8 159551 407603.2 159231.2 Q 406963.6 158911.4 406963.6 159473 Q 406963.6 160026.8 406487.8 159870.8 Q 406324 159707 405926.2 160026.8 Q 405528.4 160346.6 405208.6 161064.2 Q 404888.8 161789.6 404888.8 162421.4 Q 404888.8 163224.8 404725 163302.8 Q 404569 163380.8 403765.6 163061 Q 402650.2 162421.4 401137 160908.2 Q 399616 159387.2 398336.8 159067.4 Q 397221.4 158911.4 396340 158030 Q 395466.4 157156.4 395778.4 156197 Q 396098.2 155073.8 395622.4 155073.8 Q 395146.6 155073.8 394663 153482.6 Q 394187.2 151883.6 394187.2 150924.2 Q 394187.2 149808.8 393703.6 149808.8 Q 393227.8 149808.8 393227.8 149083.4 Q 393227.8 148365.8 392744.2 148365.8 Q 392268.4 148365.8 392588.2 146447 L 392744.2 144536 L 390349.6 144692 Q 387791.2 145011.8 386675.8 145175.6 Q 385560.4 145175.6 385240.6 145409.6 Q 384920.8 145651.4 384920.8 146127.2 Q 384920.8 146610.8 382760.2 147492.2 Q 380607.4 148365.8 380123.8 148209.8 Q 379648 147890 379086.4 148607.6 Q 378532.6 149325.2 376933.6 149005.4 Q 375334.6 148685.6 375014.8 149645 Q 374858.8 150284.6 373018 151166 Q 371185 152039.6 369422.2 152523.2 Q 367667.2 152999 367511.2 152359.4 Q 367347.4 151883.6 364952.8 152437.4 Q 362558.2 152999 362152.6 153638.6 Q 361754.8 154278.2 359758 153318.8 Q 357761.2 152359.4 357761.2 153077 Q 357761.2 153802.4 356887.6 154278.2 Q 356006.2 154754 353767.6 152523.2 Q 351536.8 150284.6 350975.2 150284.6 Q 350413.6 150284.6 350413.6 149808.8 Q 350413.6 149325.2 348814.6 148927.4 Q 347223.4 148529.6 347379.4 147172.4 Q 347543.2 145815.2 346739.8 145495.4 Q 345944.2 145175.6 345944.2 144855.8 Q 345944.2 144536 346583.8 144770 Q 347223.4 145011.8 347543.2 144294.2 Q 347855.2 143576.6 346498 142937 Q 345140.8 142297.4 345062.8 140136.8 Q 344984.8 137984 345780.4 137102.6 Q 346583.8 136229 346264 135909.2 Q 345944.2 135589.4 346817.8 134630 Q 347699.2 133670.6 347855.2 131432 Q 348175 124724 348658.6 123444.8 Q 348978.4 122485.4 348338.8 122009.6 Q 347699.2 121533.8 348175 121214 Q 348814.6 120730.4 349298.2 117056.6 Q 349774 113382.8 349298.2 112587.2 Q 348814.6 111627.8 349454.2 103320.8 Q 350733.4 83508.8 350897.2 82713.2 Q 350897.2 82393.4 350655.4 81114.2 Q 350413.6 79835 350257.6 79039.4 Q 349937.8 77120.6 348494.8 77120.6 Q 348019 77120.6 347855.2 77042.6 Q 347699.2 76964.6 347699.2 76644.8 Q 347699.2 76325 347855.2 75763.4 Q 348019 75201.8 348494.8 74406.2 Q 348978.4 73290.8 347379.4 71769.8 Q 345780.4 70248.8 344025.4 68813.6 Q 341311 66738.8 343861.6 66894.8 Q 347059.6 67058.6 352808.2 70092.8 Q 356162.2 71528 357839.2 70974.2 Q 359524 70412.6 361115.2 69936.8 Q 362714.2 69453.2 366388 68018 Q 370061.8 66575 371816.8 66255.2 Q 373579.6 65943.2 374297.2 65459.6 Q 375014.8 64983.8 376294 64983.8 Q 377893 64983.8 383002 62987 Q 388111 60990.2 388914.4 60030.8 Q 389070.4 59547.2 389554 59867 Q 390029.8 60186.8 390911.2 59867 Q 391784.8 59547.2 391628.8 58112  Z M 394023.4 94694 Q 394187.2 94530.2 393469.6 85349.6 Q 392744.2 76161.2 392424.4 75763.4 Q 392104.6 75365.6 390427.6 76559 Q 388750.6 77760.2 387877 77760.2 Q 386995.6 77760.2 384601 79039.4 Q 382206.4 80318.6 381644.8 80318.6 Q 381083.2 80318.6 378766.6 81278 Q 376450 82229.6 375092.8 82229.6 Q 373735.6 82229.6 373735.6 82713.2 Q 373735.6 83189 373977.4 82869.2 Q 374219.2 82549.4 374936.8 83111 Q 375654.4 83672.6 374219.2 84632 Q 373579.6 85107.8 372222.4 85349.6 Q 370865.2 85591.4 369905.8 85505.6 Q 368946.4 85427.6 368946.4 85107.8 Q 368946.4 84468.2 367511.2 84468.2 Q 366068.2 84468.2 366068.2 84951.8 Q 366068.2 85427.6 365108.8 85427.6 Q 364469.2 85427.6 364235.2 86309 Q 363993.4 87182.6 363829.6 90700.4 Q 363517.6 96129.2 363353.8 97572.2 Q 363034 99966.8 362956 103001 Q 362878 106035.2 363034 106355 Q 363517.6 106674.8 368462.8 104116.4 Q 378532.6 99163.4 381403 98204 Q 383961.4 97252.4 384117.4 97486.4 Q 384281.2 97728.2 385716.4 96293 Q 387159.4 94850 387955 95333.6 Q 388430.8 95489.6 390989.2 95333.6 Q 393547.6 95169.8 394023.4 94694  Z M 394187.2 116261 Q 394187.2 114342.2 394187.2 112665.2 Q 394187.2 110988.2 394101.4 109950.8 Q 394023.4 108913.4 393703.6 108913.4 Q 393064 109233.2 378368.8 115777.4 Q 372136.6 118491.8 370623.4 118975.4 Q 369102.4 119451.2 366068.2 119451.2 L 362074.6 119451.2 L 361918.6 122165.6 Q 361918.6 124724 361832.8 125761.4 Q 361754.8 126798.8 361598.8 130956.2 L 361435 135425.6 L 362714.2 135269.6 Q 364313.2 135269.6 365272.6 134786 Q 368143 133514.6 374858.8 131751.8 Q 381566.8 129996.8 385076.8 129677 Q 387635.2 129201.2 388196.8 128717.6 Q 388750.6 128241.8 389554 128717.6 Q 390349.6 129201.2 391784.8 129037.4 Q 393227.8 128881.4 393383.8 128475.8 Q 393547.6 128078 394023.4 126323 Q 394187.2 123764.6 394187.2 116261  Z M 584692.2 105559.4 Q 587250.6 104600 589809 106191.2 L 595713.6 109389.2 Q 599387.4 111464 600510.6 112345.4 Q 601626 113226.8 603544.8 115777.4 Q 607218.6 120574.4 604504.2 122485.4 Q 603381 123125 603147 124646 Q 602905.2 126159.2 602421.6 126720.8 Q 601945.8 127282.4 602187.6 128795.6 Q 602421.6 130316.6 602421.6 131112.2 Q 602421.6 131915.6 602187.6 133514.6 Q 601945.8 135105.8 601789.8 135105.8 Q 601306.2 135105.8 600268.8 134552 Q 599231.4 133990.4 599231.4 133834.4 Q 599231.4 133514.6 597476.4 132391.4 Q 595713.6 131276 593880.6 129918.8 Q 592039.8 128561.6 591080.4 127922 Q 589645.2 127282.4 587086.8 117540.2 Q 586135.2 114022.4 584856 111308 Q 582453.6 106511 584692.2 105559.4  Z M 589005.6 47566.4 Q 590284.8 46451 593958.6 47886.2 Q 595557.6 48362 596197.2 48362 Q 597476.4 48362 598591.8 49805 Q 599707.2 51240.2 600027 52995.2 Q 600666.6 55553.6 601150.2 56754.8 Q 601626 57948.2 601150.2 61622 Q 600986.4 66419 600346.8 68330 Q 599707.2 70248.8 595713.6 80474.6 Q 595237.8 80950.4 596033.4 80950.4 Q 596992.8 80794.4 599707.2 79991 Q 602585.4 78875.6 606017.4 78314 Q 609457.2 77760.2 609933 76956.8 L 610572.6 75841.4 Q 610728.6 75677.6 613848.6 76722.8 Q 616960.8 77760.2 619355.4 78875.6 Q 622709.4 80630.6 624472.2 82229.6 Q 631819.8 88461.8 631500 89257.4 Q 631016.4 90060.8 630540.6 96449 Q 630376.8 98048 630142.8 98445.8 Q 629901 98843.6 629901 101004.2 Q 629901 103157 629339.4 103476.8 Q 628785.6 103796.6 629261.4 104272.4 Q 630220.8 105395.6 629105.4 115293.8 L 628621.8 119287.4 Q 628302 121689.8 627904.2 121689.8 Q 627506.4 121689.8 627748.2 122727.2 Q 627982.2 123764.6 627506.4 124084.4 Q 626866.8 124560.2 626071.2 131588 Q 625587.6 135261.8 625111.8 135823.4 Q 624628.2 136385 624948 138303.8 Q 625267.8 140214.8 624706.2 143654.6 Q 624152.4 147086.6 623988.6 147882.2 Q 623029.2 154278.2 622077.6 156033.2 Q 621438 157312.4 621438 158349.8 Q 621438 159387.2 620798.4 159387.2 Q 620158.8 159387.2 619441.2 160986.2 Q 618715.8 162585.2 617038.8 164184.2 Q 615361.8 165783.2 614566.2 167218.4 Q 613926.6 168973.4 611851.8 171375.8 L 610572.6 172811 L 608334 168653.6 Q 605939.4 164340.2 605463.6 164340.2 Q 604504.2 164340.2 602905.2 158911.4 Q 602265.6 156836.6 601306.2 154434.2 Q 599387.4 149489 599707.2 147570.2 Q 600346.8 145651.4 602421.6 147250.4 Q 603544.8 148209.8 604824 148209.8 Q 606103.2 148209.8 606415.2 147250.4 Q 606735 146291 607374.6 146049.2 Q 608014.2 145815.2 607694.4 145409.6 Q 607374.6 145011.8 608178 144450.2 Q 608973.6 143896.4 608973.6 141899.6 Q 608973.6 139902.8 609215.4 139661 Q 609457.2 139419.2 609457.2 136548.8 Q 609293.4 131595.8 611688 110824.4 Q 612171.6 106674.8 612249.6 103882.4 Q 612327.6 101082.2 612725.4 99803 Q 613131 98523.8 611688 97252.4 Q 610728.6 96129.2 610330.8 94935.8 Q 609933 93734.6 609777 90380.6 Q 609777 89421.2 604340.4 91020.2 Q 603381 91496 601789.8 91815.8 Q 591564 94850 588849.6 97088.6 L 587726.4 98204 L 585971.4 97252.4 Q 584052.6 96129.2 582773.4 96051.2 Q 581502 95973.2 580698.6 95169.8 Q 579903 94374.2 579583.2 94616 Q 579263.4 94850 576627 93492.8 Q 573990.6 92135.6 573834.6 92135.6 Q 573031.2 92135.6 572391.6 96768.8 Q 571112.4 104116.4 571276.2 119771 Q 571276.2 122969 570636.6 131112.2 Q 569997 139263.2 569997 141821.6 Q 570316.8 146766.8 568881.6 150284.6 Q 568242 151883.6 568078.2 157952 Q 568078.2 159543.2 567922.2 159629 Q 567758.4 159707 567282.6 159067.4 Q 566167.2 158271.8 564568.2 157148.6 Q 562805.4 156189.2 560176.8 153474.8 Q 557540.4 150760.4 557540.4 149964.8 Q 557540.4 149325.2 556978.8 148763.6 Q 556417.2 148202 556417.2 146610.8 Q 556417.2 145011.8 556019.4 144770 Q 555621.6 144528.2 551464.2 145885.4 Q 547314.6 147242.6 543640.8 148287.8 Q 539967 149325.2 539725.2 149801 Q 539483.4 150284.6 539163.6 152999 Q 538843.8 155393.6 538524 155393.6 Q 538524 155549.6 538048.2 154754 Q 537088.8 153638.6 536691 153638.6 Q 536293.2 153638.6 531816 149481.2 Q 528306 145971.2 527588.4 144692 Q 526863 143412.8 526543.2 139575.2 Q 526543.2 137344.4 526863 135503.6 Q 527182.8 133670.6 527424.6 130550.6 Q 527666.4 127438.4 528306 126159.2 Q 529101.6 123764.6 528384 107072.6 Q 527666.4 90380.6 526543.2 89577.2 Q 526067.4 89101.4 526231.2 88539.8 Q 526387.2 87978.2 525669.6 87658.4 Q 524952 87338.6 525271.8 86387 Q 525427.8 85747.4 527104.8 85341.8 Q 528781.8 84944 530061 85583.6 Q 531496.2 86067.2 531979.8 85505.6 Q 532455.6 84944 531979.8 83508.8 Q 531496.2 82229.6 531660 81753.8 Q 531816 81270.2 532775.4 80154.8 Q 534218.4 78719.6 534218.4 78158 Q 534218.4 77596.4 534850.2 77596.4 Q 535489.8 77440.4 538609.8 73766.6 Q 541722 70092.8 543640.8 66738.8 Q 545239.8 64336.4 546675 61863.8 Q 548110.2 59383.4 548827.8 57792.2 Q 549553.2 56193.2 549233.4 56029.4 Q 548913.6 55709.6 547954.2 55233.8 Q 547150.8 54758 547236.6 54594.2 Q 547314.6 54438.2 548110.2 54758 Q 549069.6 54914 549069.6 54438.2 Q 549069.6 54118.4 547314.6 53315 Q 545715.6 52519.4 546199.2 51879.8 Q 546675 51560 547470.6 51879.8 Q 550504.8 53159 551784 52035.8 Q 552267.6 51560 553383 52597.4 Q 554498.4 53634.8 555941.4 53954.6 Q 558016.2 54274.4 559295.4 55233.8 Q 560574.6 56193.2 563289 58907.6 Q 566479.2 62261.6 566721 63782.6 Q 566962.8 65295.8 564568.2 68330 Q 562805.4 71052.2 561214.2 73602.8 L 558811.8 77440.4 L 557860.2 79039.4 L 559131.6 79671.2 Q 560410.8 80474.6 563125.2 80950.4 Q 565847.4 81434 567438.6 82073.6 Q 568881.6 82713.2 570316.8 83906.6 Q 571752 85107.8 571752 85747.4 Q 571752 86387 572157.6 86621 Q 572555.4 86862.8 573195 86543 Q 573834.6 86223.2 574630.2 85747.4 Q 576065.4 84468.2 576065.4 83984.6 Q 576065.4 83508.8 577344.6 82073.6 Q 579263.4 79991 582539.4 73127 Q 585815.4 66255.2 586447.2 62581.4 Q 586447.2 62105.6 587570.4 58751.6 Q 589645.2 52995.2 588366 49485.2 Q 587890.2 48681.8 589005.6 47566.4  Z M 556737 92299.4 Q 556417.2 91659.8 555777.6 91737.8 Q 555138 91815.8 553063.2 92939 Q 550348.8 94210.4 546994.8 95169.8 Q 543640.8 96129.2 543157.2 95653.4 Q 542517.6 95333.6 542517.6 95411.6 Q 542517.6 95489.6 542283.6 103320.8 Q 542041.8 111144.2 542517.6 111144.2 Q 543001.2 111144.2 547790.4 108991.4 Q 552587.4 106830.8 554818.2 106355 L 557056.8 105715.4 L 557056.8 99483.2 Q 556900.8 93258.8 556737 92299.4  Z M 556900.8 121533.8 Q 556900.8 120090.8 556900.8 118733.6 Q 556900.8 117376.4 556815 116580.8 Q 556737 115777.4 556581 115777.4 Q 556261.2 115777.4 552267.6 117860 Q 546675 120894.2 543157.2 120410.6 Q 543001.2 120410.6 542681.4 124724 Q 542361.6 129037.4 542283.6 132789.2 Q 542205.6 136548.8 542361.6 137508.2 Q 542517.6 137664.2 544514.4 136704.8 Q 546511.2 135745.4 546994.8 134949.8 Q 547954.2 133834.4 548508 134310.2 Q 549069.6 134786 550824.6 134310.2 Q 552587.4 133834.4 554498.4 133834.4 L 556417.2 133834.4 L 556581 130792.4 Q 556737 127602.2 556900.8 121533.8  Z M 314187.6 373592.2 L 314507.4 374068 Q 314827.2 374231.8 314983.2 374387.8 Q 315786.6 375503.2 315622.8 375823 Q 315303 376626.4 314827.2 375667 Q 314507.4 375347.2 314507.4 374871.4 Q 314507.4 374231.8 314187.6 373592.2  Z M 297409.8 290764 Q 296770.2 289562.8 297651.6 288767.2 Q 298533 287963.8 303166.2 288127.6 Q 307799.4 288283.6 310747.8 289726.6 Q 313704 291161.8 313704 291879.4 Q 313704 292597 315147 293236.6 Q 316106.4 293556.4 317463.6 295397.2 Q 318820.8 297230.2 318976.8 298509.4 Q 319140.6 299468.8 319616.4 300428.2 Q 320100 301387.6 319780.2 301707.4 Q 319460.4 302027.2 320100 302503 Q 320731.8 302986.6 320731.8 303618.4 Q 320731.8 304258 321777 306418.6 Q 322814.4 308571.4 322572.6 309055 Q 322330.8 309530.8 322650.6 310334.2 Q 323610 312089.2 322970.4 313688.2 Q 322650.6 314327.8 322408.8 314327.8 Q 322174.8 314327.8 321215.4 313368.4 Q 319460.4 311925.4 315786.6 310092.4 Q 312112.8 308251.6 310116 305459.2 Q 308119.2 302666.8 307635.6 301863.4 Q 306520.2 299624.8 303166.2 296036.8 Q 299812.2 292441 298689 292121.2 Q 298049.4 291957.4 297409.8 290764  Z M 270258 256818.4 Q 272488.8 255695.2 273768 256974.4 Q 274571.4 257933.8 276482.4 258893.2 Q 278081.4 259376.8 280000.2 261287.8 Q 281919 263206.6 283198.2 264961.6 Q 284469.6 266724.4 283837.8 266880.4 Q 283354.2 267044.2 283674 267520 Q 283993.8 267839.8 284711.4 269119 Q 285429 270398.2 285429 270718 Q 285429 270874 284789.4 270874 Q 283837.8 270874 283112.4 273752.2 Q 282394.8 276622.6 282394.8 279976.6 Q 282558.6 284290 282956.4 285413.2 Q 283354.2 286528.6 283674 289328.8 Q 283993.8 292121.2 284469.6 293954.2 Q 284953.2 295795 285109.2 296590.6 L 285912.6 301223.8 Q 286708.2 305061.4 287028 307931.8 Q 287347.8 310810 287831.4 310810 Q 288307.2 310810 289828.2 309850.6 Q 291341.4 308891.2 291341.4 308657.2 Q 291341.4 308415.4 292542.6 307775.8 Q 293736 307136.2 294297.6 307136.2 Q 294859.2 307136.2 295732.8 308017.6 Q 296614.2 308891.2 297253.8 308891.2 Q 298049.4 308891.2 300529.8 310334.2 Q 303002.4 311769.4 304437.6 313204.6 Q 306520.2 314967.4 306840 314967.4 Q 307159.8 314967.4 306598.2 315599.2 Q 306036.6 316238.8 306840 317042.2 Q 308119.2 318321.4 306840 318321.4 Q 306356.4 318321.4 306036.6 319436.8 Q 305716.8 320552.2 304757.4 321035.8 Q 304281.6 321511.6 304757.4 321511.6 Q 305397 321355.6 307635.6 320716 Q 308275.2 320552.2 308275.2 320716 Q 308275.2 320872 306996 321831.4 Q 305560.8 323110.6 303166.2 324545.8 Q 300927.6 325825 297573.6 328141.6 Q 294219.6 330458.2 293899.8 330856 Q 293580 331261.6 294773.4 335013.4 Q 295974.6 338765.2 296372.4 338765.2 Q 296770.2 338765.2 297331.8 338203.6 Q 297893.4 337649.8 298611 338289.4 Q 299328.6 338929 300210 337727.8 Q 301083.6 336526.6 302526.6 332852.8 Q 303961.8 329179 305397 328063.6 L 306676.2 327104.2 L 308914.8 328383.4 Q 311309.4 329662.6 312112.8 330138.4 Q 312908.4 330302.2 314109.6 332057.2 Q 315303 333812.2 315942.6 335567.2 Q 316582.2 337330 316340.4 340520.2 Q 316106.4 343718.2 313789.8 348031.6 Q 311473.2 352345 308914.8 356338.6 Q 306356.4 360332.2 306356.4 360893.8 Q 306356.4 361447.6 307713.6 363764.2 Q 309070.8 366080.8 309156.6 366564.4 Q 309234.6 367040.2 310911.6 368717.2 Q 312588.6 370394.2 311793 370558 Q 310030.2 371197.6 315786.6 378701.2 Q 318657 382219 322970.4 387008.2 L 324405.6 388927 L 326168.4 387647.8 Q 329522.4 385409.2 333672 375667 Q 334631.4 373592.2 335029.2 372632.8 Q 335434.8 371673.4 335832.6 370877.8 Q 336230.4 370074.4 336386.4 370238.2 Q 336550.2 370394.2 337026 370394.2 Q 337665.6 370877.8 337665.6 371673.4 Q 337665.6 372469 338305.2 373592.2 Q 338625 374387.8 338703 378779.2 Q 338788.8 383178.4 338469 384769.6 Q 338305.2 385729 336870 389886.4 Q 335434.8 394036 335115 396438.4 L 333835.8 401703.4 Q 333516 404261.8 333835.8 404261.8 Q 334631.4 404105.8 334631.4 405221.2 Q 334631.4 405860.8 334389.6 406102.6 Q 334155.6 406336.6 333835.8 406336.6 Q 333516 406336.6 332876.4 406102.6 Q 332236.8 405860.8 331121.4 405221.2 Q 328882.8 403942 327845.4 404105.8 Q 326808 404261.8 325926.6 404020 Q 325045.2 403786 322814.4 403380.4 Q 320575.8 402982.6 320575.8 402584.8 Q 320575.8 402187 318017.4 399870.4 Q 315466.8 397553.8 315622.8 397070.2 Q 315786.6 395635 314023.8 394036 Q 312744.6 392756.8 309156.6 388365.4 Q 305560.8 383974 303961.8 382297 Q 302362.8 380620 300132 376142.8 L 297729.6 371993.2 L 294859.2 374871.4 L 289906.2 380620 Q 287511.6 383178.4 286630.2 383178.4 Q 285748.8 383178.4 285912.6 382694.8 Q 286232.4 381735.4 285912.6 380378.2 Q 285592.8 379021 284711.4 378061.6 Q 283837.8 377102.2 283518 377422 Q 283198.2 377266 283034.4 376782.4 Q 283034.4 375823 282558.6 375823 Q 282075 375823 281677.2 374707.6 Q 281279.4 373592.2 281997 373030.6 Q 282714.6 372469 281755.2 372235 Q 280795.8 371993.2 280795.8 371509.6 Q 280795.8 371033.8 280078.2 371033.8 Q 279360.6 371033.8 279524.4 369037 Q 279680.4 367040.2 280000.2 366642.4 Q 280320 366244.6 280959.6 364801.6 Q 283034.4 360652 284789.4 359848.6 Q 285592.8 359692.6 287028 357532 Q 288463.2 355379.2 288783 354100 Q 289102.8 353304.4 287987.4 349630.6 Q 286872 345956.8 286068.6 344677.6 Q 285429 343554.4 284469.6 340200.4 Q 283518 336846.4 283276.2 336846.4 Q 283034.4 336846.4 278081.4 339248.8 L 273931.8 341159.8 Q 274891.2 340364.2 277605.6 339085 Q 278721 338609.2 279438.6 338047.6 Q 280164 337486 280000.2 337330 Q 279844.2 336846.4 280639.8 336690.4 Q 280795.8 336690.4 280959.6 336846.4 Q 280639.8 337330 281037.6 337330 Q 281435.4 337330 282394.8 336690.4 Q 283354.2 336206.8 282714.6 335255.2 Q 282394.8 334615.6 281919 334771.6 Q 281435.4 334935.4 279524.4 336050.8 Q 273931.8 338929 272488.8 339802.6 Q 271053.6 340684 270897.6 341643.4 Q 270733.8 342602.8 271053.6 342758.8 Q 271217.4 342922.6 271537.2 342439 Q 272013 341799.4 272488.8 341799.4 Q 272972.4 341799.4 271693.2 342922.6 L 270414 344038 L 270414 351541.6 Q 270897.6 361291.6 271373.4 361291.6 Q 272176.8 361291.6 272332.8 361767.4 Q 272488.8 362251 271693.2 362407 Q 271217.4 362726.8 272013 363366.4 Q 273448.2 364325.8 271217.4 366400.6 L 269774.4 367999.6 L 269774.4 379340.8 Q 269774.4 390845.8 269376.6 391485.4 Q 268978.8 392125 268815 393240.4 Q 268815 393716.2 268581 394441.6 Q 268339.2 395159.2 268019.4 395876.8 Q 267699.6 396594.4 267379.8 397156 Q 267060 397709.8 266740.2 398115.4 Q 266420.4 398513.2 266420.4 398193.4 Q 266100.6 398029.6 265780.8 398349.4 Q 265461 398669.2 265141.2 399386.8 Q 264821.4 400112.2 264345.6 401383.6 Q 263869.8 403466.2 263066.4 404901.4 L 262270.8 406180.6 L 261311.4 404261.8 Q 260508 402506.8 257879.4 399948.4 Q 255243 397390 255243 396516.4 Q 255243 395635 254517.6 395635 Q 253800 395635 254041.8 394995.4 Q 254283.6 394355.8 253480.2 393560.2 Q 252684.6 392756.8 251569.2 390206.2 Q 250446 387647.8 250126.2 387172 Q 249970.2 387008.2 248129.4 388763.2 Q 246296.4 390526 244221.6 392920.6 Q 242139 395315.2 241499.4 396594.4 Q 241343.4 396914.2 239822.4 396196.6 Q 238309.2 395479 237349.8 394519.6 Q 235750.8 393076.6 234955.2 393396.4 Q 234471.6 393880 233036.4 393560.2 Q 231601.2 393240.4 231601.2 392920.6 Q 231601.2 392444.8 230961.6 392756.8 Q 230797.8 392125 230641.8 391805.2 Q 230641.8 390682 230002.2 389964.4 Q 229362.6 389246.8 228559.2 389246.8 Q 226968 389246.8 227607.6 386688.4 Q 227927.4 385573 229198.8 385573 Q 231281.4 385573 239588.4 377422 Q 245173.2 371993.2 250929.6 367516 L 256834.2 363210.4 L 256998 358257.4 Q 257473.8 353304.4 257239.8 353062.6 Q 256998 352820.8 256358.4 353304.4 Q 249330.6 358577.2 244533.6 360652 Q 243098.4 361291.6 243098.4 362009.2 Q 243098.4 362726.8 242302.8 362485 Q 241499.4 362251 240384 362009.2 Q 239268.6 361767.4 237427.8 360168.4 Q 235594.8 358577.2 234315.6 358577.2 Q 233036.4 358577.2 232552.8 357454 Q 232077 356338.6 230875.8 356338.6 Q 229682.4 356338.6 229440.6 355777 Q 229198.8 355223.2 228325.2 355535.2 Q 227443.8 355855 227202 355223.2 Q 226968 354583.6 226164.6 354583.6 Q 223614 354583.6 222654.6 351705.4 Q 222334.8 350106.4 222888.6 349708.6 Q 223450.2 349310.8 222490.8 348507.4 Q 221055.6 346752.4 223450.2 346752.4 Q 223933.8 346752.4 224565.6 347072.2 Q 226328.4 347236 230158.2 345317.2 Q 233995.8 343398.4 234635.4 343398.4 Q 235275 343398.4 235750.8 342439 Q 236234.4 341479.6 237349.8 341479.6 Q 238465.2 341479.6 238465.2 340762 Q 238465.2 340044.4 239026.8 340044.4 Q 239588.4 340044.4 241983 337649.8 Q 243901.8 335567.2 246452.4 334054 Q 249010.8 332533 249650.4 332852.8 Q 250290 333172.6 251327.4 331979.2 Q 252364.8 330778 253324.2 330536.2 Q 254283.6 330302.2 256038.6 329342.8 Q 257317.8 328383.4 257473.8 327424 Q 257637.6 326464.6 256834.2 322790.8 Q 256202.4 319436.8 253644 316878.4 Q 251725.2 314803.6 251249.4 314561.8 Q 250765.8 314327.8 249650.4 314803.6 Q 248215.2 315443.2 248215.2 316082.8 Q 248215.2 316722.4 247411.8 316964.2 Q 246616.2 317198.2 245976.6 316878.4 Q 245493 316722.4 244775.4 314881.6 Q 244057.8 313048.6 244057.8 312167.2 Q 244057.8 311293.6 242380.8 309694.6 Q 240703.8 308095.6 241101.6 308095.6 Q 241499.4 308095.6 240540 307136.2 Q 239744.4 306340.6 240064.2 305061.4 Q 240384 303782.2 241343.4 303462.4 Q 242139 302986.6 241499.4 302183.2 Q 240384 301067.8 242139 298993 Q 243098.4 298353.4 243098.4 297791.8 Q 243098.4 297230.2 243901.8 297550 Q 244221.6 297394 244221.6 297394 Q 244221.6 297230.2 244377.6 297074.2 Q 244533.6 296910.4 245173.2 296910.4 Q 247575.6 296910.4 248051.4 296270.8 Q 248371.2 295951 252926.4 291723.4 Q 257473.8 287488 257473.8 287012.2 Q 257473.8 286528.6 258675 285015.4 Q 259876.2 283494.4 259876.2 282854.8 Q 259876.2 282379 260913.6 282293.2 Q 261951 282215.2 263144.4 282457 Q 264345.6 282698.8 264665.4 283174.6 Q 264985.2 283970.2 265461 283970.2 Q 266100.6 283970.2 267863.4 285647.2 Q 269618.4 287332 269618.4 287885.8 Q 269618.4 288447.4 271373.4 290046.4 Q 272652.6 291325.6 272972.4 291723.4 Q 273292.2 292121.2 272652.6 292597 Q 271537.2 294040 272488.8 294515.8 Q 272652.6 294515.8 272972.4 294274 Q 273292.2 294040 273292.2 294118 Q 273292.2 294196 272972.4 294515.8 Q 272652.6 294999.4 273292.2 295951 Q 273612 296590.6 273448.2 296754.4 Q 273292.2 296910.4 272176.8 296910.4 Q 271217.4 296910.4 270811.8 297074.2 Q 270414 297230.2 270733.8 297550 Q 270897.6 298353.4 270258 298353.4 Q 269618.4 298353.4 269618.4 298907.2 Q 269618.4 299468.8 267941.4 300506.2 Q 266264.4 301543.6 266264.4 301941.4 Q 266264.4 302347 264821.4 304024 Q 263386.2 305701 262746.6 305701 Q 260671.8 306020.8 260991.6 306980.2 Q 260991.6 307931.8 259954.2 307697.8 Q 258916.8 307456 258916.8 308173.6 Q 258916.8 308891.2 258433.2 308657.2 Q 257957.4 308415.4 257957.4 308977 Q 257957.4 309530.8 257473.8 309211 Q 256998 308891.2 256202.4 310014.4 Q 254603.4 311769.4 257317.8 312409 Q 259236.6 313204.6 264189.6 317362 Q 265461 318641.2 266342.4 318961 Q 267223.8 319280.8 267699.6 320552.2 Q 268495.2 322634.8 269774.4 321035.8 Q 270414 320232.4 271693.2 319834.6 Q 272972.4 319436.8 274009.8 318321.4 Q 275047.2 317198.2 275850.6 317198.2 Q 276646.2 317198.2 277527.6 316558.6 Q 278401.2 315919 278401.2 315443.2 Q 278401.2 314803.6 277441.8 311051.8 Q 276482.4 307300 275289 299227 Q 274087.8 291161.8 272652.6 283018.6 Q 270414 271669.6 269298.6 260492.2 Q 269134.8 258253.6 269220.6 257777.8 Q 269298.6 257294.2 270258 256818.4  Z M 302043 322790.8 Q 303322.2 321675.4 301723.2 322315 Q 301083.6 322634.8 300132 323274.4 Q 299172.6 323906.2 298611 324226 Q 298049.4 324545.8 298049.4 324709.6 Q 298369.2 325185.4 299890.2 324389.8 Q 301403.4 323586.4 302043 322790.8  Z M 294375.6 328063.6 Q 295015.2 327268 295015.2 326948.2 Q 294859.2 326464.6 293580 327580 Q 292456.8 328383.4 292862.4 328781.2 Q 293260.2 329179 294375.6 328063.6  Z M 255796.8 381977.2 Q 256202.4 381735.4 256202.4 381095.8 Q 256202.4 380456.2 255718.8 380456.2 Q 255243 380456.2 253324.2 382772.8 Q 251405.4 385089.4 251569.2 385573 Q 251725.2 386048.8 252364.8 385331.2 Q 253004.4 384613.6 253963.8 385089.4 Q 254283.6 385089.4 254603.4 384769.6 Q 254923.2 384449.8 255079.2 383810.2 Q 255399 382211.2 255796.8 381977.2  Z M 461246.6 309374.8 Q 461886.2 308891.2 463641.2 309694.6 Q 465076.4 310170.4 465560 310334.2 Q 470349.2 311769.4 473063.6 314008 Q 473867 314803.6 474506.6 316082.8 Q 475138.4 317362 474904.4 317681.8 Q 474662.6 318001.6 475302.2 320396.2 Q 475941.8 322790.8 475544 326464.6 Q 475138.4 330138.4 474826.4 332618.8 Q 474506.6 335091.4 474186.8 337969.6 Q 473867 340840 473227.4 345793 Q 470988.8 367999.6 467471 372313 Q 466199.6 373592.2 466199.6 374387.8 Q 466199.6 375191.2 465716 373912 Q 465396.2 372952.6 464436.8 372071.2 Q 463477.4 371197.6 463321.4 371197.6 Q 462845.6 371197.6 460607 368475.4 Q 458368.4 365761 458048.6 364801.6 Q 457253 363046.6 456449.6 362087.2 Q 455810 361447.6 455490.2 360332.2 Q 455170.4 359216.8 455810 358733.2 Q 456129.8 358257.4 456535.4 356736.4 Q 456933.2 355223.2 457806.8 351705.4 Q 458688.2 348187.6 459008 346112.8 Q 459327.8 344038 460045.4 339482.8 Q 460763 334935.4 461004.8 331097.8 Q 461246.6 327268 461402.6 326784.4 Q 461886.2 325988.8 461800.4 319678.6 Q 461722.4 313368.4 461402.6 311769.4 Q 461082.8 310014.4 461246.6 309374.8  Z M 540315.2 299149 Q 540635 298189.6 540954.8 298509.4 Q 541274.6 298829.2 540635 299312.8 Q 540315.2 299624.8 540237.2 299624.8 Q 540159.2 299624.8 540315.2 299149  Z M 465716 289562.8 Q 465879.8 288923.2 466277.6 288767.2 Q 466675.4 288603.4 467954.6 288923.2 Q 471464.6 289406.8 478976 292597 L 480731 293236.6 L 482493.8 291801.4 Q 483929 290366.2 484568.6 290202.4 Q 485208.2 290202.4 485286.2 290280.4 Q 485364.2 290366.2 484810.4 291559.6 Q 484248.8 292760.8 484888.4 294274 Q 485528 295795 486003.8 296114.8 Q 486487.4 296434.6 485528 298033.6 Q 484568.6 299624.8 485364.2 300748 L 486487.4 302666.8 Q 486807.2 303306.4 486003.8 304343.8 Q 485208.2 305381.2 485208.2 307300 Q 485364.2 308735.2 485208.2 308813.2 Q 485044.4 308891.2 484404.8 308571.4 Q 483765.2 307775.8 483367.4 307214.2 Q 482969.6 306660.4 481854.2 306660.4 Q 480731 306660.4 479537.6 305779 Q 478336.4 304897.6 477540.8 304897.6 Q 476737.4 304897.6 474342.8 302666.8 Q 471948.2 300428.2 470193.2 298033.6 Q 468750.2 296270.8 467954.6 295319.2 Q 466839.2 294196 466113.8 292441 Q 465396.2 290686 465716 289562.8  Z M 511244.6 279344.8 Q 513483.2 279344.8 514037 278385.4 Q 514598.6 277426 515877.8 277426 Q 517157 277426 517952.6 278385.4 Q 518756 279344.8 520589 279259 Q 522429.8 279181 523147.4 279898.6 Q 523865 280616.2 525542 281177.8 Q 527219 281739.4 530331.2 283736.2 Q 533451.2 285733 534566.6 287012.2 Q 535682 288283.6 536485.4 291403.6 Q 537281 294515.8 536961.2 296590.6 Q 536805.2 298353.4 535682 299468.8 Q 533131.4 302503 530573 310170.4 Q 528654.2 316238.8 527936.6 326542.6 Q 527219 336846.4 528014.6 344833.6 Q 529777.4 362726.8 528178.4 378381.4 Q 527858.6 381259.6 527375 382297 Q 526899.2 383334.4 524340.8 386368.6 Q 524184.8 386852.2 523865 386048.8 Q 523545.2 385089.4 523061.6 386048.8 Q 522905.6 386532.4 522905.6 387172 Q 522905.6 388287.4 521790.2 389886.4 Q 520667 391477.6 520347.2 392437 Q 520027.4 393396.4 519707.6 393396.4 Q 519231.8 393396.4 518272.4 392600.8 Q 517313 391797.4 517313 391165.6 Q 517313 390206.2 516673.4 389886.4 Q 516033.8 389566.6 514356.8 386048.8 Q 512679.8 382538.8 510285.2 379660.6 Q 503733.2 371197.6 503897 369115 Q 503897 368155.6 503577.2 366400.6 Q 503413.4 365285.2 503499.2 365043.4 Q 503577.2 364801.6 504053 364965.4 Q 504856.4 364965.4 505332.2 365605 Q 507726.8 368475.4 509965.4 368639.2 Q 511400.6 368795.2 512843.6 369434.8 L 514442.6 370238.2 L 514598.6 367360 Q 514918.4 364325.8 514598.6 359528.8 Q 513639.2 346916.2 513483.2 314327.8 Q 513483.2 292760.8 512843.6 292760.8 Q 512204 292760.8 508530.2 294196 Q 501182.6 296910.4 493835 294040 Q 491916.2 293236.6 490481 292760.8 Q 489038 292277.2 487844.6 291161.8 Q 486643.4 290046.4 486643.4 289243 Q 486643.4 288603.4 486003.8 288603.4 Q 485364.2 288603.4 485286.2 287246.2 Q 485208.2 285889 485847.8 285413.2 Q 486487.4 284929.6 489357.8 284929.6 Q 493991 284929.6 504216.8 281739.4 Q 507407 280780 508210.4 280780 Q 509006 280780 509006 280062.4 Q 509006 279344.8 511244.6 279344.8  Z M 443993 270718 Q 445108.4 270234.4 444468.8 269914.6 Q 443829.2 269594.8 444312.8 269594.8 Q 444788.6 269594.8 446551.4 270718 Q 449421.8 272309.2 449421.8 271357.6 Q 448782.2 270718 450701 271833.4 Q 451020.8 272153.2 451816.4 272629 Q 453259.4 273752.2 453579.2 273752.2 Q 453899 273752.2 456215.6 275827 Q 458532.2 277901.8 458852 277901.8 Q 459164 277901.8 460123.4 279742.6 Q 461082.8 281575.6 461082.8 284212 Q 461082.8 286848.4 461246.6 287012.2 Q 461886.2 287644 459164 293158.6 Q 456449.6 298673.2 453735.2 302347 Q 452456 304102 450545 307534 Q 448626.2 310973.8 448142.6 311129.8 Q 447027.2 311769.4 450225.2 313524.4 Q 451496.6 314164 451902.2 314725.6 Q 452300 315287.2 452775.8 317042.2 Q 453259.4 318641.2 453337.4 328859.2 Q 453415.4 339085 452775.8 340840 Q 451496.6 345793 452775.8 346112.8 Q 453579.2 346432.6 452775.8 348991 Q 451980.2 351541.6 451176.8 357773.8 Q 450381.2 364006 449741.6 366720.4 Q 449102 369434.8 448868 372632.8 Q 448626.2 375823 447503 377741.8 L 446387.6 379980.4 L 445748 378701.2 Q 444788.6 377422 444149 377024.2 Q 443509.4 376626.4 443509.4 376142.8 Q 443509.4 375027.4 439359.8 371033.8 Q 437924.6 369434.8 438244.4 368319.4 Q 438564.2 367204 437682.8 366244.6 Q 436801.4 365285.2 436801.4 364162 Q 437121.2 362890.6 438080.6 359528.8 Q 439196 356814.4 440155.4 346752.4 L 440795 338445.4 Q 442074.2 323586.4 440958.8 321995.2 Q 440475.2 321355.6 440795 320396.2 L 440475.2 320232.4 Q 440155.4 321035.8 439835.6 320872 L 439359.8 321511.6 Q 439196 322471 439196 323750.2 Q 439196 324070 438002.6 326222.8 Q 436801.4 328383.4 435686 329662.6 Q 435366.2 330138.4 435046.4 330941.8 Q 434406.8 332377 430733 337166.2 Q 427059.2 341963.2 425140.4 344038 Q 422106.2 346596.4 421786.4 345956.8 Q 421786.4 345956.8 421630.4 345637 Q 421310.6 344513.8 420990.8 343398.4 Q 420671 340044.4 419547.8 340044.4 Q 419072 340044.4 418596.2 337969.6 Q 418112.6 335887 417636.8 335887 Q 417153.2 335887 416997.2 334771.6 Q 416833.4 333656.2 417153.2 333172.6 Q 417792.8 332533 417317 332213.2 Q 416833.4 331893.4 416919.2 330700 Q 416997.2 329498.8 417636.8 328703.2 Q 418112.6 328063.6 417870.8 327665.8 Q 417636.8 327268 418432.4 326464.6 Q 419711.6 325185.4 423221.6 321035.8 Q 424025 320396.2 427301 315287.2 Q 430577 310170.4 431294.6 309296.8 Q 432012.2 308415.4 432807.8 306660.4 Q 433611.2 304897.6 433931 304897.6 Q 434250.8 304897.6 434250.8 304258 Q 434250.8 303618.4 435124.4 302503 Q 436005.8 301387.6 438080.6 297550 L 442394 289406.8 Q 444632.6 285569.2 444632.6 284929.6 Q 444632.6 284290 446145.8 280702 Q 447666.8 277106.2 447666.8 276146.8 Q 447666.8 274228 444149 271833.4 L 442877.6 271037.8 L 443993 270718 Z M 437604.8 325029.4 Q 437604.8 323586.4 436801.4 324865.6 Q 436645.4 325185.4 437121.2 325505.2 Q 437604.8 325825 437604.8 325029.4  Z M 435686 327580 Q 436161.8 327580 436161.8 327182.2 Q 436161.8 326784.4 435686 326784.4 Q 435202.4 326784.4 435202.4 327182.2 Q 435202.4 327580 435686 327580  Z M 434406.8 329342.8 Q 434250.8 330138.4 434804.6 329498.8 Q 435366.2 328859.2 435046.4 328703.2 Q 435046.4 328539.4 434890.4 328703.2 Q 434726.6 328859.2 434406.8 329342.8  Z " fill-rule="nonzero" style="fill:#ffda6d;;fill-opacity:1;"/>
</svg>