<svg version="1.1" x="0" y="0" width="100%" height="100%" viewBox="0 0 220057.6 53708.8" xmlns="http://www.w3.org/2000/svg">
  <path d="M 26705.5 22466.35 Q 26705.5 22251.1 26992.5 22394.6 Q 27171 22466.35 27601.5 22681.6 Q 28390.75 23040.35 28534.25 23040.35 Q 28677.75 23040.35 28749.5 23147.1 Q 28821.25 23255.6 29034.75 23255.6 Q 29215 23255.6 29430.25 23416.6 Q 29645.5 23577.6 29645.5 23756.1 Q 29645.5 23864.6 29752.25 23864.6 Q 29859 23864.6 29734.75 24008.1 Q 29608.75 24151.6 29895.75 24240.85 Q 30182.75 24330.1 30039.25 24473.6 Q 29895.75 24617.1 30021.75 24743.1 Q 30146 24867.35 30146 25028.35 Q 30146 25191.1 30576.5 25441.35 Q 31078.75 25656.6 31113.75 25852.6 Q 31150.5 26050.35 30791.75 26480.85 Q 30685 26587.6 30720 26767.85 Q 30826.75 27305.1 30809.25 27394.35 Q 30791.75 27483.6 30433 27555.35 Q 30002.5 27627.1 27871 27931.6 Q 25737.75 28236.1 24232.75 28451.35 Q 22727.75 28666.6 21455.5 28936.1 Q 20183.25 29203.85 18015 29562.6 Q 15846.75 29921.35 15094.25 30064.85 Q 13552.5 30386.85 12765 30028.1 Q 12191 29742.85 11904 29616.85 Q 11617 29490.85 11617 29347.35 Q 11617 29203.85 11258.25 28988.6 Q 10901.25 28775.1 10901.25 28612.35 Q 10901.25 28451.35 9037.5 26659.35 Q 8822.25 26515.85 8822.25 26480.85 Q 8822.25 26444.1 9000.75 26337.35 Q 9144.25 26265.6 9646.5 26319.85 Q 10147 26372.35 10936.25 26211.35 Q 11725.5 26050.35 11886.5 26176.35 Q 12047.5 26300.6 12136.75 26158.85 Q 12226 26015.35 12530.5 25978.6 Q 12835 25943.6 12906.75 25835.1 Q 13050.25 25763.35 13265.5 25728.35 Q 13480.75 25691.6 13552.5 25763.35 Q 13589.25 25835.1 13785.25 25674.1 Q 13983 25513.1 14144 25602.35 Q 14305 25691.6 14502.75 25567.35 Q 14698.75 25441.35 14770.5 25567.35 Q 14842.25 25691.6 14950.75 25530.6 Q 15057.5 25369.6 15344.5 25387.1 Q 15631.5 25404.6 16025.25 25262.85 Q 16419 25119.35 16510 25171.85 Q 16599.25 25226.1 16742.75 25154.35 Q 16886.25 25082.6 17567 24975.85 Q 17817.25 24939.1 18408.75 24743.1 Q 19000.25 24545.35 19304.75 24580.35 Q 19609.25 24617.1 19609.25 24508.6 Q 19609.25 24295.1 20792.25 24295.1 Q 21114.25 24295.1 21418.75 24132.35 Q 21725 23971.35 21975.25 24008.1 Q 22225.5 24043.1 22279.75 23953.85 Q 22334 23864.6 22440.75 23936.35 Q 22549.25 24008.1 23014.75 23864.6 Q 23623.75 23721.1 24232.75 23612.6 Q 24770 23577.6 24913.5 23451.6 Q 25057 23327.35 25200.5 23399.1 Q 25344 23470.85 25415.75 23362.35 Q 25487.5 23255.6 25631 23290.6 Q 25918 23362.35 26240 23040.35 Q 26383.5 22931.85 26311.75 22896.85 Q 26168.25 22860.1 26168.25 22753.35 Q 26168.25 22646.6 26275 22699.1 Q 26383.5 22753.35 26383.5 22627.35 Q 26383.5 22503.1 26544.5 22574.85 Q 26705.5 22646.6 26705.5 22466.35  Z M 49249 10961.85 L 49249 10603.1 L 50110 10638.1 Q 51006 10674.85 51130.25 10800.85 Q 51256.25 10925.1 51471.5 10925.1 Q 51686.75 10925.1 51847.75 11086.1 Q 52008.75 11248.85 52456.75 11660.1 Q 52904.75 12073.1 53191.75 12664.6 Q 53478.75 13256.1 53370.25 13578.1 Q 53226.75 13865.1 53085 14741.85 Q 52941.5 15620.35 52904.75 16283.6 Q 52869.75 16946.85 52941.5 17090.35 Q 53085 17090.35 53085 17197.1 Q 52976.5 17699.35 53226.75 17699.35 Q 53370.25 17699.35 53496.25 17842.85 Q 53622.25 17986.35 53765.75 17914.6 Q 53909.25 17842.85 54194.5 18184.1 Q 54481.5 18523.6 54625 18523.6 Q 54768.5 18523.6 54625 18684.6 Q 54481.5 18845.6 54642.5 18954.1 Q 54805.25 19060.85 54983.75 19060.85 Q 55055.5 19060.85 55090.5 19080.1 Q 55127.25 19097.6 55090.5 19132.6 Q 55055.5 19204.35 55377.5 19545.6 Q 55701.25 19885.1 55808 19778.35 Q 55914.75 19741.6 55808 19850.1 Q 55701.25 19956.85 54303 20602.6 Q 52904.75 21248.35 52778.75 21372.6 Q 52654.5 21498.6 52582.75 22144.35 Q 52546 22753.35 52617.75 22753.35 Q 52654.5 22753.35 52689.5 22716.6 Q 53550.5 22394.6 54481.5 22357.85 Q 54625 22357.85 54679.25 22394.6 Q 54733.5 22429.6 54696.75 22501.35 Q 54625 22644.85 54947 22968.6 Q 55270.75 23290.6 55449.25 23290.6 Q 55592.75 23290.6 55592.75 23505.85 Q 55592.75 23721.1 55843 23773.6 Q 56095 23827.85 56095 23988.85 Q 56095 24149.85 56417 24473.6 Q 56739 24795.6 57097.75 24723.85 Q 57456.5 24652.1 57456.5 24545.35 Q 57456.5 24436.85 57743.5 24436.85 Q 57922 24436.85 58979 24097.35 Q 60037.75 23756.1 60394.75 23540.85 Q 60681.75 23434.1 61040.5 23434.1 Q 61362.5 23434.1 61488.5 23218.85 Q 61614.5 23003.6 61597 22448.85 Q 61577.75 21892.35 61649.5 21355.1 Q 61721.25 20852.85 61649.5 20817.85 Q 61614.5 20817.85 61471 20852.85 Q 61112.25 20996.35 60431.5 20924.6 Q 59750.75 20852.85 59213.5 20674.35 Q 58496 20387.35 58441.75 20387.35 Q 58389.25 20387.35 57869.5 20172.1 Q 57349.75 19956.85 57169.5 19528.1 Q 56991 19097.6 56847.5 18917.35 Q 56704 18738.85 56758.25 18560.35 Q 56810.75 18380.1 56649.75 18380.1 Q 56488.75 18380.1 56525.5 18254.1 Q 56560.5 18129.85 57743.5 18129.85 Q 58567.75 18129.85 58889.75 18075.6 Q 59213.5 18021.35 60216.25 17664.35 Q 61577.75 17162.1 61614.5 17053.6 Q 61649.5 16946.85 61829.75 16946.85 Q 62008.25 16946.85 62115 16785.85 Q 62223.5 16624.85 62886.75 16749.1 Q 63550 16875.1 63656.75 16946.85 Q 63765.25 17018.6 64141.5 17144.6 Q 64517.75 17268.85 64785.5 17520.85 Q 65055 17771.1 65251 17771.1 Q 65448.75 17771.1 65448.75 17932.1 Q 65448.75 18093.1 65807.5 18345.1 Q 66453.25 18773.85 66273 19598.1 Q 65699 21713.85 65413.75 22357.85 Q 65270.25 22716.6 64874.75 23701.85 Q 64481 24688.85 64409.25 24939.1 Q 64265.75 25154.35 64337.5 25530.6 Q 64409.25 25906.85 64589.5 25941.85 Q 64733 26013.6 64409.25 26228.85 Q 64230.75 26300.6 64122.25 26300.6 Q 63943.75 26300.6 63693.5 26461.6 Q 63441.5 26624.35 63263 26570.1 Q 63082.75 26515.85 62241 26785.35 Q 61399.25 27053.1 60933.75 27124.85 Q 60288 27305.1 60323 27483.6 Q 60359.75 27592.1 60253 27662.1 Q 60072.75 27805.6 59679 29921.35 Q 59570.5 30280.1 59714 30421.85 Q 59929.25 30637.1 61077.25 30745.6 Q 62223.5 30852.35 63119.5 30673.85 Q 63226.25 30673.85 64069.75 30834.85 Q 64911.5 30995.85 65090 31067.6 Q 65270.25 31139.35 65359.5 31317.85 Q 65448.75 31498.1 65735.75 31569.85 Q 66022.75 31676.6 66434 31946.1 Q 66847 32213.85 66882 32322.35 Q 66918.75 32537.6 67062.25 32859.6 Q 67205.75 33181.6 67205.75 33396.85 Q 67205.75 33612.1 67438.5 34077.6 Q 67671.25 34544.85 67778 34579.85 Q 68065 34688.35 64337.5 34688.35 Q 62295.25 34688.35 61614.5 34579.85 Q 60610 34508.1 60466.5 34508.1 Q 60323 34508.1 60055.25 34257.85 Q 59785.75 34005.85 59176.75 33505.35 Q 57456.5 32213.85 57456.5 31389.6 Q 57456.5 31176.1 57223.75 31032.6 Q 56991 30889.1 57062.75 30458.6 L 57206.25 29384.1 Q 57278 28773.35 57223.75 28307.85 Q 57169.5 27842.35 57241.25 27305.1 Q 57313 26659.35 57258.75 26444.1 Q 57206.25 26228.85 56919.25 26157.1 Q 56632.25 26013.6 56632.25 25763.35 Q 56632.25 25513.1 56739 25441.35 Q 57026 25369.6 56632.25 25261.1 Q 56453.75 25261.1 56273.5 25261.1 Q 55843 25261.1 54481.5 25728.35 L 53120 26193.85 L 53085 26624.35 Q 53048.25 27555.35 53048.25 28092.6 Q 53085 28416.35 53120 28451.35 Q 53155 28488.1 53407 28451.35 Q 53729 28379.6 54231.25 28201.1 Q 55055.5 27842.35 55055.5 28129.35 Q 55055.5 28272.85 55325 28540.6 Q 55592.75 28810.1 55736.25 28810.1 Q 55879.75 28810.1 55879.75 28971.1 Q 55879.75 29132.1 56023.25 29132.1 Q 56382 29132.1 55951.5 29454.1 Q 55701.25 29634.35 55843 29812.85 Q 55879.75 29849.6 55986.5 29795.35 Q 56095 29741.1 56345.25 29812.85 Q 56632.25 29884.6 56578 30117.35 Q 56525.5 30350.1 56166.75 30493.6 Q 55162.25 30995.85 53550.5 31176.1 L 52976.5 31211.1 L 52904.75 32322.35 Q 52869.75 33433.6 52798 34005.85 L 52726.25 34579.85 L 54087.75 35045.35 Q 55305.75 35404.1 58226.5 36193.35 Q 61149 36980.85 61649.5 37089.35 Q 61973.25 37161.1 63907 37376.35 Q 68854.25 38057.1 69104.5 38272.35 Q 69213 38307.35 69141.25 38505.1 Q 69069.5 38701.1 69302.25 38772.85 Q 69535 38844.6 69535 38988.1 Q 69535 39131.6 69965.5 39185.85 Q 70394.25 39240.1 70448.5 39401.1 Q 70502.75 39562.1 70646.25 39740.6 Q 70789.75 39920.85 70431 39992.6 Q 70250.75 40027.6 70000.5 40099.35 Q 69570 40206.1 70109 40314.6 Q 70861.5 40458.1 70861.5 40636.6 Q 70861.5 40780.1 71057.5 40780.1 Q 71255.25 40780.1 71255.25 40960.35 Q 71255.25 41138.85 70054.75 41264.85 Q 68854.25 41389.1 68782.5 41515.1 Q 68710.75 41641.1 68513 41569.35 Q 68317 41497.6 68208.5 41641.1 Q 67993.25 41819.6 66309.75 41873.85 Q 64624.5 41928.1 63369.75 41819.6 Q 62295.25 41712.85 61560.25 41460.85 Q 60825.25 41210.6 60342.25 41102.1 Q 59857.5 40995.35 58567.75 40421.35 Q 57278 39849.1 57026 39794.85 Q 56775.75 39740.6 56201.75 39490.35 L 53944.25 38557.6 Q 52295.75 37841.85 51328 37304.6 L 49249 36121.6 Q 48031 35440.85 47959.25 35404.1 Q 47922.5 35369.1 47850.75 35458.35 Q 47779 35547.6 47744 35656.1 Q 47278.5 37017.6 46506.75 38361.6 Q 45736.75 39705.6 45199.5 40206.1 Q 44088.25 41173.85 43801.25 41336.6 Q 43514.25 41497.6 43335.75 41317.35 Q 43229 41102.1 43192.25 41138.85 L 43013.75 40386.35 Q 43013.75 39920.85 43013.75 39453.6 Q 43048.75 38737.85 43174.75 37985.35 Q 43299 37232.85 43766.25 36658.85 Q 44338.5 35906.35 45199.5 34292.85 Q 45486.5 33792.35 45449.75 33577.1 Q 45306.25 33181.6 45665 33074.85 Q 45808.5 33038.1 46130.5 32072.1 Q 47170 29384.1 46883 28738.35 Q 46848 28629.85 46741.25 28666.6 Q 46561 28738.35 45486.5 29149.6 Q 44410.25 29562.6 44231.75 29688.6 Q 44053.25 29812.85 43533.5 29669.35 Q 43013.75 29525.85 42672.5 29490.85 Q 42333 29454.1 42207 29293.1 Q 42081 29132.1 41902.5 29132.1 Q 41722.25 29132.1 41669.75 29042.85 Q 41615.5 28953.6 41256.75 28953.6 Q 40898 28953.6 40754.5 28792.6 Q 40611 28629.85 40754.5 28416.35 Q 40898 28201.1 40880.5 28146.85 Q 40863 28092.6 40682.75 28092.6 Q 40254 28092.6 40432.5 27555.35 Q 40469.25 27376.85 40593.5 27322.6 Q 40719.5 27268.35 41150 27268.35 Q 41794 27196.6 42798.5 26837.85 Q 43801.25 26480.85 46813 25154.35 Q 48568.25 24365.1 49053 24132.35 Q 49536 23899.6 49536 23756.1 Q 49536 23505.85 49429.25 23434.1 Q 49320.75 23362.35 49320.75 23182.1 Q 49320.75 22538.1 48246.25 22394.6 Q 46813 22144.35 46561 21785.6 Q 46454.25 21605.35 45934.5 21481.1 Q 45414.75 21355.1 45306.25 21050.6 Q 45199.5 20746.1 45073.5 20620.1 Q 44949.25 20494.1 44949.25 20459.1 Q 44949.25 20315.6 45217 20137.1 Q 45486.5 19956.85 45630 19956.85 Q 45917 19956.85 46937.25 19580.6 Q 47959.25 19204.35 48605 18845.6 L 49429.25 18416.85 L 49501 15048.1 Q 49501 11714.35 49375 11516.6 Q 49249 11320.6 49249 10961.85  Z M 50110 30602.1 Q 50110 29742.85 50127.5 28988.6 Q 50145 28236.1 50145 27807.35 Q 50145 27376.85 50145 27376.85 Q 49966.5 27376.85 48496.5 27985.85 Q 48031 28201.1 48783.5 28488.1 Q 49285.75 28703.35 48998.75 29275.6 Q 48855.25 29490.85 49053 29616.85 Q 49249 29742.85 49016.25 30190.85 Q 48783.5 30638.85 48746.75 30995.85 L 48711.75 31391.35 L 48855.25 31032.6 Q 49070.5 30602.1 48962 31282.85 Q 48927 31534.85 48818.5 31856.85 Q 48605 32752.85 48533.25 33111.6 L 48496.5 33468.6 L 49249 33683.85 Q 49966.5 33935.85 50038.25 33864.1 Q 50110 33792.35 50110 30602.1  Z M 108063 38631.1 Q 108385 38200.6 108421.75 38200.6 Q 108600.25 38200.6 107811 39024.85 L 107560.75 39275.1 Q 107597.5 39203.35 108063 38631.1  Z M 108493.5 37948.6 Q 108565.25 37806.85 108617.75 37859.35 Q 108672 37913.6 108565.25 38057.1 Q 108456.75 38128.85 108456.75 38111.35 Q 108456.75 38092.1 108493.5 37948.6  Z M 104192 30386.85 L 104227 30243.35 Q 104298.75 30280.1 104263.75 30423.6 L 104192 30386.85 Z M 83190.25 20746.1 Q 83655.75 20459.1 84910.5 20674.35 Q 85089 20746.1 85841.5 21176.6 Q 86594 21607.1 86737.5 21748.85 Q 87168 22216.1 86846 23792.85 Q 86665.75 24508.6 86630.75 24904.1 Q 86594 25226.1 86361.25 25871.85 Q 86128.5 26515.85 86056.75 26624.35 Q 85913.25 26731.1 86021.75 26731.1 Q 86093.5 26731.1 86702.5 26426.6 Q 87311.5 26122.1 87455 26015.35 Q 87598.5 25835.1 87742 25817.6 Q 87885.5 25800.1 88457.75 25404.6 Q 89031.75 25010.85 89962.75 24562.85 Q 90895.5 24114.85 91039 23936.35 Q 91182.5 23756.1 91306.75 23756.1 Q 91432.75 23756.1 91613 23612.6 Q 91826.5 23434.1 92687.5 22968.6 Q 93153 22716.6 93546.75 22287.85 Q 94085.75 21713.85 94264.25 21964.1 Q 94301 22107.6 94605.5 22107.6 Q 94910 22107.6 95071 22287.85 Q 95232 22466.35 95519 22431.35 Q 95769.25 22322.85 96163 22520.6 Q 96558.5 22716.6 96558.5 22860.1 Q 96558.5 23040.35 96826.25 22986.1 Q 97095.75 22931.85 97095.75 23092.85 Q 97095.75 23255.6 97328.5 23308.1 Q 97561.25 23362.35 97472 23721.1 Q 97382.75 24079.85 97633 24330.1 L 97885 24617.1 L 97417.75 25047.6 Q 96917.25 25548.1 96880.5 25548.1 Q 96593.5 25476.35 95482.25 27681.35 Q 94371 29884.6 93833.75 31569.85 Q 93440 32716.1 93405 33970.85 Q 93368.25 35225.6 93727 35691.1 Q 94192.5 36336.85 95410.5 36767.35 Q 96917.25 37304.6 99390 36767.35 Q 100177.5 36587.1 100464.5 36461.1 Q 100751.5 36336.85 101253.75 35978.1 Q 102506.75 35047.1 102937.25 34257.85 Q 103224.25 33755.6 103583 32787.85 Q 103941.75 31820.1 104013.5 31319.6 Q 104085.25 30924.1 104192 30924.1 Q 104298.75 31104.35 104370.5 30780.6 Q 104442.25 30637.1 104370.5 30458.6 L 104479 30423.6 Q 104585.75 30567.1 104585.75 30476.1 Q 104585.75 30386.85 104694.25 29741.1 Q 104801 29097.1 104818.5 28649.1 Q 104837.75 28201.1 104962 27931.6 Q 105088 27663.85 105088 27268.35 Q 105088 26839.6 105266.5 26802.85 Q 105303.25 26802.85 105338.25 26911.35 Q 105410 27053.1 105357.5 27824.85 Q 105303.25 28594.85 105375 29025.35 L 105446.75 29419.1 L 105553.5 29097.1 Q 105625.25 28810.1 105840.5 27054.85 L 106090.75 24939.1 L 106127.5 26983.1 Q 106162.5 29347.35 106271 29401.6 Q 106377.75 29455.85 106377.75 29956.35 Q 106377.75 30458.6 106449.5 30924.1 L 106521.25 31282.85 Q 106521.25 31247.85 106521.25 31032.6 Q 106558 30243.35 106701.5 30225.85 Q 106845 30208.35 106845 30960.85 Q 106915 31820.1 107238.75 34149.35 Q 107345.5 35045.35 107345.5 36336.85 Q 107345.5 37626.6 107095.25 38128.85 Q 106845 38629.35 106432 39024.85 Q 106019 39418.6 106019 39490.35 Q 106019 39633.85 104442.25 40188.6 Q 102865.5 40745.1 101575.75 40995.35 Q 100858.25 41138.85 99712 41156.35 Q 98565.75 41173.85 98457.25 41067.1 Q 98278.75 40958.6 97776.5 40851.85 Q 96056.25 40421.35 94551.25 39238.35 Q 92722.5 37876.85 92222 36802.35 Q 91719.75 35726.1 91826.5 33433.6 Q 91898.25 31676.6 91935 31443.85 Q 91970 31211.1 92078.5 30512.85 Q 92185.25 29812.85 92454.75 28916.85 Q 92722.5 28020.85 92722.5 27985.85 Q 92722.5 27949.1 92454.75 28092.6 Q 92185.25 28236.1 91754.75 28540.6 Q 91326 28845.1 90823.75 29168.85 Q 89605.75 30099.85 88888.25 29956.35 Q 88529.5 29884.6 88296.75 29884.6 Q 88064 29884.6 87885.5 29671.1 Q 87705.25 29455.85 87581 29455.85 Q 87455 29455.85 86952.75 29079.6 Q 86450.5 28703.35 86056.75 28738.35 Q 85663 28775.1 85482.75 28488.1 Q 85125.75 28057.6 85125.75 28631.6 Q 85125.75 28881.85 85411 29025.35 L 85734.75 29132.1 L 85411 29203.85 Q 85232.5 29312.35 85178.25 29508.35 Q 85125.75 29706.1 85269.25 29812.85 Q 85376 29884.6 85232.5 29993.1 Q 85089 30099.85 85197.5 30099.85 Q 85232.5 30099.85 85341 30099.85 Q 85591.25 30028.1 85734.75 30280.1 Q 85841.5 30495.35 85680.5 30637.1 Q 85519.5 30780.6 84982.25 30995.85 Q 84445 31176.1 83977.75 31391.35 Q 82938.25 31891.85 81648.5 32429.1 Q 80680.75 32824.6 80609 32913.85 Q 80537.25 33003.1 80287 33003.1 Q 79893.25 33003.1 79893.25 34364.6 Q 79893.25 35082.1 79802.25 35082.1 Q 79713 35082.1 79265 34599.1 Q 78817 34114.35 78673.5 33988.35 Q 78530 33864.1 78334 33648.85 Q 78136.25 33433.6 78047 33487.85 Q 77957.75 33540.35 77688.25 33200.85 Q 77418.75 32859.6 77383.75 32609.35 Q 77312 32359.1 77168.5 32017.85 Q 77025 31676.6 76881.5 29419.1 Q 76703 25297.85 76416 25010.85 Q 76200.75 24867.35 76237.5 24473.6 Q 76344.25 23612.6 75161.25 22753.35 Q 74695.75 22394.6 74641.5 22287.85 Q 74589 22179.35 74695.75 22035.85 Q 75198 21607.1 77418.75 22538.1 Q 78495 23040.35 78638.5 23040.35 Q 78782 23040.35 79749.75 22466.35 Q 80717.5 21892.35 81398.25 21552.85 Q 82079 21211.6 82205 21068.1 Q 82329.25 20924.6 82598.75 20924.6 Q 82866.5 20924.6 83190.25 20746.1  Z M 83368.75 24473.6 Q 83368.75 24330.1 82903.25 24580.35 Q 82581.25 24760.6 81289.75 25584.85 Q 80789.25 25978.6 80322 26158.85 Q 80000 26372.35 79928.25 26463.35 Q 79856.5 26552.6 79856.5 26946.35 Q 79965 29455.85 80035 29455.85 Q 80106.75 29455.85 80770 29168.85 Q 81433.25 28881.85 81720.25 28775.1 Q 82257.5 28523.1 82723 27054.85 L 83081.75 25548.1 Q 83368.75 24652.1 83368.75 24473.6  Z M 89425.5 11714.35 L 89497.25 11320.6 L 90034.5 11427.35 Q 91074 11570.85 91970 12251.6 Q 92509 12647.1 92937.75 13434.6 Q 93727 15119.85 93475 16374.6 Q 93368.25 16911.85 93546.75 16911.85 Q 93727 16911.85 94103.25 16642.35 Q 94479.5 16374.6 94586.25 16374.6 Q 94694.75 16374.6 94749 16248.6 Q 94801.5 16122.6 95930.25 16122.6 Q 97059 16122.6 97346 16320.35 Q 97633 16518.1 97920 16679.1 Q 98207 16840.1 98207 17055.35 Q 98242 17270.6 98403 17592.6 Q 98565.75 17914.6 98672.5 17986.35 Q 98816 18094.85 98600.75 18166.6 Q 98529 18201.6 98422.25 18201.6 Q 98313.75 18201.6 98278.75 18255.85 Q 98242 18310.1 98242 18381.85 Q 98313.75 18488.6 97578.75 18810.6 Q 96845.5 19134.35 96234.75 19456.35 Q 95662.5 19778.35 95303.75 19958.6 Q 94945 20137.1 94712.25 20263.1 Q 94479.5 20387.35 94390.25 20441.6 Q 94301 20495.85 94301 20459.1 Q 94301 20387.35 93942.25 20639.35 Q 93583.5 20889.6 93046.25 21211.6 L 91576.25 22037.6 Q 90717 22503.1 90358.25 22448.85 Q 89999.5 22394.6 89891 22072.6 Q 89784.25 21750.6 89695 21750.6 Q 89605.75 21750.6 89210.25 21391.85 Q 88816.5 21033.1 88494.5 20889.6 Q 88207.5 20782.85 88170.75 20639.35 Q 88135.75 20495.85 88279.25 20030.35 Q 88422.75 19634.85 88261.75 19456.35 Q 88099 19277.85 88064 18847.35 Q 88029 18488.6 88064 18399.35 Q 88099 18310.1 88386 18094.85 Q 88709.75 17807.85 88853.25 17807.85 Q 88960 17807.85 89497.25 16122.6 Q 90034.5 14439.1 90071.25 13936.85 Q 90143 13362.85 89962.75 12825.6 Q 89784.25 12288.35 89534 12144.85 Q 89353.75 12038.1 89425.5 11714.35  Z M 114478.5 12431.85 Q 114370 12251.6 114550.25 12251.6 Q 114622 12288.35 114979 12288.35 Q 116055.25 12466.85 116610 12790.6 Q 117166.5 13112.6 117738.75 14080.35 Q 118097.5 14545.85 118134.25 14545.85 Q 118206 14545.85 118438.75 14941.35 Q 118671.5 15335.1 118743.25 15622.1 Q 118850 16050.85 118493 17377.35 Q 118312.75 17842.85 118384.5 17842.85 Q 118421.25 17914.6 119011 17610.1 Q 119602.5 17305.6 119602.5 17233.85 Q 119602.5 17198.85 120087.25 17072.85 Q 120570.25 16946.85 120607 16750.85 Q 120642 16553.1 120750.5 16553.1 Q 121181 16553.1 122005.25 16946.85 Q 122327.25 17127.1 122686 17198.85 Q 123401.75 17377.35 123869 18129.85 Q 124154.25 18667.1 124317 18847.35 Q 124478 19025.85 124621.5 19421.35 L 124800 19671.6 Q 124800 19563.1 125445.75 19241.1 Q 126089.75 18919.1 126305 18703.85 Q 126520.25 18488.6 127846.75 17305.6 Q 130282.75 15226.6 130641.5 14080.35 Q 130928.5 13149.35 130641.5 13040.85 Q 130534.75 13005.85 130589 12879.85 Q 130641.5 12753.85 130659 12682.1 Q 130678.25 12610.35 130785 12431.85 Q 130893.5 12253.35 131413.25 12377.6 Q 131933 12503.6 132255 12557.85 Q 132577 12610.35 132899 12897.35 Q 133222.75 13184.35 133222.75 13453.85 Q 133222.75 13721.6 133509.75 14187.1 Q 133975.25 15191.6 133438 16875.1 Q 133222.75 17699.35 133114.25 17699.35 Q 133007.5 17699.35 133042.5 17914.6 Q 133079.25 18129.85 132935.75 18094.85 Q 132864 18094.85 132846.5 18112.35 Q 132829 18129.85 132829 18201.6 Q 132935.75 18310.1 132774.75 18525.35 Q 132613.75 18738.85 132470.25 18738.85 Q 132218.25 18738.85 131789.5 19134.35 Q 130606.5 20280.6 129745.5 20674.35 Q 129245 20889.6 128921.25 21213.35 Q 128599.25 21535.35 128490.75 21481.1 Q 128384 21426.85 127971 21696.35 Q 127559.75 21965.85 127255.25 22018.35 Q 126950.75 22072.6 126914 22109.35 Q 126842.25 22144.35 126950.75 22951.1 Q 127057.5 23757.85 127166 24186.6 L 127237.75 24545.35 L 128455.75 24043.1 Q 129960.75 23470.85 131717.75 22609.85 Q 132111.5 22431.35 132542 22037.6 Q 132864 21713.85 133061.75 21661.35 Q 133257.75 21607.1 133831.75 21570.35 Q 134512.5 21570.35 134745.25 21642.1 Q 134978 21713.85 134943 21929.1 Q 134871.25 22144.35 135049.75 22216.1 Q 135802.25 22503.1 136089.25 23344.85 Q 136376.25 24186.6 136376.25 25906.85 Q 136376.25 27198.35 136089.25 28022.6 Q 135802.25 28846.85 135658.75 29025.35 Q 135517 29205.6 135517 29329.85 Q 135517 29455.85 135247.5 29832.1 Q 134978 30208.35 134978 30406.1 Q 134978 30602.1 134888.75 30602.1 Q 134799.5 30602.1 134727.75 30782.35 Q 134727.75 30925.85 134853.75 31032.6 Q 134978 31141.1 135445.25 31319.6 Q 136161 31713.35 136341.25 31856.85 Q 136519.75 32000.35 136841.75 32143.85 Q 137165.5 32287.35 137165.5 32359.1 Q 137165.5 32430.85 137559.25 32646.1 Q 138814 33361.85 139171 33648.85 Q 139566.5 33970.85 139925.25 34438.1 Q 140282.25 34903.6 140282.25 35118.85 Q 140282.25 35334.1 140784.5 35906.35 Q 141537 36730.6 141537 37232.85 Q 141537 37519.85 141769.75 37932.85 Q 142002.5 38344.1 142039.25 38666.1 Q 142074.25 39276.85 142217.75 39957.6 Q 142326.25 40279.6 142146 40279.6 Q 142074.25 40279.6 141519.5 39885.85 Q 140963 39490.35 140534.25 39133.35 Q 140247.25 38846.35 139638.25 38380.85 L 138527 37591.6 Q 137666 36982.6 135265 35601.85 Q 132864 34222.85 132577 34222.85 Q 132398.5 34222.85 130965.25 35834.6 Q 130569.75 36336.85 130463 36336.85 Q 130354.5 36336.85 130069.25 36552.1 Q 129782.25 36802.35 129101.5 37143.6 Q 128419 37484.85 128223 37484.85 Q 128025.25 37484.85 128025.25 37609.1 Q 128025.25 37735.1 127901 37609.1 Q 127775 37484.85 127309.5 37484.85 Q 126842.25 37484.85 126842.25 37358.85 Q 126842.25 37232.85 126753 37287.1 Q 126663.75 37341.35 126663.75 37215.35 Q 126663.75 37089.35 126448.5 36856.6 Q 126233.25 36623.85 126126.5 36623.85 Q 126018 36623.85 126018 36517.1 Q 126018 36408.6 125822 36408.6 Q 125624.25 36408.6 125517.5 37017.6 Q 125193.75 38631.1 124906.75 39346.85 L 124765 39742.35 L 124262.75 39168.35 Q 123760.5 38594.35 123760.5 38398.35 Q 123760.5 38200.6 123545.25 37861.1 Q 123330 37519.85 123384.25 37269.6 Q 123438.5 37017.6 123258.25 36802.35 Q 123079.75 36445.35 123223.25 35978.1 Q 123223.25 35943.1 123223.25 35871.35 Q 123223.25 35799.6 123330 35584.35 Q 123438.5 35369.1 123473.5 34849.35 Q 123510.25 34329.6 123743 34114.35 Q 123975.75 33899.1 124010.75 33505.35 Q 124154.25 32681.1 124297.75 32215.6 Q 124334.5 32107.1 124406.25 31678.35 Q 124478 31247.85 124584.75 30995.85 Q 124693.25 30745.6 124317 30406.1 Q 123939 30064.85 123869 30064.85 Q 123688.75 30064.85 123653.75 29599.35 Q 123617 29490.85 123510.25 29312.35 Q 123438.5 29203.85 123653.75 29132.1 Q 123797.25 29097.1 124191 29097.1 L 124978.5 29060.35 L 125050.25 27555.35 Q 125087 27126.6 125104.5 26785.35 Q 125122 26444.1 125104.5 26230.6 Q 125087 26015.35 125087 26015.35 Q 125015.25 26015.35 124961 25817.6 Q 124906.75 25619.85 124978.5 25548.1 Q 125050.25 25476.35 125050.25 25404.6 Q 125050.25 25332.85 125122 24975.85 Q 125193.75 24545.35 125087 23469.1 Q 124978.5 22394.6 124728.25 21677.1 Q 124478 20889.6 124513 20424.1 L 124584.75 19921.85 L 124191 20387.35 Q 123760.5 20817.85 123653.75 20817.85 Q 123545.25 20817.85 123491 20978.85 Q 123438.5 21139.85 123384.25 21087.35 Q 123330 21033.1 122973 21283.35 Q 122614.25 21535.35 122614.25 21463.6 Q 122614.25 21391.85 122434 21535.35 Q 122218.75 21713.85 121322.75 22179.35 Q 121072.5 22322.85 120481 22931.85 Q 119889.5 23540.85 119889.5 23416.6 Q 119889.5 23290.6 120159 22770.85 Q 120426.75 22251.1 120535.25 22196.85 Q 120642 22144.35 120642 21964.1 Q 120642 21677.1 120248.25 22072.6 Q 120176.5 22179.35 120104.75 22251.1 Q 119961.25 22503.1 119567.5 22860.1 L 119208.75 23147.1 L 119245.5 24186.6 Q 119317.25 25226.1 119317.25 28003.35 Q 119317.25 30782.35 119280.5 31319.6 Q 119208.75 31856.85 119102 32394.1 L 119030.25 32931.35 L 119817.75 32215.6 Q 120570.25 31463.1 121181 30656.35 Q 121790 29849.6 121825 29849.6 Q 121861.75 29849.6 121825 29958.1 Q 121790 30064.85 121896.75 30101.6 Q 122112 30171.6 121216 31391.35 Q 120104.75 32789.6 120104.75 32968.1 Q 120104.75 33326.85 121000.75 32143.85 Q 121072.5 32000.35 121216 31856.85 Q 121322.75 31678.35 121448.75 31534.85 Q 121574.75 31391.35 121646.5 31319.6 Q 121718.25 31247.85 121753.25 31247.85 Q 121790 31282.85 121609.75 31641.6 Q 121431.25 32000.35 121251 32215.6 Q 121144.25 32322.35 121181 32322.35 Q 121181 32322.35 121251 32287.35 L 120965.75 32752.85 Q 120498.5 33255.1 120498.5 33398.6 Q 120498.5 33755.6 121037.5 33183.35 Q 121181 33074.85 121251 32931.35 Q 121466.25 32681.1 121538 32574.35 L 121609.75 32574.35 Q 121609.75 32646.1 121394.5 33039.85 Q 121037.5 33470.35 121161.75 33522.85 Q 121287.75 33577.1 120750.5 34186.1 Q 120213.25 34795.1 119907 35262.35 Q 119602.5 35727.85 119154.5 36247.6 Q 118706.5 36767.35 118384.5 37269.6 Q 118169.25 37519.85 117973.25 37698.35 Q 117775.5 37878.6 117632 37950.35 Q 117488.5 38022.1 117416.75 37913.6 Q 117273.25 37698.35 116790.25 37071.85 Q 116305.5 36443.6 116233.75 36373.6 Q 116090.25 36265.1 116018.5 36067.35 Q 115946.75 35871.35 115553 35727.85 Q 114872.25 35440.85 115015.75 35010.35 Q 115122.5 34831.85 115015.75 34688.35 Q 114909 34544.85 114889.75 34203.6 Q 114872.25 33864.1 114765.5 33792.35 Q 114657 33720.6 114872.25 33648.85 Q 115481.25 33470.35 116001 33039.85 Q 116520.75 32609.35 116449 32359.1 Q 116342.25 32143.85 116503.25 31659.1 Q 116664.25 31176.1 116646.75 30906.6 Q 116629.25 30638.85 116736 30064.85 Q 116807.75 29490.85 116879.5 26265.6 Q 116879.5 25943.6 116825.25 24419.35 Q 116771 22896.85 116736 22790.1 Q 116664.25 22718.35 116610 22699.1 Q 116557.5 22681.6 116449 22718.35 Q 116342.25 22753.35 116216.25 22842.6 Q 116090.25 22933.6 115911.75 23075.35 Q 115733.25 23255.6 115642.25 23309.85 Q 115553 23362.35 115498.75 23416.6 Q 115446.25 23470.85 115409.5 23453.35 Q 115374.5 23434.1 115374.5 23327.35 Q 115266 23183.85 115087.5 23218.85 Q 114585.25 23362.35 114585.25 23040.35 Q 114585.25 22896.85 114280.75 22574.85 Q 113976.25 22251.1 113797.75 22251.1 Q 113654.25 22251.1 113654.25 22109.35 Q 113654.25 21965.85 113565 21929.1 Q 113474 21894.1 113402.25 21624.6 Q 113330.5 21355.1 113223.75 21320.1 Q 112721.5 21141.6 112721.5 20424.1 Q 112758.25 19778.35 113367.25 19134.35 Q 113545.75 18954.1 113726 18577.85 Q 113904.5 18201.6 113993.75 18201.6 Q 114083 18201.6 114083 18005.6 Q 114083 17807.85 114191.5 17664.35 Q 114441.75 17414.1 114837.25 16357.1 Q 115231 15298.35 115302.75 14689.35 L 115409.5 13901.85 L 115087.5 13256.1 Q 114693.75 12575.35 114478.5 12431.85  Z M 118760.75 21624.6 Q 118778.25 21820.6 118886.75 21607.1 Q 118993.5 21391.85 118958.5 21230.85 Q 118921.75 21068.1 118832.5 21248.35 Q 118743.25 21426.85 118760.75 21624.6  Z M 132577 27196.6 Q 132864 26480.85 132990 25924.35 Q 133114.25 25369.6 133042.5 25280.35 Q 132970.75 25191.1 131574.25 25800.1 Q 128562.5 27089.85 127775 27054.85 L 127237.75 27018.1 L 127237.75 28022.6 L 127237.75 29060.35 L 127775 29203.85 Q 128277.25 29347.35 129190.75 29455.85 Q 130104.25 29562.6 130641.5 29742.85 L 131178.75 29849.6 L 131465.75 29527.6 Q 131752.75 29203.85 132003 28559.85 L 132577 27196.6 Z M 128277.25 32268.1 Q 127594.75 32035.35 127542.25 31928.6 Q 127488 31820.1 127166 31820.1 Q 126842.25 31820.1 126807.25 32107.1 Q 126770.5 32394.1 126609.5 33039.85 Q 126448.5 33683.85 126448.5 33916.6 Q 126448.5 34151.1 126735.5 34079.35 Q 127309.5 33935.85 128133.75 33416.1 Q 128958 32896.35 128958 32644.35 Q 128958 32502.6 128277.25 32268.1  Z " fill-rule="nonzero" style="fill:#ffd96d;;fill-opacity:1;"/>
</svg>