<svg version="1.1" x="0" y="0" width="100%" height="100%" viewBox="0 0 245196.8 38092.8" xmlns="http://www.w3.org/2000/svg">
  <path d="M 21417.6 9789.2 Q 22081.2 9592.4 22524 9838.4 Q 22794 9962 23016 10206.8 Q 23236.8 10452.8 23408.4 10452.8 Q 23752.8 10452.8 24072 11214.8 Q 24195.6 11460.8 24170.4 13083.2 Q 24146.4 14704.4 24121.2 15171.2 Q 24072 15588.8 24072 16646 Q 24072 17703.2 24121.2 18268.4 Q 24219.6 19889.6 24121.2 20037.2 Q 24048 20135.6 24146.4 20184.8 Q 24244.8 20234 24146.4 20295.2 Q 24048 20357.6 24133.2 20468 Q 24219.6 20578.4 24268.8 22421.6 Q 24391.2 26108 24219.6 26181.2 Q 24097.2 26279.6 24219.6 26354 Q 24342 26427.2 24207.6 26648 Q 24072 26870 24121.2 26992.4 Q 24146.4 27116 24072 27116 Q 23998.8 27116 23851.2 27090.8 Q 23532 27041.6 23457.6 27226.4 Q 23384.4 27410 23310 27410 Q 23236.8 27410 23236.8 27508.4 Q 23236.8 27705.2 23113.2 27582.8 Q 23064 27557.6 23064 27508.4 Q 22892.4 27090.8 22474.8 26600 Q 22352.4 26452.4 22352.4 26378 Q 22352.4 26082.8 21958.8 25247.6 Q 21712.8 24756.8 21738 24485.6 Q 21762 24215.6 21590.4 23699.6 Q 21417.6 23183.6 21466.8 23109.2 Q 21492 23036 21639.6 23282 Q 21688.8 23331.2 21762 23453.6 Q 22106.4 24018.8 22425.6 23896.4 Q 22548 23871.2 22561.2 23638.4 Q 22573.2 23404.4 22573.2 21732.8 Q 22548 19889.6 22425.6 19889.6 Q 22401.6 19889.6 22081.2 20123.6 Q 21762 20357.6 21651.6 20357.6 Q 21541.2 20357.6 21516 20430.8 Q 21492 20529.2 20594.4 21021.2 Q 19698 21512 19132.8 21708.8 Q 18960 21758 19022.4 21954.8 Q 19083.6 22151.6 19009.2 22151.6 Q 18936 22151.6 18837.6 22311.2 Q 18739.2 22470.8 18837.6 22532 Q 18936 22593.2 18800.4 22703.6 Q 18666 22815.2 18715.2 22888.4 Q 18763.2 22961.6 18640.8 23048 Q 18518.4 23134.4 18603.6 23232.8 Q 18690 23331.2 18603.6 23453.6 Q 18518.4 23576 18542.4 23662.4 Q 18567.6 23748.8 18394.8 24030.8 Q 18223.2 24314 18247.2 24412.4 Q 18272.4 24510.8 18148.8 24756.8 Q 18026.4 25001.6 18026.4 25161.2 Q 18026.4 25322 17953.2 25517.6 L 17928 25690.4 L 17707.2 25517.6 L 17338.8 25223.6 Q 16675.2 24731.6 16502.4 24288.8 Q 16354.8 23969.6 16208.4 23883.2 Q 16060.8 23798 16096.8 23662.4 Q 16134 23528 16035.6 23331.2 Q 15937.2 23183.6 15962.4 22851.2 Q 15986.4 22520 16134 22274 Q 16257.6 22028 16429.2 21315.2 Q 16600.8 20602.4 16748.4 20135.6 Q 16969.2 19251.2 17067.6 18416 Q 17116.8 17924 17191.2 17801.6 Q 17338.8 17530.4 17338.8 16523.6 Q 17338.8 16376 17510.4 14950.4 Q 17559.6 14556.8 17559.6 13611.2 Q 17559.6 12664.4 17534.4 12492.8 Q 17412 12026 16945.2 11805.2 Q 16773.6 11706.8 16662 11571.2 Q 16551.6 11435.6 16626 11386.4 Q 16650 11362.4 17104.8 11435.6 Q 17559.6 11510 17658 11448.8 Q 17756.4 11386.4 18162 11226.8 Q 18567.6 11067.2 18886.8 10919.6 Q 19206 10772 19316.4 10772 Q 19426.8 10772 19426.8 10686.8 Q 19426.8 10600.4 19538.4 10600.4 Q 19648.8 10600.4 19771.2 10551.2 Q 20680.8 10084.4 20779.2 10084.4 Q 20852.4 10084.4 21049.2 9948.8 Q 21246 9814.4 21417.6 9789.2  Z M 22057.2 12222.8 Q 22057.2 12099.2 21762 12222.8 Q 21663.6 12246.8 21344.4 12345.2 Q 20754 12542 20176.8 12554 Q 19599.6 12566 19550.4 12591.2 Q 19476 12689.6 19918.8 13353.2 Q 20041.2 13500.8 20078.4 14139.2 Q 20115.6 14778.8 19980 14864 Q 19845.6 14950.4 19980 15135.2 Q 20115.6 15318.8 20152.8 15318.8 Q 20188.8 15318.8 20472 15135.2 Q 20754 14950.4 20840.4 14950.4 Q 20926.8 14950.4 20950.8 14877.2 Q 20976 14828 21504 14594 Q 22032 14360 22106.4 14385.2 Q 22130.4 14409.2 22155.6 14385.2 Q 22179.6 14360 22179.6 14262.8 Q 22179.6 14164.4 22179.6 14016.8 Q 22179.6 13869.2 22179.6 13574 Q 22106.4 12738.8 22094.4 12516.8 Q 22081.2 12296 22057.2 12222.8  Z M 22352.4 17384 Q 22352.4 16793.6 22290 16720.4 Q 22228.8 16646 21663.6 16990.4 Q 21319.2 17236.4 20558.4 17654 Q 19796.4 18071.6 19599.6 18120.8 Q 19501.2 18144.8 19464 18489.2 Q 19426.8 18833.6 19525.2 18882.8 Q 19623.6 18932 19489.2 19017.2 Q 19353.6 19103.6 19353.6 19178 Q 19353.6 19275.2 19440 19288.4 Q 19525.2 19300.4 19648.8 19275.2 Q 19771.2 19251.2 19894.8 19152.8 Q 20336.4 18833.6 22081.2 18071.6 L 22352.4 17949.2 L 22352.4 17384 Z M 29847.6 9752 Q 30142.8 9716 30178.8 9690.8 Q 30216 9666.8 30597.6 9654.8 Q 30978 9641.6 30978 9752 Q 30978 9863.6 31113.6 9863.6 Q 31248 9863.6 31371.6 10084.4 Q 31494 10305.2 31555.2 10305.2 Q 31617.6 10305.2 31960.8 10576.4 Q 32232 10797.2 32391.6 11055.2 Q 32551.2 11313.2 32526 11510 Q 32476.8 11632.4 32563.2 11730.8 Q 32649.6 11829.2 32551.2 11878.4 Q 32280 12026 32206.8 13869.2 Q 32182.8 14778.8 32120.4 14852 Q 32059.2 14926.4 32071.2 15147.2 Q 32084.4 15368 32010 15626 Q 31936.8 15884 31924.8 16978.4 Q 31911.6 18071.6 31813.2 18095.6 Q 31714.8 18120.8 31714.8 18194 Q 31714.8 18268.4 31838.4 18268.4 Q 31960.8 18268.4 31887.6 18390.8 Q 31813.2 18514.4 31862.4 18636.8 Q 31936.8 18710 31924.8 18944 Q 31911.6 19178 31838.4 19275.2 Q 31813.2 19324.4 31826.4 19853.6 Q 31838.4 20381.6 31911.6 20406.8 Q 31936.8 20456 31813.2 20529.2 Q 31690.8 20602.4 31801.2 20787.2 Q 31911.6 20972 31813.2 20996 Q 31764 21021.2 31728 21131.6 Q 31690.8 21242 31702.8 21328.4 Q 31714.8 21413.6 31789.2 21413.6 Q 31862.4 21413.6 31838.4 21795.2 Q 31813.2 22175.6 31887.6 22274 Q 31960.8 22372.4 31862.4 22372.4 Q 31813.2 22372.4 31813.2 22691.6 Q 31813.2 23010.8 31862.4 23367.2 Q 31911.6 23723.6 31986 23847.2 Q 32084.4 24018.8 32084.4 24080 Q 32084.4 24142.4 31960.8 24215.6 Q 31838.4 24288.8 31911.6 24314 Q 31911.6 24314 31960.8 24314 Q 32108.4 24314 32084.4 24645.2 Q 32059.2 24977.6 31960.8 25125.2 Q 31862.4 25272.8 31850.4 25566.8 Q 31838.4 25862 31777.2 25899.2 Q 31714.8 25936.4 31702.8 26476.4 Q 31690.8 27017.6 31592.4 27053.6 Q 31494 27090.8 31494 27275.6 Q 31494 27459.2 31395.6 27533.6 Q 31346.4 27557.6 31125.6 27348.8 Q 30904.8 27140 30904.8 27041.6 Q 30904.8 26968.4 30757.2 26858 Q 30609.6 26746.4 30609.6 26673.2 Q 30609.6 26600 30339.6 26169.2 Q 30068.4 25739.6 30068.4 25580 Q 30068.4 25419.2 29725.2 24965.6 Q 29380.8 24510.8 29380.8 24314 Q 29380.8 24117.2 29233.2 23748.8 Q 29036.4 23282 29257.2 23282 Q 29331.6 23282 29725.2 23699.6 Q 30117.6 24117.2 30216 24093.2 Q 30290.4 24018.8 30277.2 23085.2 Q 30265.2 22151.6 30192 22028 Q 30068.4 21856.4 30142.8 21807.2 Q 30216 21758 30228 21008 Q 30241.2 20259.2 30192 20111.6 Q 30117.6 19964 29958 19988 Q 29798.4 20013.2 29036.4 20259.2 Q 28152 20529.2 27758.4 20602.4 Q 27120 20799.2 27021.6 20934.8 Q 26923.2 21070.4 26775.6 21807.2 Q 26628 22716.8 26505.6 23183.6 Q 26234.4 24387.2 26234.4 25395.2 Q 26234.4 25542.8 25816.8 25001.6 Q 25399.2 24461.6 25350 24461.6 Q 25276.8 24461.6 25178.4 24252.8 Q 25080 24044 25104 23969.6 Q 25129.2 23896.4 25018.8 23798 Q 24907.2 23699.6 24907.2 23490.8 Q 24907.2 23282 24834 23282 Q 24784.8 23282 24784.8 23036 Q 24784.8 22790 24810 22508 Q 24834 22224.8 24907.2 22077.2 Q 24956.4 21880.4 25080 21216.8 Q 25202.4 20553.2 25276.8 20357.6 Q 25350 20160.8 25473.6 19448 L 25645.2 18268.4 Q 25718.4 17752.4 25743.6 17604.8 Q 25767.6 17457.2 25854 16744.4 Q 25940.4 16031.6 25989.6 15588.8 Q 26038.8 15147.2 26062.8 15098 Q 26112 14999.6 26088 13487.6 Q 26062.8 11976.8 25989.6 11657.6 Q 25964.4 11435.6 25828.8 11214.8 Q 25694.4 10994 25620 10994 Q 25546.8 10994 25608 10907.6 Q 25669.2 10821.2 25473.6 10673.6 Q 25326 10551.2 25338 10428.8 Q 25350 10305.2 25509.6 10305.2 Q 25669.2 10305.2 26074.8 10502 Q 26480.4 10698.8 26529.6 10797.2 Q 26554.8 10919.6 26799.6 10870.4 Q 27045.6 10821.2 27218.4 10673.6 Q 27390 10527.2 27500.4 10527.2 Q 27610.8 10527.2 27783.6 10415.6 Q 27955.2 10305.2 28360.8 10206.8 Q 28766.4 10108.4 28987.2 10023.2 Q 29208 9936.8 29245.2 9936.8 Q 29282.4 9936.8 29418 9863.6 Q 29552.4 9789.2 29847.6 9752  Z M 30265.2 11976.8 Q 30241.2 11829.2 30142.8 11829.2 Q 30044.4 11829.2 29650.8 12000.8 Q 29404.8 12124.4 29306.4 12099.2 Q 29208 12075.2 28839.6 12258.8 Q 28471.2 12443.6 28077.6 12591.2 L 27685.2 12713.6 L 27685.2 13967.6 Q 27685.2 15171.2 27636 15269.6 Q 27561.6 15318.8 27685.2 15318.8 Q 27856.8 15294.8 28790.4 14974.4 Q 29650.8 14655.2 29970 14655.2 L 30290.4 14606 L 30290.4 13648.4 Q 30290.4 12664.4 30326.4 12406.4 Q 30363.6 12148.4 30265.2 11976.8  Z M 30216 17285.6 Q 30216 17063.6 30204 16866.8 Q 30192 16671.2 30192 16559.6 Q 30192 16449.2 30192 16449.2 Q 30192 16449.2 29725.2 16695.2 Q 29355.6 16892 28729.2 17088.8 Q 28102.8 17285.6 27783.6 17285.6 Q 27463.2 17285.6 27439.2 17432 Q 27414 17579.6 27402 17642 Q 27390 17703.2 27340.8 18071.6 Q 27291.6 18440 27242.4 18636.8 Q 27218.4 18784.4 27291.6 18784.4 Q 27390 18784.4 28201.2 18538.4 Q 28839.6 18317.6 29355.6 18243.2 Q 30068.4 18144.8 30142.8 18059.6 Q 30216 17973.2 30216 17285.6  Z M 40464 25149.2 Q 40390.8 25149.2 40440 25076 Q 40489.2 25001.6 40513.2 25001.6 Q 40538.4 25001.6 40538.4 25076 Q 40538.4 25149.2 40464 25149.2  Z M 52395.6 12984.8 Q 52334.4 12984.8 52334.4 12922.4 Q 52334.4 12861.2 52395.6 12861.2 Q 52458 12861.2 52458 12922.4 Q 52458 12984.8 52395.6 12984.8  Z M 45502.8 7898 Q 45650.4 7872.8 46068 7971.2 Q 46534.8 8069.6 47247.6 8438 Q 47960.4 8806.4 48303.6 9150.8 Q 48967.2 9716 48967.2 9838.4 Q 48967.2 9936.8 49152 10306.4 Q 49336.8 10674.8 49336.8 10773.2 Q 49336.8 10822.4 49742.4 11055.2 Q 50146.8 11289.2 50319.6 11338.4 Q 50343.6 11362.4 50454 11399.6 Q 50565.6 11436.8 50908.8 11486 Q 51253.2 11535.2 51290.4 11633.6 Q 51326.4 11730.8 51438 11744 Q 51548.4 11756 51474 11780 Q 51400.8 11805.2 51438 11866.4 Q 51474 11927.6 51572.4 11891.6 Q 51670.8 11854.4 51720 11976.8 Q 51769.2 12100.4 51879.6 12051.2 Q 51990 12002 51843.6 12124.4 Q 51621.6 12296 51720 12530 Q 51818.4 12764 52088.4 12689.6 Q 52212 12665.6 52212 12677.6 Q 52212 12689.6 52162.8 12738.8 Q 52039.2 12788 52039.2 12886.4 Q 52039.2 12984.8 51940.8 13022 Q 51843.6 13058 51954 13144.4 Q 52064.4 13230.8 52113.6 13095.2 Q 52162.8 12959.6 52186.8 13132.4 Q 52186.8 13156.4 52212 13254.8 Q 52236 13476.8 52482 13636.4 Q 52728 13796 53023.2 13796 Q 53317.2 13796 53317.2 13894.4 Q 53317.2 14066 52801.2 14016.8 Q 52604.4 14016.8 52604.4 14066 Q 52604.4 14115.2 52359.6 14176.4 Q 52113.6 14237.6 52039.2 14312 Q 51966 14385.2 51892.8 14336 Q 51818.4 14286.8 51818.4 14349.2 Q 51818.4 14410.4 51585.6 14459.6 Q 51351.6 14508.8 51253.2 14582 Q 51154.8 14656.4 51117.6 14619.2 Q 51081.6 14582 50896.8 14705.6 Q 50712 14828 50528.4 14889.2 Q 50343.6 14950.4 49963.2 15159.2 Q 49581.6 15368 49483.2 15332 Q 49386 15294.8 49386 15393.2 Q 49386 15491.6 49213.2 15552.8 Q 49041.6 15614 48918 15491.6 Q 48795.6 15368 48894 15368 Q 48992.4 15368 49274.4 15221.6 Q 49557.6 15074 49656 15074 Q 49754.4 15074 49754.4 15024.8 Q 49754.4 14975.6 50000.4 14852 Q 50908.8 14558 51105.6 14385.2 Q 51130.8 14361.2 51019.2 14286.8 Q 50908.8 14213.6 51056.4 14164.4 Q 51229.2 14016.8 51130.8 13869.2 Q 51056.4 13869.2 50626.8 14078 Q 50196 14286.8 50110.8 14250.8 Q 50024.4 14213.6 49987.2 14324 Q 49951.2 14434.4 49852.8 14434.4 Q 49778.4 14434.4 49693.2 14544.8 Q 49606.8 14656.4 49630.8 14729.6 Q 49705.2 14802.8 49569.6 14840 Q 49435.2 14877.2 49398 14802.8 Q 49360.8 14729.6 49140 14802.8 Q 48894 14877.2 48894 14950.4 Q 48894 15024.8 49114.8 14987.6 Q 49336.8 14950.4 49336.8 15012.8 Q 49336.8 15074 49262.4 15036.8 Q 49189.2 14999.6 49164 15123.2 Q 49140 15172.4 48992.4 15208.4 Q 48844.8 15245.6 48722.4 15233.6 Q 48598.8 15221.6 48598.8 15172.4 Q 48598.8 15048.8 48525.6 15110 Q 48451.2 15172.4 48488.4 15270.8 Q 48525.6 15368 48464.4 15368 Q 48402 15368 48352.8 15503.6 Q 48303.6 15639.2 48328.8 15712.4 Q 48402 15737.6 48500.4 15614 Q 48624 15491.6 48673.2 15515.6 Q 48722.4 15540.8 48673.2 15737.6 Q 48598.8 15958.4 48598.8 15982.4 Q 48598.8 16007.6 48525.6 15970.4 Q 48451.2 15934.4 48451.2 16007.6 Q 48451.2 16080.8 48303.6 16031.6 Q 48157.2 15982.4 48021.6 16118 Q 47886 16253.6 47862 16474.4 Q 47812.8 16720.4 47702.4 16720.4 Q 47592 16720.4 47554.8 16990.4 Q 47517.6 17260.4 47468.4 17384 Q 47320.8 17630 47517.6 17679.2 Q 47689.2 17703.2 47850 17604.8 Q 48009.6 17506.4 48132 17506.4 Q 48254.4 17506.4 48254.4 17445.2 Q 48254.4 17384 48488.4 17248.4 Q 48722.4 17114 48722.4 17064.8 Q 48722.4 17015.6 49164 16769.6 Q 49606.8 16523.6 49606.8 16425.2 Q 49606.8 16326.8 49668 16314.8 Q 49729.2 16302.8 49975.2 16326.8 Q 50343.6 16376 50418 16437.2 Q 50491.2 16499.6 50601.6 16499.6 Q 50712 16499.6 51130.8 17039.6 Q 51916.8 18022.4 51867.6 18195.2 Q 51818.4 18268.4 51892.8 18342.8 Q 51990 18392 51928.8 19030.4 Q 51867.6 19668.8 51769.2 19940 Q 51621.6 20283.2 51670.8 20283.2 Q 51670.8 20283.2 51720 20259.2 Q 51892.8 20235.2 51867.6 20381.6 Q 51867.6 20480 51818.4 20726 Q 51621.6 21365.6 51278.4 21365.6 Q 51130.8 21365.6 51032.4 21610.4 Q 50908.8 21807.2 50946 21832.4 Q 50983.2 21856.4 51130.8 21659.6 Q 51253.2 21512 51351.6 21512 Q 51523.2 21512 51302.4 21734 Q 51154.8 21856.4 51192 21992 Q 51229.2 22126.4 51056.4 22200.8 Q 50934 22224.8 50934 22200.8 Q 51032.4 22126.4 51032.4 22016 Q 51032.4 21905.6 50896.8 22029.2 Q 50761.2 22151.6 50712 22102.4 Q 50712 22078.4 50650.8 22139.6 Q 50589.6 22200.8 50540.4 22311.2 Q 50491.2 22421.6 50491.2 22545.2 Q 50467.2 22692.8 50418 22888.4 Q 50392.8 23061.2 50442 23110.4 Q 50491.2 23159.6 50761.2 23282 Q 51130.8 23453.6 51180 23490.8 Q 51229.2 23528 51450 23650.4 Q 51670.8 23774 51670.8 23810 Q 51670.8 23847.2 52064.4 24044 Q 52408.8 24215.6 52986 24584 Q 53563.2 24953.6 53612.4 25026.8 L 53686.8 25052 Q 53686.8 25002.8 53870.4 25174.4 Q 54055.2 25346 54140.4 25322 Q 54226.8 25296.8 54484.8 25408.4 Q 54742.8 25518.8 54792 25617.2 Q 54841.2 25715.6 54890.4 25666.4 Q 54939.6 25617.2 54988.8 25739.6 Q 55038 25862 55148.4 25862 Q 55258.8 25862 55308 25997.6 Q 55357.2 26133.2 55542 26096 Q 55725.6 26058.8 55849.2 26279.6 Q 55971.6 26501.6 56487.6 26844.8 Q 57176.4 27312.8 57127.2 27557.6 Q 57078 27632 57176.4 27754.4 Q 57446.4 28000.4 57249.6 28000.4 Q 57078 28000.4 57200.4 28172 Q 57274.8 28246.4 57348 28295.6 Q 57568.8 28418 57495.6 28565.6 Q 57470.4 28589.6 57373.2 28589.6 Q 57348 28565.6 57324 28626.8 Q 57298.8 28688 57298.8 28737.2 Q 57298.8 28934 57422.4 28934 Q 57519.6 28934 57519.6 28971.2 Q 57519.6 29008.4 57422.4 29180 Q 57200.4 29499.2 57052.8 29376.8 Q 57003.6 29278.4 56930.4 29351.6 Q 56856 29426 56611.2 29302.4 Q 56365.2 29180 56082 29142.8 Q 55800 29106.8 55800 29020.4 Q 55800 28934 55504.8 28811.6 Q 55209.6 28688 54951.6 28516.4 Q 54693.6 28344.8 54350.4 28148 Q 53956.8 27951.2 52580.4 27041.6 Q 51916.8 26624 50810.4 26084 Q 49705.2 25542.8 49189.2 25420.4 L 48598.8 25247.6 L 48402 25518.8 Q 48157.2 25739.6 48157.2 25678.4 Q 48157.2 25617.2 47874 25800.8 Q 47592 25985.6 47529.6 25985.6 Q 47468.4 25985.6 47419.2 26108 Q 47370 26231.6 47296.8 26231.6 Q 47124 26231.6 46534.8 26722.4 Q 46166.4 27066.8 45796.8 27066.8 Q 45625.2 27066.8 45538.8 27177.2 Q 45453.6 27287.6 45379.2 27250.4 Q 45306 27214.4 44827.2 27484.4 Q 44347.2 27754.4 44335.2 27668 Q 44323.2 27582.8 44126.4 27730.4 Q 44002.8 27803.6 43794 27864.8 Q 43585.2 27927.2 43437.6 27927.2 Q 43291.2 27927.2 43242 27852.8 Q 43242 27803.6 43303.2 27742.4 Q 43364.4 27681.2 43425.6 27668 Q 43486.8 27656 43512 27730.4 Q 43561.2 27779.6 43634.4 27632 Q 43856.4 27435.2 43953.6 27582.8 Q 43953.6 27632 44065.2 27632 Q 44175.6 27632 44150.4 27533.6 Q 44126.4 27435.2 44298 27263.6 Q 44470.8 27090.8 44421.6 27090.8 Q 44323.2 27066.8 43905.6 27360.8 Q 43708.8 27484.4 43216.8 27533.6 Q 42724.8 27582.8 42466.8 27730.4 Q 42208.8 27878 42062.4 27927.2 Q 41938.8 27927.2 41926.8 27890 Q 41914.8 27852.8 41988 27779.6 Q 42062.4 27632 42159.6 27656 Q 42258 27681.2 42258 27668 Q 42258 27656 42283.2 27557.6 Q 42307.2 27459.2 42208.8 27435.2 Q 42159.6 27435.2 41988 27435.2 Q 41373.6 27484.4 41373.6 27754.4 Q 41373.6 27852.8 41558.4 27852.8 Q 41742 27852.8 41791.2 27927.2 L 41692.8 27975.2 Q 41643.6 27975.2 41545.2 27975.2 Q 41251.2 27975.2 41251.2 27878 Q 41251.2 27828.8 40980 27594.8 Q 40710 27360.8 40611.6 27360.8 Q 40489.2 27360.8 40440 27238.4 Q 40390.8 27116 40464 27116 Q 40538.4 27116 40538.4 27066.8 Q 40538.4 27041.6 40526.4 27029.6 Q 40513.2 27017.6 40489.2 27017.6 Q 40365.6 27017.6 40304.4 26980.4 Q 40243.2 26943.2 40292.4 26870 Q 40316.4 26746.4 40243.2 26649.2 Q 40170 26550.8 40243.2 26550.8 Q 40316.4 26550.8 40341.6 26649.2 Q 40365.6 26746.4 40464 26649.2 Q 40538.4 26525.6 40526.4 26489.6 Q 40513.2 26452.4 40365.6 26476.4 Q 40170 26476.4 40170 26452.4 Q 40170 26427.2 40414.8 26181.2 Q 40660.8 25960.4 40672.8 25875.2 Q 40686 25788.8 40587.6 25690.4 Q 40365.6 25469.6 41078.4 24780.8 L 41448 24461.6 Q 41373.6 24584 41448 24584 Q 41521.2 24584 41755.2 24276.8 Q 41988 23969.6 41988 24093.2 Q 41988 24117.2 42037.2 24203.6 Q 42086.4 24290 42159.6 24339.2 Q 42234 24388.4 42258 24339.2 Q 42258 24339.2 42283.2 24018.8 L 42283.2 23724.8 L 41938.8 23626.4 L 41668.8 23502.8 Q 41816.4 23478.8 41718 23404.4 Q 41668.8 23355.2 41619.6 23355.2 Q 41472 23355.2 41422.8 23232.8 Q 41373.6 23110.4 41226 22986.8 Q 41078.4 22864.4 41176.8 22754 Q 41275.2 22643.6 41188.8 22643.6 Q 41103.6 22643.6 41103.6 22470.8 Q 41103.6 22348.4 41140.8 22323.2 Q 41176.8 22299.2 41300.4 22299.2 Q 41496 22299.2 41742 22200.8 Q 42234 22078.4 43486.8 21954.8 L 43758 21930.8 Q 43807.2 21930.8 43990.8 21647.6 Q 44175.6 21365.6 44138.4 21180.8 Q 44101.2 20996 44236.8 20702 Q 44372.4 20406.8 44310 20308.4 Q 44248.8 20210 44310 20123.6 Q 44372.4 20038.4 44372.4 19841.6 Q 44372.4 19694 44506.8 19583.6 Q 44642.4 19473.2 44740.8 19522.4 Q 44814 19571.6 44961.6 19485.2 Q 45109.2 19398.8 45085.2 19325.6 Q 45036 19202 45146.4 19103.6 Q 45256.8 19006.4 45256.8 18882.8 Q 45256.8 18760.4 45355.2 18551.6 Q 45453.6 18342.8 45416.4 18170 Q 45379.2 17998.4 45526.8 17813.6 Q 45674.4 17630 45674.4 17679.2 L 45822 17433.2 Q 45993.6 17064.8 45895.2 17064.8 Q 45871.2 17064.8 45822 17150 Q 45772.8 17236.4 45686.4 17175.2 Q 45601.2 17114 45637.2 17015.6 Q 45674.4 16917.2 45576 16842.8 L 45330 16671.2 Q 45256.8 16572.8 45121.2 16572.8 Q 44986.8 16572.8 44937.6 16523.6 Q 44888.4 16474.4 44715.6 16450.4 Q 44494.8 16425.2 44016 16216.4 Q 43536 16007.6 43437.6 15934.4 Q 43315.2 15786.8 43242 15786.8 Q 43167.6 15786.8 43167.6 15675.2 Q 43167.6 15564.8 43069.2 15564.8 Q 43020 15564.8 42811.2 15294.8 Q 42602.4 15024.8 42602.4 14950.4 Q 42602.4 14852 42738 14852 Q 42872.4 14852 42872.4 14753.6 Q 42872.4 14729.6 42909.6 14692.4 Q 42946.8 14656.4 42970.8 14680.4 Q 43020 14729.6 43069.2 14656.4 Q 43118.4 14582 43462.8 14582 Q 43807.2 14582 44052 14434.4 Q 44298 14286.8 44408.4 14336 Q 44520 14385.2 44544 14237.6 Q 44617.2 14115.2 44802 14028.8 Q 44986.8 13943.6 45085.2 13992.8 Q 45134.4 14016.8 45637.2 13808 Q 46141.2 13599.2 46190.4 13500.8 Q 46215.6 13451.6 46387.2 13378.4 Q 46731.6 13304 46780.8 12935.6 L 46830 12714.8 L 46952.4 12935.6 Q 47124 13304 47198.4 12984.8 Q 47271.6 12862.4 47320.8 12910.4 Q 47395.2 12959.6 47493.6 12714.8 Q 47836.8 11854.4 47714.4 11019.2 Q 47665.2 10797.2 47505.6 10515.2 Q 47346 10232 47198.4 10133.6 Q 47100 10084.4 47100 9974 Q 47100 9863.6 47025.6 9863.6 Q 46952.4 9863.6 46952.4 9765.2 Q 46952.4 9666.8 46694.4 9408.8 Q 46436.4 9150.8 46338 9150.8 Q 46215.6 9150.8 45834 8757.2 Q 45453.6 8364.8 45502.8 8266.4 Q 45552 8168 45453.6 8142.8 Q 45256.8 7995.2 45502.8 7898  Z M 51375.6 12984.8 Q 51450 12984.8 51487.2 12922.4 Q 51523.2 12861.2 51412.8 12861.2 Q 51302.4 12861.2 51302.4 12922.4 Q 51302.4 12984.8 51375.6 12984.8  Z M 52186.8 14016.8 Q 52432.8 13794.8 52039.2 13844 Q 51990 13869.2 51940.8 13893.2 Q 51892.8 13918.4 51916.8 13942.4 Q 51966 14016.8 51892.8 13991.6 Q 51867.6 13991.6 51818.4 13991.6 Q 51670.8 13918.4 51670.8 14016.8 Q 51670.8 14115.2 51855.6 14115.2 Q 52039.2 14115.2 52186.8 14016.8  Z M 51375.6 14016.8 Q 51450 14016.8 51450 13942.4 Q 51450 13869.2 51424.8 13869.2 Q 51400.8 13869.2 51351.6 13942.4 Q 51302.4 14016.8 51375.6 14016.8  Z M 51597.6 14164.4 Q 51450 14040.8 51424.8 14090 Q 51400.8 14090 51424.8 14164.4 Q 51474 14213.6 51585.6 14213.6 Q 51696 14213.6 51597.6 14164.4  Z M 46411.2 21216.8 L 45846 21094.4 Q 45674.4 21070.4 45650.4 21167.6 Q 45625.2 21266 45502.8 21266 Q 45330 21266 45404.4 21561.2 Q 45404.4 21610.4 45392.4 21622.4 Q 45379.2 21635.6 45330 21610.4 Q 45280.8 21586.4 45231.6 21659.6 Q 45182.4 21732.8 45146.4 21844.4 Q 45109.2 21954.8 45134.4 21978.8 Q 45182.4 22077.2 45772.8 22114.4 Q 46363.2 22151.6 46755.6 22224.8 Q 47149.2 22299.2 47456.4 22335.2 Q 47763.6 22372.4 48021.6 22433.6 Q 48279.6 22494.8 48303.6 22421.6 Q 48378 22323.2 48352.8 21992 Q 48328.8 21659.6 48279.6 21659.6 Q 48206.4 21635.6 48230.4 21462.8 Q 48254.4 21364.4 48157.2 21352.4 Q 48058.8 21340.4 47542.8 21291.2 Q 46830 21291.2 46411.2 21216.8  Z M 44642.4 24215.6 Q 44077.2 24042.8 43941.6 24080 Q 43807.2 24117.2 43634.4 24460.4 Q 43486.8 24903.2 43486.8 24964.4 Q 43486.8 25025.6 43327.2 25173.2 Q 43167.6 25320.8 42996 25689.2 Q 42823.2 26058.8 42602.4 26303.6 Q 42430.8 26525.6 42553.2 26549.6 Q 42724.8 26598.8 42984 26464.4 Q 43242 26328.8 43364.4 26378 Q 43486.8 26427.2 43720.8 26254.4 Q 43953.6 26082.8 44077.2 26070.8 Q 44199.6 26058.8 44556 25862 Q 44912.4 25665.2 45355.2 25444.4 Q 45796.8 25222.4 45846 25137.2 Q 45895.2 25050.8 45957.6 25100 Q 46018.8 25149.2 46190.4 24952.4 L 46338 24780.8 L 46166.4 24731.6 L 45576 24485.6 Q 45182.4 24362 44642.4 24215.6  Z M 45036 27238.4 Q 45109.2 27116 45085.2 27116 Q 45060 27066.8 44900.4 27152 Q 44740.8 27238.4 44740.8 27275.6 Q 44740.8 27311.6 44802 27336.8 Q 44863.2 27360.8 44937.6 27324.8 Q 45010.8 27287.6 45036 27238.4  Z M 70693.2 15245.6 Q 70791.6 15171.2 71061.6 15294.8 Q 71282.4 15368 71356.8 15393.2 Q 72093.6 15614 72511.2 15958.4 Q 72634.8 16080.8 72733.2 16277.6 Q 72830.4 16474.4 72794.4 16523.6 Q 72757.2 16572.8 72855.6 16941.2 Q 72954 17309.6 72892.8 17874.8 Q 72830.4 18440 72782.4 18821.6 Q 72733.2 19202 72684 19644.8 Q 72634.8 20086.4 72536.4 20848.4 Q 72192 24264.8 71650.8 24928.4 Q 71455.2 25125.2 71455.2 25247.6 Q 71455.2 25371.2 71380.8 25174.4 Q 71331.6 25026.8 71184 24891.2 Q 71036.4 24756.8 71012.4 24756.8 Q 70939.2 24756.8 70594.8 24338 Q 70250.4 23920.4 70201.2 23772.8 Q 70078.8 23502.8 69955.2 23355.2 Q 69856.8 23256.8 69807.6 23085.2 Q 69758.4 22913.6 69856.8 22839.2 Q 69906 22766 69968.4 22532 Q 70029.6 22299.2 70164 21758 Q 70299.6 21216.8 70348.8 20897.6 Q 70398 20578.4 70508.4 19877.6 Q 70618.8 19178 70656 18587.6 Q 70693.2 17998.4 70717.2 17924 Q 70791.6 17801.6 70778.4 16830.8 Q 70766.4 15860 70717.2 15614 Q 70668 15344 70693.2 15245.6  Z M 82857.6 13672.4 Q 82906.8 13524.8 82956 13574 Q 83005.2 13623.2 82906.8 13697.6 Q 82857.6 13745.6 82845.6 13745.6 Q 82833.6 13745.6 82857.6 13672.4  Z M 71380.8 12197.6 Q 71406 12099.2 71467.2 12075.2 Q 71528.4 12050 71725.2 12099.2 Q 72265.2 12173.6 73420.8 12664.4 L 73690.8 12762.8 L 73962 12542 Q 74182.8 12321.2 74281.2 12296 Q 74379.6 12296 74391.6 12308 Q 74403.6 12321.2 74318.4 12504.8 Q 74232 12689.6 74330.4 12922.4 Q 74428.8 13156.4 74502 13205.6 Q 74576.4 13254.8 74428.8 13500.8 Q 74281.2 13745.6 74403.6 13918.4 L 74576.4 14213.6 Q 74625.6 14312 74502 14471.6 Q 74379.6 14631.2 74379.6 14926.4 Q 74403.6 15147.2 74379.6 15159.2 Q 74354.4 15171.2 74256 15122 Q 74157.6 14999.6 74096.4 14913.2 Q 74035.2 14828 73863.6 14828 Q 73690.8 14828 73507.2 14692.4 Q 73322.4 14556.8 73200 14556.8 Q 73076.4 14556.8 72708 14213.6 Q 72339.6 13869.2 72069.6 13500.8 Q 71847.6 13229.6 71725.2 13083.2 Q 71553.6 12910.4 71442 12640.4 Q 71331.6 12370.4 71380.8 12197.6  Z M 78385.2 10625.6 Q 78729.6 10625.6 78814.8 10478 Q 78901.2 10330.4 79098 10330.4 Q 79294.8 10330.4 79417.2 10478 Q 79540.8 10625.6 79822.8 10612.4 Q 80106 10600.4 80216.4 10710.8 Q 80326.8 10821.2 80584.8 10907.6 Q 80842.8 10994 81321.6 11301.2 Q 81801.6 11608.4 81973.2 11805.2 Q 82144.8 12000.8 82268.4 12480.8 Q 82390.8 12959.6 82341.6 13278.8 Q 82317.6 13550 82144.8 13721.6 Q 81752.4 14188.4 81358.8 15368 Q 81063.6 16301.6 80953.2 17886.8 Q 80842.8 19472 80965.2 20700.8 Q 81236.4 23453.6 80990.4 25862 Q 80941.2 26304.8 80866.8 26464.4 Q 80793.6 26624 80400 27090.8 Q 80376 27165.2 80326.8 27041.6 Q 80277.6 26894 80203.2 27041.6 Q 80179.2 27116 80179.2 27214.4 Q 80179.2 27386 80007.6 27632 Q 79834.8 27876.8 79785.6 28024.4 Q 79736.4 28172 79687.2 28172 Q 79614 28172 79466.4 28049.6 Q 79318.8 27926 79318.8 27828.8 Q 79318.8 27681.2 79220.4 27632 Q 79122 27582.8 78864 27041.6 Q 78606 26501.6 78237.6 26058.8 Q 77229.6 24756.8 77254.8 24436.4 Q 77254.8 24288.8 77205.6 24018.8 Q 77180.4 23847.2 77193.6 23810 Q 77205.6 23772.8 77278.8 23798 Q 77402.4 23798 77475.6 23896.4 Q 77844 24338 78188.4 24363.2 Q 78409.2 24387.2 78631.2 24485.6 L 78877.2 24609.2 L 78901.2 24166.4 Q 78950.4 23699.6 78901.2 22961.6 Q 78753.6 21021.2 78729.6 16007.6 Q 78729.6 12689.6 78631.2 12689.6 Q 78532.8 12689.6 77967.6 12910.4 Q 76837.2 13328 75706.8 12886.4 Q 75411.6 12762.8 75190.8 12689.6 Q 74968.8 12615.2 74785.2 12443.6 Q 74600.4 12272 74600.4 12148.4 Q 74600.4 12050 74502 12050 Q 74403.6 12050 74391.6 11841.2 Q 74379.6 11632.4 74478 11559.2 Q 74576.4 11484.8 75018 11484.8 Q 75730.8 11484.8 77304 10994 Q 77794.8 10846.4 77918.4 10846.4 Q 78040.8 10846.4 78040.8 10736 Q 78040.8 10625.6 78385.2 10625.6  Z M 68038.8 9298.4 Q 68210.4 9224 68112 9174.8 Q 68013.6 9125.6 68088 9125.6 Q 68161.2 9125.6 68432.4 9298.4 Q 68874 9543.2 68874 9396.8 Q 68775.6 9298.4 69070.8 9470 Q 69120 9519.2 69242.4 9592.4 Q 69464.4 9765.2 69513.6 9765.2 Q 69562.8 9765.2 69919.2 10084.4 Q 70275.6 10403.6 70324.8 10403.6 Q 70372.8 10403.6 70520.4 10686.8 Q 70668 10968.8 70668 11374.4 Q 70668 11780 70693.2 11805.2 Q 70791.6 11902.4 70372.8 12750.8 Q 69955.2 13599.2 69537.6 14164.4 Q 69340.8 14434.4 69046.8 14962.4 Q 68751.6 15491.6 68677.2 15515.6 Q 68505.6 15614 68997.6 15884 Q 69193.2 15982.4 69255.6 16068.8 Q 69316.8 16155.2 69390 16425.2 Q 69464.4 16671.2 69476.4 18243.2 Q 69488.4 19816.4 69390 20086.4 Q 69193.2 20848.4 69390 20897.6 Q 69513.6 20946.8 69390 21340.4 Q 69267.6 21732.8 69144 22691.6 Q 69021.6 23650.4 68923.2 24068 Q 68824.8 24485.6 68788.8 24977.6 Q 68751.6 25468.4 68578.8 25763.6 L 68407.2 26108 L 68308.8 25911.2 Q 68161.2 25714.4 68062.8 25653.2 Q 67964.4 25592 67964.4 25517.6 Q 67964.4 25346 67326 24731.6 Q 67105.2 24485.6 67154.4 24314 Q 67203.6 24142.4 67068 23994.8 Q 66932.4 23847.2 66932.4 23674.4 Q 66981.6 23478.8 67129.2 22961.6 Q 67300.8 22544 67448.4 20996 L 67546.8 19718 Q 67743.6 17432 67572 17187.2 Q 67497.6 17088.8 67546.8 16941.2 L 67497.6 16916 Q 67448.4 17039.6 67399.2 17014.4 L 67326 17112.8 Q 67300.8 17260.4 67300.8 17457.2 Q 67300.8 17506.4 67117.2 17837.6 Q 66932.4 18170 66760.8 18366.8 Q 66711.6 18440 66662.4 18563.6 Q 66564 18784.4 65998.8 19521.2 Q 65433.6 20259.2 65138.4 20578.4 Q 64671.6 20972 64622.4 20873.6 Q 64622.4 20873.6 64598.4 20824.4 Q 64549.2 20651.6 64500 20480 Q 64450.8 19964 64278 19964 Q 64204.8 19964 64131.6 19644.8 Q 64057.2 19324.4 63984 19324.4 Q 63909.6 19324.4 63885.6 19152.8 Q 63860.4 18981.2 63909.6 18906.8 Q 64008 18808.4 63934.8 18759.2 Q 63860.4 18710 63873.6 18526.4 Q 63885.6 18341.6 63984 18219.2 Q 64057.2 18120.8 64020 18059.6 Q 63984 17998.4 64106.4 17874.8 Q 64303.2 17678 64843.2 17039.6 Q 64966.8 16941.2 65470.8 16155.2 Q 65974.8 15368 66085.2 15233.6 Q 66195.6 15098 66318 14828 Q 66441.6 14556.8 66490.8 14556.8 Q 66540 14556.8 66540 14458.4 Q 66540 14360 66674.4 14188.4 Q 66810 14016.8 67129.2 13426.4 L 67792.8 12173.6 Q 68137.2 11583.2 68137.2 11484.8 Q 68137.2 11386.4 68370 10834.4 Q 68604 10281.2 68604 10133.6 Q 68604 9838.4 68062.8 9470 L 67867.2 9347.6 L 68038.8 9298.4 Z M 67056 17654 Q 67056 17432 66932.4 17628.8 Q 66908.4 17678 66981.6 17727.2 Q 67056 17776.4 67056 17654  Z M 66760.8 18046.4 Q 66834 18046.4 66834 17985.2 Q 66834 17924 66760.8 17924 Q 66686.4 17924 66686.4 17985.2 Q 66686.4 18046.4 66760.8 18046.4  Z M 66564 18317.6 Q 66540 18440 66625.2 18341.6 Q 66711.6 18243.2 66662.4 18219.2 Q 66662.4 18194 66638.4 18219.2 Q 66613.2 18243.2 66564 18317.6  Z M 93450 25223.6 Q 93646.8 24928.4 93696 25076 Q 93696 25125.2 93966 25420.4 Q 94580.4 26034.8 94728 26415.2 Q 94875.6 26796.8 94704 27386 Q 94507.2 28000.4 93573.6 28614.8 L 93253.2 28835.6 L 93278.4 28640 Q 93302.4 28492.4 93192 28467.2 Q 93081.6 28443.2 92934 28590.8 Q 92614.8 28959.2 91730.4 29450 L 91041.6 29819.6 L 90624 30040.4 L 90870 29745.2 Q 91386 29032.4 92331.6 27411.2 Q 93278.4 25788.8 93278.4 25617.2 Q 93278.4 25518.8 93450 25223.6  Z M 126418.8 12124.4 Q 126332.4 12124.4 126381.6 12050 Q 126430.8 11976.8 126468 11976.8 Q 126505.2 11976.8 126505.2 12050 Q 126505.2 12124.4 126418.8 12124.4  Z M 126751.2 11620.4 Q 126873.6 11484.8 127021.2 11325.2 Q 127168.8 11165.6 127204.8 11214.8 Q 127242 11264 127045.2 11448.8 Q 126849.6 11632.4 126849.6 11693.6 Q 126849.6 11756 126738 11756 Q 126627.6 11756 126751.2 11620.4  Z M 116257.2 7553.6 Q 116060.4 7331.6 116097.6 7221.2 Q 116133.6 7110.8 116551.2 7160 Q 116970 7209.2 117190.8 7221.2 Q 117411.6 7233.2 117535.2 7343.6 Q 117657.6 7455.2 117915.6 7467.2 Q 118173.6 7479.2 118296 7479.2 Q 118419.6 7479.2 118419.6 7577.6 Q 118419.6 7676 118579.2 7762.4 Q 118738.8 7847.6 118689.6 7971.2 Q 118689.6 8069.6 118701.6 8093.6 Q 118714.8 8118.8 118764 8093.6 Q 118910.4 8044.4 119107.2 8978 Q 119156.4 9200 119266.8 9236 Q 119378.4 9273.2 119439.6 9371.6 Q 119500.8 9470 119857.2 9519.2 Q 120213.6 9568.4 120213.6 9641.6 Q 120213.6 9716 120361.2 9740 Q 120434.4 9789.2 120532.8 9875.6 Q 120631.2 9962 120631.2 10011.2 Q 120631.2 10035.2 120483.6 10060.4 Q 120312 10108.4 120336 10206.8 Q 120361.2 10305.2 120483.6 10330.4 Q 120680.4 10354.4 120753.6 10428.8 Q 120828 10502 120828 10625.6 Q 120828 10797.2 120582 10870.4 Q 120262.8 10919.6 119943.6 11067.2 Q 119721.6 11141.6 119721.6 11190.8 Q 119721.6 11240 120091.2 11337.2 Q 120385.2 11411.6 120619.2 11620.4 Q 120852 11829.2 120852 11976.8 Q 120852 12075.2 120926.4 12148.4 Q 120999.6 12222.8 120840 12713.6 Q 120680.4 13205.6 120237.6 13660.4 Q 119796 14115.2 119796 14176.4 Q 119796 14237.6 119857.2 14115.2 Q 119918.4 13991.6 119918.4 14090 Q 119918.4 14139.2 120016.8 14139.2 Q 120115.2 14139.2 120250.8 14102 Q 120385.2 14066 120483.6 13991.6 Q 120631.2 13893.2 120631.2 13820 Q 120631.2 13746.8 120778.8 13599.2 Q 120926.4 13451.6 121036.8 13574 Q 121147.2 13697.6 121282.8 13697.6 Q 121417.2 13697.6 121417.2 13808 Q 121417.2 13918.4 121590 13918.4 Q 121761.6 13918.4 121909.2 14016.8 Q 122056.8 14115.2 122204.4 14115.2 Q 122352 14115.2 122437.2 14249.6 Q 122523.6 14385.2 122634 14434.4 Q 122744.4 14483.6 122596.8 14520.8 Q 122450.4 14556.8 122450.4 14729.6 Q 122450.4 14901.2 122511.6 14901.2 Q 122572.8 14901.2 122572.8 15072.8 Q 122572.8 15245.6 122192.4 15417.2 Q 121810.8 15590 121344 15860 Q 121196.4 15933.2 121098 15982.4 Q 120999.6 16031.6 120926.4 16056.8 Q 120852 16080.8 120852 16080.8 Q 120852 16056.8 120607.2 16228.4 Q 120361.2 16400 120262.8 16400 Q 120164.4 16400 119845.2 16608.8 Q 119524.8 16818.8 119427.6 16830.8 Q 119329.2 16842.8 119292 16904 Q 119254.8 16965.2 119107.2 16990.4 Q 118738.8 17063.6 118984.8 17260.4 Q 119083.2 17334.8 119254.8 17457.2 Q 119721.6 17752.4 119992.8 17801.6 Q 120262.8 17850.8 120385.2 17912 Q 120508.8 17973.2 120619.2 17900 Q 120729.6 17825.6 120852 17973.2 Q 120975.6 18120.8 121060.8 18083.6 Q 121147.2 18047.6 121294.8 18158 Q 121442.4 18268.4 121602 18268.4 Q 121761.6 18268.4 121982.4 18465.2 L 122253.6 18662 L 122056.8 18759.2 Q 121885.2 18833.6 121885.2 18894.8 Q 121885.2 18956 122007.6 19005.2 Q 122179.2 19079.6 122167.2 19239.2 Q 122155.2 19398.8 121958.4 19472 Q 121761.6 19570.4 121503.6 19668.8 Q 121245.6 19767.2 121074 19792.4 Q 120877.2 19816.4 120680.4 20025.2 Q 120483.6 20234 120483.6 20456 Q 120483.6 20602.4 120544.8 20664.8 Q 120607.2 20726 120778.8 20799.2 Q 121024.8 20922.8 121332 21070.4 Q 121639.2 21216.8 121712.4 21155.6 Q 121786.8 21094.4 121982.4 21266 Q 122523.6 21734 123114 22028 Q 123433.2 22175.6 123457.2 22618.4 Q 123482.4 22937.6 123518.4 23073.2 Q 123555.6 23207.6 123580.8 23282 Q 123580.8 23380.4 123679.2 23306 Q 123703.2 23282 123752.4 23207.6 Q 123850.8 22937.6 123973.2 21807.2 Q 124047.6 21143.6 124084.8 20074.4 Q 124120.8 19005.2 124047.6 18981.2 Q 123998.4 18906.8 123973.2 18550.4 Q 123949.2 18194 123801.6 18047.6 Q 123654 17900 123654 17850.8 Q 123654 17530.4 123900 17530.4 Q 124022.4 17530.4 124047.6 17494.4 Q 124071.6 17457.2 124071.6 17260.4 Q 124071.6 16965.2 124010.4 16842.8 Q 123949.2 16720.4 123912 16608.8 Q 123874.8 16498.4 123408 16252.4 Q 123114 16130 123051.6 16056.8 Q 122990.4 15982.4 123015.6 15933.2 Q 123088.8 15834.8 122953.2 15724.4 Q 122818.8 15614 122769.6 15614 Q 122720.4 15614 122720.4 15491.6 Q 122720.4 15368 122720.4 15294.8 Q 122646 15048.8 122769.6 15048.8 Q 122868 15048.8 123187.2 14790.8 Q 123506.4 14532.8 123801.6 14385.2 Q 124120.8 14237.6 125178 13229.6 Q 126210 12246.8 126332.4 12272 Q 126529.2 12321.2 127094.4 11608.4 Q 127708.8 10797.2 127464 10870.4 Q 127365.6 10895.6 127365.6 10846.4 Q 127365.6 10772 127438.8 10736 Q 127512 10698.8 127795.2 10256 Q 128078.4 9814.4 128041.2 9641.6 Q 128004 9470 128090.4 9285.2 Q 128175.6 9101.6 128004 8978 Q 127856.4 8855.6 127881.6 8720 Q 127905.6 8585.6 128078.4 8487.2 Q 128200.8 8412.8 128421.6 8597.6 Q 128643.6 8782.4 128716.8 8782.4 Q 128839.2 8782.4 129355.2 9089.6 Q 129872.4 9396.8 130018.8 9543.2 Q 130584 10232 130609.2 10674.8 Q 130633.2 10919.6 130412.4 11448.8 Q 130191.6 11976.8 129921.6 12246.8 Q 129650.4 12591.2 129650.4 12664.4 Q 129650.4 12738.8 129552 12640.4 Q 129355.2 12468.8 129404.4 12591.2 Q 129404.4 12615.2 129404.4 12640.4 Q 129429.6 12738.8 129232.8 12959.6 Q 129036 13180.4 128913.6 13180.4 Q 128888.4 13180.4 128766 13316 Q 128643.6 13451.6 128496 13500.8 Q 128372.4 13500.8 128238 13623.2 Q 128102.4 13746.8 128004 13918.4 Q 127930.8 14115.2 127734 14188.4 Q 127610.4 14262.8 127561.2 14298.8 Q 127512 14336 127537.2 14361.2 Q 127537.2 14434.4 127365.6 14594 Q 127192.8 14753.6 127131.6 14668.4 Q 127070.4 14582 126922.8 14668.4 Q 126775.2 14753.6 126702 14729.6 Q 126676.8 14704.4 126664.8 14716.4 Q 126652.8 14729.6 126676.8 14802.8 Q 126702 14877.2 126517.2 14999.6 Q 126332.4 15122 126038.4 15393.2 Q 125743.2 15663.2 125522.4 15785.6 Q 125300.4 15884 125300.4 15970.4 Q 125300.4 16056.8 125497.2 16277.6 Q 125718 16547.6 125767.2 16842.8 L 125890.8 17260.4 Q 125940 17384 126332.4 17297.6 Q 126726 17211.2 126702 17063.6 Q 126652.8 16498.4 127389.6 16695.2 Q 127586.4 16744.4 127758 16695.2 Q 127930.8 16646 128692.8 16350.8 Q 129085.2 16179.2 129220.8 16265.6 Q 129355.2 16350.8 129404.4 16191.2 Q 129453.6 16031.6 129552 16031.6 Q 129872.4 16031.6 130142.4 15921.2 Q 130412.4 15810.8 130412.4 15687.2 Q 130412.4 15687.2 130486.8 15675.2 Q 130560 15663.2 130670.4 15675.2 Q 130780.8 15687.2 130904.4 15687.2 Q 131568 15785.6 131568 15834.8 Q 131568 15884 131739.6 15884 Q 131911.2 15884 131948.4 15958.4 Q 131985.6 16031.6 132330 16118 Q 132673.2 16204.4 132895.2 16425.2 Q 133263.6 16842.8 133041.6 16941.2 Q 132944.4 16916 132993.6 17014.4 Q 133017.6 17063.6 133066.8 17187.2 Q 133189.2 17384 133189.2 17445.2 Q 133189.2 17506.4 133066.8 17579.6 Q 132919.2 17727.2 132968.4 17850.8 Q 133017.6 17973.2 132944.4 17973.2 Q 132870 17973.2 132832.8 17874.8 Q 132796.8 17776.4 132476.4 17837.6 Q 132157.2 17900 131812.8 17924 Q 131420.4 17973.2 130891.2 18108.8 Q 130363.2 18243.2 130363.2 18268.4 Q 130363.2 18317.6 130302 18292.4 Q 130240.8 18268.4 130166.4 18317.6 Q 130044 18390.8 129969.6 20529.2 Q 129921.6 21659.6 129872.4 22224.8 Q 129798 23526.8 129847.2 28270.4 Q 129872.4 29720 129798 29916.8 L 129724.8 30137.6 L 129626.4 29940.8 Q 129502.8 29745.2 129404.4 29745.2 Q 129307.2 29745.2 128766 29216 Q 128224.8 28688 128029.2 28638.8 Q 127905.6 28613.6 127881.6 28540.4 Q 127856.4 28467.2 127856.4 28196 Q 127856.4 27754.4 127783.2 27754.4 Q 127758 27754.4 127746 27668 Q 127734 27581.6 127746 27434 Q 127758 27287.6 127807.2 27114.8 Q 127807.2 27090.8 127758 26721.2 Q 127635.6 25836.8 127758 25222.4 Q 127783.2 24927.2 127807.2 23859.2 Q 127832.4 22790 127905.6 21683.6 Q 127954.8 19767.2 127856.4 19644.8 Q 127783.2 19595.6 127832.4 19521.2 Q 127905.6 19373.6 127758 19373.6 Q 127464 19373.6 127242 19668.8 Q 127168.8 19767.2 127082.4 19718 Q 126996 19668.8 126861.6 19743.2 Q 126726 19816.4 126430.8 19964 Q 126111.6 20111.6 126038.4 20198 Q 125964 20283.2 125940 20553.2 Q 125595.6 25026.8 125202 25322 Q 125152.8 25371.2 125116.8 25690.4 Q 125079.6 26009.6 124957.2 26072 Q 124833.6 26133.2 124833.6 26255.6 L 124833.6 26379.2 Q 124809.6 26379.2 124735.2 26231.6 Q 124612.8 26034.8 124317.6 25727.6 Q 124022.4 25420.4 124022.4 25395.2 Q 124022.4 25371.2 123862.8 25199.6 Q 123703.2 25026.8 123752.4 24794 Q 123801.6 24560 123703.2 24412.4 L 123654 24290 Q 123654 24290 123654 24363.2 Q 123654 24510.8 123482.4 24485.6 Q 123408 24461.6 123372 24485.6 Q 123334.8 24510.8 123384 24633.2 Q 123433.2 24806 123384 24977.6 Q 123309.6 25125.2 123187.2 24977.6 Q 123138 24904.4 123039.6 24756.8 Q 122744.4 24412.4 122683.2 24412.4 Q 122622 24412.4 122413.2 24191.6 Q 122204.4 23969.6 122143.2 23969.6 Q 122080.8 23969.6 122106 23908.4 Q 122130 23847.2 122068.8 23798 Q 122007.6 23748.8 121958.4 23552 Q 121909.2 23331.2 121614 22839.2 Q 121320 22347.2 121024.8 22052 Q 120729.6 21708.8 120729.6 21598.4 Q 120729.6 21486.8 120607.2 21413.6 Q 120582 21364.4 120570 21425.6 Q 120558 21486.8 120532.8 21732.8 Q 120508.8 21978.8 120495.6 22359.2 Q 120483.6 22740.8 120483.6 23428.4 Q 120459.6 25001.6 120410.4 25505.6 Q 120361.2 26009.6 120213.6 26108 Q 120188.4 26157.2 120115.2 26328.8 Q 119992.8 26919.2 119550 27705.2 Q 119280 28148 119280 28246.4 Q 119280 28467.2 119132.4 28246.4 Q 119083.2 28124 119058 28025.6 Q 119034 27878 118984.8 27816.8 Q 118935.6 27754.4 118886.4 27803.6 Q 118788 27828.8 118750.8 27669.2 Q 118714.8 27509.6 118542 27312.8 Q 118394.4 27140 118149.6 26649.2 Q 117903.6 26157.2 117768 25763.6 Q 117633.6 25371.2 117535.2 25125.2 Q 117460.8 25026.8 117423.6 24842 Q 117387.6 24658.4 117387.6 24534.8 Q 117387.6 24412.4 117411.6 24412.4 Q 117460.8 24412.4 117842.4 24867.2 Q 118222.8 25322 118296 25272.8 Q 118394.4 25223.6 118492.8 23847.2 Q 118518 22863.2 118542 22618.4 Q 118591.2 22445.6 118506 22089.2 Q 118419.6 21732.8 118345.2 21732.8 Q 118296 21732.8 117878.4 21990.8 Q 117460.8 22248.8 117411.6 22248.8 Q 117240 22248.8 117116.4 22569.2 Q 117067.2 22667.6 116858.4 22654.4 Q 116649.6 22642.4 116502 22494.8 Q 116404.8 22396.4 116232 22396.4 Q 116133.6 22372.4 116109.6 22347.2 Q 116133.6 22248.8 116084.4 22224.8 Q 116060.4 22199.6 116023.2 22224.8 Q 115986 22248.8 115986 22274 Q 115986 22421.6 116269.2 22679.6 Q 116551.2 22937.6 116649.6 23109.2 Q 116698.8 23282 116797.2 23158.4 Q 116822.4 23134.4 116920.8 22986.8 Q 117165.6 22667.6 117362.4 22667.6 Q 117460.8 22667.6 117510 22715.6 Q 117559.2 22764.8 117535.2 22961.6 Q 117535.2 23871.2 116970 24609.2 Q 116724 24903.2 116698.8 25001.6 Q 116698.8 25174.4 116649.6 25322 Q 116600.4 25420.4 116502 25763.6 Q 116452.8 26034.8 116170.8 26673.2 Q 115887.6 27312.8 115741.2 27435.2 Q 115666.8 27533.6 115593.6 27681.2 Q 115519.2 28000.4 115347.6 27656 Q 115322.4 27582.8 115322.4 27509.6 Q 115224 27165.2 115113.6 27165.2 Q 115003.2 27165.2 115052.4 27090.8 Q 115101.6 27017.6 114942 26907.2 Q 114782.4 26796.8 114782.4 26734.4 Q 114782.4 26673.2 114609.6 26501.6 L 114414 26354 L 114585.6 26182.4 Q 114658.8 26108 114696 26021.6 Q 114733.2 25936.4 114696 25862 Q 114658.8 25788.8 114585.6 25788.8 Q 114463.2 25788.8 114450 25592 Q 114438 25395.2 114536.4 25247.6 Q 114634.8 25076 114634.8 24953.6 Q 114634.8 24830 114757.2 24756.8 Q 114930 24682.4 115162.8 23724.8 Q 115396.8 22766 115322.4 22397.6 Q 115298.4 22200.8 115420.8 22053.2 L 115593.6 21905.6 L 115420.8 21856.4 Q 115298.4 21831.2 115188 21659.6 Q 115077.6 21488 115126.8 21364.4 Q 115150.8 21266 114942 21106.4 Q 114733.2 20946.8 114733.2 20750 Q 114733.2 20602.4 114770.4 20566.4 Q 114806.4 20529.2 115028.4 20529.2 Q 115347.6 20529.2 115692 20357.6 Q 116035.2 20184.8 116121.6 20184.8 Q 116208 20184.8 116502 19964 Q 116797.2 19743.2 117067.2 19595.6 Q 117338.4 19448 117559.2 19300.4 Q 117780 19152.8 118124.4 18956 Q 118321.2 18833.6 118370.4 18772.4 Q 118419.6 18710 118370.4 18612.8 Q 118296 18489.2 118296 18317.6 Q 118296 18144.8 118234.8 18083.6 Q 118173.6 18022.4 118149.6 17776.4 Q 118124.4 17654 118075.2 17616.8 Q 118026 17579.6 117903.6 17579.6 Q 117681.6 17579.6 117681.6 17678 Q 117681.6 17727.2 117277.2 18022.4 Q 116871.6 18317.6 116797.2 18317.6 Q 116724 18317.6 116539.2 18550.4 Q 116355.6 18784.4 116232 18747.2 Q 116109.6 18710 116133.6 18845.6 Q 116158.8 18981.2 116048.4 18981.2 Q 115936.8 18981.2 115936.8 19042.4 Q 115936.8 19103.6 115838.4 19103.6 Q 115741.2 19103.6 115458 19386.8 Q 115176 19668.8 114979.2 19755.2 Q 114782.4 19841.6 114782.4 19926.8 Q 114782.4 20013.2 114475.2 20210 Q 114168 20406.8 113848.8 20726 Q 113528.4 21045.2 113455.2 21045.2 Q 113380.8 21045.2 113160 20750 Q 113110.8 20651.6 113037.6 20566.4 Q 112963.2 20480 112939.2 20505.2 Q 112890 20529.2 112840.8 20357.6 Q 112766.4 20234 112693.2 20013.2 Q 112669.2 19914.8 112570.8 19926.8 Q 112472.4 19938.8 112275.6 19841.6 Q 112152 19792.4 112128 19718 Q 112104 19644.8 112104 19422.8 Q 112104 19103.6 112029.6 19054.4 Q 111956.4 19005.2 111980.4 18808.4 Q 112005.6 18612.8 112177.2 18612.8 Q 112348.8 18612.8 112545.6 18514.4 Q 112742.4 18440 113258.4 18108.8 Q 113774.4 17776.4 113799.6 17727.2 Q 113823.6 17678 113910 17678 Q 113995.2 17678 114020.4 17628.8 Q 114044.4 17579.6 114499.2 17272.4 Q 114954 16965.2 115015.2 16965.2 Q 115077.6 16965.2 115113.6 16854.8 Q 115150.8 16744.4 115200 16793.6 Q 115298.4 16892 115396.8 16842.8 Q 115396.8 16818.8 115483.2 16732.4 Q 115568.4 16646 115716 16547.6 Q 116306.4 16155.2 115962 15761.6 Q 115765.2 15491.6 115790.4 15023.6 Q 115790.4 14729.6 115642.8 14164.4 Q 115371.6 13254.8 115519.2 13328 Q 115642.8 13402.4 116133.6 13672.4 Q 116502 13820 116600.4 13857.2 Q 116698.8 13893.2 116773.2 13770.8 Q 116846.4 13672.4 116871.6 13820 Q 116871.6 13869.2 116895.6 13942.4 Q 116970 14188.4 117092.4 14237.6 Q 117214.8 14286.8 117264 14483.6 Q 117338.4 14655.2 117486 14385.2 Q 117608.4 14262.8 117927.6 13794.8 Q 118910.4 12321.2 119058 11730.8 Q 119083.2 11608.4 119071.2 11583.2 Q 119058 11559.2 118886.4 11632.4 Q 118689.6 11730.8 118358.4 11964.8 Q 118026 12197.6 117952.8 12197.6 Q 117854.4 12197.6 117374.4 12443.6 Q 116895.6 12689.6 116797.2 12812 Q 116502 13058 115962 12492.8 Q 115568.4 12124.4 115470 12124.4 Q 115371.6 12124.4 115335.6 12014 Q 115298.4 11903.6 115212 11903.6 Q 115126.8 11903.6 115040.4 11693.6 Q 114954 11484.8 114782.4 11411.6 Q 114634.8 11362.4 114622.8 11325.2 Q 114609.6 11289.2 114658.8 11116.4 Q 114733.2 10919.6 114831.6 10919.6 Q 114930 10919.6 115420.8 10674.8 Q 115912.8 10428.8 116084.4 10305.2 Q 116257.2 10182.8 116428.8 10182.8 Q 116600.4 10182.8 116600.4 10108.4 Q 116600.4 10035.2 116773.2 10011.2 Q 117043.2 9936.8 116822.4 9249.2 Q 116698.8 8904.8 116748 8769.2 Q 116797.2 8634.8 116698.8 8548.4 Q 116600.4 8462 116600.4 8363.6 Q 116600.4 7946 116257.2 7553.6  Z M 117116.4 8548.4 Q 117019.2 8462 117019.2 8339.6 Q 117019.2 8216 116932.8 8216 Q 116846.4 8216 116895.6 8487.2 Q 116970 8928.8 117067.2 8855.6 Q 117092.4 8830.4 117165.6 8782.4 Q 117214.8 8634.8 117116.4 8548.4  Z M 129134.4 12689.6 Q 129208.8 12689.6 129208.8 12628.4 Q 129208.8 12566 129171.6 12566 Q 129134.4 12566 129097.2 12628.4 Q 129061.2 12689.6 129134.4 12689.6  Z M 119500.8 14090 Q 119500.8 13967.6 119329.2 14090 Q 119280 14115.2 119254.8 14139.2 Q 119181.6 14262.8 119107.2 14262.8 Q 119058 14262.8 118862.4 14446.4 Q 118665.6 14631.2 118665.6 14680.4 Q 118665.6 14802.8 118959.6 14655.2 Q 119107.2 14582 119304 14385.2 Q 119500.8 14188.4 119500.8 14090  Z M 117976.8 14680.4 Q 118100.4 14483.6 118100.4 14409.2 Q 118100.4 14336 117976.8 14312 Q 117854.4 14262.8 117571.2 14643.2 Q 117289.2 15023.6 117289.2 15196.4 Q 117338.4 15368 117547.2 15344 Q 117756 15318.8 117927.6 15196.4 Q 118100.4 15072.8 117976.8 14974.4 Q 117854.4 14877.2 117976.8 14680.4  Z M 132734.4 17384 Q 132846 17384 132882 17321.6 Q 132919.2 17260.4 132808.8 17260.4 Q 132698.4 17260.4 132661.2 17321.6 Q 132624 17384 132734.4 17384  Z M 118407.6 21462.8 Q 118518 21462.8 118468.8 21389.6 Q 118419.6 21315.2 118358.4 21315.2 Q 118296 21315.2 118296 21389.6 Q 118296 21462.8 118407.6 21462.8  Z M 145108.8 22642.4 Q 145329.6 22569.2 145329.6 22593.2 Q 145329.6 22618.4 145281.6 22642.4 Q 145158 22740.8 145059.6 22716.8 Q 144961.2 22691.6 145108.8 22642.4  Z M 144126 7774.4 Q 144199.2 7676 144261.6 7676 Q 144322.8 7676 144592.8 7749.2 Q 144888 7823.6 144961.2 7823.6 Q 145108.8 7823.6 145650 8278.4 Q 146190 8732 146337.6 8954 Q 146534.4 9249.2 146558.4 9899.6 Q 146583.6 10551.2 146607.6 10575.2 Q 146632.8 10600.4 147345.6 10244 Q 148058.4 9887.6 148082.4 9838.4 Q 148131.6 9765.2 148500 9702.8 Q 148869.6 9641.6 149016 9568.4 Q 149163.6 9494 149238 9580.4 Q 149311.2 9666.8 149545.2 9666.8 Q 149778 9666.8 149815.2 9740 Q 149852.4 9814.4 150122.4 9936.8 Q 150540 10059.2 150736.8 10354.4 Q 150933.6 10649.6 150859.2 10919.6 Q 150786 11092.4 150762 11386.4 L 150762 11706.8 L 149852.4 12148.4 Q 148918.8 12640.4 148684.8 12800 Q 148450.8 12959.6 148450.8 13082 Q 148450.8 13254.8 148525.2 13353.2 Q 148598.4 13451.6 148476 13550 Q 148401.6 13599.2 148353.6 13942.4 Q 148304.4 14286.8 148353.6 14385.2 Q 148426.8 14483.6 148734 14385.2 Q 149041.2 14286.8 149200.8 14373.2 Q 149360.4 14458.4 149484 14409.2 Q 149606.4 14360 149815.2 14568.8 Q 150024 14778.8 150183.6 14778.8 Q 150343.2 14778.8 150626.4 15086 Q 150908.4 15393.2 150859.2 15614 Q 150786 15884 150724.8 15945.2 Q 150663.6 16007.6 150343.2 16080.8 Q 149974.8 16179.2 149287.2 16449.2 Q 148328.4 16817.6 148549.2 16646 L 148549.2 16596.8 Q 148476 16622 148476 16707.2 Q 148476 16793.6 148414.8 16854.8 Q 148353.6 16916 148353.6 17776.4 Q 148353.6 18636.8 148414.8 18723.2 Q 148476 18808.4 149090.4 18611.6 Q 149803.2 18416 151006.8 18120.8 Q 151252.8 18071.6 151314 18034.4 Q 151376.4 17997.2 152040 17886.8 Q 152702.4 17776.4 152702.4 17715.2 Q 152702.4 17654 153379.2 17654 Q 154054.8 17654 154128 17752.4 Q 154202.4 17850.8 154350 17813.6 Q 154497.6 17776.4 154767.6 17874.8 Q 154939.2 17924 154988.4 17961.2 Q 155037.6 17997.2 155013.6 18095.6 Q 154964.4 18243.2 155086.8 18243.2 Q 155209.2 18243.2 155209.2 18292.4 Q 155209.2 18341.6 155344.8 18390.8 Q 155480.4 18440 155529.6 18575.6 Q 155578.8 18710 155640 18710 Q 155701.2 18710 155984.4 19030.4 Q 156266.4 19349.6 156340.8 19472 Q 156364.8 19619.6 156217.2 19694 Q 155947.2 19914.8 156168 20062.4 Q 156266.4 20160.8 156266.4 20259.2 Q 156266.4 20357.6 156193.2 20357.6 Q 156094.8 20357.6 155860.8 20418.8 Q 155628 20480 155565.6 20369.6 Q 155504.4 20259.2 155222.4 20344.4 Q 154939.2 20430.8 154657.2 20393.6 Q 154374 20357.6 153576 20468 Q 152776.8 20578.4 152150.4 20602.4 Q 151522.8 20627.6 151081.2 20726 Q 150712.8 20750 149704.8 21020 Q 148696.8 21291.2 148660.8 21327.2 Q 148623.6 21364.4 148635.6 22384.4 Q 148647.6 23404.4 148696.8 23723.6 Q 148795.2 24117.2 148771.2 25580 Q 148746 27041.6 148696.8 27410 Q 148647.6 27606.8 148623.6 27693.2 Q 148598.4 27778.4 148525.2 27766.4 Q 148450.8 27754.4 148401.6 27864.8 Q 148353.6 27975.2 148279.2 28295.6 Q 148107.6 29056.4 147984 29056.4 Q 147934.8 29056.4 147861.6 29376.8 Q 147763.2 29597.6 147714 29597.6 Q 147690 29524.4 147615.6 29536.4 Q 147542.4 29548.4 147432 29302.4 Q 147320.4 29056.4 147247.2 29020.4 Q 147172.8 28983.2 147001.2 28638.8 Q 146829.6 28295.6 146706 28160 Q 146583.6 28024.4 146583.6 27902 Q 146583.6 27778.4 146473.2 27742.4 Q 146362.8 27705.2 146398.8 26267.6 Q 146436 24830 146485.2 23625.2 Q 146558.4 22102.4 146362.8 22102.4 Q 146239.2 22126.4 145882.8 22224.8 Q 145526.4 22323.2 145195.2 22482.8 Q 144862.8 22642.4 144777.6 22642.4 Q 144691.2 22642.4 144764.4 22740.8 Q 144912 22790 144715.2 22863.2 Q 144642 22888.4 144297.6 23036 Q 143757.6 23232.8 142651.2 23784.8 Q 141546 24338 141127.2 24510.8 Q 140808 24633.2 140697.6 24633.2 Q 140587.2 24633.2 140317.2 24534.8 Q 139358.4 24264.8 138793.2 23723.6 Q 138350.4 23331.2 138178.8 23183.6 Q 138006 23036 137982 22790 Q 137932.8 22618.4 137956.8 22556 Q 137982 22494.8 138153.6 22470.8 Q 138375.6 22445.6 138694.8 22445.6 Q 139014 22445.6 139358.4 22311.2 Q 139702.8 22175.6 139849.2 22175.6 Q 139996.8 22175.6 139996.8 22077.2 Q 139996.8 22053.2 140685.6 21696.8 Q 141373.2 21340.4 141496.8 21315.2 Q 141546 21315.2 141865.2 21155.6 Q 142184.4 20996 142306.8 20996 Q 142430.4 20996 142430.4 20946.8 Q 142430.4 20897.6 142700.4 20811.2 Q 142970.4 20726 143314.8 20553.2 L 143634 20405.6 L 143438.4 20184.8 Q 143241.6 19964 143241.6 19816.4 Q 143143.2 19226 143094 18636.8 Q 143044.8 17727.2 142934.4 17321.6 Q 142824 16916 142503.6 16622 Q 142306.8 16425.2 142306.8 16338.8 Q 142306.8 16252.4 142479.6 16104.8 Q 142651.2 16007.6 142872 16092.8 Q 143094 16179.2 143302.8 16203.2 Q 143511.6 16228.4 143535.6 16301.6 Q 143634 16449.2 144396 16154 Q 144961.2 15909.2 144998.4 15896 Q 145035.6 15884 145502.4 15651.2 Q 145969.2 15417.2 146239.2 15294.8 L 146485.2 15147.2 L 146485.2 14582 Q 146485.2 13991.6 146386.8 13967.6 Q 146288.4 13942.4 145993.2 14078 Q 145699.2 14213.6 145502.4 14409.2 Q 145207.2 14680.4 144937.2 14336 Q 144838.8 14213.6 144764.4 14213.6 Q 144691.2 14213.6 144506.4 14052.8 Q 144322.8 13893.2 144100.8 13770.8 Q 143880 13647.2 143880 13536.8 Q 143880 13426.4 143659.2 13328 Q 143511.6 13229.6 143253.6 12971.6 Q 142995.6 12713.6 142995.6 12664.4 Q 142995.6 12615.2 142897.2 12516.8 Q 142774.8 12418.4 142798.8 12246.8 Q 142824 12075.2 142995.6 12000.8 Q 143216.4 11878.4 143326.8 11878.4 Q 143438.4 11878.4 143401.2 11620.4 Q 143364 11362.4 143413.2 11362.4 Q 143462.4 11362.4 143659.2 10919.6 L 144126 9960.8 Q 144445.2 9371.6 144445.2 8843.6 Q 144445.2 8314.4 144126 8117.6 Q 143929.2 7946 144126 7774.4  Z M 150098.4 11780 Q 150049.2 11730.8 149986.8 11756 Q 149925.6 11780 149163.6 12197.6 Q 148353.6 12615.2 148401.6 12664.4 Q 148476 12664.4 148918.8 12468.8 Q 149360.4 12272 149742 12050 Q 150122.4 11829.2 150098.4 11780  Z M 146386.8 17727.2 Q 146558.4 17555.6 145969.2 17850.8 L 145772.4 17949.2 Q 145232.4 18243.2 145232.4 18305.6 Q 145232.4 18366.8 145256.4 18366.8 Q 145281.6 18366.8 145809.6 18071.6 Q 146337.6 17776.4 146386.8 17727.2  Z M 146436 18416 Q 146412 17874.8 146374.8 17874.8 Q 146337.6 17874.8 145896 18120.8 Q 145453.2 18366.8 145342.8 18402.8 Q 145232.4 18440 145232.4 19005.2 Q 145232.4 19570.4 145158 19743.2 Q 145108.8 19938.8 145453.2 19841.6 Q 145600.8 19792.4 145821.6 19668.8 Q 146215.2 19497.2 146362.8 19472 Q 146461.2 19472 146473.2 19275.2 Q 146485.2 19079.6 146436 18416  Z M 175190.4 21978.8 Q 175288.8 21831.2 175878 21868.4 Q 176468.4 21905.6 177291.6 22286 Q 178114.8 22667.6 178249.2 22778 Q 178384.8 22888.4 178581.6 22961.6 Q 178778.4 23036 178778.4 23146.4 Q 178778.4 23256.8 178912.8 23256.8 Q 179048.4 23256.8 179097.6 23355.2 Q 179146.8 23453.6 179343.6 23502.8 Q 179466 23552 179491.2 23613.2 Q 179515.2 23674.4 179515.2 23896.4 Q 179515.2 24215.6 179589.6 24485.6 L 179662.8 24731.6 Q 179662.8 24731.6 179564.4 24633.2 Q 179466 24560 179428.8 24572 Q 179392.8 24584 179367.6 24780.8 Q 179318.4 25026.8 179416.8 25235.6 Q 179515.2 25444.4 179416.8 25566.8 Q 179318.4 25690.4 179367.6 26009.6 Q 179392.8 26328.8 179343.6 26354 Q 179294.4 26328.8 179294.4 26476.4 Q 179294.4 26624 179318.4 26943.2 Q 179343.6 27606.8 179257.2 27705.2 Q 179170.8 27803.6 179196 28246.4 Q 179220 28368.8 179220 28467.2 Q 179220 28565.6 179220 28626.8 Q 179220 28688 179220 28688 Q 179196 28688 178790.4 28246.4 Q 178384.8 27803.6 178286.4 27803.6 Q 178213.2 27803.6 178028.4 27644 Q 177844.8 27484.4 177672 27311.6 Q 177500.4 27140 177524.4 27116 Q 177549.6 27090.8 177500.4 27066.8 Q 177475.2 27066.8 177451.2 27041.6 Q 177327.6 27017.6 177242.4 26795.6 Q 177156 26574.8 177205.2 26354 Q 177230.4 26009.6 176664 24780.8 Q 176468.4 24387.2 176098.8 23786 Q 175730.4 23183.6 175546.8 23024 Q 175362 22864.4 175387.2 22740.8 Q 175411.2 22618.4 175338 22520 Q 175042.8 22200.8 175190.4 21978.8  Z M 161464.8 15945.2 Q 161230.8 15712.4 161230.8 15614 Q 161230.8 15515.6 161451.6 15564.8 Q 161648.4 15588.8 162668.4 16092.8 Q 163688.4 16596.8 163909.2 16769.6 Q 164056.8 16892 164068.8 17014.4 Q 164082 17138 164082 17678 Q 164056.8 18735.2 163639.2 20320.4 Q 163221.6 21905.6 163000.8 21905.6 Q 162951.6 21905.6 162889.2 22138.4 Q 162828 22372.4 162705.6 22569.2 L 162558 22740.8 L 162410.4 22470.8 Q 162361.2 22323.2 162300 22250 Q 162238.8 22175.6 162189.6 22187.6 Q 162140.4 22200.8 162066 22126.4 Q 161992.8 22053.2 161870.4 21905.6 Q 161673.6 21537.2 161648.4 21537.2 Q 161526 21537.2 161304 20946.8 Q 161083.2 20357.6 161108.4 20135.6 Q 161230.8 19079.6 161378.4 18710 Q 161500.8 18292.4 161636.4 17506.4 Q 161772 16720.4 161722.8 16326.8 Q 161697.6 16179.2 161464.8 15945.2  Z M 163688.4 8782.4 Q 163836 8684 163946.4 8684 Q 164056.8 8684 164450.4 8855.6 Q 164818.8 8978 165126 9162.8 Q 165433.2 9347.6 165433.2 9420.8 Q 165433.2 9470 165531.6 9470 Q 165630 9470 166146 9740 Q 166465.2 9912.8 166539.6 9986 Q 166612.8 10059.2 166588.8 10133.6 Q 166563.6 10305.2 166711.2 10527.2 Q 166809.6 10698.8 166833.6 10932.8 Q 166858.8 11165.6 166809.6 12026 Q 166711.2 15122 166809.6 15122 Q 166858.8 15122 166882.8 15023.6 Q 166957.2 14950.4 167313.6 14778.8 Q 167670 14606 167817.6 14631.2 Q 168038.4 14631.2 168087.6 14606 Q 168186 14582 168517.2 14643.2 Q 168849.6 14704.4 168873.6 14753.6 Q 168948 14828 169070.4 14828 Q 169194 14828 169194 14901.2 Q 169194 14999.6 169537.2 15306.8 Q 169881.6 15614 169980 15614 Q 170078.4 15614 170090.4 15651.2 Q 170102.4 15687.2 170053.2 15785.6 Q 169954.8 15958.4 169759.2 16031.6 Q 169562.4 16106 169218 16376 Q 168062.4 17309.6 167350.8 17384 Q 167030.4 17384 166981.2 17384 Q 166882.8 17408 166809.6 21070.4 Q 166785.6 23429.6 166748.4 23847.2 Q 166711.2 24264.8 166612.8 25174.4 Q 166514.4 26648 166392 26870 Q 166342.8 27017.6 166366.8 27116 Q 166392 27214.4 166293.6 27632 Q 166195.2 28049.6 166122 28073.6 Q 166047.6 28122.8 166047.6 28319.6 Q 166047.6 28516.4 165986.4 28553.6 Q 165925.2 28589.6 165925.2 28786.4 Q 165925.2 29327.6 165604.8 28786.4 Q 165409.2 28443.2 165285.6 28443.2 Q 165163.2 28443.2 164893.2 28024.4 Q 164818.8 27902 164745.6 27803.6 Q 164671.2 27705.2 164635.2 27668 Q 164598 27632 164598 27632 L 164474.4 27508.4 Q 164204.4 27041.6 164253.6 26870 Q 164278.8 26697.2 164229.6 26648 Q 164032.8 26427.2 164155.2 26206.4 Q 164229.6 26082.8 164328 25001.6 L 164425.2 23847.2 Q 164548.8 22299.2 164671.2 18440 Q 164794.8 14582 164671.2 14409.2 Q 164647.2 14336 164622 13131.2 Q 164499.6 10895.6 164278.8 10059.2 Q 164229.6 9814.4 163897.2 9408.8 Q 163566 9003.2 163566 8928.8 Q 163566 8855.6 163688.4 8782.4  Z M 172118.4 8363.6 Q 172216.8 8192 172449.6 8229.2 Q 172683.6 8265.2 172744.8 8327.6 Q 172806 8388.8 172977.6 8388.8 Q 173150.4 8388.8 173481.6 8720 Q 173814 9052.4 174194.4 9298.4 Q 174576 9543.2 174674.4 9765.2 Q 174870 10157.6 174772.8 12148.4 L 174698.4 13083.2 L 174846 13058 Q 175017.6 13008.8 175582.8 12971.6 Q 176148 12935.6 176234.4 12788 Q 176320.8 12640.4 176616 12615.2 Q 176910 12591.2 177451.2 12922.4 Q 177991.2 13254.8 178213.2 13353.2 Q 178434 13451.6 178950 13869.2 L 179416.8 14262.8 L 179367.6 14704.4 Q 179318.4 15147.2 179220 15245.6 Q 179121.6 15393.2 178851.6 16019.6 Q 178581.6 16646 178605.6 16695.2 Q 178654.8 16817.6 178999.2 16646 Q 179170.8 16547.6 179269.2 16608.8 Q 179367.6 16671.2 179736 16720.4 Q 180031.2 16744.4 180253.2 16880 Q 180474 17014.4 180498 17112.8 Q 180498 17408 181039.2 17506.4 Q 181285.2 17530.4 181358.4 17579.6 Q 181432.8 17628.8 181432.8 17727.2 Q 181407.6 17874.8 181456.8 17874.8 Q 181506 17874.8 181628.4 18132.8 Q 181752 18390.8 181776 18612.8 Q 181776 18636.8 182047.2 18759.2 L 182366.4 18833.6 L 182071.2 18932 Q 181825.2 19030.4 181690.8 18944 Q 181555.2 18857.6 180474 18882.8 Q 179392.8 18906.8 178802.4 19005.2 Q 178016.4 19128.8 175779.6 19694 Q 175435.2 19767.2 175338 19767.2 Q 175239.6 19767.2 174993.6 19841.6 Q 174820.8 19889.6 174759.6 20001.2 Q 174698.4 20111.6 174576 20726 Q 174501.6 21045.2 174526.8 21118.4 Q 174820.8 21561.2 174109.2 22494.8 Q 173863.2 22815.2 173863.2 22888.4 Q 173863.2 22986.8 173125.2 24485.6 Q 172388.4 26009.6 171847.2 26820.8 Q 171504 27238.4 171429.6 27435.2 Q 171331.2 27606.8 171012 28000.4 Q 170692.8 28394 170520 28540.4 Q 170176.8 28811.6 170078.4 28418 Q 169980 28172 170017.2 28110.8 Q 170053.2 28049.6 169844.4 27902 Q 169635.6 27754.4 169635.6 27656 Q 169635.6 27557.6 169438.8 27287.6 Q 169243.2 26992.4 169291.2 26108 Q 169291.2 25714.4 169267.2 25566.8 Q 169243.2 25419.2 169389.6 25395.2 Q 169759.2 25322 169574.4 25149.2 Q 169389.6 24977.6 169537.2 24977.6 Q 169562.4 24977.6 169586.4 25001.6 Q 169710 25026.8 169710 24916.4 Q 169710 24804.8 169635.6 24804.8 Q 169562.4 24804.8 169635.6 24707.6 Q 169710 24609.2 169918.8 24621.2 Q 170127.6 24633.2 170299.2 24436.4 Q 170840.4 23723.6 171380.4 22494.8 L 171823.2 21462.8 Q 172240.8 20529.2 172044 20529.2 Q 171945.6 20529.2 170779.2 20934.8 Q 169611.6 21340.4 169464 21352.4 Q 169316.4 21364.4 169194 21413.6 Q 168922.8 21561.2 168062.4 20873.6 Q 167817.6 20676.8 167658 20639.6 Q 167497.2 20602.4 167337.6 20369.6 Q 167178 20135.6 167128.8 19889.6 Q 167104.8 19694 167128.8 19631.6 Q 167154 19570.4 167325.6 19422.8 Q 167620.8 19275.2 168014.4 19227.2 Q 168406.8 19178 169513.2 18808.4 Q 170618.4 18440 171712.8 18132.8 Q 172806 17825.6 172867.2 17764.4 Q 172929.6 17703.2 172904.4 16941.2 L 172880.4 16203.2 L 172585.2 16252.4 Q 172339.2 16252.4 172105.2 16179.2 Q 171872.4 16106 171086.4 15736.4 Q 169930.8 15147.2 169930.8 14828 Q 169930.8 14606 170889.6 14409.2 Q 171134.4 14336 171982.8 14040.8 Q 172831.2 13745.6 172904.4 13721.6 Q 172929.6 13697.6 172929.6 12296 Q 172929.6 10133.6 172732.8 9666.8 Q 172683.6 9494 172425.6 9137.6 Q 172167.6 8782.4 172069.2 8733.2 Q 171945.6 8634.8 172118.4 8363.6  Z M 175558.8 16474.4 Q 175608 16350.8 175718.4 15896 Q 175828.8 15442.4 175804.8 15417.2 Q 175779.6 15393.2 175362 15552.8 Q 174944.4 15712.4 174870 15761.6 Q 174796.8 15834.8 174723.6 16572.8 L 174698.4 17309.6 L 175042.8 17285.6 Q 175338 17236.4 175423.2 17162 Q 175509.6 17088.8 175509.6 16842.8 Q 175509.6 16596.8 175558.8 16474.4  Z M 203600.4 24560 Q 203649.6 24436.4 203673.6 24485.6 Q 203697.6 24534.8 203734.8 24609.2 Q 203772 24682.4 203734.8 24719.6 Q 203697.6 24756.8 203673.6 24756.8 Q 203600.4 24756.8 203600.4 24560  Z M 204312 23256.8 Q 204238.8 23256.8 204288 23183.6 Q 204337.2 23109.2 204361.2 23109.2 Q 204386.4 23109.2 204386.4 23183.6 Q 204386.4 23256.8 204312 23256.8  Z M 199077.6 20676.8 Q 199299.6 20627.6 199520.4 20726 Q 199741.2 20824.4 199888.8 20824.4 Q 200085.6 20824.4 200970 21143.6 Q 201854.4 21462.8 202002 21586.4 Q 202198.8 21758 202395.6 21758 Q 202592.4 21758 202641.6 21856.4 Q 202665.6 21880.4 202665.6 21893.6 Q 202665.6 21905.6 202592.4 21880.4 Q 202543.2 21807.2 202494 21880.4 Q 202494 21905.6 202567.2 21966.8 Q 202641.6 22028 202740 22077.2 Q 203035.2 22224.8 203120.4 22347.2 Q 203206.8 22470.8 203230.8 22445.6 Q 203280 22372.4 203390.4 22482.8 Q 203502 22593.2 203526 22716.8 Q 203526 22839.2 203502 22839.2 Q 203427.6 22740.8 203329.2 22888.4 Q 203230.8 23036 203452.8 23232.8 Q 203673.6 23429.6 203587.2 23465.6 Q 203502 23502.8 203551.2 23847.2 Q 203600.4 24142.4 203526 24142.4 Q 203452.8 24117.2 203342.4 24203.6 Q 203230.8 24288.8 203194.8 24633.2 Q 203157.6 24977.6 203256 25296.8 Q 203329.2 25616 203268 25690.4 Q 203206.8 25763.6 203230.8 25862 Q 203256 25936.4 203157.6 25936.4 Q 203108.4 25936.4 203035.2 25911.2 Q 202887.6 25887.2 202862.4 25911.2 Q 202838.4 25936.4 202838.4 26132 Q 202838.4 26501.6 202752 26501.6 Q 202665.6 26501.6 202322.4 26206.4 Q 201903.6 25763.6 201720 25284.8 Q 201535.2 24804.8 201535.2 24645.2 Q 201535.2 24485.6 201462 24436.4 Q 201387.6 24387.2 201387.6 24227.6 Q 201387.6 24068 201289.2 23932.4 Q 201192 23798 201093.6 23453.6 Q 200995.2 23109.2 200932.8 23109.2 Q 200871.6 23109.2 200798.4 22864.4 Q 200674.8 22618.4 199888.8 21684.8 Q 199668 21413.6 199593.6 21303.2 Q 199520.4 21192.8 199422 21192.8 Q 199323.6 21192.8 199102.8 20946.8 L 198880.8 20726 L 199077.6 20676.8 Z M 190058.4 20897.6 Q 190058.4 20627.6 190144.8 20590.4 Q 190230 20553.2 190255.2 20553.2 Q 190304.4 20553.2 190537.2 20934.8 Q 190771.2 21315.2 190771.2 21389.6 Q 190771.2 21512 190906.8 21732.8 Q 191041.2 21954.8 191078.4 22212.8 Q 191115.6 22470.8 191200.8 22470.8 Q 191287.2 22470.8 191533.2 22212.8 Q 191779.2 21954.8 191815.2 22089.2 Q 191852.4 22224.8 191803.2 22347.2 Q 191754 22470.8 191852.4 22470.8 Q 191926.8 22470.8 192012 22396.4 Q 192098.4 22323.2 192135.6 22508 Q 192171.6 22691.6 191852.4 23060 Q 191655.6 23306 191496 23687.6 Q 191336.4 24068 191336.4 24314 Q 191336.4 24412.4 191151.6 24940.4 Q 190968 25468.4 190820.4 25739.6 Q 190304.4 26771.6 189739.2 27238.4 Q 189664.8 27311.6 189603.6 27360.8 Q 189542.4 27410 189505.2 27435.2 Q 189469.2 27459.2 189420 27435.2 Q 189394.8 27386 189308.4 27189.2 Q 189223.2 26992.4 189223.2 26968.4 Q 189223.2 26894 188989.2 26648 Q 188756.4 26403.2 188792.4 26292.8 Q 188829.6 26181.2 188731.2 26082.8 Q 188510.4 25985.6 188731.2 25763.6 Q 188854.8 25665.2 188780.4 25641.2 Q 188707.2 25616 188707.2 25468.4 Q 188707.2 25322 188583.6 25322 Q 188461.2 25322 188461.2 25247.6 Q 188461.2 25174.4 188362.8 25174.4 Q 188240.4 25174.4 188227.2 25088 Q 188215.2 25001.6 188337.6 24879.2 Q 188461.2 24731.6 188461.2 24658.4 Q 188461.2 24584 188719.2 24302 Q 188977.2 24018.8 188977.2 23945.6 Q 188977.2 23871.2 189321.6 23109.2 Q 190058.4 21512 190058.4 20897.6  Z M 196891.2 8585.6 Q 196816.8 8511.2 196903.2 8426 Q 196988.4 8339.6 197100 8376.8 Q 197210.4 8412.8 197480.4 8462 Q 197750.4 8511.2 197750.4 8560.4 Q 197750.4 8609.6 197848.8 8609.6 Q 198120 8609.6 199372.8 9470 Q 199839.6 9789.2 199926 9924.8 Q 200011.2 10059.2 199839.6 10281.2 Q 199692 10452.8 199717.2 10502 Q 199741.2 10551.2 199668 10736 Q 199593.6 10919.6 199471.2 10919.6 Q 199126.8 10919.6 198045.6 11976.8 Q 196816.8 13180.4 196816.8 12886.4 Q 196816.8 12762.8 196521.6 13008.8 Q 196497.6 13034 196472.4 13058 Q 196129.2 13402.4 195759.6 13500.8 Q 195613.2 13574 195292.8 13794.8 Q 194973.6 14016.8 194973.6 14066 Q 194973.6 14115.2 195367.2 14139.2 Q 196251.6 14237.6 196669.2 14409.2 Q 196915.2 14532.8 197456.4 14753.6 Q 197898 14926.4 198033.6 15110 Q 198168 15294.8 198168 15761.6 Q 198168 16155.2 198242.4 16203.2 Q 198266.4 16203.2 198340.8 16130 Q 198439.2 16056.8 198844.8 15945.2 Q 199250.4 15834.8 199495.2 15834.8 Q 199864.8 15834.8 200196 15970.4 Q 200528.4 16106 200650.8 16106 Q 200773.2 16106 200970 16252.4 Q 201166.8 16400 201462 16449.2 Q 201757.2 16498.4 201952.8 16646 L 202125.6 16817.6 L 201903.6 16990.4 Q 201658.8 17138 201732 17211.2 Q 201806.4 17285.6 201670.8 17445.2 Q 201535.2 17604.8 201387.6 17604.8 Q 201265.2 17604.8 201204 17776.4 Q 201142.8 17949.2 200920.8 17936 Q 200700 17924 200638.8 18010.4 Q 200577.6 18095.6 200294.4 18194 Q 200011.2 18292.4 199914 18353.6 Q 199815.6 18416 199815.6 18317.6 Q 199815.6 18219.2 199704 18366.8 Q 199593.6 18514.4 199557.6 18465.2 Q 199520.4 18416 199274.4 18587.6 Q 198955.2 18784.4 198734.4 18759.2 Q 198709.2 18759.2 198697.2 18772.4 Q 198685.2 18784.4 198685.2 18833.6 Q 198685.2 18906.8 198573.6 18906.8 Q 198463.2 18906.8 198463.2 18968 Q 198463.2 19030.4 198328.8 19066.4 Q 198193.2 19103.6 198132 19656.8 Q 198070.8 20210 198045.6 20393.6 Q 198021.6 20578.4 197996.4 23306 Q 197996.4 25468.4 197935.2 26046.8 Q 197874 26624 197677.2 26746.4 Q 197480.4 26844.8 197344.8 27287.6 Q 197210.4 27730.4 197185.2 28197.2 Q 197185.2 28319.6 197086.8 28295.6 Q 197037.6 28270.4 196988.4 28331.6 Q 196939.2 28394 196915.2 28565.6 L 196842 28860.8 Q 196816.8 28860.8 196767.6 28737.2 L 196694.4 28565.6 L 196645.2 28737.2 Q 196570.8 28884.8 196570.8 28884.8 Q 196570.8 28884.8 196190.4 28688 Q 195808.8 28491.2 195576 28061.6 Q 195342 27632 194924.4 27165.2 Q 193867.2 25911.2 193720.8 25125.2 Q 193671.6 24780.8 193941.6 24952.4 Q 194014.8 25001.6 194113.2 25100 Q 194605.2 25517.6 195121.2 25517.6 Q 195243.6 25517.6 195219.6 25432.4 Q 195194.4 25346 195280.8 25259.6 Q 195367.2 25174.4 195489.6 24560 Q 195564 24044 195564 22790 Q 195564 21537.2 195440.4 20946.8 Q 195391.2 20553.2 195306 20517.2 Q 195219.6 20480 194851.2 20651.6 Q 194654.4 20750 194556 20750 Q 194457.6 20750 194457.6 20824.4 Q 194457.6 20897.6 194260.8 20934.8 Q 194064 20972 193756.8 21291.2 Q 193449.6 21610.4 193302 21561.2 Q 192417.6 21143.6 192171.6 20984 Q 191926.8 20824.4 191828.4 20651.6 Q 191730 20430.8 191570.4 20357.6 Q 191409.6 20283.2 191409.6 20184.8 Q 191409.6 20086.4 191287.2 19952 Q 191164.8 19816.4 191176.8 19534.4 Q 191188.8 19251.2 191017.2 19152.8 Q 190893.6 19079.6 190893.6 19054.4 Q 190893.6 19030.4 191017.2 18906.8 Q 191164.8 18759.2 191336.4 18857.6 Q 191606.4 18932 191582.4 18784.4 Q 191582.4 18759.2 191533.2 18735.2 Q 191434.8 18660.8 191409.6 18563.6 Q 191385.6 18390.8 192024 17949.2 Q 192246 17801.6 192417.6 16474.4 Q 192541.2 15663.2 192614.4 15281.6 Q 192687.6 14901.2 192614.4 14753.6 Q 192541.2 14606 192541.2 14286.8 Q 192541.2 13967.6 192393.6 13820 Q 192246 13672.4 192319.2 13550 Q 192393.6 13426.4 192246 13328 Q 192171.6 13278.8 192135.6 13205.6 Q 192098.4 13131.2 192110.4 13095.2 Q 192122.4 13058 192196.8 13034 Q 192295.2 13034 192356.4 13020.8 Q 192417.6 13008.8 192565.2 12996.8 Q 192712.8 12984.8 192945.6 12762.8 Q 193179.6 12542 193266 12542 Q 193351.2 12542 193498.8 12406.4 Q 193646.4 12272 193695.6 12272 Q 193819.2 12272 194776.8 11534 Q 195514.8 10968.8 196129.2 10354.4 Q 196423.2 10084.4 196460.4 9998 Q 196497.6 9912.8 196423.2 9863.6 Q 196300.8 9740 196436.4 9592.4 Q 196570.8 9444.8 196669.2 9371.6 Q 196767.6 9322.4 196878 9003.2 Q 196988.4 8684 196891.2 8585.6  Z M 195121.2 14458.4 Q 194678.4 14139.2 194629.2 14409.2 Q 194580 14582 194580 15318.8 Q 194580 16326.8 194481.6 16720.4 Q 194433.6 17039.6 194408.4 17236.4 Q 194384.4 17432 194371.2 17579.6 Q 194359.2 17727.2 194359.2 17776.4 Q 194359.2 17825.6 194408.4 17825.6 Q 194457.6 17825.6 195133.2 17506.4 Q 195808.8 17187.2 195808.8 17162 Q 195808.8 17138 195698.4 16916 Q 195588 16695.2 195564 16031.6 Q 195538.8 15294.8 195440.4 14987.6 Q 195342 14680.4 195121.2 14458.4  Z M 201093.6 17555.6 Q 201166.8 17555.6 201166.8 17481.2 Q 201166.8 17408 201093.6 17408 Q 201019.2 17408 201019.2 17481.2 Q 201019.2 17555.6 201093.6 17555.6  Z M 191754 18906.8 Q 191828.4 18906.8 191828.4 18833.6 Q 191828.4 18759.2 191754 18759.2 Q 191680.8 18759.2 191680.8 18833.6 Q 191680.8 18906.8 191754 18906.8  Z M 219427.2 23920.4 L 219451.2 23306 L 219894 23576 Q 220557.6 23994.8 221221.2 24584 L 221810.4 25100 Q 222204 25444.4 221908.8 25714.4 L 221688 26009.6 Q 221540.4 26132 221467.2 26354 Q 221442 26476.4 221355.6 26525.6 Q 221270.4 26574.8 220926 26624 Q 220410 26697.2 220189.2 26574.8 Q 219967.2 26452.4 219931.2 26255.6 Q 219894 26058.8 219746.4 25788.8 Q 219402 25125.2 219427.2 23920.4  Z M 221540.4 22102.4 Q 221467.2 22102.4 221467.2 22028 Q 221467.2 21954.8 221540.4 21954.8 Q 221613.6 21954.8 221613.6 22028 Q 221613.6 22102.4 221540.4 22102.4  Z M 219955.2 12062 Q 219967.2 11091.2 220004.4 10882.4 Q 220041.6 10673.6 220114.8 10673.6 Q 220311.6 10673.6 221257.2 11472.8 Q 222204 12270.8 222253.2 12492.8 Q 222302.4 12688.4 222290.4 13511.6 Q 222277.2 14336 222228 14901.2 Q 222178.8 15564.8 222178.8 15884 Q 222178.8 16227.2 222093.6 16805.6 Q 222007.2 17382.8 221958 17432 Q 221859.6 17530.4 221908.8 17652.8 Q 221958 17751.2 221958 18046.4 Q 221958 18341.6 221908.8 18562.4 Q 221908.8 18636.8 221884.8 18672.8 Q 221859.6 18710 221810.4 18684.8 Q 221737.2 18684.8 221737.2 18759.2 Q 221712 18832.4 221662.8 18710 Q 221662.8 18684.8 221638.8 18636.8 L 221540.4 18440 L 221515.2 18734 Q 221589.6 19005.2 221638.8 19005.2 Q 221712 18956 221737.2 19054.4 Q 221810.4 19127.6 221725.2 19214 Q 221638.8 19299.2 221540.4 19299.2 Q 221392.8 19299.2 221467.2 19446.8 Q 221491.2 19472 221540.4 19496 Q 221662.8 19521.2 221650.8 19718 Q 221638.8 19913.6 221540.4 20012 Q 221467.2 20135.6 221467.2 20283.2 Q 221467.2 20454.8 221491.2 20430.8 Q 221491.2 20430.8 221515.2 20381.6 Q 221613.6 20234 221564.4 20184.8 Q 221515.2 20135.6 221662.8 20049.2 Q 221810.4 19962.8 221810.4 20098.4 Q 221810.4 20234 221737.2 20234 Q 221662.8 20234 221662.8 20430.8 Q 221662.8 20577.2 221638.8 20688.8 Q 221613.6 20799.2 221564.4 20860.4 Q 221515.2 20921.6 221491.2 20897.6 Q 221442 20848.4 221418 20946.8 Q 221392.8 20996 221418 21008 Q 221442 21020 221491.2 21020 Q 221688 20996 221737.2 21057.2 Q 221786.4 21118.4 221786.4 21364.4 Q 221737.2 21929.6 221712 21929.6 Q 221688 21929.6 221638.8 21904.4 Q 221515.2 21782 221380.8 21953.6 Q 221245.2 22126.4 221245.2 22323.2 L 221245.2 22593.2 L 220876.8 22544 Q 220508.4 22544 220410 22408.4 Q 220311.6 22274 220262.4 22371.2 Q 220213.2 22469.6 220164 22457.6 Q 220114.8 22445.6 220114.8 22359.2 Q 220114.8 22274 219943.2 22175.6 Q 219648 22052 219549.6 21254 Q 219451.2 20454.8 219598.8 19299.2 Q 219648 18562.4 219697.2 17469.2 Q 219746.4 16374.8 219770.4 16006.4 Q 219795.6 15638 219856.8 14531.6 Q 219918 13426.4 219931.2 13229.6 Q 219943.2 13032.8 219955.2 12062  Z M 221859.6 17973.2 Q 221884.8 17900 221859.6 17825.6 L 221810.4 17924 L 221859.6 17973.2 Z " fill-rule="nonzero" style="fill:#ffd96d;;fill-opacity:1;"/>
</svg>